<?xml version="1.0" standalone="no"?>
<!DOCTYPE svg PUBLIC "-//W3C//DTD SVG 1.1//EN" "http://www.w3.org/Graphics/SVG/1.1/DTD/svg11.dtd" >
<svg xmlns="http://www.w3.org/2000/svg" xmlns:xlink="http://www.w3.org/1999/xlink" version="1.1">
<metadata></metadata>
<defs>
<font id="condensed-codingbold_italic" horiz-adv-x="1060" >
<font-face units-per-em="2048" ascent="1683" descent="-365" />
<missing-glyph horiz-adv-x="500" />
<glyph />
<glyph horiz-adv-x="682" />
<glyph unicode="&#xd;" />
<glyph unicode=" " />
<glyph unicode="!" d="M631 589h-278l175 991h278zM592 154q0 -76 -49.5 -125t-126.5 -49q-76 0 -125 49t-49 125q0 77 49 126t125 49t126 -49t50 -126z" />
<glyph unicode="&#x22;" d="M932 988h-278l104 592h278zM473 988h-278l104 592h278z" />
<glyph unicode="#" d="M968 408h-180l-70 -408h-247l70 408h-159l-70 -408h-247l70 408h-125v226h164l54 312h-140v226h179l70 408h247l-70 -408h159l70 408h247l-70 -408h126v-226h-165l-54 -312h141v-226zM580 634l54 312h-159l-54 -312h159z" />
<glyph unicode="$" d="M10 230l234 143q87 -147 205 -147q89 0 135.5 53t46.5 133q1 71 -64 149l-232 282q-112 136 -111 277q0 204 106.5 326t244.5 145l35 201h237l-35 -206q153 -46 245 -190l-235 -143q-75 102 -159 102q-76 0 -115.5 -50t-39.5 -129q0 -70 65 -148l213 -258 q127 -154 127 -308q0 -166 -95.5 -303t-289.5 -170l-34 -200h-237l35 205q-187 49 -282 236z" />
<glyph unicode="%" d="M1111 1580l-910 -1580h-241l921 1580h230zM507 1115h-307l82 465h307zM797 0h-307l81 465h307z" />
<glyph unicode="&#x26;" d="M356 651q-89 -86 -89 -264q0 -170 175 -160zM509 1026q153 109 153 261q0 78 -74 78q-95 0 -95 -194q0 -68 16 -145zM979 745l-46 -258q-53 -300 -190 -403.5t-337 -103.5q-183 0 -293 98.5t-110 271.5q0 346 305 540l-35 180q-7 35 -10.5 67t-3.5 62q0 182 108.5 292.5 t263.5 110.5q134 0 210.5 -86t76.5 -206q0 -299 -360 -522l97 -466q31 53 54 185l42 238h228z" />
<glyph unicode="'" d="M702 988h-278l104 592h278z" />
<glyph unicode="(" d="M944 1835l97 -171q-354 -249 -500.5 -553t-146.5 -615q0 -175 61.5 -340t256.5 -360l-157 -171q-211 176 -309.5 403t-98.5 463q0 398 197 749.5t600 594.5z" />
<glyph unicode=")" d="M-18 -204q354 249 500.5 553t146.5 615q0 175 -61.5 340t-256.5 360l157 171q211 -176 309.5 -403t98.5 -463q0 -398 -197 -749.5t-600 -594.5z" />
<glyph unicode="*" d="M455 1071l-33 319h276l-34 -319l298 130l85 -262l-315 -66l218 -245l-223 -162l-167 293l-167 -293l-223 162l218 245l-316 66l86 262z" />
<glyph unicode="+" d="M1019 672h-382l-65 -371h-258l65 371h-320v238h362l65 371h258l-65 -371h340v-238z" />
<glyph unicode="," d="M659 175q0 -211 -292 -540h-243q164 181 247 365q-179 42 -179 215q0 110 63.5 171.5t159.5 61.5q115 0 179.5 -72t64.5 -201z" />
<glyph unicode="-" d="M1009 672h-960v238h960v-238z" />
<glyph unicode="." d="M660 213q0 -111 -67 -172t-167 -61t-166.5 61t-66.5 172q0 110 66 171.5t167 61.5q100 0 167 -62t67 -171z" />
<glyph unicode="/" d="M1144 1580l-960 -1580h-271l960 1580h271z" />
<glyph unicode="0" d="M995 791q-29 -167 -183 -534q-115 -277 -406 -277t-325 277q-14 115 -21.5 209.5t-7.5 169.5q0 46 3 84.5t8 70.5q28 166 183 534q115 277 406 277t325 -277q14 -115 21.5 -209.5t7.5 -169.5q0 -46 -3 -84.5t-8 -70.5zM740 791q7 40 10.5 84t3.5 95q0 56 -4.5 117 t-12.5 130q-17 137 -119 137t-161 -137q-55 -131 -90 -236.5t-49 -189.5q-7 -40 -10.5 -84t-3.5 -95q0 -56 4.5 -117t12.5 -130q17 -137 119 -137t161 137q55 131 90 236.5t49 189.5zM584 670h-99v290h99v-290z" />
<glyph unicode="1" d="M372 0l219 1247l-325 -216l-121 182l535 367h248l-278 -1580h-278z" />
<glyph unicode="2" d="M821 0h-806q1 189 72.5 355t213.5 315l325 341q115 122 115 240q0 58 -34 85.5t-97 27.5q-120 0 -211 -166l-184 143q172 261 443 261q159 0 260 -91.5t101 -232.5q0 -216 -217 -445l-345 -362q-69 -73 -104.5 -130.5t-35.5 -102.5h504v-238z" />
<glyph unicode="3" d="M-10 240l234 143q70 -165 199 -165q108 0 165.5 96t57.5 237q0 82 -48 125t-157 43h-37v238h119q104 0 157.5 76.5t53.5 187.5q0 68 -36.5 105.5t-102.5 37.5q-118 0 -206 -166l-184 143q172 261 443 261q170 0 268 -99t98 -253q0 -310 -255 -413q163 -88 163 -286 q0 -231 -132 -401t-398 -170q-271 0 -402 260z" />
<glyph unicode="4" d="M940 381h-123l-67 -381h-278l67 381h-493v238l646 961h336l-169 -961h81v-238zM581 619l103 586l-394 -586h291z" />
<glyph unicode="5" d="M21 240l234 143q49 -165 168 -165q113 0 165 126t52 250q0 89 -42.5 133t-159.5 44h-243l143 809h687v-238h-451l-59 -333q209 0 308 -90.5t99 -268.5q0 -278 -128.5 -474t-391.5 -196q-282 0 -381 260z" />
<glyph unicode="6" d="M391 628l-35 -197q-7 -40 -7 -75q0 -67 30.5 -103t78.5 -36q109 0 155 148t46 270q0 59 -25.5 97.5t-88.5 38.5q-83 0 -154 -143zM443 923q81 85 206 85q124 0 206.5 -89t82.5 -251q0 -79 -18 -178q-49 -281 -172.5 -395.5t-312.5 -114.5q-159 0 -258 98t-99 277 q0 39 4.5 81.5t12.5 90.5l95 537q53 299 186.5 418.5t323.5 119.5q241 0 360 -216l-234 -143q-62 120 -156 120q-87 0 -129.5 -65.5t-71.5 -228.5z" />
<glyph unicode="7" d="M717 799q-273 -404 -273 -799h-276q0 414 323 897l169 251q69 102 85 194h-487v238h795q0 -278 -214 -596z" />
<glyph unicode="8" d="M518 726q-227 -109 -227 -361q0 -73 40.5 -111t106.5 -38q100 0 152 86.5t52 207.5q0 152 -124 216zM620 1365q-70 0 -109 -55.5t-39 -149.5q0 -116 91 -174q172 100 172 268q0 48 -28.5 79.5t-86.5 31.5zM406 -20q-160 0 -276.5 99.5t-116.5 268.5q0 327 326 509 q-141 130 -141 308q0 183 120.5 310t333.5 127q167 0 264 -96t97 -230q0 -264 -270 -419q173 -158 173 -357q0 -214 -134 -367t-376 -153z" />
<glyph unicode="9" d="M702 1151q7 40 7 75q0 67 -30.5 103t-78.5 36q-109 0 -155 -148t-46 -270q0 -59 25.5 -97.5t88.5 -38.5q83 0 154 143zM615 659q-81 -85 -206 -85q-124 0 -206.5 89t-82.5 251q0 79 18 178q49 281 172.5 395.5t312.5 114.5q159 0 258 -98t99 -277q0 -39 -4.5 -81.5 t-12.5 -90.5l-95 -537q-53 -299 -186.5 -418.5t-323.5 -119.5q-241 0 -360 216l234 143q62 -120 156 -120q87 0 129.5 65.5t71.5 228.5z" />
<glyph unicode=":" d="M798 998q0 -111 -67 -172.5t-167 -61.5t-166.5 61.5t-66.5 172.5q0 110 66 171.5t167 61.5q100 0 167 -62t67 -171zM660 213q0 -111 -67 -172t-167 -61t-166.5 61t-66.5 172q0 110 66 171.5t167 61.5q100 0 167 -62t67 -171z" />
<glyph unicode=";" d="M798 998q0 -111 -67 -172.5t-167 -61.5t-166.5 61.5t-66.5 172.5q0 110 66 171.5t167 61.5q100 0 167 -62t67 -171zM659 175q0 -211 -292 -540h-243q164 181 247 365q-179 42 -179 215q0 110 63.5 171.5t159.5 61.5q115 0 179.5 -72t64.5 -201z" />
<glyph unicode="&#x3c;" d="M411 790l461 -278v-299l-803 487l1 180l953 487v-299z" />
<glyph unicode="=" d="M1048 895h-961v238h961v-238zM969 445h-961v238h961v-238z" />
<glyph unicode="&#x3e;" d="M185 1068v299l803 -487v-180l-954 -487v299l613 278z" />
<glyph unicode="?" d="M609 154q0 -75 -50 -125q-49 -49 -126 -49q-76 0 -125 49t-49 125q0 77 49 126t125 49q77 0 126 -49q50 -50 50 -126zM215 1341q172 261 443 261q159 0 259 -102t100 -240q0 -157 -111 -286l-202 -235q-40 -46 -52 -113l-7 -37h-277l14 78q21 117 109 222l182 211 q70 83 70 158q0 41 -30.5 74t-97.5 33q-117 0 -216 -167z" />
<glyph unicode="@" d="M777 758q6 34 6 60q0 88 -68 88q-67 0 -92 -148l-15 -89q-5 -30 -5 -48q0 -80 68 -80t91 128zM654 1388q-144 0 -217.5 -105.5t-113.5 -334.5l-59 -333q-13 -91 -13 -131q0 -290 298 -290q203 0 373 157l-43 -246q-149 -125 -360 -125q-223 0 -354.5 127t-131.5 347 q0 79 18 181l58 333q62 353 212.5 493.5t360.5 140.5q167 0 273 -107.5t106 -287.5q0 -53 -14 -146l-63 -361q-38 -213 -127 -289t-212 -76q-101 0 -177.5 71t-76.5 210q0 56 12 124l3 17q63 355 295 355q67 0 131 -40q15 70 15 120q0 98 -49.5 147t-143.5 49z" />
<glyph unicode="A" d="M604 1248q-79 -191 -141 -355.5t-109 -307.5h246q5 112 7.5 213t2.5 192q0 142 -6 258zM-57 0q21 362 333 1060l233 520h318q20 -213 30 -423t10 -423q0 -367 -30 -734h-276q8 93 14 179.5t11 168.5h-303q-28 -106 -44 -192.5t-20 -155.5h-276z" />
<glyph unicode="B" d="M322 237h117q117 0 156 125t39 230q0 63 -22 91q-38 47 -115 47h-88zM451 966h74q83 0 132.5 65t49.5 199q0 63 -35 88.5t-101 25.5h-54zM281 1580h344q181 0 270.5 -92.5t89.5 -237.5q0 -323 -256 -391q180 -62 180 -271q0 -212 -108.5 -400t-371.5 -188h-389 q0 210 36 416z" />
<glyph unicode="C" d="M899 219q-170 -239 -419 -239q-173 0 -270 91.5t-97 271.5q0 123 114 739q52 298 176.5 409t322.5 111q250 0 375 -239l-234 -143q-62 135 -175 135q-78 0 -118 -56t-66 -201q-120 -673 -120 -729q0 -143 125 -143q114 0 202 136z" />
<glyph unicode="D" d="M701 1078q10 62 10 100q0 81 -38.5 117.5t-117.5 36.5h-53l-191 -1084h73q88 0 138 51q50 53 77 204zM269 1580h341q191 0 285 -94.5t94 -270.5q0 -82 -18 -182l-93 -525q-53 -299 -174 -404q-121 -104 -332 -104h-344q0 210 36 416z" />
<glyph unicode="E" d="M89 416l205 1164h766v-238h-530l-70 -396h345v-238h-387l-83 -470h499v-238h-781q0 211 36 416z" />
<glyph unicode="F" d="M1080 1342h-540l-70 -396h387v-238h-429l-124 -708h-278l278 1580h776v-238z" />
<glyph unicode="G" d="M880 487q-53 -300 -174 -403q-122 -104 -300 -104q-155 0 -251 91.5t-96 273.5q0 111 118 749q53 300 174 404t301 104q248 0 367 -216l-234 -143q-55 112 -159 112q-67 0 -106.5 -57t-63.5 -195q-123 -680 -123 -749q0 -128 107 -128q76 0 106 56q30 57 54 189l33 187 h-95v237h377q0 -209 -35 -408z" />
<glyph unicode="H" d="M794 0h-278l128 730h-253l-128 -730h-278l278 1580h278l-108 -612h253l108 612h278z" />
<glyph unicode="I" d="M765 0h-692v228h218l198 1124h-155v228h606v-228h-173l-198 -1124h196v-228z" />
<glyph unicode="J" d="M824 465q-50 -279 -170 -381q-122 -104 -300 -104q-180 0 -280 124q-68 85 -68 237q0 37 4 78t12 86l35 201h278l-40 -226q-12 -71 -12 -121q0 -75 26 -109t76 -34q33 0 58 15t44.5 47t34.5 82t27 120l194 1100h278z" />
<glyph unicode="K" d="M556 1580l-106 -601q373 396 394 601h276q-27 -258 -422 -670q192 -437 192 -910h-276q0 440 -114 700l-122 -129l-100 -571h-278l278 1580h278z" />
<glyph unicode="L" d="M132 416l205 1164h278l-237 -1342h489v-238h-771q0 211 36 416z" />
<glyph unicode="M" d="M1045 1580q0 -210 -36 -416l-205 -1164h-255l43 247q73 414 274 1099l-291 -606h-110l-77 606q-41 -685 -114 -1099l-43 -247h-255l278 1580h245l66 -527l252 527h228z" />
<glyph unicode="N" d="M774 0h-264l-135 1000q-29 -350 -95 -723l-49 -277h-226l278 1580h267l133 -1000q29 350 95 723l49 277h225z" />
<glyph unicode="O" d="M617 1354q-69 0 -103.5 -55t-58.5 -191l-112 -635q-13 -80 -13 -118q0 -127 111 -127q69 0 103.5 55t58.5 191l112 635q13 80 13 118q0 127 -111 127zM416 -20q-163 0 -261.5 94t-98.5 271q0 81 18 182l100 567q53 300 169 404t299 104q163 0 261.5 -94t98.5 -271 q0 -81 -18 -182l-100 -567q-53 -300 -169 -404t-299 -104z" />
<glyph unicode="P" d="M492 944h114q101 0 141.5 86t40.5 182q0 63 -30.5 97.5t-101.5 34.5h-94zM450 707l-124 -707h-278l278 1580h384q181 0 269.5 -98.5t88.5 -242.5q0 -220 -122.5 -376t-349.5 -156h-146z" />
<glyph unicode="Q" d="M678 -269h-287l-54 254q-115 13 -198 100.5t-83 259.5q0 81 18 182l100 567q53 300 169 404t299 104q163 0 261.5 -94t98.5 -271q0 -81 -18 -182l-106 -602q-61 -344 -265 -431zM617 1354q-69 0 -103.5 -55t-58.5 -191l-112 -635q-13 -80 -13 -118q0 -127 111 -127 q69 0 103.5 55t58.5 191l112 635q13 80 13 118q0 127 -111 127z" />
<glyph unicode="R" d="M457 922h95q117 0 155 100.5t38 192.5q0 66 -30.5 97.5t-98.5 31.5h-85zM295 1580h385q169 0 257 -91.5t88 -247.5q0 -377 -256 -504q93 -194 93 -737h-278q0 570 -58 686h-111l-120 -686h-278z" />
<glyph unicode="S" d="M10 230l234 143q87 -147 206 -147q88 0 134.5 53t46.5 133q0 71 -64 149l-232 282q-111 135 -111 277q0 217 128 349.5t334 132.5q240 0 371 -206l-235 -143q-75 102 -159 102q-76 0 -115.5 -50t-39.5 -129q0 -70 65 -148l213 -258q127 -154 127 -308q0 -196 -125.5 -339 t-377.5 -143q-267 0 -400 250z" />
<glyph unicode="T" d="M1080 1342h-315l-236 -1342h-278l236 1342h-275v238h868v-238z" />
<glyph unicode="U" d="M873 444q-45 -256 -167 -360t-300 -104q-180 0 -280 124q-70 88 -70 235q0 33 3.5 69t10.5 76l193 1096h278l-203 -1149q-8 -47 -8 -82q0 -131 107 -131q64 0 101 53t54 160l203 1149h278z" />
<glyph unicode="V" d="M631 800q218 516 218 780h276q0 -323 -255 -861l-341 -719h-278q-29 309 -43.5 579.5t-14.5 509.5q0 267 18 491h276q-19 -225 -28 -430t-9 -397q0 -189 9 -361z" />
<glyph unicode="W" d="M626 914v-636l229 1302h258l-100 -570q-48 -277 -121.5 -527.5t-172.5 -482.5h-211l-19 532l-205 -532h-223q0 330 23.5 627.5t71.5 571.5l67 381h258l-229 -1302l243 636h131z" />
<glyph unicode="X" d="M385 432q-174 -230 -174 -432h-276q0 249 266 596l186 242l-52 139q-109 291 -109 603h276q0 -335 65 -509l109 144q148 193 148 365h276q0 -217 -253 -547l-180 -232l54 -142q131 -350 131 -659h-276q0 331 -88 566z" />
<glyph unicode="Y" d="M540 932l98 142q196 283 196 506h276q0 -249 -276 -649l-189 -272l-116 -659h-278l116 659l-47 152q-114 378 -114 769h276q0 -455 58 -648z" />
<glyph unicode="Z" d="M1026 1580v-120q0 -235 -190 -493l-376 -503q-110 -151 -110 -226h457v-238h-745v120q0 236 190 493l376 503q109 148 109 226h-436v238h725z" />
<glyph unicode="[" d="M110 205l243 1375h639v-228h-421l-236 -1335h381v-228h-642q0 211 36 416z" />
<glyph unicode="\" d="M866 0h-271l-404 1580h271z" />
<glyph unicode="]" d="M667 -211h-640v228h422l236 1335h-382v228h643q0 -211 -36 -416z" />
<glyph unicode="^" d="M963 622h-258l-76 683l-325 -683h-270l501 958h262z" />
<glyph unicode="_" d="M900 -238h-1061v238h1061v-238z" />
<glyph unicode="`" d="M832 988h-227l-185 592h297z" />
<glyph unicode="a" d="M641 821q-22 133 -114 133q-61 0 -100 -65.5t-68 -229.5l-25 -142q-15 -86 -15 -145q0 -148 99 -149q92 0 145 152zM775 0h-278l20 115q-95 -132 -243 -132q-111 0 -176 86t-65 234q0 88 19 195l39 220q48 268 136.5 371t219.5 103q149 0 233 -151l23 131h278z" />
<glyph unicode="b" d="M345 351q22 -133 115 -133q116 0 163 264l30 173q15 85 15 145q0 149 -99 149q-93 0 -145 -152zM284 1580h278l-92 -523q94 132 243 132q108 0 174 -81.5t66 -238.5q0 -88 -19 -195l-45 -258q-77 -436 -349 -436q-149 0 -233 151l-23 -131h-278z" />
<glyph unicode="c" d="M856 195q-153 -215 -403 -215q-169 0 -264 103.5t-95 271.5q0 67 13 141l39 221q44 248 167.5 362.5t313.5 114.5q250 0 367 -217l-234 -143q-60 122 -165 122q-128 0 -164 -204l-51 -291q-10 -60 -10 -100q0 -144 115 -144q95 0 169 131z" />
<glyph unicode="d" d="M641 817q-22 132 -115 132q-116 0 -165 -278l-28 -158q-15 -85 -15 -145q0 -150 99 -150q93 0 145 153zM775 0h-278l19 111q-95 -131 -243 -131q-110 0 -175 88t-65 233q0 83 19 193l47 261q76 434 347 434q148 0 234 -152l95 543h278z" />
<glyph unicode="e" d="M646 729l8 43q7 45 7 72q0 65 -28 98.5t-81 33.5q-66 0 -101 -52t-54 -152l-8 -43h257zM891 551h-532l-23 -130q-7 -38 -7 -72q0 -131 120 -131q111 0 186 110l184 -143q-151 -205 -413 -205q-161 0 -255.5 94.5t-94.5 266.5q0 69 15 155l39 221q48 270 168.5 373.5 t301.5 103.5q159 0 253.5 -95t94.5 -267q0 -70 -15 -155z" />
<glyph unicode="f" d="M877 1316q-34 57 -93 57q-89 0 -113 -143l-21 -123h331v-228h-372l-154 -879h-279l154 879h-157v228h198l26 147q31 180 134 263.5t258 83.5q207 0 322 -142z" />
<glyph unicode="g" d="M641 821q-22 133 -114 133q-116 0 -161 -256q-34 -190 -34 -248q0 -150 99 -150q92 0 145 152zM792 102q-45 -260 -163 -368.5t-312 -108.5q-267 0 -378 185l232 120q37 -67 156 -67q145 0 177 179l26 150q-95 -132 -243 -132q-111 0 -176 86t-65 231q0 85 51 373 q77 442 350 442q149 0 233 -151l23 131h278z" />
<glyph unicode="h" d="M795 0h-278l130 738q10 65 10 95q0 116 -109 116q-104 0 -147 -162l-138 -787h-278l278 1580h278l-92 -523q94 132 243 132q110 0 178.5 -76.5t68.5 -219.5q0 -36 -4 -77t-12 -88z" />
<glyph unicode="i" d="M662 756l-93 -528h199v-228h-699v228h222l126 716h-162v228h443q0 -211 -36 -416zM816 1549q0 -76 -50.5 -126.5t-135.5 -50.5t-135 50.5t-50 126.5t50 127t135 51t135.5 -51t50.5 -127z" />
<glyph unicode="j" d="M766 756l-131 -744q-37 -210 -136.5 -298.5t-284.5 -88.5q-227 0 -338 185l232 120q27 -67 116 -67q49 0 84.5 35.5t51.5 127.5l162 918h-246v228h526q0 -211 -36 -416zM922 1549q0 -76 -50.5 -126.5t-135.5 -50.5t-135 50.5t-50 126.5t50 127t135 51t135.5 -51 t50.5 -127z" />
<glyph unicode="k" d="M860 0h-276q0 248 -107 439l-21 39l-104 -87l-69 -391h-276l278 1580h276l-149 -845l59 46q277 233 288 391h276q-14 -227 -317 -477l-72 -59l48 -85q166 -294 166 -551z" />
<glyph unicode="l" d="M779 0h-700v228h223l198 1124h-153v228h434q0 -211 -36 -416l-165 -936h199v-228z" />
<glyph unicode="m" d="M819 0h-194l140 795q8 50 8 78q0 83 -49 83q-61 0 -91 -127l-146 -829h-194l140 795q8 50 8 78q0 83 -48 83q-67 0 -92 -127l-146 -829h-194l206 1172h194l-17 -95q58 117 174 117q99 0 131 -110q65 110 170 110q76 0 116.5 -54.5t40.5 -163.5q0 -84 -17 -181z" />
<glyph unicode="n" d="M795 0h-278l130 738q10 65 10 95q0 116 -109 116q-104 0 -147 -162l-138 -787h-278l206 1172h278l-20 -115q94 132 243 132q110 0 178.5 -76.5t68.5 -219.5q0 -36 -4 -77t-12 -88z" />
<glyph unicode="o" d="M548 956q-67 0 -100.5 -50.5t-62.5 -211.5l-39 -222q-14 -83 -14 -129q0 -125 106 -125q67 0 100.5 50.5t62.5 211.5l39 222q14 83 14 129q0 125 -106 125zM406 -20q-160 0 -254.5 94t-94.5 265q0 70 15 156l39 222q47 270 168.5 373.5t300.5 103.5q160 0 254.5 -94 t94.5 -265q0 -70 -15 -156l-39 -222q-47 -270 -168.5 -373.5t-300.5 -103.5z" />
<glyph unicode="p" d="M345 355q22 -132 115 -132q116 0 165 278l28 158q15 85 15 145q0 150 -99 150q-93 0 -145 -153zM211 1172h278l-19 -111q95 131 243 131q110 0 175 -88t65 -233q0 -83 -19 -193l-47 -261q-76 -434 -347 -434q-148 0 -234 152l-88 -500h-278z" />
<glyph unicode="q" d="M642 821q-22 133 -115 133q-116 0 -163 -264l-30 -173q-15 -85 -15 -145q0 -149 99 -149q93 0 145 152zM710 -365h-278l85 480q-94 -132 -243 -132q-108 0 -174 81.5t-66 238.5q0 88 19 195l45 258q77 436 349 436q149 0 233 -151l23 131h278z" />
<glyph unicode="r" d="M1051 974l-285 -120q-32 95 -101 95q-138 0 -178 -226l-127 -723h-278l206 1172h278l-20 -115q98 137 254 137q165 0 251 -220z" />
<glyph unicode="s" d="M20 219l214 131q65 -143 206 -143q82 0 120 40t38 91q0 75 -111 133l-113 59q-178 96 -178 266q0 165 110.5 281.5t319.5 116.5q231 0 358 -217l-217 -132q-52 121 -161 121q-54 0 -91.5 -32.5t-37.5 -92.5q0 -77 118 -139l87 -46q195 -103 195 -285 q0 -164 -110.5 -277.5t-348.5 -113.5q-264 0 -398 239z" />
<glyph unicode="t" d="M872 154q-144 -174 -340 -174q-169 0 -254 78.5t-85 227.5q0 48 10 111l96 547h-137v228h177l72 408h278l-72 -408h334v-228h-374l-104 -587q-4 -26 -4 -45q0 -94 95 -94q63 0 124 79z" />
<glyph unicode="u" d="M171 1172h278l-130 -738q-10 -65 -10 -95q0 -116 109 -116q104 0 147 162l138 787h278l-206 -1172h-278l20 115q-94 -132 -243 -132q-110 0 -178.5 76.5t-68.5 219.5q0 36 4 77t12 88z" />
<glyph unicode="v" d="M529 0h-278q-51 271 -77 520t-26 483q0 43 1 85t3 84h276q-6 -143 -8.5 -264t-2.5 -221q0 -125 4 -215t13 -149l167 312q163 305 163 537h276q0 -241 -185 -578z" />
<glyph unicode="w" d="M620 199q145 520 165 973h276q-7 -168 -75.5 -401.5t-198.5 -540.5l-97 -230h-193v595l-214 -595h-193q-8 118 -12.5 230.5t-4.5 219.5q0 201 14.5 380.5t43.5 341.5h276q-95 -275 -177 -973l191 538h196z" />
<glyph unicode="x" d="M-45 0q0 180 259 456l148 156l-36 73q-142 294 -142 487h276q0 -231 70 -379l63 67q132 141 132 312h275q0 -192 -224 -430l-146 -156l41 -83q164 -341 164 -503h-276q0 206 -99 405l-84 -89q-145 -155 -145 -316h-276z" />
<glyph unicode="y" d="M30 -365q5 199 143 428l135 223l-69 271q-83 324 -83 615h276q0 -395 50 -600l118 198q144 235 144 402h276q0 -174 -162 -439l-385 -641q-167 -278 -167 -457h-276z" />
<glyph unicode="z" d="M817 0h-760v113q-1 239 217 442l228 214q118 111 118 165h-400v238h724v-95q1 -202 -188 -390l-245 -247q-135 -136 -135 -202h441v-238z" />
<glyph unicode="{" d="M712 -375h-125q-183 0 -274 111q-68 83 -68 199q0 37 8 83l63 361q8 51 8 80q0 71 -33 100q-48 42 -152 42v228h48q76 0 153 62q78 63 102 199l61 351q30 173 137 263.5t290 90.5h124v-228h-103q-169 0 -202 -188l-58 -329q-47 -265 -272 -335q157 -91 157 -278 q0 -44 -9 -95l-48 -271q-6 -38 -6 -67q0 -82 45 -116.5t130 -34.5h24v-228z" />
<glyph unicode="|" d="M648 -375h-237v2325h237v-2325z" />
<glyph unicode="}" d="M884 601q-113 0 -196 -62q-42 -31 -68.5 -86t-40.5 -134l-61 -341q-31 -173 -137 -263t-289 -90h-126v228h115q158 0 188 168l60 341q46 262 275 353q-159 73 -159 260q0 44 9 95l58 329q4 20 4 41q0 57 -36 87q-48 40 -116 40h-55v228h126q181 0 273 -111 q69 -84 69 -201q0 -33 -8 -82l-62 -351q-8 -51 -8 -85q0 -136 185 -136v-228z" />
<glyph unicode="~" d="M1053 1048q-73 -449 -369 -449q-116 0 -194 92l-78 91q-28 37 -65 37q-65 0 -102 -222h-230q73 449 369 449q115 0 194 -92l77 -91q29 -37 66 -37q66 0 102 222h230z" />
<glyph unicode="&#xa0;" />
<glyph unicode="&#xa1;" d="M466 -353h-278l175 991h278zM755 1072q0 -76 -50 -125t-126 -49t-125 49t-49 125q0 77 49 126t125 49t126 -49t50 -126z" />
<glyph unicode="&#xa2;" d="M856 195q-125 -174 -312 -207l-35 -200h-227l37 212q-129 44 -188 167q-37 77 -37 187q0 68 13 142l35 201q45 262 156 367q109 104 231 121l35 200h227l-36 -207q158 -47 239 -201l-234 -143q-60 122 -165 122q-128 0 -164 -204l-51 -291q-10 -60 -10 -100 q0 -144 115 -144q95 0 169 131z" />
<glyph unicode="&#xa3;" d="M859 0h-900v238q229 15 259 328l13 142h-147v238h165l21 201q20 223 146.5 339t303.5 116q251 0 369 -216l-234 -143q-61 121 -156 121q-55 0 -94 -40t-55 -189l-22 -189h209v-238h-225l-15 -136q-28 -244 -192 -334h554v-238z" />
<glyph unicode="&#xa4;" d="M460 294q-102 0 -184 54l-205 -176l-142 177l202 173q-25 62 -25 130q0 143 98 232l-140 173l180 156l144 -175q73 63 175 63t184 -54l205 176l142 -177l-202 -173q25 -62 25 -130q0 -143 -98 -232l140 -173l-180 -156l-144 175q-73 -63 -175 -63zM530 861 q-72 0 -123 -52t-51 -140q0 -64 42 -99.5t95 -35.5q72 0 123 52t51 140q0 64 -42 99.5t-95 35.5z" />
<glyph unicode="&#xa5;" d="M937 810l-38 -215h-266l-22 -129h266l-38 -215h-266l-44 -251h-278l44 251h-266l38 215h266l22 129h-266l38 215h193q-114 379 -114 770h276q0 -455 58 -648l98 142q196 283 196 506h276q0 -249 -276 -649l-84 -121h187z" />
<glyph unicode="&#xa6;" d="M648 1020h-237v930h237v-930zM648 -375h-237v929h237v-929z" />
<glyph unicode="&#xa7;" d="M607 390q43 76 43 141q0 64 -49 122l-151 182q-41 -76 -41 -141q0 -64 50 -125zM-92 -125l234 143q77 -147 187 -147q87 1 134 54.5t47 126.5q0 68 -47 124l-217 263q-112 133 -112 258q0 206 156 309q-24 73 -24 139q0 177 121 317t339 140q219 0 341 -206l-235 -143 q-56 102 -139 102q-71 0 -109 -52t-38 -130q0 -64 50 -125l212 -256q116 -138 116 -267q0 -194 -159 -305q24 -75 24 -143q0 -170 -124.5 -311t-376.5 -141q-247 0 -380 250z" />
<glyph unicode="&#xa8;" d="M457 1330q-56 0 -93 37t-37 89q0 51 37 87.5t93 36.5t93 -36.5t37 -87.5q0 -52 -37 -89t-93 -37zM834 1330q-56 0 -93 37t-37 89q0 51 37 87.5t93 36.5t93 -36.5t37 -87.5q0 -52 -37 -89t-93 -37z" />
<glyph unicode="&#xa9;" d="M-12 296q158 -142 380 -142q129 0 244 85q116 86 149 275l98 554q9 48 9 90q0 118 -72 184q-95 86 -224 86q-222 0 -410 -142l32 179q172 137 402 137q243 0 375 -161q99 -120 99 -292q0 -29 -2.5 -59t-8.5 -62l-91 -514q-45 -254 -210 -394q-166 -140 -408 -140 q-230 0 -394 137zM666 692l-9 -50q-28 -153 -116.5 -229t-220.5 -76q-115 0 -193 76.5t-78 194.5q0 27 7 74l44 249q27 152 116.5 228.5t221.5 76.5q111 0 190 -69.5t79 -198.5q0 -43 -9 -92h-207q12 57 12 88q0 42 -20 69t-66 27q-58 0 -80 -40t-32 -98l-48 -271 q-4 -24 -4 -39q0 -99 88 -99q57 0 78.5 40t31.5 98l8 41h207z" />
<glyph unicode="&#xaa;" d="M782 195h-680v208h680v-208zM684 1097h-52q-85 0 -132 -47t-47 -118q0 -82 84 -82q76 0 120 96zM836 674h-227l11 59q-56 -75 -178 -75q-91 0 -153 73.5t-62 173.5q0 150 103 242t337 92h42q14 70 14 94q0 77 -86 77q-98 0 -156 -76l-144 110q119 158 314 158 q136 0 216 -67t80 -190q0 -44 -9 -93z" />
<glyph unicode="&#xab;" d="M880 124h-229l-227 478l396 478h249l-397 -488zM473 124h-229l-227 478l396 478h249l-397 -488z" />
<glyph unicode="&#xac;" d="M896 319l-36 -201h-276l68 383h-645v234h925q0 -211 -36 -416z" />
<glyph unicode="&#xad;" d="M804 495h-611v258h611v-258z" />
<glyph unicode="&#xae;" d="M-12 296q158 -142 380 -142q129 0 244 85q116 86 149 275l98 554q9 48 9 90q0 118 -72 184q-95 86 -224 86q-222 0 -410 -142l32 179q172 137 402 137q243 0 375 -161q99 -120 99 -292q0 -29 -2.5 -59t-8.5 -62l-91 -514q-45 -254 -210 -394q-166 -140 -408 -140 q-230 0 -394 137zM326 1039l-40 -227h88q64 0 96.5 40.5t32.5 105.5q0 44 -29.5 62.5t-79.5 18.5h-68zM150 1215h255q161 0 232 -71t71 -182q0 -209 -193 -286l92 -318h-220l-72 289h-58l-51 -289h-207z" />
<glyph unicode="&#xaf;" d="M937 1404h-571v176h571v-176z" />
<glyph unicode="&#xb0;" d="M970 1240q0 -148 -97.5 -255.5t-265.5 -107.5t-265 107.5t-97 255.5t97 255t265 107t265.5 -107t97.5 -255zM754 1240q0 65 -38 110.5t-109 45.5q-70 0 -108 -45.5t-38 -110.5q0 -66 38 -111.5t108 -45.5t108.5 46t38.5 111z" />
<glyph unicode="&#xb1;" d="M931 228h-960v238h960v-238zM1045 878h-372l-55 -311h-258l55 311h-330v238h372l55 311h258l-55 -311h330v-238z" />
<glyph unicode="&#xb2;" d="M829 673h-560q0 296 284 491l82 56q92 62 92 135q0 34 -20.5 51.5t-56.5 17.5q-73 0 -136 -87l-146 104q131 161 295 161q119 0 202 -65.5t83 -171.5q0 -159 -214 -304l-97 -64q-109 -72 -123 -136h348z" />
<glyph unicode="&#xb3;" d="M244 808l192 117q51 -86 116 -86q56 0 82 42.5t26 101.5q0 42 -27 64.5t-76 22.5h-32v168h72q56 0 83.5 32.5t27.5 87.5q0 35 -21.5 50.5t-51.5 15.5q-68 0 -115 -86l-161 113q112 151 299 151q123 0 197.5 -60.5t74.5 -160.5q0 -167 -159 -223q107 -58 107 -175 q0 -136 -86.5 -229t-259.5 -93q-188 0 -288 147z" />
<glyph unicode="&#xb4;" d="M612 1580h290l-279 -245h-234z" />
<glyph unicode="&#xb5;" d="M775 0h-258l23 135q-68 -155 -178 -155q-59 0 -95 45l-69 -390h-258l271 1537h258l-132 -750q-10 -64 -10 -94q0 -105 101 -105q104 0 153 142l142 807h258z" />
<glyph unicode="&#xb6;" d="M535 0h-183l117 667q-158 0 -247 97.5t-89 241.5q0 50 24 184q31 181 143 285.5t271 104.5h242zM832 0h-183l278 1580h183z" />
<glyph unicode="&#xb7;" d="M773 851q0 -110 -67 -172t-167 -62t-166.5 62t-66.5 172q0 111 66 172t167 61q100 0 167 -61.5t67 -171.5z" />
<glyph unicode="&#xb8;" d="M144 -241h44q123 0 123 52q0 41 -73 41l66 98q219 -19 219 -140q0 -92 -82.5 -138.5t-296.5 -46.5v134z" />
<glyph unicode="&#xb9;" d="M710 664h-222l119 677l-190 -119l-90 140l342 218h202z" />
<glyph unicode="&#xba;" d="M782 195h-680v208h680v-208zM628 1410q-48 0 -75 -32.5t-41 -111.5l-48 -272q-5 -27 -5 -48q0 -96 90 -96q49 0 76 32.5t41 111.5l48 272q5 27 5 48q0 96 -91 96zM526 658q-130 0 -211 80t-81 203q0 32 8 84l44 250q30 173 128 250t238 77q130 0 211 -80t81 -203 q0 -32 -8 -84l-44 -250q-30 -173 -128 -250t-238 -77z" />
<glyph unicode="&#xbb;" d="M975 602l-397 -478h-249l398 488l-209 468h229zM568 602l-397 -478h-249l398 488l-209 468h229z" />
<glyph unicode="&#xbc;" d="M719 1000h-222l112 636l-190 -119l-88 136l340 222h202zM943 729h-830v129h830v-129zM664 -105h-93l-37 -209h-206l37 209h-275v200l383 466h215l-86 -489h62v-177zM396 72l43 241l-198 -241h155z" />
<glyph unicode="&#xbd;" d="M719 1000h-222l112 636l-190 -119l-88 136l340 222h202zM653 -301h-582q0 271 285 465l82 56q91 63 91 119q0 29 -21 47t-58 18q-73 0 -136 -87l-146 104q131 161 295 161q119 0 202 -65.5t83 -171.5q0 -145 -197 -274l-110 -74q-111 -74 -118 -110h331zM943 729h-830 v129h830v-129z" />
<glyph unicode="&#xbe;" d="M396 72l43 241l-198 -241h155zM664 -105h-93l-37 -209h-206l37 209h-275v200l383 466h215l-86 -489h62v-177zM943 729h-830v129h830v-129zM291 1130l186 106q37 -75 102 -75q56 0 80 38t24 82q0 84 -84 84h-52v168h82q48 0 73 28t25 75q0 34 -22 48.5t-52 14.5 q-60 0 -97 -75l-158 102q111 151 278 151q122 0 197.5 -60.5t75.5 -157.5q0 -155 -156 -206q108 -59 108 -173q0 -121 -88 -209t-254 -88q-168 0 -268 147z" />
<glyph unicode="&#xbf;" d="M388 1079q0 75 50 125q49 49 126 49q76 0 125 -49t49 -125q0 -77 -49 -126t-125 -49q-77 0 -126 49q-50 50 -50 126zM782 -108q-172 -261 -443 -261q-159 0 -259 102t-100 240q0 157 111 286l202 235q40 46 52 113l7 37h277l-14 -78q-21 -117 -109 -222l-182 -211 q-70 -83 -70 -158q0 -41 30.5 -74t97.5 -33q117 0 216 167z" />
<glyph unicode="&#xc0;" d="M760 1705h-224l-193 245h280zM604 1248q-79 -191 -141 -355.5t-109 -307.5h246q5 112 7.5 213t2.5 192q0 142 -6 258zM-57 0q21 362 333 1060l192 430h367q12 -123 22 -333t10 -423q0 -367 -30 -734h-276q8 93 14 179.5t11 168.5h-303q-28 -106 -44 -192.5t-20 -155.5 h-276z" />
<glyph unicode="&#xc1;" d="M769 1950h290l-279 -245h-234zM604 1248q-79 -191 -141 -355.5t-109 -307.5h246q5 112 7.5 213t2.5 192q0 142 -6 258zM-57 0q21 362 333 1060l192 430h367q12 -123 22 -333t10 -423q0 -367 -30 -734h-276q8 93 14 179.5t11 168.5h-303q-28 -106 -44 -192.5t-20 -155.5 h-276z" />
<glyph unicode="&#xc2;" d="M1027 1705h-215l-116 122l-159 -122h-235l286 245h239zM604 1248q-79 -191 -141 -355.5t-109 -307.5h246q5 112 7.5 213t2.5 192q0 142 -6 258zM-57 0q21 362 333 1060l192 430h367q12 -123 22 -333t10 -423q0 -367 -30 -734h-276q8 93 14 179.5t11 168.5h-303 q-28 -106 -44 -192.5t-20 -155.5h-276z" />
<glyph unicode="&#xc3;" d="M1061 1858q-115 -214 -243 -214q-50 0 -134.5 58.5t-122.5 58.5q-64 0 -126 -117l-127 92q115 214 243 214q50 0 134.5 -58.5t122.5 -58.5q64 0 126 117zM604 1248q-79 -191 -141 -355.5t-109 -307.5h246q5 112 7.5 213t2.5 192q0 142 -6 258zM-57 0q21 362 333 1060 l192 430h367q12 -123 22 -333t10 -423q0 -367 -30 -734h-276q8 93 14 179.5t11 168.5h-303q-28 -106 -44 -192.5t-20 -155.5h-276z" />
<glyph unicode="&#xc4;" d="M497 1700q-56 0 -93 37t-37 89q0 51 37 87.5t93 36.5t93 -36.5t37 -87.5q0 -52 -37 -89t-93 -37zM874 1700q-56 0 -93 37t-37 89q0 51 37 87.5t93 36.5t93 -36.5t37 -87.5q0 -52 -37 -89t-93 -37zM604 1248q-79 -191 -141 -355.5t-109 -307.5h246q5 112 7.5 213t2.5 192 q0 142 -6 258zM-57 0q21 362 333 1060l192 430h367q12 -123 22 -333t10 -423q0 -367 -30 -734h-276q8 93 14 179.5t11 168.5h-303q-28 -106 -44 -192.5t-20 -155.5h-276z" />
<glyph unicode="&#xc5;" d="M918 1706q0 -102 -71.5 -173.5t-193.5 -71.5t-193 71.5t-71 173.5t71 173t193 71t193.5 -71t71.5 -173zM754 1706q0 46 -27 73t-74 27q-46 0 -73 -27t-27 -73t27 -73.5t73 -27.5t73.5 28t27.5 73zM604 1248q-79 -191 -141 -355.5t-109 -307.5h246q5 112 7.5 213t2.5 192 q0 142 -6 258zM-57 0q21 362 333 1060l175 390h387q9 -83 19 -293t10 -423q0 -367 -30 -734h-276q8 93 14 179.5t11 168.5h-303q-28 -106 -44 -192.5t-20 -155.5h-276z" />
<glyph unicode="&#xc6;" d="M870 0h-527l82 467h-158l-82 -467h-256l100 569l436 1011h642v-236h-272l-70 -399h189v-237h-231l-83 -471h230v-237zM467 704l107 607l-226 -607h119z" />
<glyph unicode="&#xc7;" d="M836 219q-170 -239 -419 -239q-173 0 -270 91.5t-97 271.5q0 123 114 739q52 298 176.5 409t322.5 111q250 0 375 -239l-234 -143q-62 135 -175 135q-78 0 -118 -56t-66 -201q-120 -673 -120 -729q0 -143 125 -143q114 0 202 136zM144 -241h44q123 0 123 52q0 41 -73 41 l66 98q219 -19 219 -140q0 -92 -82.5 -138.5t-296.5 -46.5v134z" />
<glyph unicode="&#xc8;" d="M765 1705h-224l-193 245h280zM89 416l189 1074h766v-238h-530l-62 -351h345v-238h-387l-75 -425h489v-238h-771q0 211 36 416z" />
<glyph unicode="&#xc9;" d="M734 1950h290l-279 -245h-234zM89 416l189 1074h766v-238h-530l-62 -351h345v-238h-387l-75 -425h489v-238h-771q0 211 36 416z" />
<glyph unicode="&#xca;" d="M1027 1705h-215l-116 122l-159 -122h-235l286 245h239zM89 416l189 1074h766v-238h-530l-62 -351h345v-238h-387l-75 -425h489v-238h-771q0 211 36 416z" />
<glyph unicode="&#xcb;" d="M497 1700q-56 0 -93 37t-37 89q0 51 37 87.5t93 36.5t93 -36.5t37 -87.5q0 -52 -37 -89t-93 -37zM874 1700q-56 0 -93 37t-37 89q0 51 37 87.5t93 36.5t93 -36.5t37 -87.5q0 -52 -37 -89t-93 -37zM89 416l189 1074h766v-238h-530l-62 -351h345v-238h-387l-75 -425h489 v-238h-771q0 211 36 416z" />
<glyph unicode="&#xcc;" d="M800 1705h-224l-193 245h280zM765 0h-692v228h218l182 1034h-155v228h606v-228h-173l-182 -1034h196v-228z" />
<glyph unicode="&#xcd;" d="M769 1950h290l-279 -245h-234zM765 0h-692v228h218l182 1034h-155v228h606v-228h-173l-182 -1034h196v-228z" />
<glyph unicode="&#xce;" d="M1027 1705h-215l-116 122l-159 -122h-235l286 245h239zM765 0h-692v228h218l182 1034h-155v228h606v-228h-173l-182 -1034h196v-228z" />
<glyph unicode="&#xcf;" d="M497 1700q-56 0 -93 37t-37 89q0 51 37 87.5t93 36.5t93 -36.5t37 -87.5q0 -52 -37 -89t-93 -37zM874 1700q-56 0 -93 37t-37 89q0 51 37 87.5t93 36.5t93 -36.5t37 -87.5q0 -52 -37 -89t-93 -37zM765 0h-692v228h218l182 1034h-155v228h606v-228h-173l-182 -1034h196 v-228z" />
<glyph unicode="&#xd0;" d="M532 1332l-68 -387h97v-235h-138l-82 -462h53q89 0 143.5 51.5t81.5 203.5l102 575q9 54 9 95q0 75 -38.5 117t-126.5 42h-33zM299 1580h291q192 0 304.5 -96.5t112.5 -286.5q0 -38 -4 -78.5t-12 -85.5l-93 -525q-53 -299 -193.5 -403.5t-352.5 -104.5h-331l125 710h-87 v235h128z" />
<glyph unicode="&#xd1;" d="M1061 1858q-115 -214 -243 -214q-50 0 -134.5 58.5t-122.5 58.5q-64 0 -126 -117l-127 92q115 214 243 214q50 0 134.5 -58.5t122.5 -58.5q64 0 126 117zM774 0h-265l-139 980q-25 -330 -91 -703l-49 -277h-225l262 1490h266l137 -980q25 330 91 703l49 277h226z" />
<glyph unicode="&#xd2;" d="M780 1705h-224l-193 245h280zM601 1262q-69 0 -103.5 -55t-58.5 -191l-96 -543q-13 -80 -13 -118q0 -127 111 -127q69 0 103.5 55t58.5 191l96 543q13 80 13 118q0 127 -111 127zM416 -20q-163 0 -261.5 94t-98.5 271q0 81 18 182l84 475q53 300 169 404t299 104 q163 0 261.5 -94t98.5 -271q0 -81 -18 -182l-84 -475q-53 -300 -169 -404t-299 -104z" />
<glyph unicode="&#xd3;" d="M769 1950h290l-279 -245h-234zM601 1262q-69 0 -103.5 -55t-58.5 -191l-96 -543q-13 -80 -13 -118q0 -127 111 -127q69 0 103.5 55t58.5 191l96 543q13 80 13 118q0 127 -111 127zM416 -20q-163 0 -261.5 94t-98.5 271q0 81 18 182l84 475q53 300 169 404t299 104 q163 0 261.5 -94t98.5 -271q0 -81 -18 -182l-84 -475q-53 -300 -169 -404t-299 -104z" />
<glyph unicode="&#xd4;" d="M1027 1705h-215l-116 122l-159 -122h-235l286 245h239zM601 1262q-69 0 -103.5 -55t-58.5 -191l-96 -543q-13 -80 -13 -118q0 -127 111 -127q69 0 103.5 55t58.5 191l96 543q13 80 13 118q0 127 -111 127zM416 -20q-163 0 -261.5 94t-98.5 271q0 81 18 182l84 475 q53 300 169 404t299 104q163 0 261.5 -94t98.5 -271q0 -81 -18 -182l-84 -475q-53 -300 -169 -404t-299 -104z" />
<glyph unicode="&#xd5;" d="M1061 1858q-115 -214 -243 -214q-50 0 -134.5 58.5t-122.5 58.5q-64 0 -126 -117l-127 92q115 214 243 214q50 0 134.5 -58.5t122.5 -58.5q64 0 126 117zM601 1262q-69 0 -103.5 -55t-58.5 -191l-96 -543q-13 -80 -13 -118q0 -127 111 -127q69 0 103.5 55t58.5 191 l96 543q13 80 13 118q0 127 -111 127zM416 -20q-163 0 -261.5 94t-98.5 271q0 81 18 182l84 475q53 300 169 404t299 104q163 0 261.5 -94t98.5 -271q0 -81 -18 -182l-84 -475q-53 -300 -169 -404t-299 -104z" />
<glyph unicode="&#xd6;" d="M497 1700q-56 0 -93 37t-37 89q0 51 37 87.5t93 36.5t93 -36.5t37 -87.5q0 -52 -37 -89t-93 -37zM874 1700q-56 0 -93 37t-37 89q0 51 37 87.5t93 36.5t93 -36.5t37 -87.5q0 -52 -37 -89t-93 -37zM601 1262q-69 0 -103.5 -55t-58.5 -191l-96 -543q-13 -80 -13 -118 q0 -127 111 -127q69 0 103.5 55t58.5 191l96 543q13 80 13 118q0 127 -111 127zM416 -20q-163 0 -261.5 94t-98.5 271q0 81 18 182l84 475q53 300 169 404t299 104q163 0 261.5 -94t98.5 -271q0 -81 -18 -182l-84 -475q-53 -300 -169 -404t-299 -104z" />
<glyph unicode="&#xd7;" d="M721 147l-242 297l-349 -297l-144 176l349 294l-244 295l183 156l242 -297l350 297l142 -176l-346 -295l240 -294z" />
<glyph unicode="&#xd8;" d="M700 1022l-347 -757q30 -37 88 -37q69 0 103.5 55t58.5 191zM358 559l348 756q-28 39 -89 39q-69 0 -103.5 -55t-58.5 -191zM52 -130l89 212q-85 96 -85 263q0 81 18 182l100 567q53 300 174 404t304 104q70 0 125 -17l71 169l153 -64l-82 -194q83 -92 83 -259 q0 -81 -18 -182l-100 -567q-53 -300 -174 -404t-304 -104q-70 0 -120 15l-80 -190z" />
<glyph unicode="&#xd9;" d="M781 1705h-224l-193 245h280zM873 444q-45 -256 -167 -360t-300 -104q-180 0 -280 124q-70 88 -70 235q0 33 3.5 69t10.5 76l177 1006h278l-187 -1059q-4 -23 -6 -43.5t-2 -38.5q0 -131 107 -131q33 0 57.5 13t43 39t31.5 66.5t23 94.5l187 1059h278z" />
<glyph unicode="&#xda;" d="M870 1950h290l-279 -245h-234zM873 444q-45 -256 -167 -360t-300 -104q-180 0 -280 124q-70 88 -70 235q0 33 3.5 69t10.5 76l177 1006h278l-187 -1059q-4 -23 -6 -43.5t-2 -38.5q0 -131 107 -131q33 0 57.5 13t43 39t31.5 66.5t23 94.5l187 1059h278z" />
<glyph unicode="&#xdb;" d="M1038 1705h-215l-116 122l-159 -122h-235l286 245h239zM873 444q-45 -256 -167 -360t-300 -104q-180 0 -280 124q-70 88 -70 235q0 33 3.5 69t10.5 76l177 1006h278l-187 -1059q-4 -23 -6 -43.5t-2 -38.5q0 -131 107 -131q33 0 57.5 13t43 39t31.5 66.5t23 94.5l187 1059 h278z" />
<glyph unicode="&#xdc;" d="M498 1700q-56 0 -93 37t-37 89q0 51 37 87.5t93 36.5t93 -36.5t37 -87.5q0 -52 -37 -89t-93 -37zM875 1700q-56 0 -93 37t-37 89q0 51 37 87.5t93 36.5t93 -36.5t37 -87.5q0 -52 -37 -89t-93 -37zM873 444q-45 -256 -167 -360t-300 -104q-180 0 -280 124q-70 88 -70 235 q0 33 3.5 69t10.5 76l177 1006h278l-187 -1059q-4 -23 -6 -43.5t-2 -38.5q0 -131 107 -131q33 0 57.5 13t43 39t31.5 66.5t23 94.5l187 1059h278z" />
<glyph unicode="&#xdd;" d="M769 1950h290l-279 -245h-234zM524 842l98 142q196 283 196 506h276q0 -249 -276 -649l-189 -272l-100 -569h-278l100 569l-47 152q-114 378 -114 769h276q0 -455 58 -648z" />
<glyph unicode="&#xde;" d="M500 988l-71 -400h114q91 0 137 77.5t46 189.5q0 63 -31.5 98t-98.5 35h-96zM326 1580h278l-63 -356h106q181 0 270 -99t89 -240q0 -242 -127.5 -388t-345.5 -146h-146l-61 -351h-278z" />
<glyph unicode="&#xdf;" d="M390 232h59q176 0 176 156q0 76 -70 202q-65 116 -65 215q0 125 102 249q96 118 96 213q0 42 -22.5 69.5t-66.5 27.5q-60 0 -88.5 -56.5t-45.5 -154.5l-203 -1153h-277l204 1160q41 231 152.5 335.5t290.5 104.5q142 0 237.5 -93t95.5 -227q0 -145 -104 -273 q-94 -111 -94 -195q0 -75 70 -190q64 -107 64 -213q0 -177 -106 -295.5t-376 -118.5h-29v237z" />
<glyph unicode="&#xe0;" d="M631 821q-22 133 -114 133q-61 0 -100 -65.5t-68 -229.5l-25 -142q-15 -86 -15 -145q0 -148 99 -149q92 0 145 152zM765 0h-278l20 115q-95 -132 -243 -132q-111 0 -176 86t-65 234q0 88 19 195l39 220q48 268 136.5 371t219.5 103q149 0 233 -151l23 131h278zM766 1335 h-224l-193 245h280z" />
<glyph unicode="&#xe1;" d="M631 821q-22 133 -114 133q-61 0 -100 -65.5t-68 -229.5l-25 -142q-15 -86 -15 -145q0 -148 99 -149q92 0 145 152zM765 0h-278l20 115q-95 -132 -243 -132q-111 0 -176 86t-65 234q0 88 19 195l39 220q48 268 136.5 371t219.5 103q149 0 233 -151l23 131h278zM724 1580 h290l-279 -245h-234z" />
<glyph unicode="&#xe2;" d="M629 821q-22 133 -114 133q-61 0 -100 -65.5t-68 -229.5l-25 -142q-15 -86 -15 -145q0 -148 99 -149q92 0 145 152zM763 0h-278l20 115q-95 -132 -243 -132q-111 0 -176 86t-65 234q0 88 19 195l39 220q48 268 136.5 371t219.5 103q149 0 233 -151l23 131h278zM969 1335 h-215l-116 122l-159 -122h-235l286 245h239z" />
<glyph unicode="&#xe3;" d="M631 821q-22 133 -114 133q-61 0 -100 -65.5t-68 -229.5l-25 -142q-15 -86 -15 -145q0 -148 99 -149q92 0 145 152zM765 0h-278l20 115q-95 -132 -243 -132q-111 0 -176 86t-65 234q0 88 19 195l39 220q48 268 136.5 371t219.5 103q149 0 233 -151l23 131h278zM1038 1508 q-115 -214 -243 -214q-50 0 -134.5 58.5t-122.5 58.5q-64 0 -126 -117l-127 92q115 214 243 214q50 0 134.5 -58.5t122.5 -58.5q64 0 126 117z" />
<glyph unicode="&#xe4;" d="M631 821q-22 133 -114 133q-61 0 -100 -65.5t-68 -229.5l-25 -142q-15 -86 -15 -145q0 -148 99 -149q92 0 145 152zM765 0h-278l20 115q-95 -132 -243 -132q-111 0 -176 86t-65 234q0 88 19 195l39 220q48 268 136.5 371t219.5 103q149 0 233 -151l23 131h278zM474 1330 q-56 0 -93 37t-37 89q0 51 37 87.5t93 36.5t93 -36.5t37 -87.5q0 -52 -37 -89t-93 -37zM851 1330q-56 0 -93 37t-37 89q0 51 37 87.5t93 36.5t93 -36.5t37 -87.5q0 -52 -37 -89t-93 -37z" />
<glyph unicode="&#xe5;" d="M631 821q-22 133 -114 133q-61 0 -100 -65.5t-68 -229.5l-25 -142q-15 -86 -15 -145q0 -148 99 -149q92 0 145 152zM765 0h-278l20 115q-95 -132 -243 -132q-111 0 -176 86t-65 234q0 88 19 195l39 220q48 268 136.5 371t219.5 103q149 0 233 -151l23 131h278zM935 1498 q0 -102 -71.5 -173.5t-193.5 -71.5t-193 71.5t-71 173.5t71 173t193 71t193.5 -71t71.5 -173zM771 1498q0 46 -27 73t-74 27q-46 0 -73 -27t-27 -73t27 -73.5t73 -27.5t73.5 28t27.5 73z" />
<glyph unicode="&#xe6;" d="M360 538q-179 0 -179 -254q0 -84 60 -84t81 119zM779 719l24 135q4 23 4 45q0 74 -62 74q-61 0 -78 -99l-28 -155h140zM974 538h-366l-37 -213q-4 -23 -4 -46q0 -79 67 -79q63 0 101 101l163 -127q-107 -194 -273 -194q-154 0 -211 136q-76 -136 -237 -136 q-109 0 -168 79.5t-59 192.5q0 207 103 337t339 130l23 129q5 29 5 48q0 77 -63 77q-58 0 -87 -83l-182 109q97 195 273 195q158 0 220 -131q71 131 218 131q108 0 170.5 -67.5t62.5 -197.5q0 -67 -15 -152z" />
<glyph unicode="&#xe7;" d="M837 195q-153 -215 -403 -215q-169 0 -264 103.5t-95 271.5q0 67 13 141l39 221q44 248 167.5 362.5t313.5 114.5q250 0 367 -217l-234 -143q-60 122 -165 122q-128 0 -164 -204l-51 -291q-10 -60 -10 -100q0 -144 115 -144q95 0 169 131zM144 -241h44q123 0 123 52 q0 41 -73 41l66 98q219 -19 219 -140q0 -92 -82.5 -138.5t-296.5 -46.5v134z" />
<glyph unicode="&#xe8;" d="M646 729l8 43q7 45 7 72q0 65 -28 98.5t-81 33.5q-66 0 -101 -52t-54 -152l-8 -43h257zM891 551h-532l-23 -130q-7 -38 -7 -72q0 -131 120 -131q111 0 186 110l184 -143q-151 -205 -413 -205q-161 0 -255.5 94.5t-94.5 266.5q0 69 15 155l39 221q48 270 168.5 373.5 t301.5 103.5q159 0 253.5 -95t94.5 -267q0 -70 -15 -155zM749 1335h-224l-193 245h280z" />
<glyph unicode="&#xe9;" d="M646 729l8 43q7 45 7 72q0 65 -28 98.5t-81 33.5q-66 0 -101 -52t-54 -152l-8 -43h257zM891 551h-532l-23 -130q-7 -38 -7 -72q0 -131 120 -131q111 0 186 110l184 -143q-151 -205 -413 -205q-161 0 -255.5 94.5t-94.5 266.5q0 69 15 155l39 221q48 270 168.5 373.5 t301.5 103.5q159 0 253.5 -95t94.5 -267q0 -70 -15 -155zM707 1580h290l-279 -245h-234z" />
<glyph unicode="&#xea;" d="M646 729l8 43q7 45 7 72q0 65 -28 98.5t-81 33.5q-66 0 -101 -52t-54 -152l-8 -43h257zM891 551h-532l-23 -130q-7 -38 -7 -72q0 -131 120 -131q111 0 186 110l184 -143q-151 -205 -413 -205q-161 0 -255.5 94.5t-94.5 266.5q0 69 15 155l39 221q48 270 168.5 373.5 t301.5 103.5q159 0 253.5 -95t94.5 -267q0 -70 -15 -155zM987 1335h-215l-116 122l-159 -122h-235l286 245h239z" />
<glyph unicode="&#xeb;" d="M646 729l8 43q7 45 7 72q0 65 -28 98.5t-81 33.5q-66 0 -101 -52t-54 -152l-8 -43h257zM891 551h-532l-23 -130q-7 -38 -7 -72q0 -131 120 -131q111 0 186 110l184 -143q-151 -205 -413 -205q-161 0 -255.5 94.5t-94.5 266.5q0 69 15 155l39 221q48 270 168.5 373.5 t301.5 103.5q159 0 253.5 -95t94.5 -267q0 -70 -15 -155zM457 1330q-56 0 -93 37t-37 89q0 51 37 87.5t93 36.5t93 -36.5t37 -87.5q0 -52 -37 -89t-93 -37zM834 1330q-56 0 -93 37t-37 89q0 51 37 87.5t93 36.5t93 -36.5t37 -87.5q0 -52 -37 -89t-93 -37z" />
<glyph unicode="&#xec;" d="M662 756l-93 -528h199v-228h-699v228h222l126 716h-162v228h443q0 -211 -36 -416zM728 1335h-224l-193 245h280z" />
<glyph unicode="&#xed;" d="M659 756l-93 -528h199v-228h-699v228h222l126 716h-162v228h443q0 -211 -36 -416zM788 1580h290l-279 -245h-234z" />
<glyph unicode="&#xee;" d="M674 756l-93 -528h199v-228h-699v228h222l126 716h-162v228h443q0 -211 -36 -416zM957 1335h-215l-116 122l-159 -122h-235l286 245h239z" />
<glyph unicode="&#xef;" d="M666 756l-93 -528h199v-228h-699v228h222l126 716h-162v228h443q0 -211 -36 -416zM430 1330q-56 0 -93 37t-37 89q0 51 37 87.5t93 36.5t93 -36.5t37 -87.5q0 -52 -37 -89t-93 -37zM807 1330q-56 0 -93 37t-37 89q0 51 37 87.5t93 36.5t93 -36.5t37 -87.5q0 -52 -37 -89 t-93 -37z" />
<glyph unicode="&#xf0;" d="M608 734q-22 133 -126 133q-60 0 -94.5 -60t-54.5 -172l-28 -162q-5 -32 -8 -59t-3 -50q0 -147 105 -147q76 0 107.5 61.5t51.5 170.5zM1084 1421l-166 -54q31 -81 31 -188q0 -74 -15 -158l-112 -632q-36 -203 -155.5 -306t-299.5 -103q-139 0 -243.5 95t-104.5 272 q0 65 14 147l24 136q48 271 141 374.5t214 103.5q159 0 240 -125l24 138q8 47 8 85q0 43 -11 80l-188 -62l-50 157l161 53q-29 45 -86 84l163 192q121 -88 177 -194l182 60z" />
<glyph unicode="&#xf1;" d="M795 0h-278l130 738q10 65 10 95q0 116 -109 116q-104 0 -147 -162l-138 -787h-278l206 1172h278l-20 -115q94 132 243 132q110 0 178.5 -76.5t68.5 -219.5q0 -36 -4 -77t-12 -88zM1021 1508q-115 -214 -243 -214q-50 0 -134.5 58.5t-122.5 58.5q-64 0 -126 -117l-127 92 q115 214 243 214q50 0 134.5 -58.5t122.5 -58.5q64 0 126 117z" />
<glyph unicode="&#xf2;" d="M548 956q-67 0 -100.5 -50.5t-62.5 -211.5l-39 -222q-14 -83 -14 -129q0 -125 106 -125q67 0 100.5 50.5t62.5 211.5l39 222q14 83 14 129q0 125 -106 125zM406 -20q-160 0 -254.5 94t-94.5 265q0 70 15 156l39 222q47 270 168.5 373.5t300.5 103.5q160 0 254.5 -94 t94.5 -265q0 -70 -15 -156l-39 -222q-47 -270 -168.5 -373.5t-300.5 -103.5zM749 1335h-224l-193 245h280z" />
<glyph unicode="&#xf3;" d="M548 956q-67 0 -100.5 -50.5t-62.5 -211.5l-39 -222q-14 -83 -14 -129q0 -125 106 -125q67 0 100.5 50.5t62.5 211.5l39 222q14 83 14 129q0 125 -106 125zM406 -20q-160 0 -254.5 94t-94.5 265q0 70 15 156l39 222q47 270 168.5 373.5t300.5 103.5q160 0 254.5 -94 t94.5 -265q0 -70 -15 -156l-39 -222q-47 -270 -168.5 -373.5t-300.5 -103.5zM707 1580h290l-279 -245h-234z" />
<glyph unicode="&#xf4;" d="M549 956q-67 0 -100.5 -50.5t-62.5 -211.5l-39 -222q-14 -83 -14 -129q0 -125 106 -125q67 0 100.5 50.5t62.5 211.5l39 222q14 83 14 129q0 125 -106 125zM407 -20q-160 0 -254.5 94t-94.5 265q0 70 15 156l39 222q47 270 168.5 373.5t300.5 103.5q160 0 254.5 -94 t94.5 -265q0 -70 -15 -156l-39 -222q-47 -270 -168.5 -373.5t-300.5 -103.5zM988 1335h-215l-116 122l-159 -122h-235l286 245h239z" />
<glyph unicode="&#xf5;" d="M548 956q-67 0 -100.5 -50.5t-62.5 -211.5l-39 -222q-14 -83 -14 -129q0 -125 106 -125q67 0 100.5 50.5t62.5 211.5l39 222q14 83 14 129q0 125 -106 125zM406 -20q-160 0 -254.5 94t-94.5 265q0 70 15 156l39 222q47 270 168.5 373.5t300.5 103.5q160 0 254.5 -94 t94.5 -265q0 -70 -15 -156l-39 -222q-47 -270 -168.5 -373.5t-300.5 -103.5zM1021 1508q-115 -214 -243 -214q-50 0 -134.5 58.5t-122.5 58.5q-64 0 -126 -117l-127 92q115 214 243 214q50 0 134.5 -58.5t122.5 -58.5q64 0 126 117z" />
<glyph unicode="&#xf6;" d="M548 956q-67 0 -100.5 -50.5t-62.5 -211.5l-39 -222q-14 -83 -14 -129q0 -125 106 -125q67 0 100.5 50.5t62.5 211.5l39 222q14 83 14 129q0 125 -106 125zM406 -20q-160 0 -254.5 94t-94.5 265q0 70 15 156l39 222q47 270 168.5 373.5t300.5 103.5q160 0 254.5 -94 t94.5 -265q0 -70 -15 -156l-39 -222q-47 -270 -168.5 -373.5t-300.5 -103.5zM457 1330q-56 0 -93 37t-37 89q0 51 37 87.5t93 36.5t93 -36.5t37 -87.5q0 -52 -37 -89t-93 -37zM834 1330q-56 0 -93 37t-37 89q0 51 37 87.5t93 36.5t93 -36.5t37 -87.5q0 -52 -37 -89t-93 -37z " />
<glyph unicode="&#xf7;" d="M774 1028q0 -91 -59.5 -147.5t-144.5 -56.5t-144 56.5t-59 147.5q0 90 58.5 146.5t144.5 56.5q85 0 144.5 -57t59.5 -146zM625 183q0 -91 -59.5 -147t-144.5 -56t-144 56t-59 147q0 90 58.5 146.5t144.5 56.5q85 0 144.5 -57t59.5 -146zM976 508h-961v198h961v-198z" />
<glyph unicode="&#xf8;" d="M664 844l-290 -609q20 -17 64 -17q67 0 100.5 50.5t60.5 203.5zM803 1361l146 -76l-102 -198q82 -91 82 -252q0 -70 -15 -156l-39 -222q-47 -270 -168.5 -373.5t-300.5 -103.5q-75 0 -125 17l-96 -182l-148 74l102 198q-82 91 -82 252q0 70 15 156l39 222 q47 270 168.5 373.5t300.5 103.5q75 0 125 -17zM322 330l290 609q-20 17 -64 17q-67 0 -100.5 -50.5t-60.5 -203.5z" />
<glyph unicode="&#xf9;" d="M171 1172h278l-130 -738q-10 -65 -10 -95q0 -116 109 -116q104 0 147 162l138 787h278l-206 -1172h-278l20 115q-94 -132 -243 -132q-110 0 -178.5 76.5t-68.5 219.5q0 36 4 77t12 88zM749 1335h-224l-193 245h280z" />
<glyph unicode="&#xfa;" d="M171 1172h278l-130 -738q-10 -65 -10 -95q0 -116 109 -116q104 0 147 162l138 787h278l-206 -1172h-278l20 115q-94 -132 -243 -132q-110 0 -178.5 76.5t-68.5 219.5q0 36 4 77t12 88zM707 1580h290l-279 -245h-234z" />
<glyph unicode="&#xfb;" d="M171 1172h278l-130 -738q-10 -65 -10 -95q0 -116 109 -116q104 0 147 162l138 787h278l-206 -1172h-278l20 115q-94 -132 -243 -132q-110 0 -178.5 76.5t-68.5 219.5q0 36 4 77t12 88zM987 1335h-215l-116 122l-159 -122h-235l286 245h239z" />
<glyph unicode="&#xfc;" d="M171 1172h278l-130 -738q-10 -65 -10 -95q0 -116 109 -116q104 0 147 162l138 787h278l-206 -1172h-278l20 115q-94 -132 -243 -132q-110 0 -178.5 76.5t-68.5 219.5q0 36 4 77t12 88zM458 1330q-56 0 -93 37t-37 89q0 51 37 87.5t93 36.5t93 -36.5t37 -87.5 q0 -52 -37 -89t-93 -37zM835 1330q-56 0 -93 37t-37 89q0 51 37 87.5t93 36.5t93 -36.5t37 -87.5q0 -52 -37 -89t-93 -37z" />
<glyph unicode="&#xfd;" d="M770 1580h290l-279 -245h-234zM30 -365q5 199 143 428l135 223l-69 271q-83 324 -83 615h276q0 -395 50 -600l118 198q144 235 144 402h276q0 -174 -162 -439l-385 -641q-167 -278 -167 -457h-276z" />
<glyph unicode="&#xfe;" d="M345 355q22 -132 115 -132q116 0 165 278l28 158q15 85 15 145q0 150 -99 150q-93 0 -145 -153zM283 1580h278l-91 -519q95 131 243 131q110 0 175 -88t65 -233q0 -83 -19 -193l-47 -261q-76 -434 -347 -434q-148 0 -234 152l-88 -500h-278z" />
<glyph unicode="&#xff;" d="M458 1330q-56 0 -93 37t-37 89q0 51 37 87.5t93 36.5t93 -36.5t37 -87.5q0 -52 -37 -89t-93 -37zM835 1330q-56 0 -93 37t-37 89q0 51 37 87.5t93 36.5t93 -36.5t37 -87.5q0 -52 -37 -89t-93 -37zM17 -365q5 199 143 428l135 223l-69 271q-83 324 -83 615h276 q0 -395 50 -600l118 198q144 235 144 402h276q0 -174 -162 -439l-385 -641q-167 -278 -167 -457h-276z" />
<glyph unicode="&#x100;" d="M977 1624h-571v176h571v-176zM604 1248q-79 -191 -141 -355.5t-109 -307.5h246q5 112 7.5 213t2.5 192q0 142 -6 258zM-57 0q21 362 333 1060l192 430h367q12 -123 22 -333t10 -423q0 -367 -30 -734h-276q8 93 14 179.5t11 168.5h-303q-28 -106 -44 -192.5t-20 -155.5 h-276z" />
<glyph unicode="&#x101;" d="M671 821q-22 133 -114 133q-61 0 -100 -65.5t-68 -229.5l-25 -142q-15 -86 -15 -145q0 -148 99 -149q92 0 145 152zM805 0h-278l20 115q-95 -132 -243 -132q-111 0 -176 86t-65 234q0 88 19 195l39 220q48 268 136.5 371t219.5 103q149 0 233 -151l23 131h278zM937 1315 h-571v176h571v-176z" />
<glyph unicode="&#x102;" d="M991 1742q-121 -117 -298 -117q-178 0 -298 117v208q138 -136 298 -136q159 0 298 136v-208zM604 1248q-79 -191 -141 -355.5t-109 -307.5h246q5 112 7.5 213t2.5 192q0 142 -6 258zM-57 0q21 362 333 1060l192 430h367q12 -123 22 -333t10 -423q0 -367 -30 -734h-276 q8 93 14 179.5t11 168.5h-303q-28 -106 -44 -192.5t-20 -155.5h-276z" />
<glyph unicode="&#x103;" d="M671 821q-22 133 -114 133q-61 0 -100 -65.5t-68 -229.5l-25 -142q-15 -86 -15 -145q0 -148 99 -149q92 0 145 152zM805 0h-278l20 115q-95 -132 -243 -132q-111 0 -176 86t-65 234q0 88 19 195l39 220q48 268 136.5 371t219.5 103q149 0 233 -151l23 131h278zM951 1392 q-121 -117 -298 -117q-178 0 -298 117v208q138 -136 298 -136q159 0 298 136v-208z" />
<glyph unicode="&#x104;" d="M604 1248q-79 -191 -141 -355.5t-109 -307.5h246q5 112 7.5 213t2.5 192q0 142 -6 258zM-57 0q21 362 333 1060l233 520h318q20 -213 30 -423t10 -423q0 -367 -30 -734h-276q8 93 14 179.5t11 168.5h-303q-28 -106 -44 -192.5t-20 -155.5h-276zM806 -375 q-186 0 -269.5 51.5t-83.5 139.5q0 123 158 184h197q-146 -63 -146 -141q0 -69 144 -69v-165z" />
<glyph unicode="&#x105;" d="M671 821q-22 133 -114 133q-61 0 -100 -65.5t-68 -229.5l-25 -142q-15 -86 -15 -145q0 -148 99 -149q92 0 145 152zM805 0h-278l20 115q-95 -132 -243 -132q-111 0 -176 86t-65 234q0 88 19 195l39 220q48 268 136.5 371t219.5 103q149 0 233 -151l23 131h278zM771 -375 q-186 0 -269.5 51.5t-83.5 139.5q0 123 158 184h197q-146 -63 -146 -141q0 -69 144 -69v-165z" />
<glyph unicode="&#x106;" d="M837 1950h280l-279 -245h-224zM899 219q-170 -239 -419 -239q-173 0 -270 91.5t-97 271.5q0 123 98 647q52 298 176.5 409t322.5 111q250 0 375 -239l-234 -143q-62 135 -175 135q-78 0 -118 -56t-66 -201q-104 -581 -104 -637q0 -143 125 -143q114 0 202 136z" />
<glyph unicode="&#x107;" d="M827 195q-153 -215 -403 -215q-169 0 -264 103.5t-95 271.5q0 67 13 141l39 221q44 248 167.5 362.5t313.5 114.5q250 0 367 -217l-234 -143q-60 122 -165 122q-128 0 -164 -204l-51 -291q-10 -60 -10 -100q0 -144 115 -144q95 0 169 131zM782 1580h280l-279 -245h-224z " />
<glyph unicode="&#x108;" d="M1082 1705h-215l-116 122l-159 -122h-235l286 245h239zM899 219q-170 -239 -419 -239q-173 0 -270 91.5t-97 271.5q0 123 98 647q52 298 176.5 409t322.5 111q250 0 375 -239l-234 -143q-62 135 -175 135q-78 0 -118 -56t-66 -201q-104 -581 -104 -637q0 -143 125 -143 q114 0 202 136z" />
<glyph unicode="&#x109;" d="M827 195q-153 -215 -403 -215q-169 0 -264 103.5t-95 271.5q0 67 13 141l39 221q44 248 167.5 362.5t313.5 114.5q250 0 367 -217l-234 -143q-60 122 -165 122q-128 0 -164 -204l-51 -291q-10 -60 -10 -100q0 -144 115 -144q95 0 169 131zM1012 1335h-215l-116 122 l-159 -122h-235l286 245h239z" />
<glyph unicode="&#x10a;" d="M918 1805q0 -61 -40 -103t-126 -42t-125.5 42t-39.5 103q0 62 39.5 103.5t125.5 41.5t126 -41.5t40 -103.5zM899 219q-170 -239 -419 -239q-173 0 -270 91.5t-97 271.5q0 123 98 647q52 298 176.5 409t322.5 111q250 0 375 -239l-234 -143q-62 135 -175 135 q-78 0 -118 -56t-66 -201q-104 -581 -104 -637q0 -143 125 -143q114 0 202 136z" />
<glyph unicode="&#x10b;" d="M827 195q-153 -215 -403 -215q-169 0 -264 103.5t-95 271.5q0 67 13 141l39 221q44 248 167.5 362.5t313.5 114.5q250 0 367 -217l-234 -143q-60 122 -165 122q-128 0 -164 -204l-51 -291q-10 -60 -10 -100q0 -144 115 -144q95 0 169 131zM848 1435q0 -61 -40 -103 t-126 -42t-125.5 42t-39.5 103q0 62 39.5 103.5t125.5 41.5t126 -41.5t40 -103.5z" />
<glyph unicode="&#x10c;" d="M861 1705h-239l-200 245h215l117 -122l158 122h235zM899 219q-170 -239 -419 -239q-173 0 -270 91.5t-97 271.5q0 123 98 647q52 298 176.5 409t322.5 111q250 0 375 -239l-234 -143q-62 135 -175 135q-78 0 -118 -56t-66 -201q-104 -581 -104 -637q0 -143 125 -143 q114 0 202 136z" />
<glyph unicode="&#x10d;" d="M827 195q-153 -215 -403 -215q-169 0 -264 103.5t-95 271.5q0 67 13 141l39 221q44 248 167.5 362.5t313.5 114.5q250 0 367 -217l-234 -143q-60 122 -165 122q-128 0 -164 -204l-51 -291q-10 -60 -10 -100q0 -144 115 -144q95 0 169 131zM794 1335h-239l-200 245h215 l117 -122l158 122h235z" />
<glyph unicode="&#x10e;" d="M739 1705h-239l-200 245h215l117 -122l158 122h235zM685 988q10 62 10 100q0 81 -38.5 117.5t-117.5 36.5h-53l-175 -994h73q88 0 138 51q50 53 77 204zM253 1490h341q191 0 285 -94.5t94 -270.5q0 -82 -18 -182l-77 -435q-53 -299 -174 -404q-121 -104 -332 -104h-344 q0 210 36 416z" />
<glyph unicode="&#x10f;" d="M605 0h-236l19 111q-77 -131 -197 -131q-104 0 -166.5 88t-62.5 230q0 87 20 196l38 220q48 270 137 372.5t199 102.5q128 0 199 -132l92 523h236zM428 339l83 470q-40 142 -115 142q-54 0 -86.5 -59.5t-52.5 -176.5l-43 -242q-11 -61 -11 -107q0 -74 23 -112t61 -38 q73 0 141 123zM1213 1580l-133 -365h-175l108 365h200z" />
<glyph unicode="&#x110;" d="M532 1332l-68 -387h97v-235h-138l-82 -462h53q89 0 143.5 51.5t81.5 203.5l102 575q9 54 9 95q0 75 -38.5 117t-126.5 42h-33zM299 1580h291q192 0 304.5 -96.5t112.5 -286.5q0 -38 -4 -78.5t-12 -85.5l-93 -525q-53 -299 -193.5 -403.5t-352.5 -104.5h-331l125 710h-87 v235h128z" />
<glyph unicode="&#x111;" d="M1088 1256h-112l-221 -1256h-278l23 131q-97 -151 -227 -151q-127 0 -194 83t-67 235q0 81 20 196l23 130q47 270 136 372.5t219 102.5q149 0 233 -152l55 309h-164v168h194l27 156h278l-27 -156h82v-168zM539 361l67 376q-24 122 -116 122q-61 0 -99 -60t-67 -224 l-9 -52q-16 -91 -16 -151q0 -79 27 -116.5t71 -37.5q92 0 142 143z" />
<glyph unicode="&#x112;" d="M996 1774h-571v176h571v-176zM89 416l189 1074h766v-238h-530l-62 -351h345v-238h-387l-75 -425h489v-238h-771q0 211 36 416z" />
<glyph unicode="&#x113;" d="M646 729l8 43q7 45 7 72q0 65 -28 98.5t-81 33.5q-66 0 -101 -52t-54 -152l-8 -43h257zM891 551h-532l-23 -130q-7 -38 -7 -72q0 -131 120 -131q111 0 186 110l184 -143q-151 -205 -413 -205q-161 0 -255.5 94.5t-94.5 266.5q0 69 15 155l39 221q48 270 168.5 373.5 t301.5 103.5q159 0 253.5 -95t94.5 -267q0 -70 -15 -155zM938 1404h-571v176h571v-176z" />
<glyph unicode="&#x114;" d="M991 1742q-121 -117 -298 -117q-178 0 -298 117v208q138 -136 298 -136q159 0 298 136v-208zM89 416l189 1074h766v-238h-530l-62 -351h345v-238h-387l-75 -425h489v-238h-771q0 211 36 416z" />
<glyph unicode="&#x115;" d="M646 729l8 43q7 45 7 72q0 65 -28 98.5t-81 33.5q-66 0 -101 -52t-54 -152l-8 -43h257zM891 551h-532l-23 -130q-7 -38 -7 -72q0 -131 120 -131q111 0 186 110l184 -143q-151 -205 -413 -205q-161 0 -255.5 94.5t-94.5 266.5q0 69 15 155l39 221q48 270 168.5 373.5 t301.5 103.5q159 0 253.5 -95t94.5 -267q0 -70 -15 -155zM951 1392q-121 -117 -298 -117q-178 0 -298 117v208q138 -136 298 -136q159 0 298 136v-208z" />
<glyph unicode="&#x116;" d="M848 1805q0 -61 -40 -103t-126 -42t-125.5 42t-39.5 103q0 62 39.5 103.5t125.5 41.5t126 -41.5t40 -103.5zM89 416l189 1074h766v-238h-530l-62 -351h345v-238h-387l-75 -425h489v-238h-771q0 211 36 416z" />
<glyph unicode="&#x117;" d="M646 729l8 43q7 45 7 72q0 65 -28 98.5t-81 33.5q-66 0 -101 -52t-54 -152l-8 -43h257zM891 551h-532l-23 -130q-7 -38 -7 -72q0 -131 120 -131q111 0 186 110l184 -143q-151 -205 -413 -205q-161 0 -255.5 94.5t-94.5 266.5q0 69 15 155l39 221q48 270 168.5 373.5 t301.5 103.5q159 0 253.5 -95t94.5 -267q0 -70 -15 -155zM799 1435q0 -61 -40 -103t-126 -42t-125.5 42t-39.5 103q0 62 39.5 103.5t125.5 41.5t126 -41.5t40 -103.5z" />
<glyph unicode="&#x118;" d="M80 416l205 1164h766v-238h-530l-70 -396h345v-238h-387l-83 -470h499v-238h-781q0 211 36 416zM773 -375q-186 0 -269.5 51.5t-83.5 139.5q0 123 158 184h197q-146 -63 -146 -141q0 -69 144 -69v-165z" />
<glyph unicode="&#x119;" d="M646 729l8 43q7 45 7 72q0 65 -28 98.5t-81 33.5q-66 0 -101 -52t-54 -152l-8 -43h257zM891 551h-532l-23 -130q-7 -38 -7 -72q0 -131 120 -131q111 0 186 110l184 -143q-151 -205 -413 -205q-161 0 -255.5 94.5t-94.5 266.5q0 69 15 155l39 221q48 270 168.5 373.5 t301.5 103.5q159 0 253.5 -95t94.5 -267q0 -70 -15 -155zM534 -375q-186 0 -269.5 51.5t-83.5 139.5q0 123 158 184h197q-146 -63 -146 -141q0 -69 144 -69v-165z" />
<glyph unicode="&#x11a;" d="M785 1705h-239l-200 245h215l117 -122l158 122h235zM89 416l189 1074h766v-238h-530l-62 -351h345v-238h-387l-75 -425h489v-238h-771q0 211 36 416z" />
<glyph unicode="&#x11b;" d="M646 729l8 43q7 45 7 72q0 65 -28 98.5t-81 33.5q-66 0 -101 -52t-54 -152l-8 -43h257zM891 551h-532l-23 -130q-7 -38 -7 -72q0 -131 120 -131q111 0 186 110l184 -143q-151 -205 -413 -205q-161 0 -255.5 94.5t-94.5 266.5q0 69 15 155l39 221q48 270 168.5 373.5 t301.5 103.5q159 0 253.5 -95t94.5 -267q0 -70 -15 -155zM745 1335h-239l-200 245h215l117 -122l158 122h235z" />
<glyph unicode="&#x11c;" d="M1014 1705h-215l-116 122l-159 -122h-235l286 245h239zM872 442q-45 -255 -166 -358q-122 -104 -300 -104q-155 0 -251 91.5t-96 273.5q0 111 101 657q53 300 174 404t301 104q248 0 367 -216l-234 -143q-55 112 -159 112q-67 0 -106.5 -57t-63.5 -195 q-106 -588 -106 -657q0 -128 107 -128q76 0 106 56q30 57 46 144l33 187h-95v237h377q0 -209 -35 -408z" />
<glyph unicode="&#x11d;" d="M613 821q-22 133 -114 133q-116 0 -161 -256q-34 -190 -34 -248q0 -150 99 -150q92 0 145 152zM764 102q-45 -260 -163 -368.5t-312 -108.5q-267 0 -378 185l232 120q37 -67 156 -67q145 0 177 179l26 150q-95 -132 -243 -132q-111 0 -176 86t-65 231q0 85 51 373 q77 442 350 442q149 0 233 -151l23 131h278zM987 1335h-215l-116 122l-159 -122h-235l286 245h239z" />
<glyph unicode="&#x11e;" d="M991 1742q-121 -117 -298 -117q-178 0 -298 117v208q138 -136 298 -136q159 0 298 136v-208zM872 442q-45 -255 -166 -358q-122 -104 -300 -104q-155 0 -251 91.5t-96 273.5q0 111 101 657q53 300 174 404t301 104q248 0 367 -216l-234 -143q-55 112 -159 112 q-67 0 -106.5 -57t-63.5 -195q-106 -588 -106 -657q0 -128 107 -128q76 0 106 56q30 57 46 144l33 187h-95v237h377q0 -209 -35 -408z" />
<glyph unicode="&#x11f;" d="M613 821q-22 133 -114 133q-116 0 -161 -256q-34 -190 -34 -248q0 -150 99 -150q92 0 145 152zM764 102q-45 -260 -163 -368.5t-312 -108.5q-267 0 -378 185l232 120q37 -67 156 -67q145 0 177 179l26 150q-95 -132 -243 -132q-111 0 -176 86t-65 231q0 85 51 373 q77 442 350 442q149 0 233 -151l23 131h278zM951 1392q-121 -117 -298 -117q-178 0 -298 117v208q138 -136 298 -136q159 0 298 136v-208z" />
<glyph unicode="&#x120;" d="M847 1805q0 -61 -40 -103t-126 -42t-125.5 42t-39.5 103q0 62 39.5 103.5t125.5 41.5t126 -41.5t40 -103.5zM872 442q-45 -255 -166 -358q-122 -104 -300 -104q-155 0 -251 91.5t-96 273.5q0 111 101 657q53 300 174 404t301 104q248 0 367 -216l-234 -143 q-55 112 -159 112q-67 0 -106.5 -57t-63.5 -195q-106 -588 -106 -657q0 -128 107 -128q76 0 106 56q30 57 46 144l33 187h-95v237h377q0 -209 -35 -408z" />
<glyph unicode="&#x121;" d="M613 821q-22 133 -114 133q-116 0 -161 -256q-34 -190 -34 -248q0 -150 99 -150q92 0 145 152zM764 102q-45 -260 -163 -368.5t-312 -108.5q-267 0 -378 185l232 120q37 -67 156 -67q145 0 177 179l26 150q-95 -132 -243 -132q-111 0 -176 86t-65 231q0 85 51 373 q77 442 350 442q149 0 233 -151l23 131h278zM796 1435q0 -61 -40 -103t-126 -42t-125.5 42t-39.5 103q0 62 39.5 103.5t125.5 41.5t126 -41.5t40 -103.5z" />
<glyph unicode="&#x122;" d="M880 487q-53 -300 -174 -403q-122 -104 -300 -104q-155 0 -251 91.5t-96 273.5q0 111 118 749q53 300 174 404t301 104q248 0 367 -216l-234 -143q-55 112 -159 112q-67 0 -106.5 -57t-63.5 -195q-123 -680 -123 -749q0 -128 107 -128q76 0 106 56q30 57 54 189l33 187 h-95v237h377q0 -209 -35 -408zM460 -156q0 -85 -113 -209h-114q61 69 96 140q-34 6 -53 29.5t-19 58.5q0 36 27 61.5t71 25.5q43 0 74 -30.5t31 -75.5z" />
<glyph unicode="&#x123;" d="M613 821q-22 133 -114 133q-116 0 -161 -256q-34 -190 -34 -248q0 -150 99 -150q92 0 145 152zM764 102q-45 -260 -163 -368.5t-312 -108.5q-267 0 -378 185l232 120q37 -67 156 -67q145 0 177 179l26 150q-95 -132 -243 -132q-111 0 -176 86t-65 231q0 85 51 373 q77 442 350 442q149 0 233 -151l23 131h278zM421 1315l322 265h274l-266 -265h-330z" />
<glyph unicode="&#x124;" d="M1027 1705h-215l-116 122l-159 -122h-235l286 245h239zM794 0h-278l120 685h-253l-120 -685h-278l262 1490h278l-100 -567h253l100 567h278z" />
<glyph unicode="&#x125;" d="M800 0h-278l130 738q10 65 10 95q0 116 -109 116q-104 0 -147 -162l-138 -787h-278l278 1580h278l-92 -523q94 132 243 132q110 0 178.5 -76.5t68.5 -219.5q0 -36 -4 -77t-12 -88zM1007 1705h-215l-116 122l-159 -122h-235l286 245h239z" />
<glyph unicode="&#x126;" d="M794 0h-278l121 690h-253l-121 -690h-278l208 1185h-64v154h92l42 241h278l-42 -241h253l42 241h278l-42 -241h68v-154h-96zM679 928l45 257h-253l-45 -257h253z" />
<glyph unicode="&#x127;" d="M936 827q0 -75 -15 -169l-116 -658h-278l116 658q10 55 10 102q0 58 -28.5 88.5t-79.5 30.5q-103 0 -143 -142l-129 -737h-278l224 1275h-87v154h114l27 151h278l-27 -151h179v-154h-206l-51 -288q95 132 244 132q110 0 178 -75t68 -217z" />
<glyph unicode="&#x128;" d="M1061 1858q-115 -214 -243 -214q-50 0 -134.5 58.5t-122.5 58.5q-64 0 -126 -117l-127 92q115 214 243 214q50 0 134.5 -58.5t122.5 -58.5q64 0 126 117zM765 0h-692v228h218l182 1034h-155v228h606v-228h-173l-182 -1034h196v-228z" />
<glyph unicode="&#x129;" d="M662 756l-93 -528h199v-228h-699v228h222l126 716h-162v228h443q0 -211 -36 -416zM972 1508q-115 -214 -243 -214q-50 0 -134.5 58.5t-122.5 58.5q-64 0 -126 -117l-127 92q115 214 243 214q50 0 134.5 -58.5t122.5 -58.5q64 0 126 117z" />
<glyph unicode="&#x12a;" d="M978 1774h-571v176h571v-176zM765 0h-692v228h218l182 1034h-155v228h606v-228h-173l-182 -1034h196v-228z" />
<glyph unicode="&#x12b;" d="M662 756l-93 -528h199v-228h-699v228h222l126 716h-162v228h443q0 -211 -36 -416zM869 1404h-571v176h571v-176z" />
<glyph unicode="&#x12c;" d="M972 1742q-121 -117 -298 -117q-178 0 -298 117v208q138 -136 298 -136q159 0 298 136v-208zM765 0h-692v228h218l182 1034h-155v228h606v-228h-173l-182 -1034h196v-228z" />
<glyph unicode="&#x12d;" d="M662 756l-93 -528h199v-228h-699v228h222l126 716h-162v228h443q0 -211 -36 -416zM903 1392q-121 -117 -298 -117q-178 0 -298 117v208q138 -136 298 -136q159 0 298 136v-208z" />
<glyph unicode="&#x12e;" d="M765 0h-692v228h218l198 1124h-155v228h606v-228h-173l-198 -1124h196v-228zM478 -375q-186 0 -269.5 51.5t-83.5 139.5q0 123 158 184h197q-146 -63 -146 -141q0 -69 144 -69v-165z" />
<glyph unicode="&#x12f;" d="M653 756l-93 -528h199v-228h-699v228h222l126 716h-162v228h443q0 -211 -36 -416zM807 1549q0 -76 -50.5 -126.5t-135.5 -50.5t-135 50.5t-50 126.5t50 127t135 51t135.5 -51t50.5 -127zM478 -375q-186 0 -269.5 51.5t-83.5 139.5q0 123 158 184h197q-146 -63 -146 -141 q0 -69 144 -69v-165z" />
<glyph unicode="&#x130;" d="M848 1805q0 -61 -40 -103t-126 -42t-125.5 42t-39.5 103q0 62 39.5 103.5t125.5 41.5t126 -41.5t40 -103.5zM765 0h-692v228h218l182 1034h-155v228h606v-228h-173l-182 -1034h196v-228z" />
<glyph unicode="&#x131;" d="M662 756l-93 -528h199v-228h-699v228h222l126 716h-162v228h443q0 -211 -36 -416z" />
<glyph unicode="&#x132;" d="M541 1580l-144 -816h-278l144 816h278zM1073 1580l-200 -1136q-79 -464 -463 -464q-180 0 -267 106t-87 253q0 73 14 145l19 110h278l-29 -163q-8 -53 -8 -82q0 -131 107 -131q114 0 147 170l211 1192h278z" />
<glyph unicode="&#x133;" d="M289 0h-277l206 1172h277zM496 26l202 1146h277l-204 -1160q-37 -210 -141 -298.5t-259 -88.5q-237 0 -357 185l231 120q27 -67 116 -67q48 0 83.5 35.5t51.5 127.5zM575 1549q0 -67 -44 -111t-119 -44t-119 44t-44 111t44 111.5t119 44.5t119 -44.5t44 -111.5z M1055 1549q0 -67 -44 -111t-119 -44t-119 44t-44 111t44 111.5t119 44.5t119 -44.5t44 -111.5z" />
<glyph unicode="&#x134;" d="M1057 1705h-215l-116 122l-159 -122h-235l286 245h239zM824 465q-50 -279 -170 -381q-122 -104 -300 -104q-180 0 -280 124q-68 85 -68 237q0 37 4 78t12 86l35 201h278l-40 -226q-12 -71 -12 -121q0 -75 26 -109t76 -34q33 0 58 15t44.5 47t34.5 82t27 120l178 1010h278 z" />
<glyph unicode="&#x135;" d="M987 1335h-215l-116 122l-159 -122h-235l286 245h239zM766 756l-131 -744q-37 -210 -136.5 -298.5t-284.5 -88.5q-227 0 -338 185l232 120q27 -67 116 -67q49 0 84.5 35.5t51.5 127.5l162 918h-246v228h526q0 -211 -36 -416z" />
<glyph unicode="&#x136;" d="M596 1580l-106 -601q373 396 394 601h276q-27 -258 -422 -670q192 -437 192 -910h-276q0 440 -114 700l-122 -129l-100 -571h-278l278 1580h278zM570 -156q0 -85 -113 -209h-114q61 69 96 140q-34 6 -53 29.5t-19 58.5q0 36 27 61.5t71 25.5q43 0 74 -30.5t31 -75.5z" />
<glyph unicode="&#x137;" d="M887 0h-276q0 248 -107 439l-21 39l-104 -87l-69 -391h-276l278 1580h276l-149 -845l59 46q277 233 288 391h276q-14 -227 -317 -477l-72 -59l48 -85q166 -294 166 -551zM531 -156q0 -85 -113 -209h-114q61 69 96 140q-34 6 -53 29.5t-19 58.5q0 36 27 61.5t71 25.5 q43 0 74 -30.5t31 -75.5z" />
<glyph unicode="&#x138;" d="M860 0h-276q0 248 -107 439l-21 39l-104 -87l-69 -391h-276l206 1172h276l-77 -437l59 46q277 233 288 391h276q-14 -227 -317 -477l-72 -59l48 -85q166 -294 166 -551z" />
<glyph unicode="&#x139;" d="M559 1950h280l-279 -245h-224zM132 416l189 1074h278l-221 -1252h489v-238h-771q0 211 36 416z" />
<glyph unicode="&#x13a;" d="M757 1950h280l-279 -245h-224zM779 0h-700v228h223l182 1034h-153v228h434q0 -211 -36 -416l-149 -846h199v-228z" />
<glyph unicode="&#x13b;" d="M100 416l205 1164h278l-237 -1342h489v-238h-771q0 211 36 416zM470 -156q0 -85 -113 -209h-114q61 69 96 140q-34 6 -53 29.5t-19 58.5q0 36 27 61.5t71 25.5q43 0 74 -30.5t31 -75.5z" />
<glyph unicode="&#x13c;" d="M789 0h-700v228h223l198 1124h-153v228h434q0 -211 -36 -416l-165 -936h199v-228zM441 -156q0 -85 -113 -209h-114q61 69 96 140q-34 6 -53 29.5t-19 58.5q0 36 27 61.5t71 25.5q43 0 74 -30.5t31 -75.5z" />
<glyph unicode="&#x13d;" d="M100 416l205 1164h278l-237 -1342h489v-238h-771q0 211 36 416zM994 1580l-133 -365h-185l108 365h210z" />
<glyph unicode="&#x13e;" d="M1143 1580l-133 -365h-185l108 365h210zM789 0h-700v228h223l198 1124h-153v228h434q0 -211 -36 -416l-165 -936h199v-228z" />
<glyph unicode="&#x13f;" d="M100 416l205 1164h278l-237 -1342h489v-238h-771q0 211 36 416zM961 658q0 -61 -40 -103t-126 -42t-125.5 42t-39.5 103q0 62 39.5 103.5t125.5 41.5t126 -41.5t40 -103.5z" />
<glyph unicode="&#x140;" d="M730 0h-700v228h223l198 1124h-153v228h434q0 -211 -36 -416l-165 -936h199v-228zM1091 658q0 -61 -40 -103t-126 -42t-125.5 42t-39.5 103q0 62 39.5 103.5t125.5 41.5t126 -41.5t40 -103.5z" />
<glyph unicode="&#x141;" d="M136 0q0 211 36 416q20 119 58 271l-122 -117l-103 141l250 179l122 690h278l-42 -236q-26 -149 -56 -265l158 141l102 -140l-287 -208l-112 -634h479v-238h-761z" />
<glyph unicode="&#x142;" d="M779 0h-700v228h223l77 439l-140 -117l-117 162l304 218l74 422h-153v228h434q0 -211 -40 -439l113 99l117 -162l-277 -200l-114 -650h199v-228z" />
<glyph unicode="&#x143;" d="M767 1950h280l-279 -245h-224zM774 0h-265l-139 980q-25 -330 -91 -703l-49 -277h-225l262 1490h266l137 -980q25 330 91 703l49 277h226z" />
<glyph unicode="&#x144;" d="M800 0h-278l130 738q10 65 10 95q0 116 -109 116q-104 0 -147 -162l-138 -787h-278l206 1172h278l-20 -115q94 132 243 132q110 0 178.5 -76.5t68.5 -219.5q0 -36 -4 -77t-12 -88zM777 1580h280l-279 -245h-224z" />
<glyph unicode="&#x145;" d="M778 0h-264l-135 1000q-29 -350 -95 -723l-49 -277h-226l278 1580h267l133 -1000q29 350 95 723l49 277h225zM460 -156q0 -85 -113 -209h-114q61 69 96 140q-34 6 -53 29.5t-19 58.5q0 36 27 61.5t71 25.5q43 0 74 -30.5t31 -75.5z" />
<glyph unicode="&#x146;" d="M800 0h-278l130 738q10 65 10 95q0 116 -109 116q-104 0 -147 -162l-138 -787h-278l206 1172h278l-20 -115q94 132 243 132q110 0 178.5 -76.5t68.5 -219.5q0 -36 -4 -77t-12 -88zM460 -156q0 -85 -113 -209h-114q61 69 96 140q-34 6 -53 29.5t-19 58.5q0 36 27 61.5 t71 25.5q43 0 74 -30.5t31 -75.5z" />
<glyph unicode="&#x147;" d="M784 1705h-239l-200 245h215l117 -122l158 122h235zM774 0h-265l-139 980q-25 -330 -91 -703l-49 -277h-225l262 1490h266l137 -980q25 330 91 703l49 277h226z" />
<glyph unicode="&#x148;" d="M800 0h-278l130 738q10 65 10 95q0 116 -109 116q-104 0 -147 -162l-138 -787h-278l206 1172h278l-20 -115q94 132 243 132q110 0 178.5 -76.5t68.5 -219.5q0 -36 -4 -77t-12 -88zM736 1335h-239l-200 245h215l117 -122l158 122h235z" />
<glyph unicode="&#x149;" d="M805 0h-278l130 740q10 57 10 94q0 61 -25.5 88t-63.5 27q-84 0 -121 -132l-144 -817h-278l206 1172h278l-20 -115q84 132 223 132q100 0 164 -75t64 -213q0 -80 -17 -171zM455 1580l-113 -257h-182l88 257h207z" />
<glyph unicode="&#x14a;" d="M795 12q-36 -207 -131 -291t-274 -84h-102v236h83q67 0 100 32t48 117l81 456l-171 628q-38 -373 -104 -752l-62 -354h-278l278 1580h233l198 -723q30 309 60 498l40 225h278z" />
<glyph unicode="&#x14b;" d="M647 738q10 65 10 96q0 115 -108 115q-105 0 -148 -162l-138 -787h-278l206 1172h278l-20 -115q94 132 244 132q109 0 177.5 -76.5t68.5 -220.5q0 -75 -16 -164l-119 -676q-21 -120 -59.5 -199.5t-93 -127.5t-124 -68t-153.5 -20h-73v218h49q38 0 66 9t48 28.5t33 50 t21 74.5z" />
<glyph unicode="&#x14c;" d="M979 1774h-571v176h571v-176zM601 1262q-69 0 -103.5 -55t-58.5 -191l-96 -543q-13 -80 -13 -118q0 -127 111 -127q69 0 103.5 55t58.5 191l96 543q13 80 13 118q0 127 -111 127zM416 -20q-163 0 -261.5 94t-98.5 271q0 81 18 182l84 475q53 300 169 404t299 104 q163 0 261.5 -94t98.5 -271q0 -81 -18 -182l-84 -475q-53 -300 -169 -404t-299 -104z" />
<glyph unicode="&#x14d;" d="M549 956q-67 0 -100.5 -50.5t-62.5 -211.5l-39 -222q-14 -83 -14 -129q0 -125 106 -125q67 0 100.5 50.5t62.5 211.5l39 222q14 83 14 129q0 125 -106 125zM407 -20q-160 0 -254.5 94t-94.5 265q0 70 15 156l39 222q47 270 168.5 373.5t300.5 103.5q160 0 254.5 -94 t94.5 -265q0 -70 -15 -156l-39 -222q-47 -270 -168.5 -373.5t-300.5 -103.5zM938 1404h-571v176h571v-176z" />
<glyph unicode="&#x14e;" d="M991 1742q-121 -117 -298 -117q-178 0 -298 117v208q138 -136 298 -136q159 0 298 136v-208zM601 1262q-69 0 -103.5 -55t-58.5 -191l-96 -543q-13 -80 -13 -118q0 -127 111 -127q69 0 103.5 55t58.5 191l96 543q13 80 13 118q0 127 -111 127zM416 -20q-163 0 -261.5 94 t-98.5 271q0 81 18 182l84 475q53 300 169 404t299 104q163 0 261.5 -94t98.5 -271q0 -81 -18 -182l-84 -475q-53 -300 -169 -404t-299 -104z" />
<glyph unicode="&#x14f;" d="M548 956q-67 0 -100.5 -50.5t-62.5 -211.5l-39 -222q-14 -83 -14 -129q0 -125 106 -125q67 0 100.5 50.5t62.5 211.5l39 222q14 83 14 129q0 125 -106 125zM406 -20q-160 0 -254.5 94t-94.5 265q0 70 15 156l39 222q47 270 168.5 373.5t300.5 103.5q160 0 254.5 -94 t94.5 -265q0 -70 -15 -156l-39 -222q-47 -270 -168.5 -373.5t-300.5 -103.5zM951 1392q-121 -117 -298 -117q-178 0 -298 117v208q138 -136 298 -136q159 0 298 136v-208z" />
<glyph unicode="&#x150;" d="M1235 1950l-276 -305h-184l219 305h241zM862 1950l-275 -305h-185l220 305h240zM601 1262q-69 0 -103.5 -55t-58.5 -191l-96 -543q-13 -80 -13 -118q0 -127 111 -127q69 0 103.5 55t58.5 191l96 543q13 80 13 118q0 127 -111 127zM416 -20q-163 0 -261.5 94t-98.5 271 q0 81 18 182l84 475q53 300 169 404t299 104q163 0 261.5 -94t98.5 -271q0 -81 -18 -182l-84 -475q-53 -300 -169 -404t-299 -104z" />
<glyph unicode="&#x151;" d="M548 956q-67 0 -100.5 -50.5t-62.5 -211.5l-39 -222q-14 -83 -14 -129q0 -125 106 -125q67 0 100.5 50.5t62.5 211.5l39 222q14 83 14 129q0 125 -106 125zM406 -20q-160 0 -254.5 94t-94.5 265q0 70 15 156l39 222q47 270 168.5 373.5t300.5 103.5q160 0 254.5 -94 t94.5 -265q0 -70 -15 -156l-39 -222q-47 -270 -168.5 -373.5t-300.5 -103.5zM1115 1580l-276 -305h-184l219 305h241zM742 1580l-275 -305h-185l220 305h240z" />
<glyph unicode="&#x152;" d="M399 237l195 1106h-43q-81 0 -120.5 -51t-63.5 -189l-110 -625q-10 -56 -10 -110q0 -131 126 -131h26zM885 0h-494q-209 0 -306.5 96.5t-97.5 254.5q0 45 10 109l123 700q37 211 158.5 315.5t350.5 104.5h493v-236h-272l-70 -399h188v-237h-230l-83 -471h230v-237z" />
<glyph unicode="&#x153;" d="M412 829q6 34 6 61q0 83 -60 83t-82 -119l-91 -515q-6 -32 -6 -57q0 -82 63 -82q59 0 80 119zM774 687l29 167q4 23 4 45q0 74 -62 74q-61 0 -79 -99l-32 -187h140zM969 506h-366l-32 -181q-4 -24 -4 -44q0 -81 72 -81q64 0 96 101l163 -127q-98 -194 -273 -194 q-144 0 -211 136q-76 -136 -227 -136q-100 0 -166.5 67t-66.5 202q0 42 14 146l75 422q41 226 119.5 301.5t198.5 75.5q151 0 220 -131q74 131 218 131q99 0 165.5 -69t66.5 -203q0 -56 -14 -145z" />
<glyph unicode="&#x154;" d="M767 1950h280l-279 -245h-224zM449 877h95q97 0 141 73t44 175q0 66 -35.5 97.5t-103.5 31.5h-75zM279 1490h385q169 0 257 -91.5t88 -247.5q8 -332 -248 -459q93 -194 101 -692h-278q-8 525 -66 641h-111l-112 -641h-278z" />
<glyph unicode="&#x155;" d="M1071 974l-285 -120q-32 95 -101 95q-138 0 -178 -226l-127 -723h-278l206 1172h278l-20 -115q98 137 254 137q165 0 251 -220zM808 1580h280l-279 -245h-224z" />
<glyph unicode="&#x156;" d="M445 922h95q117 0 155 100.5t38 192.5q0 66 -30.5 97.5t-98.5 31.5h-85zM283 1580h385q169 0 257 -91.5t88 -247.5q0 -377 -256 -504q93 -194 93 -737h-278q0 570 -58 686h-111l-120 -686h-278zM490 -156q0 -85 -113 -209h-114q61 69 96 140q-34 6 -53 29.5t-19 58.5 q0 36 27 61.5t71 25.5q43 0 74 -30.5t31 -75.5z" />
<glyph unicode="&#x157;" d="M1071 974l-285 -120q-32 95 -101 95q-138 0 -178 -226l-127 -723h-278l206 1172h278l-20 -115q98 137 254 137q165 0 251 -220zM267 -156q0 -85 -113 -209h-114q61 69 96 140q-34 6 -53 29.5t-19 58.5q0 36 27 61.5t71 25.5q43 0 74 -30.5t31 -75.5z" />
<glyph unicode="&#x158;" d="M754 1705h-239l-200 245h215l117 -122l158 122h235zM449 877h95q97 0 141 73t44 175q0 66 -35.5 97.5t-103.5 31.5h-75zM279 1490h385q169 0 257 -91.5t88 -247.5q8 -332 -248 -459q93 -194 101 -692h-278q-8 525 -66 641h-111l-112 -641h-278z" />
<glyph unicode="&#x159;" d="M1071 974l-285 -120q-32 95 -101 95q-138 0 -178 -226l-127 -723h-278l206 1172h278l-20 -115q98 137 254 137q165 0 251 -220zM745 1335h-239l-200 245h215l117 -122l158 122h235z" />
<glyph unicode="&#x15a;" d="M827 1950h280l-279 -245h-224zM10 230l234 143q87 -147 206 -147q88 0 134.5 53t46.5 133q0 71 -75 143l-194 184q-154 147 -154 316q0 190 128 322.5t334 132.5q240 0 371 -206l-235 -143q-75 102 -169 102q-66 0 -105.5 -42t-39.5 -115q0 -74 81 -152l181 -173 q159 -152 159 -319q0 -196 -125.5 -339t-377.5 -143q-267 0 -400 250z" />
<glyph unicode="&#x15b;" d="M30 219l214 131q65 -143 206 -143q82 0 120 40t38 91q0 75 -111 133l-113 59q-178 96 -178 266q0 165 110.5 281.5t319.5 116.5q231 0 358 -217l-217 -132q-52 121 -161 121q-54 0 -91.5 -32.5t-37.5 -92.5q0 -77 118 -139l87 -46q195 -103 195 -285 q0 -164 -110.5 -277.5t-348.5 -113.5q-264 0 -398 239zM807 1580h280l-279 -245h-224z" />
<glyph unicode="&#x15c;" d="M1057 1705h-215l-116 122l-159 -122h-235l286 245h239zM10 230l234 143q87 -147 206 -147q88 0 134.5 53t46.5 133q0 71 -75 143l-194 184q-154 147 -154 316q0 190 128 322.5t334 132.5q240 0 371 -206l-235 -143q-75 102 -169 102q-66 0 -105.5 -42t-39.5 -115 q0 -74 81 -152l181 -173q159 -152 159 -319q0 -196 -125.5 -339t-377.5 -143q-267 0 -400 250z" />
<glyph unicode="&#x15d;" d="M30 219l214 131q65 -143 206 -143q82 0 120 40t38 91q0 75 -111 133l-113 59q-178 96 -178 266q0 165 110.5 281.5t319.5 116.5q231 0 358 -217l-217 -132q-52 121 -161 121q-54 0 -91.5 -32.5t-37.5 -92.5q0 -77 118 -139l87 -46q195 -103 195 -285 q0 -164 -110.5 -277.5t-348.5 -113.5q-264 0 -398 239zM1030 1335h-215l-116 122l-159 -122h-235l286 245h239z" />
<glyph unicode="&#x15e;" d="M9 230l234 143q87 -147 206 -147q88 0 134.5 53t46.5 133q0 71 -64 149l-232 282q-111 135 -111 277q0 217 128 349.5t334 132.5q240 0 371 -206l-235 -143q-75 102 -159 102q-76 0 -115.5 -50t-39.5 -129q0 -70 65 -148l213 -258q127 -154 127 -308q0 -196 -125.5 -339 t-377.5 -143q-267 0 -400 250zM144 -241h44q123 0 123 52q0 41 -73 41l66 98q219 -19 219 -140q0 -92 -82.5 -138.5t-296.5 -46.5v134z" />
<glyph unicode="&#x15f;" d="M30 219l214 131q65 -143 206 -143q82 0 120 40t38 91q0 75 -111 133l-113 59q-178 96 -178 266q0 165 110.5 281.5t319.5 116.5q231 0 358 -217l-217 -132q-52 121 -161 121q-54 0 -91.5 -32.5t-37.5 -92.5q0 -77 118 -139l87 -46q195 -103 195 -285 q0 -164 -110.5 -277.5t-348.5 -113.5q-264 0 -398 239zM154 -241h44q123 0 123 52q0 41 -73 41l66 98q219 -19 219 -140q0 -92 -82.5 -138.5t-296.5 -46.5v134z" />
<glyph unicode="&#x160;" d="M838 1705h-239l-200 245h215l117 -122l158 122h235zM10 230l234 143q87 -147 206 -147q88 0 134.5 53t46.5 133q0 71 -75 143l-194 184q-154 147 -154 316q0 190 128 322.5t334 132.5q240 0 371 -206l-235 -143q-75 102 -169 102q-66 0 -105.5 -42t-39.5 -115 q0 -74 81 -152l181 -173q159 -152 159 -319q0 -196 -125.5 -339t-377.5 -143q-267 0 -400 250z" />
<glyph unicode="&#x161;" d="M10 219l214 131q65 -143 206 -143q82 0 120 40t38 91q0 75 -111 133l-113 59q-178 96 -178 266q0 165 110.5 281.5t319.5 116.5q231 0 358 -217l-217 -132q-52 121 -161 121q-54 0 -91.5 -32.5t-37.5 -92.5q0 -77 118 -139l87 -46q195 -103 195 -285 q0 -164 -110.5 -277.5t-348.5 -113.5q-264 0 -398 239zM772 1335h-239l-200 245h215l117 -122l158 122h235z" />
<glyph unicode="&#x162;" d="M1080 1342h-315l-236 -1342h-278l236 1342h-275v238h868v-238zM460 -156q0 -85 -113 -209h-114q61 69 96 140q-34 6 -53 29.5t-19 58.5q0 36 27 61.5t71 25.5q43 0 74 -30.5t31 -75.5z" />
<glyph unicode="&#x163;" d="M868 154q-144 -174 -340 -174q-169 0 -254 78.5t-85 227.5q0 48 10 111l96 547h-137v228h177l72 408h278l-72 -408h334v-228h-374l-104 -587q-4 -26 -4 -45q0 -94 95 -94q63 0 124 79zM570 -156q0 -85 -113 -209h-114q61 69 96 140q-34 6 -53 29.5t-19 58.5q0 36 27 61.5 t71 25.5q43 0 74 -30.5t31 -75.5z" />
<glyph unicode="&#x164;" d="M784 1705h-239l-200 245h215l117 -122l158 122h235zM1064 1252h-315l-220 -1252h-278l220 1252h-275v238h868v-238z" />
<glyph unicode="&#x165;" d="M1193 1580l-133 -365h-185l108 365h210zM872 154q-144 -174 -340 -174q-169 0 -254 78.5t-85 227.5q0 48 10 111l96 547h-115v228h155l72 408h278l-72 -408h245v-228h-285l-104 -587q-4 -26 -4 -45q0 -94 95 -94q63 0 124 79z" />
<glyph unicode="&#x166;" d="M1080 1342h-315l-71 -406h250v-177h-282l-133 -759h-278l133 759h-250v177h282l71 406h-275v238h868v-238z" />
<glyph unicode="&#x167;" d="M951 944h-374l-30 -172h341v-177h-373l-42 -238q-4 -26 -4 -45q0 -94 95 -94q63 0 125 79l183 -143q-144 -174 -340 -174q-169 0 -254 78.5t-85 227.5q0 48 10 111l34 198h-138v177h170l30 172h-137v228h177l72 408h278l-72 -408h334v-228z" />
<glyph unicode="&#x168;" d="M1081 1858q-115 -214 -243 -214q-50 0 -134.5 58.5t-122.5 58.5q-64 0 -126 -117l-127 92q115 214 243 214q50 0 134.5 -58.5t122.5 -58.5q64 0 126 117zM873 444q-45 -256 -167 -360t-300 -104q-180 0 -280 124q-70 88 -70 235q0 33 3.5 69t10.5 76l177 1006h278 l-187 -1059q-4 -23 -6 -43.5t-2 -38.5q0 -131 107 -131q33 0 57.5 13t43 39t31.5 66.5t23 94.5l187 1059h278z" />
<glyph unicode="&#x169;" d="M171 1172h278l-130 -738q-10 -65 -10 -95q0 -116 109 -116q104 0 147 162l138 787h278l-206 -1172h-278l20 115q-94 -132 -243 -132q-110 0 -178.5 76.5t-68.5 219.5q0 36 4 77t12 88zM1021 1508q-115 -214 -243 -214q-50 0 -134.5 58.5t-122.5 58.5q-64 0 -126 -117 l-127 92q115 214 243 214q50 0 134.5 -58.5t122.5 -58.5q64 0 126 117z" />
<glyph unicode="&#x16a;" d="M968 1774h-571v176h571v-176zM873 444q-45 -256 -167 -360t-300 -104q-180 0 -280 124q-70 88 -70 235q0 33 3.5 69t10.5 76l177 1006h278l-187 -1059q-4 -23 -6 -43.5t-2 -38.5q0 -131 107 -131q33 0 57.5 13t43 39t31.5 66.5t23 94.5l187 1059h278z" />
<glyph unicode="&#x16b;" d="M171 1172h278l-130 -738q-10 -65 -10 -95q0 -116 109 -116q104 0 147 162l138 787h278l-206 -1172h-278l20 115q-94 -132 -243 -132q-110 0 -178.5 76.5t-68.5 219.5q0 36 4 77t12 88zM919 1404h-571v176h571v-176z" />
<glyph unicode="&#x16c;" d="M991 1742q-121 -117 -298 -117q-178 0 -298 117v208q138 -136 298 -136q159 0 298 136v-208zM873 444q-45 -256 -167 -360t-300 -104q-180 0 -280 124q-70 88 -70 235q0 33 3.5 69t10.5 76l177 1006h278l-187 -1059q-4 -23 -6 -43.5t-2 -38.5q0 -131 107 -131 q33 0 57.5 13t43 39t31.5 66.5t23 94.5l187 1059h278z" />
<glyph unicode="&#x16d;" d="M171 1172h278l-130 -738q-10 -65 -10 -95q0 -116 109 -116q104 0 147 162l138 787h278l-206 -1172h-278l20 115q-94 -132 -243 -132q-110 0 -178.5 76.5t-68.5 219.5q0 36 4 77t12 88zM922 1392q-121 -117 -298 -117q-178 0 -298 117v208q138 -136 298 -136 q159 0 298 136v-208z" />
<glyph unicode="&#x16e;" d="M909 1848q0 -102 -71.5 -173.5t-193.5 -71.5t-193 71.5t-71 173.5t71 173t193 71t193.5 -71t71.5 -173zM745 1848q0 46 -27 73t-74 27q-46 0 -73 -27t-27 -73t27 -73.5t73 -27.5t73.5 28t27.5 73zM873 444q-45 -256 -167 -360t-300 -104q-180 0 -280 124q-70 88 -70 235 q0 33 3.5 69t10.5 76l177 1006h278l-187 -1059q-4 -23 -6 -43.5t-2 -38.5q0 -131 107 -131q33 0 57.5 13t43 39t31.5 66.5t23 94.5l187 1059h278z" />
<glyph unicode="&#x16f;" d="M171 1172h278l-130 -738q-10 -65 -10 -95q0 -116 109 -116q104 0 147 162l138 787h278l-206 -1172h-278l20 115q-94 -132 -243 -132q-110 0 -178.5 76.5t-68.5 219.5q0 36 4 77t12 88zM829 1498q0 -102 -71.5 -173.5t-193.5 -71.5t-193 71.5t-71 173.5t71 173t193 71 t193.5 -71t71.5 -173zM665 1498q0 46 -27 73t-74 27q-46 0 -73 -27t-27 -73t27 -73.5t73 -27.5t73.5 28t27.5 73z" />
<glyph unicode="&#x170;" d="M1195 1950l-276 -305h-184l219 305h241zM822 1950l-275 -305h-185l220 305h240zM873 444q-45 -256 -167 -360t-300 -104q-180 0 -280 124q-70 88 -70 235q0 33 3.5 69t10.5 76l177 1006h278l-187 -1059q-4 -23 -6 -43.5t-2 -38.5q0 -131 107 -131q33 0 57.5 13t43 39 t31.5 66.5t23 94.5l187 1059h278z" />
<glyph unicode="&#x171;" d="M171 1172h278l-130 -738q-10 -65 -10 -95q0 -116 109 -116q104 0 147 162l138 787h278l-206 -1172h-278l20 115q-94 -132 -243 -132q-110 0 -178.5 76.5t-68.5 219.5q0 36 4 77t12 88zM1155 1580l-276 -305h-184l219 305h241zM782 1580l-275 -305h-185l220 305h240z" />
<glyph unicode="&#x172;" d="M873 444q-45 -256 -167 -360t-300 -104q-180 0 -280 124q-70 88 -70 235q0 33 3.5 69t10.5 76l193 1096h278l-203 -1149q-8 -47 -8 -82q0 -131 107 -131q64 0 101 53t54 160l203 1149h278zM498 -375q-186 0 -269.5 51.5t-83.5 139.5q0 123 158 184h197 q-146 -63 -146 -141q0 -69 144 -69v-165z" />
<glyph unicode="&#x173;" d="M171 1172h278l-130 -738q-10 -65 -10 -95q0 -116 109 -116q104 0 147 162l138 787h278l-206 -1172h-278l20 115q-94 -132 -243 -132q-110 0 -178.5 76.5t-68.5 219.5q0 36 4 77t12 88zM770 -375q-186 0 -269.5 51.5t-83.5 139.5q0 123 158 184h197q-146 -63 -146 -141 q0 -69 144 -69v-165z" />
<glyph unicode="&#x174;" d="M1027 1705h-215l-116 122l-159 -122h-235l286 245h239zM626 914v-636l213 1212h258l-84 -480q-48 -277 -121.5 -527.5t-172.5 -482.5h-211l-19 532l-205 -532h-223q0 330 23.5 627.5t71.5 571.5l51 291h258l-213 -1212l243 636h131z" />
<glyph unicode="&#x175;" d="M620 199q145 520 165 973h276q-7 -168 -75.5 -401.5t-198.5 -540.5l-97 -230h-193v595l-214 -595h-193q-8 118 -12.5 230.5t-4.5 219.5q0 201 14.5 380.5t43.5 341.5h276q-95 -275 -177 -973l191 538h196zM987 1335h-215l-116 122l-159 -122h-235l286 245h239z" />
<glyph unicode="&#x176;" d="M1027 1705h-215l-116 122l-159 -122h-235l286 245h239zM524 842l98 142q196 283 196 506h276q0 -249 -276 -649l-189 -272l-100 -569h-278l100 569l-47 152q-114 378 -114 769h276q0 -455 58 -648z" />
<glyph unicode="&#x177;" d="M30 -365q5 199 143 428l135 223l-69 271q-83 324 -83 615h276q0 -395 50 -600l118 198q144 235 144 402h276q0 -174 -162 -439l-385 -641q-167 -278 -167 -457h-276zM987 1335h-215l-116 122l-159 -122h-235l286 245h239z" />
<glyph unicode="&#x178;" d="M498 1700q-56 0 -93 37t-37 89q0 51 37 87.5t93 36.5t93 -36.5t37 -87.5q0 -52 -37 -89t-93 -37zM875 1700q-56 0 -93 37t-37 89q0 51 37 87.5t93 36.5t93 -36.5t37 -87.5q0 -52 -37 -89t-93 -37zM524 842l98 142q196 283 196 506h276q0 -249 -276 -649l-189 -272 l-100 -569h-278l100 569l-47 152q-114 378 -114 769h276q0 -455 58 -648z" />
<glyph unicode="&#x179;" d="M807 1950h280l-279 -245h-224zM1026 1490v-120q0 -235 -190 -468l-376 -457q-110 -132 -110 -207h457v-238h-745v120q0 236 190 467l376 454q109 133 109 211h-436v238h725z" />
<glyph unicode="&#x17a;" d="M778 0h-760v113q-1 239 217 442l228 214q118 111 118 165h-400v238h724v-95q1 -202 -188 -390l-245 -247q-135 -136 -135 -202h441v-238zM727 1580h280l-279 -245h-224z" />
<glyph unicode="&#x17b;" d="M848 1805q0 -61 -40 -103t-126 -42t-125.5 42t-39.5 103q0 62 39.5 103.5t125.5 41.5t126 -41.5t40 -103.5zM1026 1490v-120q0 -235 -190 -468l-376 -457q-110 -132 -110 -207h457v-238h-745v120q0 236 190 467l376 454q109 133 109 211h-436v238h725z" />
<glyph unicode="&#x17c;" d="M778 0h-760v113q-1 239 217 442l228 214q118 111 118 165h-400v238h724v-95q1 -202 -188 -390l-245 -247q-135 -136 -135 -202h441v-238zM795 1435q0 -61 -40 -103t-126 -42t-125.5 42t-39.5 103q0 62 39.5 103.5t125.5 41.5t126 -41.5t40 -103.5z" />
<glyph unicode="&#x17d;" d="M824 1705h-239l-200 245h215l117 -122l158 122h235zM1026 1490v-120q0 -235 -190 -468l-376 -457q-110 -132 -110 -207h457v-238h-745v120q0 236 190 467l376 454q109 133 109 211h-436v238h725z" />
<glyph unicode="&#x17e;" d="M797 0h-760v113q-1 239 217 442l228 214q118 111 118 165h-400v238h724v-95q1 -202 -188 -390l-245 -247q-135 -136 -135 -202h441v-238zM744 1335h-239l-200 245h215l117 -122l158 122h235z" />
<glyph unicode="&#x17f;" d="M877 1316q-34 57 -93 57q-89 0 -113 -143l-216 -1230h-279l154 879h-157v228h198l26 147q31 180 134 263.5t258 83.5q207 0 322 -142z" />
<glyph unicode="&#x237;" d="M766 756l-131 -744q-37 -210 -136.5 -298.5t-284.5 -88.5q-227 0 -338 185l232 120q27 -67 116 -67q49 0 84.5 35.5t51.5 127.5l162 918h-246v228h526q0 -211 -36 -416z" />
<glyph unicode="&#x2c6;" d="M987 1335h-215l-116 122l-159 -122h-235l286 245h239z" />
<glyph unicode="&#x2c7;" d="M744 1335h-239l-200 245h215l117 -122l158 122h235z" />
<glyph unicode="&#x2d8;" d="M951 1392q-121 -117 -298 -117q-178 0 -298 117v208q138 -136 298 -136q159 0 298 136v-208z" />
<glyph unicode="&#x2d9;" d="M808 1435q0 -61 -40 -103t-126 -42t-125.5 42t-39.5 103q0 62 39.5 103.5t125.5 41.5t126 -41.5t40 -103.5z" />
<glyph unicode="&#x2da;" d="M918 1498q0 -102 -71.5 -173.5t-193.5 -71.5t-193 71.5t-71 173.5t71 173t193 71t193.5 -71t71.5 -173zM754 1498q0 46 -27 73t-74 27q-46 0 -73 -27t-27 -73t27 -73.5t73 -27.5t73.5 28t27.5 73z" />
<glyph unicode="&#x2db;" d="M527 -375q-186 0 -269.5 51.5t-83.5 139.5q0 123 158 184h197q-146 -63 -146 -141q0 -69 144 -69v-165z" />
<glyph unicode="&#x2dc;" d="M1021 1508q-115 -214 -243 -214q-50 0 -134.5 58.5t-122.5 58.5q-64 0 -126 -117l-127 92q115 214 243 214q50 0 134.5 -58.5t122.5 -58.5q64 0 126 117z" />
<glyph unicode="&#x2dd;" d="M1075 1580l-276 -305h-184l219 305h241zM702 1580l-275 -305h-185l220 305h240z" />
<glyph unicode="&#x315;" d="M1223 1580l-133 -365h-185l108 365h210z" />
<glyph unicode="&#x37e;" d="M798 998q0 -111 -67 -172.5t-167 -61.5t-166.5 61.5t-66.5 172.5q0 110 66 171.5t167 61.5q100 0 167 -62t67 -171zM659 175q0 -211 -292 -540h-243q164 181 247 365q-179 42 -179 215q0 110 63.5 171.5t159.5 61.5q115 0 179.5 -72t64.5 -201z" />
<glyph unicode="&#x384;" d="M827 1580l-187 -295h-184l121 295h250z" />
<glyph unicode="&#x385;" d="M829 1580l-177 -277h-170l98 277h249zM444 1422q0 -46 -33 -80.5t-84 -34.5q-50 0 -82.5 34.5t-32.5 80.5q0 47 32.5 81t82.5 34q51 0 84 -34t33 -81zM1062 1422q0 -46 -32.5 -80.5t-83.5 -34.5q-50 0 -82.5 34.5t-32.5 80.5q0 47 32.5 81t82.5 34q51 0 83.5 -34 t32.5 -81z" />
<glyph unicode="&#x386;" d="M296 98l-17 -98h-276l19 108q41 229 181 580l356 892h318l39 -939q3 -83 3 -159q2 -121 -7.5 -223.5t-23.5 -190.5l-11 -68h-276l13 78q10 61 17 128t7 142h-276q-45 -127 -66 -250zM645 1166l-201 -581h196zM417 1580l-146 -345h-134l81 345h199z" />
<glyph unicode="&#x388;" d="M387 1580l-146 -345h-134l81 345h199zM256 416l205 1164h650v-238h-414l-70 -396h229v-238h-271l-83 -470h383v-238h-665q0 211 36 416z" />
<glyph unicode="&#x389;" d="M794 0h-266l128 730h-117l-128 -730h-266l278 1580h266l-108 -614h117l108 614h266zM387 1580l-146 -345h-134l81 345h199z" />
<glyph unicode="&#x38a;" d="M847 0h-695v238h230l195 1104h-145v238h609v-238h-187l-195 -1104h188v-238zM387 1580l-146 -345h-134l81 345h199z" />
<glyph unicode="&#x38c;" d="M904 407q-40 -229 -153 -328t-250 -99q-152 0 -245 89.5t-93 249.5q0 59 12 128l129 727q40 229 153 328.5t250 99.5q156 0 246.5 -92t90.5 -248q0 -59 -12 -128zM623 381l140 798q8 45 8 80q0 106 -76 106q-82 0 -110 -166l-141 -798q-8 -46 -8 -78q0 -107 77 -107 q81 0 110 165zM387 1580l-146 -345h-134l81 345h199z" />
<glyph unicode="&#x38e;" d="M387 1580l-146 -345h-134l81 345h199zM639 0h-278l118 673l-49 319q-50 328 -13 535l9 53h272l-11 -63q-24 -138 -23 -268l2 -284l99 270q46 124 70 262l15 83h280l-16 -93q-37 -207 -199 -516l-158 -298z" />
<glyph unicode="&#x38f;" d="M695 1365q-81 0 -110 -166l-109 -615q-15 -83 -15 -136q0 -58 17 -83l-64 -365h-308v238h189q-97 103 -97 275q0 60 12 131l94 530q40 229 153 328.5t250 99.5q156 0 246.5 -92t90.5 -248q0 -59 -12 -128l-93 -530q-46 -265 -182 -366h109v-238h-350l64 365q46 37 75 199 l108 615q4 23 6 43t2 37q0 106 -76 106zM387 1580l-146 -345h-134l81 345h199z" />
<glyph unicode="&#x390;" d="M575 756l-71 -399q-5 -30 -5 -50q0 -46 23 -67.5t63 -21.5q63 0 127 86l191 -150q-163 -175 -350 -175q-159 0 -245 78.5t-86 223.5q0 47 10 106l98 557h-183v228h464q0 -211 -36 -416zM829 1580l-177 -277h-170l98 277h249zM444 1422q0 -46 -33 -80.5t-84 -34.5 q-50 0 -82.5 34.5t-32.5 80.5q0 47 32.5 81t82.5 34q51 0 84 -34t33 -81zM1062 1422q0 -46 -32.5 -80.5t-83.5 -34.5q-50 0 -82.5 34.5t-32.5 80.5q0 47 32.5 81t82.5 34q51 0 83.5 -34t32.5 -81z" />
<glyph unicode="&#x391;" d="M604 1248q-79 -191 -141 -355.5t-109 -307.5h246q5 112 7.5 213t2.5 192q0 142 -6 258zM-57 0q21 362 333 1060l233 520h318q20 -213 30 -423t10 -423q0 -367 -30 -734h-276q8 93 14 179.5t11 168.5h-303q-28 -106 -44 -192.5t-20 -155.5h-276z" />
<glyph unicode="&#x392;" d="M303 237h117q117 0 156 125t39 230q0 63 -22 91q-38 47 -115 47h-88zM432 966h74q83 0 132.5 65t49.5 199q0 63 -35 88.5t-101 25.5h-54zM262 1580h344q181 0 270.5 -92.5t89.5 -237.5q0 -323 -256 -391q180 -62 180 -271q0 -212 -108.5 -400t-371.5 -188h-389 q0 210 36 416z" />
<glyph unicode="&#x393;" d="M1071 1342h-480l-236 -1342h-279l278 1580h717v-238z" />
<glyph unicode="&#x394;" d="M-38 108q40 228 180 573l347 899h318l63 -925q7 -130 6 -213q1 -188 -28 -374l-11 -68h-894zM585 1166l-212 -592q-72 -200 -108 -336h332q4 59 6 137.5t2 178.5z" />
<glyph unicode="&#x395;" d="M80 416l205 1164h766v-238h-530l-70 -396h345v-238h-387l-83 -470h499v-238h-781q0 211 36 416z" />
<glyph unicode="&#x396;" d="M1026 1580v-120q0 -235 -190 -493l-376 -503q-110 -151 -110 -226h457v-238h-745v120q0 236 190 493l376 503q109 148 109 226h-436v238h725z" />
<glyph unicode="&#x397;" d="M794 0h-278l128 730h-253l-128 -730h-278l278 1580h278l-108 -612h253l108 612h278z" />
<glyph unicode="&#x398;" d="M600 725h-120v258h120v-258zM617 1354q-69 0 -103.5 -55t-58.5 -191l-112 -635q-13 -80 -13 -118q0 -127 111 -127q69 0 103.5 55t58.5 191l112 635q13 80 13 118q0 127 -111 127zM416 -20q-163 0 -261.5 94t-98.5 271q0 81 18 182l100 567q53 300 169 404t299 104 q163 0 261.5 -94t98.5 -271q0 -81 -18 -182l-100 -567q-53 -300 -169 -404t-299 -104z" />
<glyph unicode="&#x399;" d="M765 0h-692v228h218l198 1124h-155v228h606v-228h-173l-198 -1124h196v-228z" />
<glyph unicode="&#x39a;" d="M556 1580l-106 -601q373 396 394 601h276q-27 -258 -422 -670q192 -437 192 -910h-276q0 440 -114 700l-122 -129l-100 -571h-278l278 1580h278z" />
<glyph unicode="&#x39b;" d="M585 1166l-209 -572q-104 -288 -140 -496l-17 -98h-276l19 108q40 228 180 573l347 899h318l64 -939q5 -100 5 -198q2 -109 -6.5 -202t-21.5 -173l-11 -68h-276l13 78q14 87 22 180t8 196q0 43 -1 90z" />
<glyph unicode="&#x39c;" d="M1045 1580q0 -210 -36 -416l-205 -1164h-255l43 247q73 414 274 1099l-291 -606h-110l-77 606q-41 -685 -114 -1099l-43 -247h-255l278 1580h245l66 -527l252 527h228z" />
<glyph unicode="&#x39d;" d="M778 0h-264l-135 1000q-29 -350 -95 -723l-49 -277h-226l278 1580h267l133 -1000q29 350 95 723l49 277h225z" />
<glyph unicode="&#x39e;" d="M868 946v-238h-664v238h664zM835 0h-848v238h848v-238zM224 1580h848v-238h-848v238z" />
<glyph unicode="&#x39f;" d="M617 1354q-69 0 -103.5 -55t-58.5 -191l-112 -635q-13 -80 -13 -118q0 -127 111 -127q69 0 103.5 55t58.5 191l112 635q13 80 13 118q0 127 -111 127zM416 -20q-163 0 -261.5 94t-98.5 271q0 81 18 182l100 567q53 300 169 404t299 104q163 0 261.5 -94t98.5 -271 q0 -81 -18 -182l-100 -567q-53 -300 -169 -404t-299 -104z" />
<glyph unicode="&#x3a0;" d="M1035 1580q0 -210 -36 -416l-205 -1164h-278l236 1342h-253l-236 -1342h-278l278 1580h772z" />
<glyph unicode="&#x3a1;" d="M500 944h114q101 0 141.5 86t40.5 182q0 63 -30.5 97.5t-101.5 34.5h-94zM458 707l-124 -707h-278l278 1580h384q181 0 269.5 -98.5t88.5 -242.5q0 -220 -122.5 -376t-349.5 -156h-146z" />
<glyph unicode="&#x3a3;" d="M469 826l-104 164q-91 150 -91 359v231h771v-238h-502q0 -117 69 -233l164 -257v-93l-367 -387q-81 -87 -81 -134h502v-238h-774v177q0 211 167 390z" />
<glyph unicode="&#x3a4;" d="M1080 1342h-315l-236 -1342h-278l236 1342h-275v238h868v-238z" />
<glyph unicode="&#x3a5;" d="M540 932l98 142q196 283 196 506h276q0 -249 -276 -649l-189 -272l-116 -659h-278l116 659l-47 152q-114 378 -114 769h276q0 -455 58 -648z" />
<glyph unicode="&#x3a6;" d="M774 1454q222 -68 222 -358q0 -84 -18 -184l-50 -284q-81 -457 -388 -502l-22 -126h-256l22 126q-223 66 -223 360q1 81 18 182l50 284q81 457 389 502l22 126h256zM526 1245q-120 -8 -163 -258l-66 -374q-12 -71 -12 -122q0 -135 81 -156zM692 1245l-160 -910 q118 7 163 258l66 374q12 69 12 122q0 135 -81 156z" />
<glyph unicode="&#x3a7;" d="M385 432q-174 -230 -174 -432h-276q0 249 266 596l186 242l-52 139q-109 291 -109 603h276q0 -335 65 -509l109 144q148 193 148 365h276q0 -217 -253 -547l-180 -232l54 -142q131 -350 131 -659h-276q0 331 -88 566z" />
<glyph unicode="&#x3a8;" d="M585 1580h166l-177 -1005q118 7 163 258l132 747h227l-125 -712q-81 -457 -383 -502l-64 -366h-268l64 366q-216 66 -216 355q-1 42 4 88.5t14 98.5l118 672h227l-128 -727q-12 -71 -12 -122q0 -135 81 -156z" />
<glyph unicode="&#x3a9;" d="M617 1354q-69 0 -103.5 -55t-58.5 -191l-71 -404q-18 -104 -18 -181q0 -113 38 -171l-62 -352h-352v235h230q-123 116 -123 336q0 81 16 173l61 350q53 300 169 404t299 104q163 0 261 -94t98 -270q0 -82 -17 -183l-62 -351q-30 -175 -100.5 -291.5t-179.5 -177.5h188 v-235h-392l62 352q99 97 144 352l71 405q13 80 13 118q0 127 -111 127z" />
<glyph unicode="&#x3aa;" d="M457 1700q-56 0 -93 37t-37 89q0 51 37 87.5t93 36.5t93 -36.5t37 -87.5q0 -52 -37 -89t-93 -37zM834 1700q-56 0 -93 37t-37 89q0 51 37 87.5t93 36.5t93 -36.5t37 -87.5q0 -52 -37 -89t-93 -37zM765 0h-692v228h218l182 1034h-155v228h606v-228h-173l-182 -1034h196 v-228z" />
<glyph unicode="&#x3ab;" d="M457 1700q-56 0 -93 37t-37 89q0 51 37 87.5t93 36.5t93 -36.5t37 -87.5q0 -52 -37 -89t-93 -37zM834 1700q-56 0 -93 37t-37 89q0 51 37 87.5t93 36.5t93 -36.5t37 -87.5q0 -52 -37 -89t-93 -37zM524 842l98 142q196 283 196 506h276q0 -249 -276 -649l-189 -272 l-100 -569h-278l100 569l-47 152q-114 378 -114 769h276q0 -455 58 -648z" />
<glyph unicode="&#x3ac;" d="M91 718q48 269 147 372.5t229 103.5q186 0 249 -257l73 235h274q-79 -193 -147 -430t-68 -512q0 -108 9 -229h-274l9 236q-113 -257 -299 -257q-108 0 -183.5 88.5t-75.5 247.5q0 80 18 182zM333 527q-10 -56 -14.5 -100.5t-4.5 -78.5q0 -130 73 -130q88 0 216 372 q-18 367 -106 367q-53 0 -81 -61t-58 -227zM977 1580l-187 -295h-184l121 295h250z" />
<glyph unicode="&#x3ad;" d="M876 240q-182 -260 -470 -260q-187 0 -294.5 87.5t-107.5 219.5q0 249 266 332q-139 80 -139 213q0 160 123.5 261t333.5 101q240 0 389 -210l-214 -143q-79 115 -197 115q-72 0 -116 -32.5t-44 -90.5q0 -51 49 -75t121 -24h57v-238h-109q-113 0 -175 -40.5t-62 -118.5 q0 -53 40.5 -86t110.5 -33q136 0 234 165zM927 1580l-187 -295h-184l121 295h250z" />
<glyph unicode="&#x3ae;" d="M730 -365h-278l195 1103q10 65 10 95q0 116 -109 116q-104 0 -147 -162l-138 -787h-278l206 1172h278l-20 -115q94 132 243 132q110 0 178.5 -76.5t68.5 -219.5q0 -36 -4 -77t-12 -88zM917 1580l-187 -295h-184l121 295h250z" />
<glyph unicode="&#x3af;" d="M575 756l-71 -399q-5 -30 -5 -50q0 -46 23 -67.5t63 -21.5q63 0 127 86l191 -150q-163 -175 -350 -175q-159 0 -245 78.5t-86 223.5q0 47 10 106l98 557h-183v228h464q0 -211 -36 -416zM818 1580l-187 -295h-184l121 295h250z" />
<glyph unicode="&#x3b0;" d="M406 -20q-158 0 -254 87.5t-96 264.5q0 59 16 163l119 677h276l-132 -751q-7 -45 -7 -66q0 -67 28.5 -97t76.5 -30q121 0 168.5 220.5t55.5 723.5h276q0 -736 -144.5 -964t-382.5 -228zM829 1580l-177 -277h-170l98 277h249zM444 1422q0 -46 -33 -80.5t-84 -34.5 q-50 0 -82.5 34.5t-32.5 80.5q0 47 32.5 81t82.5 34q51 0 84 -34t33 -81zM1062 1422q0 -46 -32.5 -80.5t-83.5 -34.5q-50 0 -82.5 34.5t-32.5 80.5q0 47 32.5 81t82.5 34q51 0 83.5 -34t32.5 -81z" />
<glyph unicode="&#x3b1;" d="M91 718q48 269 147 372.5t229 103.5q186 0 249 -257l73 235h274q-79 -193 -147 -430t-68 -512q0 -108 9 -229h-274l9 236q-113 -257 -299 -257q-108 0 -183.5 88.5t-75.5 247.5q0 80 18 182zM333 527q-10 -56 -14.5 -100.5t-4.5 -78.5q0 -130 73 -130q88 0 216 372 q-18 367 -106 367q-53 0 -81 -61t-58 -227z" />
<glyph unicode="&#x3b2;" d="M925 400q-37 -211 -158.5 -315.5t-280.5 -104.5q-105 0 -172 27l-66 -372h-278l278 1577q32 181 143.5 285.5t280.5 104.5q154 0 247 -87t93 -236q1 -46 -16 -139q-24 -133 -84.5 -201.5t-120.5 -86.5q156 -85 156 -273q0 -50 -11 -116zM355 241q41 -23 112 -23 q75 0 120 47t68 183l11 58q8 56 8 80q0 75 -31.5 108.5t-84.5 33.5v237h41q45 0 72.5 37.5t45.5 133.5l14 78q4 26 4 49q0 52 -22.5 77t-64.5 25q-51 0 -79.5 -36.5t-41.5 -114.5z" />
<glyph unicode="&#x3b3;" d="M186 -365l65 365l-89 661q-20 180 -20 427v84h271v-84q-1 -328 9 -471l23 -278l63 78q136 173 200 476l56 279h276l-56 -279q-77 -381 -345 -708l-98 -114l-77 -436h-278z" />
<glyph unicode="&#x3b4;" d="M1031 1343h-490q0 -62 59 -131l150 -174q152 -178 152 -410q0 -48 -13 -141q-53 -300 -173.5 -403.5t-299.5 -103.5q-144 0 -246.5 86.5t-102.5 273.5q0 430 350 697l-41 48q-99 123 -99 325v170h754v-237zM563 867q-126 -96 -172.5 -250t-46.5 -266q0 -70 26.5 -101.5 t77.5 -31.5q66 0 99 46.5t60 197.5q18 102 18 183q0 148 -62 222z" />
<glyph unicode="&#x3b5;" d="M904 240q-182 -260 -470 -260q-187 0 -294.5 87.5t-107.5 219.5q0 249 266 332q-139 80 -139 213q0 160 123.5 261t333.5 101q240 0 389 -210l-214 -143q-79 115 -197 115q-72 0 -116 -32.5t-44 -90.5q0 -51 49 -75t121 -24h57v-238h-109q-113 0 -175 -40.5t-62 -118.5 q0 -53 40.5 -86t110.5 -33q136 0 234 165z" />
<glyph unicode="&#x3b6;" d="M303 7q-242 63 -242 336q0 373 393 701l218 184q77 68 77 115h-450v237h739v-137q0 -213 -207 -385l-223 -184q-261 -216 -261 -472q0 -157 171 -200q276 -72 276 -342q0 -103 -37 -225h-276q30 89 30 154q0 164 -208 218z" />
<glyph unicode="&#x3b7;" d="M730 -365h-278l195 1103q10 65 10 95q0 116 -109 116q-104 0 -147 -162l-138 -787h-278l206 1172h278l-20 -115q94 132 243 132q110 0 178.5 -76.5t68.5 -219.5q0 -36 -4 -77t-12 -88z" />
<glyph unicode="&#x3b8;" d="M416 -20q-163 0 -261.5 94t-98.5 271q0 81 18 182l124 702q53 300 169 404t299 104q163 0 261.5 -94t98.5 -271q0 -81 -18 -182l-124 -702q-53 -300 -169 -404t-299 -104zM641 1489q-69 0 -103.5 -55t-58.5 -191l-47 -267h259l48 268q13 80 13 118q0 127 -111 127z M330 355q0 -127 111 -127q69 0 103.5 55t58.5 191l46 264h-259l-47 -265q-13 -80 -13 -118z" />
<glyph unicode="&#x3b9;" d="M604 756l-71 -399q-5 -30 -5 -50q0 -46 23 -67.5t63 -21.5q63 0 127 86l191 -150q-163 -175 -350 -175q-159 0 -245 78.5t-86 223.5q0 47 10 106l98 557h-183v228h464q0 -211 -36 -416z" />
<glyph unicode="&#x3ba;" d="M860 0h-276q0 248 -107 439l-21 39l-104 -87l-69 -391h-276l206 1172h276l-77 -437l59 46q277 233 288 391h276q-14 -227 -317 -477l-72 -59l48 -85q166 -294 166 -551z" />
<glyph unicode="&#x3bb;" d="M442 1231q-15 111 -121 111h-13v238h116q231 0 264 -247l131 -1033q9 -62 77 -62v-238h-127q-164 0 -189 178l-63 492l-139 -274q-68 -138 -103 -292l-24 -104h-276l24 104q29 124 154 367l312 601z" />
<glyph unicode="&#x3bc;" d="M775 0h-258l23 135q-68 -155 -178 -155q-59 0 -95 45l-69 -390h-258l271 1537h258l-132 -750q-10 -64 -10 -94q0 -105 101 -105q104 0 153 142l142 807h258z" />
<glyph unicode="&#x3bd;" d="M481 0h-230l-89 661q-20 180 -20 427v84h271v-84q-1 -328 9 -471l23 -278l63 78q136 173 200 476l56 279h276l-56 -279q-77 -381 -345 -708z" />
<glyph unicode="&#x3be;" d="M313 5q-263 66 -263 312q0 160 75.5 266.5t215.5 163.5q-124 87 -124 228q0 277 386 368h-305v237h747v-237q-289 -65 -419.5 -151.5t-130.5 -195.5q0 -130 183 -130h204v-237h-246q-301 0 -301 -249q0 -133 197 -183q260 -66 260 -345q0 -115 -25 -217h-276 q18 80 18 149q0 171 -196 221z" />
<glyph unicode="&#x3bf;" d="M548 956q-67 0 -100.5 -50.5t-62.5 -211.5l-39 -222q-14 -83 -14 -129q0 -125 106 -125q67 0 100.5 50.5t62.5 211.5l39 222q14 83 14 129q0 125 -106 125zM406 -20q-160 0 -254.5 94t-94.5 265q0 70 15 156l39 222q47 270 168.5 373.5t300.5 103.5q160 0 254.5 -94 t94.5 -265q0 -70 -15 -156l-39 -222q-47 -270 -168.5 -373.5t-300.5 -103.5z" />
<glyph unicode="&#x3c0;" d="M772 300q-2 -12 -2 -20q0 -43 45 -43h60v-237h-152q-218 0 -218 208q0 42 9 92l112 635h-155l-164 -935h-258l164 935h-115v237h931v-237h-145z" />
<glyph unicode="&#x3c1;" d="M895 458q-47 -270 -156 -372.5t-239 -102.5q-149 0 -192 162l-90 -510h-278l195 1103q45 259 165.5 357.5t289.5 98.5q157 0 256.5 -94.5t99.5 -253.5q0 -87 -16 -192zM626 507l25 142q15 88 15 150q0 78 -26.5 116.5t-70.5 38.5q-63 0 -101.5 -60.5t-67.5 -224.5 l-53 -304q19 -142 113 -142q61 0 99 60t67 224z" />
<glyph unicode="&#x3c2;" d="M494 -365q22 89 22 146q0 172 -213 226q-244 61 -244 335q0 210 124 531t444 321q250 0 387 -217l-215 -143q-71 122 -196 122q-134 0 -198 -227.5t-64 -325.5q0 -154 150 -193q309 -80 309 -359q0 -98 -30 -216h-276z" />
<glyph unicode="&#x3c3;" d="M835 934q76 -95 76 -223q0 -42 -7 -83l-34 -196q-44 -245 -164.5 -348.5t-289.5 -103.5q-160 0 -259.5 91.5t-99.5 268.5q0 69 15 155l30 173q48 268 176 386t382 118h341v-238h-166zM597 462l34 192q33 189 -44 279q-79 0 -128.5 -51t-77.5 -208l-34 -192 q-26 -151 -0.5 -207.5t91.5 -56.5t99 46.5t60 197.5z" />
<glyph unicode="&#x3c4;" d="M912 154q-163 -175 -355 -174q-154 -1 -240 77.5t-86 223.5q0 47 10 106l98 557h-176v228h839v-228h-385l-104 -587q-5 -30 -5 -50q0 -46 23 -67.5t63 -21.5q63 0 127 86z" />
<glyph unicode="&#x3c5;" d="M406 -20q-158 0 -254 87.5t-96 264.5q0 59 16 163l119 677h276l-132 -751q-7 -45 -7 -66q0 -67 28.5 -97t76.5 -30q121 0 168.5 220.5t55.5 723.5h276q0 -736 -144.5 -964t-382.5 -228z" />
<glyph unicode="&#x3c6;" d="M508 199q119 8 164 265l31 175q11 66 17 118t6 91q0 110 -47 110q-38 0 -62 -136zM706 1194q246 0 246 -333q0 -49 -5.5 -105.5t-16.5 -119.5l-26 -144q-42 -230 -137.5 -355.5t-251.5 -150.5l-62 -351h-256l62 351q-222 69 -222 363q1 69 18 183l33 184q64 366 270 470 l78 -187q-79 -42 -115 -248l-48 -274q-12 -71 -12 -122q0 -135 81 -156l125 711q50 284 239 284z" />
<glyph unicode="&#x3c7;" d="M139 1172h74q246 0 288 -201l57 -279l62 75q90 109 144 325l15 80h274l-18 -78q-57 -266 -218 -459l-198 -240l90 -437q18 -85 124 -85v-238h-141q-180 0 -226 228l-56 278l-68 -81q-104 -126 -156 -345l-18 -80h-271l20 100q57 250 217 443l215 261l-80 397 q-21 99 -130 99v237z" />
<glyph unicode="&#x3c8;" d="M585 1580h166l-245 -1391q118 7 163 258l128 725h229l-122 -690q-41 -230 -137 -354.5t-247 -147.5l-61 -344h-268l61 344q-218 66 -218 356q0 84 18 186l114 650h229l-124 -705q-12 -71 -12 -122q0 -135 81 -156z" />
<glyph unicode="&#x3c9;" d="M457 853h166l-82 -464q-9 -51 -9 -86q0 -85 52 -85q66 0 105 202q57 326 72 752h224q-18 -445 -76 -772q-75 -420 -309 -420q-141 0 -193 120q-56 -120 -195 -120q-98 0 -155.5 73t-57.5 202q0 244 208 917h224q-199 -640 -199 -842q0 -112 60 -112q53 0 80 151z" />
<glyph unicode="&#x3ca;" d="M575 756l-71 -399q-5 -30 -5 -50q0 -46 23 -67.5t63 -21.5q63 0 127 86l191 -150q-163 -175 -350 -175q-159 0 -245 78.5t-86 223.5q0 47 10 106l98 557h-183v228h464q0 -211 -36 -416zM378 1330q-56 0 -93 37t-37 89q0 51 37 87.5t93 36.5t93 -36.5t37 -87.5 q0 -52 -37 -89t-93 -37zM755 1330q-56 0 -93 37t-37 89q0 51 37 87.5t93 36.5t93 -36.5t37 -87.5q0 -52 -37 -89t-93 -37z" />
<glyph unicode="&#x3cb;" d="M406 -20q-158 0 -254 87.5t-96 264.5q0 59 16 163l119 677h276l-132 -751q-7 -45 -7 -66q0 -67 28.5 -97t76.5 -30q121 0 168.5 220.5t55.5 723.5h276q0 -736 -144.5 -964t-382.5 -228zM457 1330q-56 0 -93 37t-37 89q0 51 37 87.5t93 36.5t93 -36.5t37 -87.5 q0 -52 -37 -89t-93 -37zM834 1330q-56 0 -93 37t-37 89q0 51 37 87.5t93 36.5t93 -36.5t37 -87.5q0 -52 -37 -89t-93 -37z" />
<glyph unicode="&#x3cc;" d="M548 956q-67 0 -100.5 -50.5t-62.5 -211.5l-39 -222q-14 -83 -14 -129q0 -125 106 -125q67 0 100.5 50.5t62.5 211.5l39 222q14 83 14 129q0 125 -106 125zM406 -20q-160 0 -254.5 94t-94.5 265q0 70 15 156l39 222q47 270 168.5 373.5t300.5 103.5q160 0 254.5 -94 t94.5 -265q0 -70 -15 -156l-39 -222q-47 -270 -168.5 -373.5t-300.5 -103.5zM907 1580l-187 -295h-184l121 295h250z" />
<glyph unicode="&#x3cd;" d="M406 -20q-158 0 -254 87.5t-96 264.5q0 59 16 163l119 677h276l-132 -751q-7 -45 -7 -66q0 -67 28.5 -97t76.5 -30q121 0 168.5 220.5t55.5 723.5h276q0 -736 -144.5 -964t-382.5 -228zM897 1580l-187 -295h-184l121 295h250z" />
<glyph unicode="&#x3ce;" d="M457 853h166l-82 -464q-9 -51 -9 -86q0 -85 52 -85q66 0 105 202q57 326 72 752h224q-18 -445 -76 -772q-75 -420 -309 -420q-141 0 -193 120q-56 -120 -195 -120q-98 0 -155.5 73t-57.5 202q0 244 208 917h224q-199 -640 -199 -842q0 -112 60 -112q53 0 80 151z M897 1580l-187 -295h-184l121 295h250z" />
<glyph unicode="&#x3d0;" d="M771 852q156 -65 156 -269q0 -29 -2.5 -59t-8.5 -63q-46 -261 -165.5 -371t-319.5 -110q-173 0 -264 80.5t-91 238.5q0 38 11 111l141 802q32 181 143.5 285.5t273.5 104.5q142 0 242 -86t100 -243q0 -320 -216 -421zM542 728v237h47q45 0 67 31t47 174q7 59 7 76 q0 62 -24 90.5t-67 28.5q-45 0 -72 -36.5t-40 -114.5l-146 -826q-5 -32 -5 -54q0 -60 32.5 -88t74.5 -28q72 0 111 50t67 209q11 74 11 112q0 72 -31 105.5t-79 33.5z" />
<glyph unicode="&#x3d1;" d="M555 734q-151 0 -239.5 88.5t-88.5 242.5q0 51 11 115q37 212 139 316t265 104q136 0 215 -85.5t79 -248.5q0 -33 -3 -70t-11 -77l-28 -155h98v-230h-138l-46 -263q-50 -281 -163.5 -386t-288.5 -105q-164 0 -257 89t-94 270q1 72 19 188l6 32h285l-13 -76 q-15 -83 -15 -135q0 -66 26 -93t70 -27q58 0 90.5 49.5t60.5 205.5l44 251h-23zM646 1119q18 102 18 155q0 42 -15 61t-41 19q-56 0 -80.5 -94t-24.5 -155q0 -141 99 -141h16z" />
<glyph unicode="&#x3d5;" d="M947 819q0 -74 -18 -187l-23 -130q-81 -457 -388 -502l-65 -365h-254l63 365q-223 68 -223 355q0 74 18 187l23 130q81 457 389 502l71 406h256l-71 -406q222 -66 222 -355zM724 809q0 142 -81 156l-134 -756q120 8 164 258l39 220q12 69 12 122zM477 965 q-120 -8 -164 -258l-39 -220q-13 -69 -13 -121q0 -137 82 -157z" />
<glyph unicode="&#x3d6;" d="M94 1173h488q385 0 385 -371q0 -78 -16 -167l-42 -235q-38 -211 -114 -315.5t-195 -104.5q-141 0 -193 120q-56 -120 -189 -120q-97 0 -156 74.5t-59 220.5q0 228 172 660h-81v238zM440 755h166l-65 -366q-9 -51 -9 -86q0 -85 52 -85q69 0 105 202l43 245q9 51 9 93 q0 177 -161 177h-221q-29 -98 -52 -187t-39 -166t-24.5 -140t-8.5 -108q0 -116 57 -116q53 0 80 151z" />
<glyph unicode="&#x3f0;" d="M129 -20l-191 118q305 354 305 657q0 193 -138 193v242q404 0 404 -335q0 -61 -13 -133l360 468l192 -118q-306 -354 -306 -657q0 -193 139 -193v-242q-405 0 -405 335q0 61 13 133z" />
<glyph unicode="&#x3f1;" d="M894 488q-44 -250 -144.5 -351.5t-223.5 -101.5q-158 0 -211 150l-23 -133q-4 -20 -4 -42q0 -105 120 -123l321 -48v-204h-307l-131 21q-283 45 -283 314q0 46 11 112l116 656q45 259 160.5 357.5t294.5 98.5q151 0 253.5 -88t102.5 -260q0 -54 -20 -181zM635 557l16 92 q15 88 15 150q0 78 -26.5 116.5t-70.5 38.5q-63 0 -101.5 -60.5t-67.5 -224.5l-44 -254q19 -142 113 -142q61 0 99 60t67 224z" />
<glyph unicode="&#x3f5;" d="M815 721v-238h-431q-12 -59 -12 -113q0 -80 28 -116.5t85 -36.5q105 0 191 131l204 -143q-167 -225 -417 -225q-168 0 -269.5 90.5t-101.5 270.5q0 118 54 376q45 255 162.5 366t318.5 111q260 0 389 -217l-214 -143q-73 123 -197 123q-77 -1 -116.5 -53t-62.5 -183h389z " />
<glyph unicode="&#x400;" d="M815 1705h-224l-193 245h280zM89 416l189 1074h766v-238h-530l-62 -351h345v-238h-387l-75 -425h489v-238h-771q0 211 36 416z" />
<glyph unicode="&#x401;" d="M497 1700q-56 0 -93 37t-37 89q0 51 37 87.5t93 36.5t93 -36.5t37 -87.5q0 -52 -37 -89t-93 -37zM874 1700q-56 0 -93 37t-37 89q0 51 37 87.5t93 36.5t93 -36.5t37 -87.5q0 -52 -37 -89t-93 -37zM89 416l189 1074h766v-238h-530l-62 -351h345v-238h-387l-75 -425h489 v-238h-771q0 211 36 416z" />
<glyph unicode="&#x402;" d="M951 924q0 -59 -15 -176l-126 -716q-36 -208 -132.5 -302.5t-263.5 -94.5h-84v228h52q120 0 146 145l130 740q9 57 9 89q0 112 -91 112q-101 0 -129 -132l-144 -817h-278l236 1342h-140v238h616v-238h-198l-50 -285q84 132 233 132q102 0 165.5 -69.5t63.5 -195.5z" />
<glyph unicode="&#x403;" d="M1055 1252h-480l-220 -1252h-279l262 1490h717v-238zM817 1950h280l-279 -245h-224z" />
<glyph unicode="&#x404;" d="M1071 1363l-234 -143q-62 135 -175 135q-78 0 -118 -56t-66 -201l-25 -140h293v-239h-335q-53 -294 -53 -350q0 -143 125 -143q114 0 202 136l184 -143q-170 -239 -419 -239q-173 0 -270 91.5t-97 271.5q0 123 114 739q52 298 176.5 409t322.5 111q250 0 375 -239z" />
<glyph unicode="&#x405;" d="M9 230l234 143q87 -147 206 -147q88 0 134.5 53t46.5 133q0 71 -64 149l-232 282q-111 135 -111 277q0 217 128 349.5t334 132.5q240 0 371 -206l-235 -143q-75 102 -159 102q-76 0 -115.5 -50t-39.5 -129q0 -70 65 -148l213 -258q127 -154 127 -308q0 -196 -125.5 -339 t-377.5 -143q-267 0 -400 250z" />
<glyph unicode="&#x406;" d="M765 0h-692v228h218l198 1124h-155v228h606v-228h-173l-198 -1124h196v-228z" />
<glyph unicode="&#x407;" d="M457 1700q-56 0 -93 37t-37 89q0 51 37 87.5t93 36.5t93 -36.5t37 -87.5q0 -52 -37 -89t-93 -37zM834 1700q-56 0 -93 37t-37 89q0 51 37 87.5t93 36.5t93 -36.5t37 -87.5q0 -52 -37 -89t-93 -37zM765 0h-692v228h218l182 1034h-155v228h606v-228h-173l-182 -1034h196 v-228z" />
<glyph unicode="&#x408;" d="M815 465q-50 -279 -170 -381q-122 -104 -300 -104q-180 0 -280 124q-68 85 -68 237q0 37 4 78t12 86l35 201h278l-40 -226q-12 -71 -12 -121q0 -75 26 -109t76 -34q33 0 58 15t44.5 47t34.5 82t27 120l194 1100h278z" />
<glyph unicode="&#x409;" d="M747 672q0 108 -73 108h-27l-96 -542h47q47 0 69.5 31.5t37.5 120.5l31 176q11 58 11 106zM351 0q0 210 36 416l163 926h-70l-191 -929q-81 -413 -315 -413h-95v238h56q81 0 127 210l233 1132h455q0 -210 -36 -416l-25 -146h28q133 0 201 -86.5t68 -203.5q0 -67 -16 -182 l-26 -146q-36 -202 -126 -301t-240 -99h-227z" />
<glyph unicode="&#x40a;" d="M747 677q0 102 -72 103h-28l-96 -542h47q47 0 69.5 31.5t37.5 120.5l31 176q11 63 11 111zM351 0q0 210 36 416l64 364h-117l-137 -780h-226l278 1580h226l-99 -562h117l99 562h196l-99 -562h28q125 0 197 -80.5t72 -220.5q0 -64 -16 -171l-26 -146q-36 -202 -126 -301 t-240 -99h-227z" />
<glyph unicode="&#x40b;" d="M951 911q0 -74 -15 -163l-131 -748h-278l131 748q9 47 9 81q0 120 -89 120q-103 0 -131 -132l-144 -817h-278l236 1342h-139v238h616v-238h-199l-50 -285q84 132 233 132q110 0 169.5 -74t59.5 -204z" />
<glyph unicode="&#x40c;" d="M843 1950h280l-279 -245h-224zM540 1490l-100 -569q367 364 388 569h276q-27 -258 -416 -638q192 -437 202 -852h-276q-10 382 -124 642l-122 -129l-90 -513h-278l262 1490h278z" />
<glyph unicode="&#x40d;" d="M755 1705h-224l-193 245h280zM22 0q0 210 36 416l189 1074h278l-49 -277q-58 -333 -153 -683l447 960h248q0 -210 -36 -416l-188 -1074h-278l48 277q59 333 154 683l-447 -960h-249z" />
<glyph unicode="&#x40e;" d="M708 1690q-357 0 -367 260h214q3 -99 153 -99t153 99h214q-10 -260 -367 -260zM152 255l198 330l-126 491q-50 208 -37 324l11 90h266l-10 -84q-8 -71 32 -278l51 -247l134 243q110 199 129 282l20 84h286l-22 -90q-26 -121 -150 -328l-504 -831q-48 -79 -76 -190 l-11 -51h-286l11 51q26 108 84 204z" />
<glyph unicode="&#x40f;" d="M22 0q0 210 36 416l206 1164h277l-237 -1344h254l237 1344h277l-278 -1580h-266l-50 -278h-276l50 278h-230z" />
<glyph unicode="&#x410;" d="M604 1248q-79 -191 -141 -355.5t-109 -307.5h246q5 112 7.5 213t2.5 192q0 142 -6 258zM-57 0q21 362 333 1060l233 520h318q20 -213 30 -423t10 -423q0 -367 -30 -734h-276q8 93 14 179.5t11 168.5h-303q-28 -106 -44 -192.5t-20 -155.5h-276z" />
<glyph unicode="&#x411;" d="M1006 1344h-489l-64 -368h68q180 0 286.5 -94.5t106.5 -247.5q0 -66 -9 -118l-24 -136q-70 -380 -482 -380h-359q0 210 36 416l205 1164h725v-236zM631 595q0 145 -132 145h-88l-89 -503h117q67 0 110 36.5t66 166.5l8 46q8 43 8 109z" />
<glyph unicode="&#x412;" d="M322 237h117q117 0 156 125t39 230q0 63 -22 91q-38 47 -115 47h-88zM451 966h74q83 0 132.5 65t49.5 199q0 63 -35 88.5t-101 25.5h-54zM281 1580h344q181 0 270.5 -92.5t89.5 -237.5q0 -323 -256 -391q180 -62 180 -271q0 -212 -108.5 -400t-371.5 -188h-389 q0 210 36 416z" />
<glyph unicode="&#x413;" d="M1071 1342h-480l-236 -1342h-279l278 1580h717v-238z" />
<glyph unicode="&#x414;" d="M517 238l195 1103h-92l-99 -421q-112 -476 -241 -682h237zM987 1580q0 -210 -36 -416l-163 -926h89l-91 -516h-268l50 278h-395l-50 -278h-267l91 516h72q121 216 239 702l151 640h578z" />
<glyph unicode="&#x415;" d="M80 416l205 1164h766v-238h-530l-70 -396h345v-238h-387l-83 -470h499v-238h-781q0 211 36 416z" />
<glyph unicode="&#x416;" d="M575 570l-21 -251l-56 -319h-196l56 319l67 251l-83 -105q-36 -47 -67.5 -127.5t-57.5 -196.5l-31 -141h-261l27 123q23 105 79 212.5t150 219.5l218 263l-124 261q-83 177 -83 342q-1 36 6 89l8 70h241l-11 -87q-13 -110 -13 -168q0 -102 26 -160l51 -115l22 255l48 275 h196l-48 -275l-68 -255l91 114q39 49 70.5 131.5t58.5 197.5l19 87h251l-15 -69q-47 -211 -230 -432l-216 -260l124 -264q42 -88 63 -173t20 -169q0 -45 -6 -90l-15 -123h-251l17 141q12 97 12 170q1 50 -5.5 88.5t-17.5 65.5z" />
<glyph unicode="&#x417;" d="M-32 240l234 143q70 -165 199 -165q108 0 165.5 96t57.5 237q0 82 -48 125t-157 43h-37v238h119q104 0 157.5 76.5t53.5 187.5q0 68 -36.5 105.5t-102.5 37.5q-118 0 -206 -166l-184 143q172 261 443 261q170 0 268 -99t98 -253q0 -310 -255 -413q163 -88 163 -286 q0 -231 -132 -401t-398 -170q-271 0 -402 260z" />
<glyph unicode="&#x418;" d="M1035 1580q0 -210 -36 -416l-205 -1164h-268l48 277q66 373 164 743l-485 -1020h-231q0 210 36 416l205 1164h268l-49 -277q-66 -373 -164 -743l486 1020h231z" />
<glyph unicode="&#x419;" d="M709 1690q-357 0 -367 260h214q3 -99 153 -99t153 99h214q-10 -260 -367 -260zM22 0q0 210 36 416l189 1074h278l-49 -277q-58 -333 -153 -683l447 960h248q0 -210 -36 -416l-188 -1074h-278l48 277q59 333 154 683l-447 -960h-249z" />
<glyph unicode="&#x41a;" d="M596 1580l-106 -601q373 396 394 601h276q-27 -258 -422 -670q192 -437 192 -910h-276q0 440 -114 700l-122 -129l-100 -571h-278l278 1580h278z" />
<glyph unicode="&#x41b;" d="M1035 1580q0 -210 -36 -416l-205 -1164h-278l236 1342h-152l-174 -809q-114 -533 -422 -533h-82v238h36q131 0 192 275l231 1067h654z" />
<glyph unicode="&#x41c;" d="M1045 1580q0 -210 -36 -416l-205 -1164h-255l43 247q73 414 274 1099l-291 -606h-110l-77 606q-41 -685 -114 -1099l-43 -247h-255l278 1580h245l66 -527l252 527h228z" />
<glyph unicode="&#x41d;" d="M794 0h-278l128 730h-253l-128 -730h-278l278 1580h278l-108 -612h253l108 612h278z" />
<glyph unicode="&#x41e;" d="M617 1354q-69 0 -103.5 -55t-58.5 -191l-112 -635q-13 -80 -13 -118q0 -127 111 -127q69 0 103.5 55t58.5 191l112 635q13 80 13 118q0 127 -111 127zM416 -20q-163 0 -261.5 94t-98.5 271q0 81 18 182l100 567q53 300 169 404t299 104q163 0 261.5 -94t98.5 -271 q0 -81 -18 -182l-100 -567q-53 -300 -169 -404t-299 -104z" />
<glyph unicode="&#x41f;" d="M1035 1580q0 -210 -36 -416l-205 -1164h-278l236 1342h-253l-236 -1342h-278l278 1580h772z" />
<glyph unicode="&#x420;" d="M500 944h114q101 0 141.5 86t40.5 182q0 63 -30.5 97.5t-101.5 34.5h-94zM458 707l-124 -707h-278l278 1580h384q181 0 269.5 -98.5t88.5 -242.5q0 -220 -122.5 -376t-349.5 -156h-146z" />
<glyph unicode="&#x421;" d="M910 219q-170 -239 -419 -239q-173 0 -270 91.5t-97 271.5q0 123 114 739q52 298 176.5 409t322.5 111q250 0 375 -239l-234 -143q-62 135 -175 135q-78 0 -118 -56t-66 -201q-120 -673 -120 -729q0 -143 125 -143q114 0 202 136z" />
<glyph unicode="&#x422;" d="M1080 1342h-315l-236 -1342h-278l236 1342h-275v238h868v-238z" />
<glyph unicode="&#x423;" d="M152 255l210 381l-122 530q-49 215 -37 324l11 90h266l-10 -84q-8 -71 32 -278l49 -255l136 251q111 207 129 282l20 84h286l-22 -90q-22 -97 -150 -324l-525 -934q-48 -85 -71 -181l-11 -51h-286l11 51q23 96 84 204z" />
<glyph unicode="&#x424;" d="M774 1454q222 -68 222 -358q0 -84 -18 -184l-50 -284q-81 -457 -388 -502l-22 -126h-256l22 126q-223 66 -223 360q1 81 18 182l50 284q81 457 389 502l22 126h256zM526 1245q-120 -8 -163 -258l-66 -374q-12 -71 -12 -122q0 -135 81 -156zM692 1245l-160 -910 q118 7 163 258l66 374q12 69 12 122q0 135 -81 156z" />
<glyph unicode="&#x425;" d="M385 432q-174 -230 -174 -432h-276q0 249 266 596l186 242l-52 139q-109 291 -109 603h276q0 -335 65 -509l109 144q148 193 148 365h276q0 -217 -253 -547l-180 -232l54 -142q131 -350 131 -659h-276q0 331 -88 566z" />
<glyph unicode="&#x426;" d="M23 0q0 210 36 416l205 1164h277l-237 -1342h216l238 1342h277l-237 -1342h89l-91 -516h-276l50 278h-547z" />
<glyph unicode="&#x427;" d="M556 1580l-81 -462q-11 -64 -11 -108q0 -86 41.5 -121.5t112.5 -35.5h54l128 727h276l-278 -1580h-276l106 605h-85q-165 0 -263.5 82.5t-98.5 264.5q0 80 18 181l79 447h278z" />
<glyph unicode="&#x428;" d="M-7 0q0 210 36 416l205 1164h222l-237 -1342h119l237 1342h187l-237 -1342h119l237 1342h222l-278 -1580h-832z" />
<glyph unicode="&#x429;" d="M-7 0q0 210 36 416l205 1164h222l-237 -1342h119l237 1342h187l-237 -1342h119l237 1342h222l-237 -1342h78l-91 -516h-246l50 278h-664z" />
<glyph unicode="&#x42a;" d="M995 622q0 -46 -10 -106l-17 -99q-75 -417 -459 -417h-349q0 210 36 416l163 928h-170v236h453q0 -210 -36 -416l-33 -188h28q177 0 285.5 -94t108.5 -260zM714 590q0 81 -38.5 115.5t-96.5 34.5h-48l-89 -503h85q126 0 161 167l15 82q11 68 11 104z" />
<glyph unicode="&#x42b;" d="M1097 1580l-278 -1580h-246l278 1580h246zM615 694q0 -67 -18 -168l-24 -136q-69 -390 -334 -390h-241q0 210 36 416l205 1164h246l-106 -604h22q110 0 162 -76.5t52 -205.5zM416 653q0 87 -57 87h-22l-89 -503h21q37 0 66.5 41.5t45.5 131.5l27 156q8 54 8 87z" />
<glyph unicode="&#x42c;" d="M914 632q0 -53 -9 -116l-24 -136q-69 -380 -482 -380h-359q0 210 36 416l205 1164h278l-106 -604h68q183 0 288 -96t105 -248zM633 582q-1 158 -134 158h-88l-89 -503h117q67 0 110 37t66 166l8 46q10 60 10 96z" />
<glyph unicode="&#x42d;" d="M975 1238q0 -138 -113 -730q-54 -310 -176 -419t-314 -109q-260 0 -384 239l233 143q60 -136 174 -136q77 0 117.5 52t66.5 195l42 246h-294v239h336q36 172 36 243q0 154 -125 154q-114 0 -201 -135l-184 143q169 239 419 239q174 0 270.5 -95t96.5 -269z" />
<glyph unicode="&#x42e;" d="M1047 1332q0 -46 -9 -128l-147 -841q-67 -382 -333 -383q-102 0 -169.5 74t-67.5 217q0 46 13 122l59 338h-82l-128 -731h-226l278 1580h226l-108 -611h82l44 250q65 383 335 383q111 0 172 -78.5t61 -191.5zM820 1288q0 79 -58 79q-59 0 -81 -118l-155 -884 q-6 -37 -6 -71q0 -79 59 -79q59 3 78 113l156 881q7 40 7 79z" />
<glyph unicode="&#x42f;" d="M721 1344h-105q-107 0 -144.5 -89.5t-37.5 -194.5q0 -138 128 -138h85zM1004 1580q0 -210 -36 -416l-205 -1164h-278l120 686h-101l-27 -32q-143 -155 -249 -597l-14 -57h-285l17 70q100 422 307 648l22 27q-127 95 -127 286q0 217 106 383t357 166h393z" />
<glyph unicode="&#x430;" d="M671 821q-22 133 -114 133q-61 0 -100 -65.5t-68 -229.5l-25 -142q-15 -86 -15 -145q0 -148 99 -149q92 0 145 152zM805 0h-278l20 115q-95 -132 -243 -132q-111 0 -176 86t-65 234q0 88 19 195l39 220q48 268 136.5 371t219.5 103q149 0 233 -151l23 131h278z" />
<glyph unicode="&#x431;" d="M985 1365h-161q-199 0 -271 -54t-101 -219l-17 -99q83 115 222 115q121 0 189 -86t68 -236q0 -86 -17 -196l-24 -136q-48 -267 -176.5 -370.5t-287.5 -103.5q-160 0 -259.5 97.5t-99.5 242.5q0 51 10 109l113 642q53 300 183.5 415.5t378.5 115.5h250v-237zM635 729 q0 60 -27 99t-77 39q-93 0 -140 -123l-51 -285q-11 -61 -11 -108q0 -60 26.5 -97t80.5 -37q118 0 155 205l36 203q8 58 8 104z" />
<glyph unicode="&#x432;" d="M937 899q0 -104 -56 -177t-184 -103q191 -55 191 -244q0 -178 -125.5 -286.5t-293.5 -108.5q-203 0 -298 103.5t-95 271.5q0 67 13 141l39 221q44 249 167.5 363t286.5 114q172 0 263.5 -84t91.5 -211zM655 869q0 40 -23 68.5t-70 28.5q-65 0 -99 -51t-54 -189h94 q67 0 109.5 33.5t42.5 109.5zM616 375q0 115 -136 115h-113l-5 -29q-10 -60 -10 -100q-4 -70 28 -107t97 -37q58 0 98.5 40t40.5 118z" />
<glyph unicode="&#x433;" d="M900 878q0 -98 -60 -192t-231 -170l-190 -76q-102 -41 -102 -130q0 -46 34 -74.5t101 -28.5q141 0 236 143l168 -131q-178 -239 -442 -239q-195 0 -286 87.5t-91 226.5q0 132 80 224.5t234 151.5l160 65q112 43 112 138q0 37 -28 65t-81 28q-109 0 -185 -121l-169 132 q164 217 394 217q165 0 255.5 -87t90.5 -229z" />
<glyph unicode="&#x434;" d="M998 1191q0 -54 -18 -180l-109 -622q-35 -200 -150.5 -304.5t-285.5 -104.5q-167 0 -266.5 103.5t-99.5 274.5q0 46 14 146l23 126q48 272 141 374.5t214 103.5q159 -1 238 -135l16 89q9 54 9 112q0 191 -270 191h-129v240l212 -3q229 0 345 -119.5t116 -291.5zM655 724 q-21 143 -124 143q-107 0 -147 -222l-28 -162q-11 -67 -11 -120q0 -70 27 -108t82 -38q111 0 143 175z" />
<glyph unicode="&#x435;" d="M646 729l8 43q7 45 7 72q0 65 -28 98.5t-81 33.5q-66 0 -101 -52t-54 -152l-8 -43h257zM891 551h-532l-23 -130q-7 -38 -7 -72q0 -131 120 -131q111 0 186 110l184 -143q-151 -205 -413 -205q-161 0 -255.5 94.5t-94.5 266.5q0 69 15 155l39 221q48 270 168.5 373.5 t301.5 103.5q159 0 253.5 -95t94.5 -267q0 -70 -15 -155z" />
<glyph unicode="&#x436;" d="M554 425l-10 -187l-41 -238h-196l41 238l56 187l-77 -78q-71 -71 -111 -242l-25 -105h-266l22 92q35 156 209 322l206 196l-147 211q-88 127 -88 263q0 21 2 44l6 44h236l-7 -58q-6 -50 -6 -101q1 -92 41 -154l49 -76l10 190l35 199h196l-35 -199l-56 -190l86 85 q73 74 114 246l13 58h257l-11 -45q-37 -157 -210 -322l-203 -195l134 -196q49 -72 74 -139t25 -136q0 -22 -2 -47l-10 -92h-246l11 105q6 60 6 107q-1 87 -31 135z" />
<glyph unicode="&#x437;" d="M955 893q0 -92 -59.5 -176t-189.5 -118q186 -72 186 -236q0 -154 -128.5 -268.5t-351.5 -114.5q-292 0 -421 260l233 143q70 -165 216 -165q81 0 129 40.5t48 104.5q0 133 -205 133h-46v238h118q94 0 141 28.5t47 89.5q0 40 -37.5 72t-102.5 32q-108 0 -197 -115 l-184 143q164 210 415 210q180 0 284.5 -84t104.5 -217z" />
<glyph unicode="&#x438;" d="M962 1172q0 -210 -36 -416l-132 -756h-267l34 206q50 278 130 549l-439 -755h-230q0 210 36 416l132 756h267l-36 -202q-49 -278 -129 -548l440 750h230z" />
<glyph unicode="&#x439;" d="M962 1172q0 -210 -36 -416l-132 -756h-267l34 206q50 278 130 549l-439 -755h-230q0 210 36 416l132 756h267l-36 -202q-49 -278 -129 -548l440 750h230zM668 1320q-357 0 -367 260h214q3 -99 153 -99t153 99h214q-10 -260 -367 -260z" />
<glyph unicode="&#x43a;" d="M860 0h-276q0 248 -107 439l-21 39l-104 -87l-69 -391h-276l206 1172h276l-77 -437l59 46q277 233 288 391h276q-14 -227 -317 -477l-72 -59l48 -85q166 -294 166 -551z" />
<glyph unicode="&#x43b;" d="M962 1172q0 -210 -36 -416l-132 -756h-278l164 934h-169l-84 -401q-115 -533 -423 -533h-84v238h38q131 0 191 275l147 659h666z" />
<glyph unicode="&#x43c;" d="M973 1172q0 -210 -36 -416l-133 -756h-250l27 157l213 781l-291 -606h-110l-77 606l-63 -781l-27 -157h-250l206 1172h255l66 -527l252 527h218z" />
<glyph unicode="&#x43d;" d="M795 0h-278l88 503h-254l-88 -503h-278l206 1172h278l-76 -431h254l76 431h278z" />
<glyph unicode="&#x43e;" d="M548 956q-67 0 -100.5 -50.5t-62.5 -211.5l-39 -222q-14 -83 -14 -129q0 -125 106 -125q67 0 100.5 50.5t62.5 211.5l39 222q14 83 14 129q0 125 -106 125zM406 -20q-160 0 -254.5 94t-94.5 265q0 70 15 156l39 222q47 270 168.5 373.5t300.5 103.5q160 0 254.5 -94 t94.5 -265q0 -70 -15 -156l-39 -222q-47 -270 -168.5 -373.5t-300.5 -103.5z" />
<glyph unicode="&#x43f;" d="M964 1172q0 -210 -36 -416l-133 -756h-278l164 934h-254l-164 -934h-278l208 1172h771z" />
<glyph unicode="&#x440;" d="M349 355q22 -132 115 -132q116 0 165 278l28 158q15 85 15 145q0 150 -99 150q-93 0 -145 -153zM215 1172h278l-19 -111q95 131 243 131q110 0 175 -88t65 -233q0 -83 -19 -193l-47 -261q-76 -434 -347 -434q-148 0 -234 152l-88 -500h-278z" />
<glyph unicode="&#x441;" d="M827 195q-153 -215 -403 -215q-169 0 -264 103.5t-95 271.5q0 67 13 141l39 221q44 248 167.5 362.5t313.5 114.5q250 0 367 -217l-234 -143q-60 122 -165 122q-128 0 -164 -204l-51 -291q-10 -60 -10 -100q0 -144 115 -144q95 0 169 131z" />
<glyph unicode="&#x442;" d="M819 0h-194l140 795q8 50 8 78q0 83 -49 83q-61 0 -91 -127l-146 -829h-194l140 795q8 50 8 78q0 83 -48 83q-67 0 -92 -127l-146 -829h-194l206 1172h194l-17 -95q58 117 174 117q99 0 131 -110q65 110 170 110q76 0 116.5 -54.5t40.5 -163.5q0 -84 -17 -181z" />
<glyph unicode="&#x443;" d="M30 -365q5 199 143 428l135 223l-69 271q-83 324 -83 615h276q0 -395 50 -600l118 198q144 235 144 402h276q0 -174 -162 -439l-385 -641q-167 -278 -167 -457h-276z" />
<glyph unicode="&#x444;" d="M947 819q0 -74 -18 -187l-23 -130q-81 -457 -388 -502l-65 -365h-254l63 365q-223 68 -223 355q0 74 18 187l23 130q81 457 389 502l71 406h256l-71 -406q222 -66 222 -355zM724 809q0 142 -81 156l-134 -756q120 8 164 258l39 220q12 69 12 122zM477 965 q-120 -8 -164 -258l-39 -220q-13 -69 -13 -121q0 -137 82 -157z" />
<glyph unicode="&#x445;" d="M-35 0q0 180 259 456l148 156l-36 73q-142 294 -142 487h276q0 -231 70 -379l63 67q132 141 132 312h275q0 -192 -224 -430l-146 -156l41 -83q164 -341 164 -503h-276q0 206 -99 405l-84 -89q-145 -155 -145 -316h-276z" />
<glyph unicode="&#x446;" d="M593 115q-91 -135 -255 -135q-134 0 -212.5 78t-78.5 221q0 75 17 164l128 729h277l-130 -738q-10 -57 -10 -95q0 -116 88 -116q101 0 130 162l139 787h277l-165 -934h89l-91 -516h-276z" />
<glyph unicode="&#x447;" d="M728 1172h276l-206 -1172h-276l83 478q-94 -133 -243 -133q-110 0 -178.5 76.5t-68.5 219.5q0 125 80 531h278q-76 -414 -76 -470q0 -116 109 -116q104 0 147 162z" />
<glyph unicode="&#x448;" d="M167 1172h194l-140 -795q-8 -50 -8 -78q0 -83 49 -83q61 0 91 127l146 829h194l-140 -795q-8 -50 -8 -78q0 -83 48 -83q67 0 92 127l146 829h194l-206 -1172h-194l17 95q-58 -117 -174 -117q-99 0 -131 110q-65 -110 -170 -110q-76 0 -116.5 54.5t-40.5 163.5 q0 84 17 181z" />
<glyph unicode="&#x449;" d="M167 1172h194l-140 -795q-8 -50 -8 -78q0 -83 49 -83q61 0 91 127l146 829h194l-140 -795q-8 -50 -8 -78q0 -83 48 -83q67 0 92 127l146 829h194l-164 -934h83l-91 -516h-246l67 375q-75 -117 -181 -117q-98 0 -133 117q-72 -117 -183 -117q-79 0 -123 63.5t-44 162.5 q0 74 17 171z" />
<glyph unicode="&#x44a;" d="M966 438q0 -205 -129 -331.5t-337 -126.5q-149 0 -233.5 81.5t-84.5 226.5q0 45 11 110l95 538h-171v236h467q0 -190 -50 -416h88q170 0 257 -91.5t87 -226.5zM685 401q0 119 -138 119h-55l-28 -159q-4 -24 -4 -52q1 -92 83 -92q69 0 105.5 55.5t36.5 128.5z" />
<glyph unicode="&#x44b;" d="M1025 1172l-206 -1172h-246l206 1172h246zM580 498q0 -66 -10 -130q-34 -190 -123.5 -289t-220.5 -99q-103 0 -156.5 65t-53.5 193q0 66 10 130l141 804h246l-73 -416h32q101 0 154.5 -65t53.5 -193zM378 440q0 80 -65 80h-15l-33 -188q-7 -45 -7 -71q0 -23 9 -33.5 t23 -10.5q56 0 82 151q6 36 6 72z" />
<glyph unicode="&#x44c;" d="M883 440q0 -195 -136.5 -327.5t-347.5 -132.5q-174 0 -254 91t-80 236q0 45 8 94l136 771h278l-73 -416h117q161 0 256.5 -88.5t95.5 -227.5zM605 394q0 123 -129 126h-104l-22 -122q-6 -41 -6 -75q0 -106 102 -106q63 0 111 48.5t48 128.5z" />
<glyph unicode="&#x44d;" d="M906 828q0 -105 -53 -372q-46 -258 -157.5 -367t-303.5 -109q-270 0 -407 225l234 143q61 -132 175 -132q77 0 117 52t68 214h-295v229h336q10 52 10 95q0 70 -34.5 110.5t-101.5 40.5q-114 0 -189 -123l-184 143q165 217 402 217q174 0 278.5 -95.5t104.5 -270.5z" />
<glyph unicode="&#x44e;" d="M974 895q0 -57 -11 -119l-73 -418q-68 -377 -318 -378q-123 0 -185.5 83t-62.5 216q0 57 11 119l12 68h-82l-82 -466h-226l206 1172h226l-82 -468h82l19 112q68 378 319 378q122 0 184.5 -83t62.5 -216zM748 873q0 86 -58 86q-62 0 -84 -138l-81 -468q-4 -27 -4 -52 q0 -86 58 -86q62 0 84 138l81 468q4 27 4 52z" />
<glyph unicode="&#x44f;" d="M650 936h-115q-76 0 -113 -32t-37 -100q0 -108 133 -108h89zM932 1172q0 -210 -36 -416l-133 -756h-278l81 460h-77l-128 -166q-117 -165 -146 -294h-287l11 41q38 152 221 386l88 106q-147 101 -147 271q0 158 116 263t322 105h393z" />
<glyph unicode="&#x450;" d="M646 729l8 43q7 45 7 72q0 65 -28 98.5t-81 33.5q-66 0 -101 -52t-54 -152l-8 -43h257zM891 551h-532l-23 -130q-7 -38 -7 -72q0 -131 120 -131q111 0 186 110l184 -143q-151 -205 -413 -205q-161 0 -255.5 94.5t-94.5 266.5q0 69 15 155l39 221q48 270 168.5 373.5 t301.5 103.5q159 0 253.5 -95t94.5 -267q0 -70 -15 -155zM746 1335h-224l-193 245h280z" />
<glyph unicode="&#x451;" d="M646 729l8 43q7 45 7 72q0 65 -28 98.5t-81 33.5q-66 0 -101 -52t-54 -152l-8 -43h257zM891 551h-532l-23 -130q-7 -38 -7 -72q0 -131 120 -131q111 0 186 110l184 -143q-151 -205 -413 -205q-161 0 -255.5 94.5t-94.5 266.5q0 69 15 155l39 221q48 270 168.5 373.5 t301.5 103.5q159 0 253.5 -95t94.5 -267q0 -70 -15 -155zM457 1330q-56 0 -93 37t-37 89q0 51 37 87.5t93 36.5t93 -36.5t37 -87.5q0 -52 -37 -89t-93 -37zM834 1330q-56 0 -93 37t-37 89q0 51 37 87.5t93 36.5t93 -36.5t37 -87.5q0 -52 -37 -89t-93 -37z" />
<glyph unicode="&#x452;" d="M918 740q0 -87 -15 -179l-93 -529q-36 -208 -132.5 -302.5t-261.5 -94.5h-86v228h52q120 0 146 145l97 553q9 57 9 89q0 112 -94 112q-98 0 -126 -132l-111 -630h-278l208 1180h-90v218h128l32 182h278l-32 -182h178v-218h-217l-54 -310q84 132 233 132 q102 0 165.5 -69.5t63.5 -192.5z" />
<glyph unicode="&#x453;" d="M900 878q0 -98 -60 -192t-231 -170l-190 -76q-102 -41 -102 -130q0 -46 34 -74.5t101 -28.5q141 0 236 143l168 -131q-178 -239 -442 -239q-195 0 -286 87.5t-91 226.5q0 132 80 224.5t234 151.5l160 65q112 43 112 138q0 37 -28 65t-81 28q-109 0 -185 -121l-169 132 q164 217 394 217q165 0 255.5 -87t90.5 -229zM777 1580h280l-279 -245h-224z" />
<glyph unicode="&#x454;" d="M1016 977l-234 -143q-63 123 -177 123q-77 -1 -116.5 -53t-62.5 -183h279v-239h-322q-11 -58 -11 -112q0 -80 28 -116.5t85 -36.5q115 0 211 131l184 -143q-167 -225 -417 -225q-168 0 -269.5 90.5t-101.5 268.5q0 120 54 378q45 255 162.5 366t320.5 111q258 0 387 -217 z" />
<glyph unicode="&#x455;" d="M30 219l214 131q65 -143 206 -143q82 0 120 40t38 91q0 75 -111 133l-113 59q-178 96 -178 266q0 165 110.5 281.5t319.5 116.5q231 0 358 -217l-217 -132q-52 121 -161 121q-54 0 -91.5 -32.5t-37.5 -92.5q0 -77 118 -139l87 -46q195 -103 195 -285 q0 -164 -110.5 -277.5t-348.5 -113.5q-264 0 -398 239z" />
<glyph unicode="&#x456;" d="M653 756l-93 -528h199v-228h-699v228h222l126 716h-162v228h443q0 -211 -36 -416zM807 1549q0 -76 -50.5 -126.5t-135.5 -50.5t-135 50.5t-50 126.5t50 127t135 51t135.5 -51t50.5 -127z" />
<glyph unicode="&#x457;" d="M408 1330q-56 0 -93 37t-37 89q0 51 37 87.5t93 36.5t93 -36.5t37 -87.5q0 -52 -37 -89t-93 -37zM785 1330q-56 0 -93 37t-37 89q0 51 37 87.5t93 36.5t93 -36.5t37 -87.5q0 -52 -37 -89t-93 -37zM662 756l-93 -528h199v-228h-699v228h222l126 716h-162v228h443 q0 -211 -36 -416z" />
<glyph unicode="&#x458;" d="M749 756l-131 -744q-37 -210 -136.5 -298.5t-284.5 -88.5q-227 0 -338 185l232 120q27 -67 116 -67q49 0 84.5 35.5t51.5 127.5l162 918h-246v228h526q0 -211 -36 -416zM905 1549q0 -76 -50.5 -126.5t-135.5 -50.5t-135 50.5t-50 126.5t50 127t135 51t135.5 -51 t50.5 -127z" />
<glyph unicode="&#x459;" d="M711 451q0 97 -77 97h-28l-56 -320h47q79 0 105 132q9 51 9 91zM351 0q0 210 36 416l93 528h-82l-109 -531q-81 -413 -335 -413h-78v228h48q91 0 137 210l149 734h480q0 -190 -37 -358l-7 -38h32q140 0 205 -88.5t65 -198.5q0 -64 -9 -116q-67 -373 -376 -373h-212z" />
<glyph unicode="&#x45a;" d="M711 458q0 90 -78 90h-27l-56 -320h47q79 0 102 130q12 60 12 100zM351 0q0 210 36 416l23 132h-117l-96 -548h-226l206 1172h226l-70 -396h117l71 396h195l-70 -396h32q140 0 205.5 -87.5t65.5 -209.5q0 -45 -11 -116q-68 -363 -385 -363h-202z" />
<glyph unicode="&#x45b;" d="M919 728q0 -76 -16 -167l-98 -561h-278l98 561q9 46 9 95q0 106 -99 106q-93 0 -121 -132l-111 -630h-278l206 1172h-89v218h128l33 190h278l-33 -190h178v-218h-217l-53 -302q84 132 223 132q111 0 175.5 -73t64.5 -201z" />
<glyph unicode="&#x45c;" d="M860 0h-276q0 248 -107 439l-21 39l-104 -87l-69 -391h-276l206 1172h276l-77 -437l59 46q277 233 288 391h276q-14 -227 -317 -477l-72 -59l48 -85q166 -294 166 -551zM807 1580h280l-279 -245h-224z" />
<glyph unicode="&#x45d;" d="M962 1172q0 -210 -36 -416l-132 -756h-267l34 206q50 278 130 549l-439 -755h-230q0 210 36 416l132 756h267l-36 -202q-49 -278 -129 -548l440 750h230zM729 1335h-224l-193 245h280z" />
<glyph unicode="&#x45e;" d="M30 -365q5 199 143 428l135 223l-69 271q-83 324 -83 615h276q0 -395 50 -600l118 198q144 235 144 402h276q0 -174 -162 -439l-385 -641q-167 -278 -167 -457h-276zM668 1320q-357 0 -367 260h214q3 -99 153 -99t153 99h214q-10 -260 -367 -260z" />
<glyph unicode="&#x45f;" d="M23 0q0 210 36 416l133 756h277l-165 -936h254l165 936h277l-206 -1172h-266l-50 -278h-276l50 278h-229z" />
<glyph unicode="&#x490;" d="M1063 1344h-473l-236 -1344h-278l278 1580h473l30 168h278z" />
<glyph unicode="&#x491;" d="M992 936h-473l-165 -936h-278l206 1172h473l102 576h278z" />
<glyph unicode="&#x2000;" horiz-adv-x="1046" />
<glyph unicode="&#x2001;" horiz-adv-x="2092" />
<glyph unicode="&#x2002;" horiz-adv-x="1046" />
<glyph unicode="&#x2003;" horiz-adv-x="2092" />
<glyph unicode="&#x2004;" horiz-adv-x="697" />
<glyph unicode="&#x2005;" horiz-adv-x="523" />
<glyph unicode="&#x2006;" horiz-adv-x="348" />
<glyph unicode="&#x2007;" horiz-adv-x="348" />
<glyph unicode="&#x2008;" horiz-adv-x="261" />
<glyph unicode="&#x2009;" horiz-adv-x="418" />
<glyph unicode="&#x200a;" horiz-adv-x="116" />
<glyph unicode="&#x2010;" d="M1009 672h-960v238h960v-238z" />
<glyph unicode="&#x2011;" d="M1009 672h-960v238h960v-238z" />
<glyph unicode="&#x2012;" d="M1009 672h-960v238h960v-238z" />
<glyph unicode="&#x2013;" d="M937 662h-877v258h877v-258z" />
<glyph unicode="&#x2014;" d="M1011 662h-1025v258h1025v-258z" />
<glyph unicode="&#x2018;" d="M371 1153q0 161 255 427h218q-172 -169 -238 -307q83 -2 135 -48t52 -114q0 -75 -55 -122.5t-147 -47.5q-101 0 -160.5 55.5t-59.5 156.5z" />
<glyph unicode="&#x2019;" d="M856 1388q0 -161 -255 -427h-218q172 169 238 307q-83 2 -135 48t-52 114q0 75 55 122.5t147 47.5q101 0 160.5 -55.5t59.5 -156.5z" />
<glyph unicode="&#x201a;" d="M622 62q0 -161 -255 -427h-218q172 169 238 307q-83 2 -135 48t-52 114q0 75 55 122.5t147 47.5q101 0 160.5 -55.5t59.5 -156.5z" />
<glyph unicode="&#x201c;" d="M633 1153q0 161 255 427h218q-172 -169 -238 -307q83 -2 135 -48t52 -114q0 -75 -55 -122.5t-147 -47.5q-101 0 -160.5 55.5t-59.5 156.5zM128 1153q0 161 255 427h218q-172 -169 -238 -307q83 -2 135 -48t52 -114q0 -75 -55 -122.5t-147 -47.5q-101 0 -160.5 55.5 t-59.5 156.5z" />
<glyph unicode="&#x201d;" d="M1099 1388q0 -161 -255 -427h-218q172 169 238 307q-83 2 -135 48t-52 114q0 75 55 122.5t147 47.5q101 0 160.5 -55.5t59.5 -156.5zM594 1388q0 -161 -255 -427h-218q172 169 238 307q-83 2 -135 48t-52 114q0 75 55 122.5t147 47.5q101 0 160.5 -55.5t59.5 -156.5z" />
<glyph unicode="&#x201e;" d="M865 62q0 -161 -255 -427h-218q172 169 238 307q-83 2 -135 48t-52 114q0 75 55 122.5t147 47.5q101 0 160.5 -55.5t59.5 -156.5zM360 62q0 -161 -255 -427h-218q172 169 238 307q-83 2 -135 48t-52 114q0 75 55 122.5t147 47.5q101 0 160.5 -55.5t59.5 -156.5z" />
<glyph unicode="&#x2020;" d="M1069 959h-382l-169 -959h-256l169 959h-323v235h364l68 386h256l-68 -386h341v-235z" />
<glyph unicode="&#x2021;" d="M955 366h-373l-64 -366h-256l64 366h-332v234h373l67 380h-332v235h374l64 365h256l-64 -365h331v-235h-373l-67 -380h332v-234z" />
<glyph unicode="&#x2022;" d="M938 851q0 -194 -107.5 -296.5t-291.5 -102.5t-291 102.5t-107 296.5t107 296t291 102t291.5 -102t107.5 -296z" />
<glyph unicode="&#x2026;" d="M884 138q0 -75 -37.5 -116.5t-101.5 -41.5q-65 0 -102 41.5t-37 116.5q0 64 37 111t102 47q64 0 101.5 -47t37.5 -111zM553 138q0 -75 -37.5 -116.5t-101.5 -41.5q-65 0 -102 41.5t-37 116.5q0 64 37 111t102 47q64 0 101.5 -47t37.5 -111zM222 138q0 -75 -37.5 -116.5 t-101.5 -41.5q-65 0 -102 41.5t-37 116.5q0 64 37 111t102 47q64 0 101.5 -47t37.5 -111z" />
<glyph unicode="&#x202f;" horiz-adv-x="418" />
<glyph unicode="&#x2030;" d="M418 1115h-228l82 465h228zM1023 1580l-902 -1580h-239l909 1580h232zM897 0h-198l81 465h198zM587 0h-198l81 465h198z" />
<glyph unicode="&#x2039;" d="M756 124h-289l-327 478l496 478h309l-497 -488z" />
<glyph unicode="&#x203a;" d="M544 612l-309 468h289l328 -478l-497 -478h-309z" />
<glyph unicode="&#x2044;" d="M1176 1504l-1176 -1527l-125 96l1175 1528z" />
<glyph unicode="&#x205f;" horiz-adv-x="523" />
<glyph unicode="&#x20ac;" d="M881 194q-163 -214 -405 -214q-160 0 -257 98t-97 255q0 41 10 106l13 77h-104v215h142l23 129h-104v215h142l19 107q38 213 158.5 316.5t300.5 103.5q241 0 369 -216l-234 -143q-65 122 -166 122q-66 0 -100.5 -47t-51.5 -144l-18 -99h352v-215h-390l-23 -129h352v-215 h-390l-19 -109q-6 -36 -6 -64q0 -127 112 -127q103 0 188 121z" />
<glyph unicode="&#x2122;" d="M998 710h-169l34 197l114 420l-150 -302h-69l-45 302l-34 -420l-34 -197h-169l153 870h169l40 -294l144 294h169zM551 1431h-103l-127 -721h-189l127 721h-98v149h390v-149z" />
<glyph unicode="&#x2212;" d="M1009 672h-960v238h960v-238z" />
<glyph unicode="&#x25fc;" horiz-adv-x="1170" d="M0 1170h1170v-1170h-1170v1170z" />
<glyph unicode="&#xf420;" d="M604 1248q-79 -191 -141 -355.5t-109 -307.5h246q5 112 7.5 213t2.5 192q0 142 -6 258zM-57 0q21 362 333 1060l175 390h387q9 -83 19 -293t10 -423q0 -367 -30 -734h-276q8 93 14 179.5t11 168.5h-303q-28 -106 -44 -192.5t-20 -155.5h-276z" />
<glyph unicode="&#xf440;" d="M656 0q0 145 -16 184l-15 -25q-104 -179 -314 -179q-143 0 -227.5 100t-84.5 257q0 306 335 558q-72 176 -72 314q0 180 109 286.5t259 106.5q122 0 207.5 -78t85.5 -197q0 -231 -314 -445l83 -194l94 162h240l-233 -402l28 -62q63 -139 63 -359v-27h-228zM354 225 q69 0 124 94l60 103l-116 269q-162 -129 -159 -329q0 -70 26 -103.5t65 -33.5zM670 1279q0 34 -17 60t-53 26q-42 0 -69 -41t-27 -115q0 -75 23 -139q143 101 143 209z" />
<glyph unicode="&#xf441;" d="M764 406l136 -357v-49h-235l-62 164q-95 -184 -292 -184q-145 0 -225 106.5t-80 262.5q0 350 303 590q-51 138 -51 270q0 154 106.5 273.5t296.5 119.5q241 0 351 -206l-235 -143q-33 112 -127 112q-140 1 -140 -195q1 -87 35 -181l108 -285l94 198h222v-65zM351 225 q75 0 160 185l-115 301q-133 -141 -133 -331q0 -155 88 -155z" />
<glyph unicode="&#xf480;" d="M22 0q0 210 36 416l189 1074h278l-49 -277q-58 -333 -153 -683l447 960h248q0 -210 -36 -416l-188 -1074h-278l48 277q59 333 154 683l-447 -960h-249z" />
<glyph unicode="&#xf481;" d="M152 255l198 330l-126 491q-50 208 -37 324l11 90h266l-10 -84q-8 -71 32 -278l51 -247l134 243q110 199 129 282l20 84h286l-22 -90q-26 -121 -150 -328l-504 -831q-48 -79 -76 -190l-11 -51h-286l11 51q26 108 84 204z" />
<glyph unicode="&#xf482;" d="M1055 1252h-480l-220 -1252h-279l262 1490h717v-238z" />
<glyph unicode="&#xf500;" d="M854 1335h-224l-193 245h280z" />
<glyph unicode="&#xf501;" d="M617 1580h280l-279 -245h-224z" />
<glyph unicode="&#xf502;" d="M460 -156q0 -85 -113 -209h-114q61 69 96 140q-34 6 -53 29.5t-19 58.5q0 36 27 61.5t71 25.5q43 0 74 -30.5t31 -75.5z" />
<glyph unicode="&#xf504;" d="M668 1320q-357 0 -367 260h214q3 -99 153 -99t153 99h214q-10 -260 -367 -260z" />
<glyph unicode="&#xf6c3;" d="M356 1315l322 265h274l-266 -265h-330z" />
<glyph unicode="&#xff21;" d="M604 1248q-79 -191 -141 -355.5t-109 -307.5h246q5 112 7.5 213t2.5 192q0 142 -6 258zM-57 0q21 362 333 1060l192 430h367q12 -123 22 -333t10 -423q0 -367 -30 -734h-276q8 93 14 179.5t11 168.5h-303q-28 -106 -44 -192.5t-20 -155.5h-276z" />
<glyph unicode="&#xff23;" d="M899 219q-170 -239 -419 -239q-173 0 -270 91.5t-97 271.5q0 123 98 647q52 298 176.5 409t322.5 111q250 0 375 -239l-234 -143q-62 135 -175 135q-78 0 -118 -56t-66 -201q-104 -581 -104 -637q0 -143 125 -143q114 0 202 136z" />
<glyph unicode="&#xff24;" d="M685 988q10 62 10 100q0 81 -38.5 117.5t-117.5 36.5h-53l-175 -994h73q88 0 138 51q50 53 77 204zM253 1490h341q191 0 285 -94.5t94 -270.5q0 -82 -18 -182l-77 -435q-53 -299 -174 -404q-121 -104 -332 -104h-344q0 210 36 416z" />
<glyph unicode="&#xff25;" d="M89 416l189 1074h766v-238h-530l-62 -351h345v-238h-387l-75 -425h489v-238h-771q0 211 36 416z" />
<glyph unicode="&#xff27;" d="M872 442q-45 -255 -166 -358q-122 -104 -300 -104q-155 0 -251 91.5t-96 273.5q0 111 101 657q53 300 174 404t301 104q248 0 367 -216l-234 -143q-55 112 -159 112q-67 0 -106.5 -57t-63.5 -195q-106 -588 -106 -657q0 -128 107 -128q76 0 106 56q30 57 46 144l33 187 h-95v237h377q0 -209 -35 -408z" />
<glyph unicode="&#xff28;" d="M794 0h-278l120 685h-253l-120 -685h-278l262 1490h278l-100 -567h253l100 567h278z" />
<glyph unicode="&#xff29;" d="M765 0h-692v228h218l182 1034h-155v228h606v-228h-173l-182 -1034h196v-228z" />
<glyph unicode="&#xff2a;" d="M824 465q-50 -279 -170 -381q-122 -104 -300 -104q-180 0 -280 124q-68 85 -68 237q0 37 4 78t12 86l35 201h278l-40 -226q-12 -71 -12 -121q0 -75 26 -109t76 -34q33 0 58 15t44.5 47t34.5 82t27 120l178 1010h278z" />
<glyph unicode="&#xff2b;" d="M540 1490l-100 -569q367 364 388 569h276q-27 -258 -416 -638q192 -437 202 -852h-276q-10 382 -124 642l-122 -129l-90 -513h-278l262 1490h278z" />
<glyph unicode="&#xff2c;" d="M132 416l189 1074h278l-221 -1252h489v-238h-771q0 211 36 416z" />
<glyph unicode="&#xff2e;" d="M774 0h-265l-139 980q-25 -330 -91 -703l-49 -277h-225l262 1490h266l137 -980q25 330 91 703l49 277h226z" />
<glyph unicode="&#xff2f;" d="M601 1262q-69 0 -103.5 -55t-58.5 -191l-96 -543q-13 -80 -13 -118q0 -127 111 -127q69 0 103.5 55t58.5 191l96 543q13 80 13 118q0 127 -111 127zM416 -20q-163 0 -261.5 94t-98.5 271q0 81 18 182l84 475q53 300 169 404t299 104q163 0 261.5 -94t98.5 -271 q0 -81 -18 -182l-84 -475q-53 -300 -169 -404t-299 -104z" />
<glyph unicode="&#xff32;" d="M449 877h95q97 0 141 73t44 175q0 66 -35.5 97.5t-103.5 31.5h-75zM279 1490h385q169 0 257 -91.5t88 -247.5q8 -332 -248 -459q93 -194 101 -692h-278q-8 525 -66 641h-111l-112 -641h-278z" />
<glyph unicode="&#xff33;" d="M10 230l234 143q87 -147 206 -147q88 0 134.5 53t46.5 133q0 71 -75 143l-194 184q-154 147 -154 316q0 190 128 322.5t334 132.5q240 0 371 -206l-235 -143q-75 102 -169 102q-66 0 -105.5 -42t-39.5 -115q0 -74 81 -152l181 -173q159 -152 159 -319q0 -196 -125.5 -339 t-377.5 -143q-267 0 -400 250z" />
<glyph unicode="&#xff34;" d="M1064 1252h-315l-220 -1252h-278l220 1252h-275v238h868v-238z" />
<glyph unicode="&#xff35;" d="M873 444q-45 -256 -167 -360t-300 -104q-180 0 -280 124q-70 88 -70 235q0 33 3.5 69t10.5 76l177 1006h278l-187 -1059q-4 -23 -6 -43.5t-2 -38.5q0 -131 107 -131q33 0 57.5 13t43 39t31.5 66.5t23 94.5l187 1059h278z" />
<glyph unicode="&#xff37;" d="M626 914v-636l213 1212h258l-84 -480q-48 -277 -121.5 -527.5t-172.5 -482.5h-211l-19 532l-205 -532h-223q0 330 23.5 627.5t71.5 571.5l51 291h258l-213 -1212l243 636h131z" />
<glyph unicode="&#xff39;" d="M524 842l98 142q196 283 196 506h276q0 -249 -276 -649l-189 -272l-100 -569h-278l100 569l-47 152q-114 378 -114 769h276q0 -455 58 -648z" />
<glyph unicode="&#xff3a;" d="M1026 1490v-120q0 -235 -190 -468l-376 -457q-110 -132 -110 -207h457v-238h-745v120q0 236 190 467l376 454q109 133 109 211h-436v238h725z" />
<glyph unicode="&#xff4c;" d="M779 0h-700v228h223l182 1034h-153v228h434q0 -211 -36 -416l-149 -846h199v-228z" />
<glyph unicode="&#x1d504;" d="M709 790h-361v-790l-136 -130h-40v1333l136 87h40v-350h361v387l-549 115v40l103 120l623 -131v-1169l70 -280l-166 -42l-81 289v521z" />
<glyph unicode="&#x1d505;" d="M387 946l351 277v104l-612 116v40l104 119l686 -129v-267l-341 -268l361 -78v-627l-319 -253l-486 92v40l80 61v1030l136 87h40v-344zM387 204l252 -49l119 92v477l-371 80v-600z" />
<glyph unicode="&#x1d506;" d="M970 1507v-40l-113 -113l-377 74l-79 -63v-1120l569 -106v-40l-104 -119l-641 119v1285l277 218z" />
<glyph unicode="&#x1d507;" d="M131 72v40l85 64v1027l136 87h40v-1094l206 -42l166 133v1036l-633 120v40l104 119l705 -133v-1201l-364 -288z" />
<glyph unicode="&#x1d508;" d="M865 950v-160h-484v-545l559 -106v-40l-104 -119l-631 114v1290l278 218l457 -93v-40l-113 -113l-361 72l-85 -63v-535l149 120h335z" />
<glyph unicode="&#x1d509;" d="M395 790h-259v40l113 110h146v360l136 130h-415v40l115 110h709v-40l-115 -110h-254v-490h369v-150h-369v-1035l-136 -130h-40v1165z" />
<glyph unicode="&#x1d50a;" d="M357 214l298 -60l85 62v564h-254v40l149 120h365v-40l-84 -68v-634l-278 -218l-457 93v1311l277 218l458 -93v-40l-113 -113l-363 72l-83 -62v-1152z" />
<glyph unicode="&#x1d50b;" d="M163 0v1384l277 218l448 -91v-40l-113 -113l-352 70l-84 -62v-499l265 209l294 -117v-959l-135 -129h-40v956l-156 61l-228 -180v-708h-176z" />
<glyph unicode="&#x1d50c;" d="M920 940v-150h-119v-592l-277 -218l-467 95v40l113 113l375 -74l81 62v574h-334v40l113 110h221v395l-569 108v40l104 119l641 -121l-1 -541h119z" />
<glyph unicode="&#x1d50d;" d="M920 940v-150h-119v-947l-277 -218l-467 95v40l113 113l375 -74l81 62v929h-334v40l113 110h221v395l-569 108v40l104 119l640 -121v-541h119z" />
<glyph unicode="&#x1d50e;" d="M347 1080l93 114l456 -164v-143l-360 -285l360 -78v-524h-175v388l-374 80v-468h-176v1384l277 218l448 -91v-40l-113 -113l-352 70l-84 -62v-755l374 295l-374 134v40z" />
<glyph unicode="&#x1d50f;" d="M961 1521v-40l-113 -113l-302 60l-84 -62v-1086l-136 -130h654v-40l-115 -110h-744v40l114 110h50v1234l278 218z" />
<glyph unicode="&#x1d510;" d="M291 1433l206 169l150 -148l180 148l150 -148v-1454h-153l-1 1378h-176v-1378h-154v1378h-176v-1378h-154v1315l-70 225l144 62z" />
<glyph unicode="&#x1d511;" d="M712 1353l-155 62l-208 -165v-1250h-176v1280l-70 280l166 42l59 -210l266 210l294 -117v-1485h-176v1353z" />
<glyph unicode="&#x1d512;" d="M163 112v1241l315 249l419 -135v-1230l-325 -257zM456 1426l-117 -92v-1098l256 -80l126 99v1088z" />
<glyph unicode="&#x1d513;" d="M202 0h-114v40l114 110v1053l136 87h40v-1130h352v1167l-613 116v40l104 119l685 -127v-1235l-214 -240h-314v-155l-136 -220h-40v375z" />
<glyph unicode="&#x1d514;" d="M721 60h176v-425h-176v425zM163 112v1246l315 244l419 -135v-1235l-325 -252zM416 1438l-77 -60v-1142l295 -92l87 68v1131z" />
<glyph unicode="&#x1d515;" d="M87 1443v40l104 119l685 -129v-318l-340 -268l360 -78v-809h-176v673l-372 80v-753h-176v1203l136 87h40v-395l352 279v153z" />
<glyph unicode="&#x1d516;" d="M758 741l-186 103l-116 -140l-331 184v426l364 288l445 -89v-40l-113 -113l-354 68l-166 -134v-283l199 -110l118 138l316 -175v-596l-364 -288l-445 89v40l113 113l354 -68l166 132v455z" />
<glyph unicode="&#x1d517;" d="M398 1300l136 130h-474v40l115 110h820v-40l-115 -110h-306v-1213l420 -78v-40l-104 -119l-492 91v1229z" />
<glyph unicode="&#x1d518;" d="M349 229l155 -62l208 165v1248h176v-1278l70 -280l-166 -42l-59 210l-266 -210l-294 117v1483h176v-1351z" />
<glyph unicode="&#x1d519;" d="M356 1392l266 210l294 -117v-1205l-379 -300l-336 133v1166l-70 281l166 42zM377 246l198 -79l165 131v1055l-201 80l-162 -128v-1059z" />
<glyph unicode="&#x1d51a;" d="M805 165v1198l-176 74v-1198zM299 239l176 -74v1198l-176 74v-1198zM75 1540l154 62l70 -125l82 125l248 -125l74 125l256 -125v-1197l-236 -300l-248 125l-74 -125l-256 125v1277z" />
<glyph unicode="&#x1d51b;" d="M441 940v374l-396 131v40l77 117l408 -135l87 135l397 -131v-40l-79 -119l-318 106v-478h320v-40l-115 -110h-205v-522l397 -131v-40l-77 -117l-408 135l-87 -135l-397 131v40l78 119l318 -106v626h-318v40l115 110h203z" />
<glyph unicode="&#x1d51c;" d="M898 1580v-1737l-277 -218l-458 93v40l113 113l362 -72l84 62v469l-239 -190l-320 128v1312h175v-1180l182 -73l202 161v1092h176z" />
<glyph unicode="&#x1d51d;" d="M71 -232l113 113l408 -82l83 62v894l-396 87v40l338 548h-546v40l115 110h666v-40l-344 -560l344 -76v-1061l-277 -218l-504 103v40z" />
<glyph unicode="&#x1d51e;" d="M163 945l315 249l419 -135v-757l70 -280l-166 -42l-41 147l-188 -147l-409 132v833zM339 236l256 -80l126 99v680l-265 83l-117 -92v-690z" />
<glyph unicode="&#x1d51f;" d="M907 229l-315 -249l-419 135v1465h176v-502l149 116l409 -132v-833zM731 938l-256 80l-126 -99v-680l265 -83l117 92v690z" />
<glyph unicode="&#x1d520;" d="M930 1101v-40l-113 -113l-340 72l-116 -94v-681l569 -106v-40l-104 -119l-641 119v846l314 249z" />
<glyph unicode="&#x1d521;" d="M927 229l-315 -249l-419 135v824l292 229l-349 304l119 130l672 -590v-783zM751 938l-170 147l-212 -166v-680l265 -83l117 92v690z" />
<glyph unicode="&#x1d522;" d="M907 139v-40l-104 -119l-630 119v840l325 255l409 -132v-296l-558 -486v-35zM731 778v160l-256 80l-126 -99v-471z" />
<glyph unicode="&#x1d523;" d="M266 1107h86v239l324 256l293 -61v-40l-113 -113l-202 39l-126 -100v-220h395v-150h-395v-1202l-136 -130h-40v1332h-199v40z" />
<glyph unicode="&#x1d524;" d="M173 -200l113 113l328 -113l116 92v197l-138 -109l-419 135v827l325 252l409 -132v-1192l-315 -245l-419 135v40zM730 938l-255 80l-126 -99v-680l265 -83l116 91v691z" />
<glyph unicode="&#x1d525;" d="M349 0h-176v1580h176v-595l264 209l294 -117v-1077l-135 -129h-41v1074l-155 61l-227 -180v-826z" />
<glyph unicode="&#x1d526;" d="M638 230l276 -93v-40l-77 -117l-309 102l-66 -102l-276 93v40l77 117l198 -68v798l-231 77v40l77 117l331 -109v-855zM693 1528l-75 -222l-221 74l74 222z" />
<glyph unicode="&#x1d527;" d="M30 -243l113 113l362 -71l79 62v1099l-231 77v40l77 117l331 -109v-1242l-277 -218l-454 92v40zM816 1528l-75 -222l-221 74l74 222z" />
<glyph unicode="&#x1d528;" d="M377 212l394 -73v-40l-104 -119l-467 86l1 1514h176v-500l93 114l456 -164v-143l-368 -291h395v-151h-576v-233zM751 906l-374 134v-429z" />
<glyph unicode="&#x1d529;" d="M638 230l276 -93v-40l-77 -117l-309 102l-66 -102l-276 93v40l77 117l198 -68v1206l-231 77v40l77 117l331 -109v-1263z" />
<glyph unicode="&#x1d52a;" d="M291 1025l206 169l150 -148l180 148l150 -148v-1046h-153l-1 970h-176v-970h-154v970h-176v-970h-154v907l-70 225l144 62z" />
<glyph unicode="&#x1d52b;" d="M349 0h-176v868l-70 282l166 42l63 -221l281 223l294 -117v-1077h-176v945l-155 61l-227 -180v-826z" />
<glyph unicode="&#x1d52c;" d="M897 229l-315 -249l-419 135v824l325 255l409 -132v-833zM721 938l-256 80l-126 -99v-680l265 -83l117 92v690z" />
<glyph unicode="&#x1d52d;" d="M927 229l-315 -249l-243 78v-422h-176v1232l-70 282l166 44l63 -223l282 223l293 -117v-848zM751 945l-155 61l-227 -180v-587l265 -83l117 92v697z" />
<glyph unicode="&#x1d52e;" d="M173 945l315 249l419 -135v-1424h-176v461l-149 -116l-409 132v833zM349 236l256 -80l126 99v680l-265 83l-117 -92v-690z" />
<glyph unicode="&#x1d52f;" d="M222 868l-70 282l166 42l63 -221l281 223l305 -121v-40l-113 -113l-229 86l-227 -180v-617l375 -70v-40l-104 -119l-447 83v805z" />
<glyph unicode="&#x1d530;" d="M748 496l-166 92l-116 -140l-292 162v327l325 257l425 -86v-40l-113 -113l-334 65l-127 -103v-184l160 -88l118 138l296 -164v-367l-344 -272l-445 89v40l113 113l354 -68l146 116v226z" />
<glyph unicode="&#x1d531;" d="M130 1062l113 110h86v278l136 130h40v-408h395v-150h-395v-810l395 -73v-40l-104 -119l-467 86v956h-199v40z" />
<glyph unicode="&#x1d532;" d="M711 1172h176v-868l70 -282l-166 -42l-63 221l-281 -223l-294 117v1077h176v-945l155 -61l227 180v826z" />
<glyph unicode="&#x1d533;" d="M356 984l266 210l294 -117v-797l-379 -300l-336 133v758l-70 281l166 42zM377 246l198 -79l165 131v647l-201 80l-162 -128v-651z" />
<glyph unicode="&#x1d534;" d="M805 165v790l-176 74v-790zM299 239l176 -74v790l-176 74v-790zM75 1132l154 62l70 -125l82 125l248 -125l74 125l256 -125v-789l-236 -300l-248 125l-74 -125l-256 125v869z" />
<glyph unicode="&#x1d535;" d="M441 690v216l-396 131v40l77 117l408 -135l87 135l397 -131v-40l-79 -119l-318 106v-320h320v-40l-115 -110h-205v-272l397 -131v-40l-77 -117l-408 135l-87 -135l-397 131v40l78 119l318 -106v376h-318v40l115 110h203z" />
<glyph unicode="&#x1d536;" d="M898 1172l-1 -1302l-315 -245l-419 135v40l113 113l328 -113l116 92l2 197l-140 -109l-419 135v1057h175l1 -933l265 -83l116 91l2 925h176z" />
<glyph unicode="&#x1d537;" d="M71 -232l113 113l412 -82l79 63v485l-396 87v40l338 548h-546v40l115 110h666v-40l-344 -560l344 -76v-653l-277 -218l-504 103v40z" />
<glyph unicode="&#x1d56c;" d="M648 517h-203v-439l-220 -208h-60v1268l230 148h50v-552h203v533l-568 113v40l162 182l687 -136v-1160l62 -240l-268 -86l-75 247v290z" />
<glyph unicode="&#x1d56d;" d="M107 1379v40l165 183l664 -133v-372l-229 -181l249 -89v-557l-384 -290l-465 93v40l85 83v940l230 148h50v-375l183 145v216zM472 234h203v444l-203 75v-519z" />
<glyph unicode="&#x1d56e;" d="M1000 1500v-40l-181 -181l-333 72v-1035l514 -103v-40l-169 -193l-626 127v1262l297 233z" />
<glyph unicode="&#x1d56f;" d="M111 73v40l85 86v937l230 148h50v-1040h203v1021l-568 114v40l161 183l688 -138v-1195l-384 -289z" />
<glyph unicode="&#x1d570;" d="M990 955v-40l-188 -197h-326v-404l514 -103v-40l-169 -191l-626 125v1265l297 232l498 -102v-40l-182 -181l-332 72v-539l127 143h387z" />
<glyph unicode="&#x1d571;" d="M285 738h-179v40l179 187v204l213 162h-392v40l185 209h672v-40l-185 -209h-212v-376h397v-40l-169 -177h-228v-905l-211 -198h-70v1103z" />
<glyph unicode="&#x1d572;" d="M446 254h223v484h-159v40l155 177h369v-40l-84 -94v-545l-394 -296l-391 81v1306l297 235l488 -100v-40l-182 -181l-322 68v-1095z" />
<glyph unicode="&#x1d573;" d="M178 -20l-40 129v1260l297 233l488 -100v-40l-182 -181l-322 71v-421l154 149l350 -140v-775l27 -100l-268 -85l-40 129v686h-223v-630l26 -100z" />
<glyph unicode="&#x1d574;" d="M403 955h138v324l-494 100v40l162 183l613 -124v-523h160v-40l-160 -167v-552l-278 -218l-497 101v40l181 181l313 -66v504h-306v40z" />
<glyph unicode="&#x1d575;" d="M403 955h138v324l-494 100v40l162 183l613 -124v-523h160v-40l-160 -167v-905l-278 -218l-497 101v40l181 181l313 -66v857h-306v40z" />
<glyph unicode="&#x1d576;" d="M546 1194l381 -142v-175l-254 -184l269 -86v-442l27 -100l-268 -85l-40 129v350l-229 68v-362l27 -100l-268 -85l-40 129v1270l285 223l476 -97v-40l-182 -181l-298 65v-294zM694 882l-262 103v-292z" />
<glyph unicode="&#x1d577;" d="M990 1505v-40l-182 -181l-292 62v-928l-150 -169h624v-40l-185 -209h-714v40l144 165v1179l278 218z" />
<glyph unicode="&#x1d578;" d="M313 1432l170 170l167 -170l155 170l172 -170v-1272l33 -122l-204 -58l-40 129v1226h-111v-1175l33 -122l-204 -58l-40 129v1226h-111v-1175l33 -122l-204 -58l-40 129v1186l-66 254l201 53z" />
<glyph unicode="&#x1d579;" d="M627 1317h-193v-1152l27 -100l-268 -85l-40 129v1171l-62 238l268 84l51 -162l163 162l335 -134v-1303l27 -100l-268 -85l-40 129v1208z" />
<glyph unicode="&#x1d57a;" d="M143 136v1240l300 226l474 -157v-1237l-300 -228zM423 1364v-1072l213 -75v1073z" />
<glyph unicode="&#x1d57b;" d="M180 0h-124v40l124 139v955l241 155h40v-1040h183v1021l-548 110v40l161 182l668 -133v-1240l-205 -229h-259v-145l-241 -230h-40v375z" />
<glyph unicode="&#x1d57c;" d="M646 -20h271v-345h-271v345zM143 136v1240l300 226l474 -157v-1237l-300 -228zM423 1364v-1072l213 -75v1073z" />
<glyph unicode="&#x1d57d;" d="M67 1379v40l161 183l668 -134v-494l-229 -180l249 -89v-540l27 -100l-268 -85l-40 129v447l-203 75v-466l27 -100l-268 -85l-40 129v1031l231 148h50v-501l183 145v337z" />
<glyph unicode="&#x1d57e;" d="M662 755l-98 46l-136 -156l-314 152v523l374 282l455 -93v-40l-181 -180l-367 77v-402l95 -44l136 156l317 -153v-661l-374 -282l-455 93v40l181 180l367 -77v539z" />
<glyph unicode="&#x1d57f;" d="M365 1162l153 169h-483v40l185 209h790v-40l-185 -209h-179v-1053l364 -74v-40l-160 -184l-485 99v1083z" />
<glyph unicode="&#x1d580;" d="M433 284h193v1133l-27 100l268 85l40 -129v-1168l62 -240l-268 -85l-51 162l-163 -162l-335 132v1305l-27 100l268 85l40 -129v-1189z" />
<glyph unicode="&#x1d581;" d="M439 1449l182 153l310 -149v-1191l-374 -282l-371 147v1148l-62 240l268 85zM467 267h183v1067h-183v-1067z" />
<glyph unicode="&#x1d582;" d="M768 259v1076h-111v-1076h111zM335 259h111v1076h-111v-1076zM58 1549l195 53l56 -170l175 170l163 -170l159 170l173 -170v-1178l-276 -274l-198 124l-124 -124l-257 159v1156z" />
<glyph unicode="&#x1d583;" d="M389 955v245l-354 172v40l159 190l363 -176l154 176l313 -151v-40l-176 -200l-178 85v-351h297v-40l-155 -177h-142v-346l354 -172v-40l-159 -190l-363 176l-154 -176l-313 151v40l176 200l178 -85v452h-296v40l155 177h141z" />
<glyph unicode="&#x1d584;" d="M877 1602l40 -129v-1619l-291 -229l-482 98v40l181 180l311 -64v402l-148 -141l-344 138v1139l-27 100l269 85l39 -129v-1028h211v972l-27 100z" />
<glyph unicode="&#x1d585;" d="M61 -228l181 180l379 -71v886l-332 65v40l287 459h-515v40l185 209h656v-40l-289 -492l289 -61v-1144l-277 -218l-564 107v40z" />
<glyph unicode="&#x1d586;" d="M143 968l300 226l473 -157v-735l62 -240l-268 -82l-62 202l-207 -202l-298 137v851zM424 265h211v607l-211 73v-680z" />
<glyph unicode="&#x1d587;" d="M931 243l-350 -263l-424 140v1297l-27 100l268 85l39 -128v-421l149 141l345 -138v-813zM650 919h-213v-614l213 -74v688z" />
<glyph unicode="&#x1d588;" d="M982 1087v-40l-170 -164l-364 84v-662l534 -111v-40l-160 -174l-655 136v845l297 233z" />
<glyph unicode="&#x1d589;" d="M947 243l-350 -263l-424 138v843l247 185l-280 253l177 203l630 -558v-801zM666 964h-213v-660l213 -71v731z" />
<glyph unicode="&#x1d58a;" d="M932 196v-40l-156 -176l-628 127v861l300 226l484 -160v-268l-504 -475zM651 734v151l-223 78v-441z" />
<glyph unicode="&#x1d58b;" d="M1016 1025v-40l-150 -153l-271 79v-1068l-221 -208h-60v1191l-261 76v40l150 153l111 -32v283l324 256l379 -83v-40l-182 -181l-240 57v-208z" />
<glyph unicode="&#x1d58c;" d="M151 -236l167 164l327 -69v346l-196 -185l-298 137v811l300 226l475 -157v-1184l-292 -228l-483 99v40zM645 872l-213 75v-642h213v567z" />
<glyph unicode="&#x1d58d;" d="M194 -20l-40 129v1308l-27 100l268 85l40 -129v-424l148 145l344 -138v-894l27 -100l-268 -82l-40 129v810h-211v-757l27 -100z" />
<glyph unicode="&#x1d58e;" d="M707 352l313 -152v-40l-158 -180l-333 177l-147 -177l-312 149v40l158 179l199 -96v676l-297 80v40l174 146l403 -98v-744zM771 1580l-99 -291l-290 97l98 291z" />
<glyph unicode="&#x1d58f;" d="M541 911l-365 96v40l172 147l474 -115v-1236l-278 -218l-525 106v40l166 165l356 -75v1050zM885 1580l-99 -291l-290 97l98 291z" />
<glyph unicode="&#x1d590;" d="M471 260l372 -72v-40l-145 -168l-508 102v1498h281v-525l114 139l381 -142v-175l-355 -265h382v-197h-522v-155zM733 882l-262 103v-292z" />
<glyph unicode="&#x1d591;" d="M707 352l313 -152v-40l-158 -180l-333 177l-147 -177l-312 149v40l158 179l199 -97v1088l-297 77v40l174 146l403 -98v-1152z" />
<glyph unicode="&#x1d592;" d="M313 1024l170 170l167 -170l155 170l172 -170v-864l33 -122l-204 -58l-40 129v818h-111v-767l33 -122l-204 -58l-40 129v818h-111v-767l33 -122l-204 -58l-40 129v778l-66 254l201 53z" />
<glyph unicode="&#x1d593;" d="M627 919h-193v-757l27 -100l-268 -82l-40 129v762l-62 238l268 85l52 -162l172 162l325 -129v-903l27 -100l-268 -82l-40 129v810z" />
<glyph unicode="&#x1d594;" d="M143 136v832l300 226l474 -157v-829l-300 -228zM423 956v-664l213 -75v665z" />
<glyph unicode="&#x1d595;" d="M908 238l-260 -258l-214 81v-254l27 -100l-268 -82l-40 129v1117l-62 238l268 85l52 -162l172 162l325 -129v-827zM627 919h-193v-619l193 -65v684z" />
<glyph unicode="&#x1d596;" d="M128 968l300 226l475 -157v-1227l27 -100l-268 -85l-40 129v369l-149 -143l-345 139v849zM409 265h213v606l-213 74v-680z" />
<glyph unicode="&#x1d597;" d="M222 864l-62 244l268 86l49 -157l160 155l359 -143v-40l-168 -166l-269 116l-56 -54v-648l342 -68v-40l-144 -169l-479 98v786z" />
<glyph unicode="&#x1d598;" d="M647 475l-126 62l-84 -96l-308 148v379l305 226l494 -105v-40l-181 -180l-337 88v-248l112 -53l85 98l321 -159v-387l-300 -228l-499 110v40l183 182l335 -95v258z" />
<glyph unicode="&#x1d599;" d="M995 1114v-40l-150 -153l-212 62v-723l362 -72v-40l-143 -168l-500 101v826l-278 81v40l150 153l128 -38v229l221 208h60v-361z" />
<glyph unicode="&#x1d59a;" d="M433 264h193v745l-27 100l268 85l40 -129v-760l62 -240l-268 -85l-49 155l-165 -155l-335 132v897l-27 100l268 85l40 -129v-801z" />
<glyph unicode="&#x1d59b;" d="M442 1038l164 156l325 -129v-803l-374 -282l-371 147v740l-62 242l268 85zM467 257h183v672h-183v-672z" />
<glyph unicode="&#x1d59c;" d="M768 259v668h-111v-668h111zM335 259h111v668h-111v-668zM58 1141l195 53l56 -170l175 170l163 -170l159 170l173 -170v-770l-276 -274l-198 124l-124 -124l-257 159v748z" />
<glyph unicode="&#x1d59d;" d="M394 714v119l-320 156v39l143 166l325 -156l135 156l308 -145v-40l-157 -178l-163 78v-215h224v-40l-141 -157h-83v-156l320 -155v-40l-143 -166l-325 156l-135 -156l-308 145v40l157 178l163 -78v252h-224v40l140 157h84z" />
<glyph unicode="&#x1d59e;" d="M877 1194l40 -129v-1211l-291 -229l-482 98v40l167 166l325 -72v347l-194 -183l-298 137v851l-27 100l269 85l39 -129v-760h211v704l-27 100z" />
<glyph unicode="&#x1d59f;" d="M51 -227l164 163l406 -75v498l-332 65v40l289 459h-527v40l187 209h664v-40l-289 -492l289 -61v-736l-277 -218l-574 108v40z" />
</font>
</defs>
</svg>
