<?xml version="1.0" standalone="no"?>
<!DOCTYPE svg PUBLIC "-//W3C//DTD SVG 1.1//EN" "http://www.w3.org/Graphics/SVG/1.1/DTD/svg11.dtd" >
<svg xmlns="http://www.w3.org/2000/svg" xmlns:xlink="http://www.w3.org/1999/xlink" version="1.1">
<metadata></metadata>
<defs>
<font id="condensed-codingbold" horiz-adv-x="1060" >
<font-face units-per-em="2048" ascent="1683" descent="-365" />
<missing-glyph horiz-adv-x="500" />
<glyph />
<glyph horiz-adv-x="682" />
<glyph unicode="&#xd;" />
<glyph unicode=" " />
<glyph unicode="!" d="M668 589h-278v991h278v-991zM705 154q0 -76 -49.5 -125t-126.5 -49q-76 0 -125 49t-49 125q0 77 49 126t125 49t126 -49t50 -126z" />
<glyph unicode="&#x22;" d="M898 988h-278v592h278v-592zM439 988h-278v592h278v-592z" />
<glyph unicode="#" d="M968 408h-180l-70 -408h-247l70 408h-159l-70 -408h-247l70 408h-125v226h164l54 312h-140v226h179l70 408h247l-70 -408h159l70 408h247l-70 -408h126v-226h-165l-54 -312h141v-226zM580 634l54 312h-159l-54 -312h159z" />
<glyph unicode="$" d="M980 399q0 -181 -100.5 -286t-207.5 -119v-205h-237v199q-203 32 -325 242l230 130q83 -139 203 -134q76 -1 118 39t42 113q0 78 -73 151l-324 324q-146 144 -146 329q0 176 85 277t190 127v206h237v-202q159 -30 279 -194l-235 -134q-57 93 -141 93q-65 0 -101.5 -36 t-36.5 -114q0 -74 75 -147l301 -300q167 -156 167 -359z" />
<glyph unicode="%" d="M973 1580l-632 -1580h-241l643 1580h230zM451 1115h-307v465h307v-465zM937 0h-307v465h307v-465z" />
<glyph unicode="&#x26;" d="M988 745v-238q0 -299 -129 -413t-329 -114q-202 0 -330 114t-128 360q0 264 216 433l-63 163q-43 113 -43 199q0 164 98.5 258.5t228.5 94.5q145 0 235.5 -94.5t90.5 -258.5q0 -249 -275 -461l179 -466q21 53 21 185v238h228zM419 1249q0 -94 50 -223q109 84 109 223 q0 116 -80 116q-79 0 -79 -116zM542 227l-162 422q-47 -39 -47 -185q0 -248 209 -237z" />
<glyph unicode="'" d="M668 988h-278v592h278v-592z" />
<glyph unicode="(" d="M186 688q0 317 165 561.5t461 388.5l105 -175q-248 -140 -360.5 -332t-112.5 -443t112.5 -444t360.5 -333l-105 -175q-296 144 -461 389.5t-165 562.5z" />
<glyph unicode=")" d="M874 688q0 -317 -165 -562.5t-461 -389.5l-105 175q248 140 360.5 333t112.5 444t-112.5 443t-360.5 332l105 175q296 -144 461 -388.5t165 -561.5z" />
<glyph unicode="*" d="M425 1071l-33 319h276l-34 -319l298 130l85 -262l-315 -66l218 -245l-223 -162l-167 293l-167 -293l-223 162l218 245l-316 66l86 262z" />
<glyph unicode="+" d="M980 672h-321v-341h-258v341h-321v238h321v341h258v-341h321v-238z" />
<glyph unicode="," d="M763 175q0 -211 -192 -540h-243q124 181 177 365q-83 3 -146 59.5t-63 155.5q0 110 63.5 171.5t159.5 61.5q115 0 179.5 -72t64.5 -201z" />
<glyph unicode="-" d="M980 672h-900v238h900v-238z" />
<glyph unicode="." d="M763 213q0 -111 -67 -172t-167 -61t-166.5 61t-66.5 172q0 110 66 171.5t167 61.5q100 0 167 -62t67 -171z" />
<glyph unicode="/" d="M1006 1580l-682 -1580h-271l682 1580h271z" />
<glyph unicode="0" d="M611 670h-88l-74 290h89zM741 791q0 167 -71 426q-37 136 -140 137q-103 -1 -140 -137q-71 -259 -71 -426t71 -426q37 -136 140 -137q103 1 140 137q71 259 71 426zM996 791q0 -166 -99 -534q-77 -277 -367 -277t-367 277q-99 368 -99 534t99 534q77 277 367 277 t367 -277q99 -368 99 -534z" />
<glyph unicode="1" d="M512 0v1247l-287 -216l-118 210l435 339h248v-1580h-278z" />
<glyph unicode="2" d="M941 0h-812v151q0 251 194 499l265 341q76 98 76 222q0 77 -36.5 114t-97.5 37q-129 0 -202 -166l-209 143q146 261 417 261q179 0 292 -104.5t113 -275.5q0 -183 -145 -369l-282 -362q-114 -144 -114 -253h541v-238z" />
<glyph unicode="3" d="M974 466q0 -238 -123 -362t-335 -124q-272 0 -428 260l209 143q89 -165 218 -165q78 0 129.5 52t51.5 196q0 152 -56 202.5t-165 50.5h-77v238h77q97 0 143 56t46 160q0 89 -41.5 140t-117.5 51q-118 0 -187 -166l-209 143q146 261 417 261q191 0 303.5 -114.5 t112.5 -314.5q0 -237 -190 -336q222 -88 222 -371z" />
<glyph unicode="4" d="M972 381h-82v-381h-278v381h-514v238l456 961h336v-961h82v-238zM612 619v612l-290 -612h290z" />
<glyph unicode="5" d="M961 507q0 -269 -118 -398t-317 -129q-282 0 -407 260l209 143q69 -165 187 -165q75 0 121.5 62t46.5 227q0 131 -46.5 197.5t-183.5 66.5h-253v809h708v-238h-430v-333h47q212 0 324 -114t112 -388z" />
<glyph unicode="6" d="M974 510q0 -282 -113 -406t-302 -124q-179 0 -297.5 119t-118.5 408v537q0 299 123 428.5t312 129.5q242 0 378 -216l-209 -143q-72 120 -167 120q-86 0 -123 -66.5t-37 -227.5l1 -166q86 105 211 105q144 0 243 -110.5t99 -387.5zM697 510q0 161 -37 211t-100 50 q-84 0 -139 -123v-217q0 -111 41.5 -162.5t97.5 -51.5t96.5 51.5t40.5 241.5z" />
<glyph unicode="7" d="M717 799q-149 -304 -158 -641l-5 -158h-276l5 171q11 368 190 726l125 251q51 102 51 194h-508v238h784v-133q0 -221 -118 -469z" />
<glyph unicode="8" d="M530 -20q-180 0 -313 114t-133 338q0 255 244 425q-202 141 -202 375q0 151 107.5 260.5t296.5 109.5t296.5 -109.5t107.5 -260.5q0 -234 -202 -375q244 -170 244 -425q0 -224 -133 -338t-313 -114zM530 1365q-67 0 -97 -41.5t-30 -101.5q0 -163 127 -236q127 73 127 236 q0 60 -30 101.5t-97 41.5zM530 726q-169 -81 -169 -294q0 -112 46.5 -164t122.5 -52t122.5 52t46.5 164q0 213 -169 294z" />
<glyph unicode="9" d="M86 1072q0 282 113 406t302 124q179 0 297.5 -119t118.5 -408v-537q0 -299 -123 -428.5t-312 -129.5q-242 0 -378 216l209 143q72 -120 167 -120q86 0 123 66.5t37 227.5l-1 166q-86 -105 -211 -105q-144 0 -243 110.5t-99 387.5zM363 1072q0 -161 37 -211t100 -50 q84 0 139 123v217q0 111 -41.5 162.5t-97.5 51.5t-96.5 -51.5t-40.5 -241.5z" />
<glyph unicode=":" d="M763 998q0 -111 -67 -172.5t-167 -61.5t-166.5 61.5t-66.5 172.5q0 110 66 171.5t167 61.5q100 0 167 -62t67 -171zM763 213q0 -111 -67 -172t-167 -61t-166.5 61t-66.5 172q0 110 66 171.5t167 61.5q100 0 167 -62t67 -171z" />
<glyph unicode=";" d="M763 998q0 -111 -67 -172.5t-167 -61.5t-166.5 61.5t-66.5 172.5q0 110 66 171.5t167 61.5q100 0 167 -62t67 -171zM763 175q0 -211 -192 -540h-243q124 181 177 365q-83 3 -146 59.5t-63 155.5q0 110 63.5 171.5t159.5 61.5q115 0 179.5 -72t64.5 -201z" />
<glyph unicode="&#x3c;" d="M412 790l537 -278v-299l-878 487v180l878 487v-299z" />
<glyph unicode="=" d="M980 895h-901v238h901v-238zM980 445h-901v238h901v-238z" />
<glyph unicode="&#x3e;" d="M111 1068v299l878 -487v-180l-878 -487v299l537 278z" />
<glyph unicode="?" d="M941 1212q0 -119 -66 -218l-161 -235q-32 -47 -32 -113v-57h-277v58q0 117 70 222l145 211q44 67 44 143q0 68 -36.5 105t-92.5 37q-127 0 -207 -167l-209 143q146 261 417 261q179 0 292 -114.5t113 -275.5zM722 154q0 -76 -49.5 -125t-126.5 -49q-76 0 -125 49t-49 125 q0 77 49 126t125 49q77 0 126.5 -49t49.5 -126z" />
<glyph unicode="@" d="M560 1388q-143 0 -203.5 -105.5t-60.5 -334.5v-333q0 -210 85.5 -315.5t264.5 -105.5q202 0 355 157v-246q-147 -125 -358 -125q-243 0 -403.5 151t-160.5 484v333q0 353 135.5 503.5t345.5 150.5q188 0 314.5 -128t126.5 -393v-361q0 -212 -86.5 -298.5t-208.5 -86.5 q-121 0 -207 86.5t-86 298.5v17q0 375 253 375q67 0 118 -40v32q0 141 -56 212.5t-168 71.5zM784 758q0 148 -78 148q-76 0 -76 -148v-89q0 -128 76 -128q78 0 78 128v89z" />
<glyph unicode="A" d="M359 88v-88h-276v88q0 228 79 573l209 919h318l209 -919q79 -345 79 -573v-88h-276v88q0 122 -17 260h-308q-17 -138 -17 -260zM530 1166l-114 -581h228z" />
<glyph unicode="B" d="M976 480q0 -262 -113 -371t-294 -109h-406v1580h364q202 0 304 -109t102 -292q0 -131 -58 -214t-137 -106q128 -45 183 -128.5t55 -250.5zM655 1179q0 91 -36 128t-114 37h-64v-378h74q67 0 103.5 47t36.5 166zM698 480q0 156 -41 203t-118 47h-98v-493h107 q67 0 108.5 41.5t41.5 201.5z" />
<glyph unicode="C" d="M1001 219q-147 -239 -397 -239q-187 0 -307 120t-120 420v542q0 300 120 420t307 120q250 0 397 -239l-209 -143q-74 135 -188 135q-69 0 -109 -50t-40 -207v-615q0 -156 40 -206.5t109 -50.5q114 0 188 136z" />
<glyph unicode="D" d="M929 528q0 -299 -112.5 -413.5t-324.5 -114.5h-361v1580h361q212 0 324.5 -114.5t112.5 -412.5v-525zM651 503v575q0 152 -45.5 203t-134.5 51h-63v-1084h63q89 0 134.5 51.5t45.5 203.5z" />
<glyph unicode="E" d="M964 0h-798v1580h788v-238h-510v-396h366v-238h-366v-470h520v-238z" />
<glyph unicode="F" d="M964 1342h-520v-396h408v-238h-408v-708h-278v1580h798v-238z" />
<glyph unicode="G" d="M935 507q0 -299 -113 -413t-292 -114t-292 114t-113 413v567q0 299 113 413.5t292 114.5q248 0 385 -216l-209 -143q-64 112 -168 112q-67 0 -101.5 -57t-34.5 -195v-632q0 -131 26.5 -188t102.5 -57t101 56.5t25 188.5v187h-95v237h373v-388z" />
<glyph unicode="H" d="M934 0h-278v730h-253v-730h-278v1580h278v-612h253v612h278v-1580z" />
<glyph unicode="I" d="M876 0h-692v228h207v1124h-164v228h606v-228h-164v-1124h207v-228z" />
<glyph unicode="J" d="M883 485q0 -277 -113 -391t-292 -114t-292 114t-113 391v221h278v-226q0 -141 30 -202.5t96 -61.5t97 62t31 202v1100h278v-1095z" />
<glyph unicode="K" d="M418 1580v-659l141 207q104 153 129 380l8 72h276l-19 -160q-22 -200 -159 -403l-73 -107l97 -165q143 -243 174 -508l28 -237h-286l-21 176q-34 291 -136 463l-49 81l-110 -162v-558h-278v1580h278z" />
<glyph unicode="L" d="M987 0h-788v1580h278v-1342h510v-238z" />
<glyph unicode="M" d="M530 1053l159 527h255v-1580h-255v247q0 414 80 1099l-184 -606h-110l-184 606q80 -685 80 -1099v-247h-255v1580h255z" />
<glyph unicode="N" d="M914 0h-266l-310 1000q33 -350 33 -723v-277h-226v1580h266l310 -1000q-33 350 -33 723v277h226v-1580z" />
<glyph unicode="O" d="M938 507q0 -297 -110.5 -412t-297.5 -115t-297.5 115t-110.5 412v568q0 298 110.5 412.5t297.5 114.5t297.5 -114.5t110.5 -412.5v-568zM660 473v635q0 157 -32.5 201.5t-98.5 44.5q-64 0 -96.5 -44.5t-32.5 -201.5v-635q0 -156 32.5 -200.5t98.5 -44.5q64 0 96.5 44.5 t32.5 200.5z" />
<glyph unicode="P" d="M998 1108q0 -172 -113 -286.5t-293 -114.5h-126v-707h-278v1580h404q201 0 303.5 -114.5t102.5 -285.5v-72zM720 1117v54q0 69 -31.5 121t-118.5 52h-104v-400h104q77 0 113.5 47t36.5 126z" />
<glyph unicode="Q" d="M938 507q0 -380 -192 -474l120 -302h-287l-100 252q-145 5 -251 117t-106 409v566q0 299 110.5 413t297.5 114t297.5 -114t110.5 -413v-568zM660 473v635q0 157 -32.5 201.5t-98.5 44.5q-64 0 -96.5 -44.5t-32.5 -201.5v-635q0 -156 32.5 -200.5t98.5 -44.5 q64 0 96.5 44.5t32.5 200.5z" />
<glyph unicode="R" d="M991 0h-282l-9 137q-23 353 -166 549h-99v-686h-278v1580h405q190 0 292.5 -109t102.5 -343q0 -280 -181 -386q184 -250 205 -569zM678 1128q0 112 -30.5 164t-117.5 52h-95v-422h95q87 0 117.5 52t30.5 154z" />
<glyph unicode="S" d="M980 399q0 -181 -112 -300t-334 -119q-267 0 -424 250l209 143q94 -147 224 -147q76 0 118 39.5t42 112.5q0 78 -73 151l-324 324q-146 144 -146 329q0 191 109.5 305.5t294.5 114.5q240 0 387 -206l-209 -143q-83 102 -167 102q-65 0 -101.5 -36t-36.5 -114 q0 -74 75 -147l301 -300q167 -156 167 -359z" />
<glyph unicode="T" d="M964 1342h-295v-1342h-278v1342h-295v238h868v-238z" />
<glyph unicode="U" d="M935 464q0 -254 -111.5 -369t-293.5 -115t-293.5 115t-111.5 369v1116h278v-1139q0 -124 31 -168.5t95 -44.5q63 0 95.5 44.5t32.5 168.5v1139h278v-1116z" />
<glyph unicode="V" d="M656 971q55 255 55 521v88h276v-88q0 -276 -78 -573l-240 -919h-278l-240 919q-78 297 -78 573v88h276v-88q0 -266 55 -521l126 -579z" />
<glyph unicode="W" d="M586 914l131 -636v1302h258v-381q0 -379 -50 -731l-66 -468h-217l-112 532l-112 -532h-217l-66 468q-50 352 -50 731v381h258v-1302l131 636h112z" />
<glyph unicode="X" d="M440 344q-75 -149 -83 -289l-3 -55h-276l4 70q9 133 105 325l204 405l-169 339q-111 216 -120 371l-4 70h276l3 -55q10 -164 83 -310l70 -139l70 139q73 146 83 310l3 55h276l-4 -70q-9 -155 -120 -371l-170 -338l205 -406q96 -192 105 -325l4 -70h-276l-3 55 q-8 140 -83 289l-90 180z" />
<glyph unicode="Y" d="M530 933l74 146q76 149 90 428l2 73h276l-2 -73q-14 -287 -147 -547l-154 -301v-659h-278v659l-154 301q-133 260 -147 547l-2 73h276l2 -73q14 -279 90 -428z" />
<glyph unicode="Z" d="M916 1580v-150q0 -244 -112 -443l-287 -503q-68 -123 -68 -246h477v-238h-752v150q0 244 112 443l287 503q68 123 68 246h-457v238h732z" />
<glyph unicode="[" d="M874 -211h-659v1791h659v-228h-401v-1335h401v-228z" />
<glyph unicode="\" d="M1006 0h-271l-682 1580h271z" />
<glyph unicode="]" d="M186 17h401v1335h-401v228h659v-1791h-659v228z" />
<glyph unicode="^" d="M994 622h-268l-197 683l-204 -683h-260l332 958h262z" />
<glyph unicode="_" d="M1061 -238h-1062v238h1062v-238z" />
<glyph unicode="`" d="M798 988h-227l-289 592h297z" />
<glyph unicode="a" d="M924 0h-278v135q-80 -155 -231 -155q-123 0 -211.5 98.5t-88.5 247.5q0 176 110.5 279.5t324.5 103.5h96v126q0 121 -128 121q-125 0 -186 -132l-199 163q146 207 386 207q189 0 297 -96.5t108 -284.5v-813zM646 360v172h-96q-81 0 -120 -44t-39 -122q0 -139 118 -139 q124 0 137 133z" />
<glyph unicode="b" d="M956 474q0 -269 -81 -381.5t-211 -112.5q-149 0 -240 151v-131h-278v1580h278v-543q91 152 240 152q130 0 211 -112.5t81 -382.5v-220zM678 513v142q0 164 -32.5 229t-93.5 65q-93 0 -128 -132v-466q36 -133 128 -133q61 0 93.5 66.5t32.5 228.5z" />
<glyph unicode="c" d="M962 195q-135 -215 -385 -215q-190 0 -303.5 124t-113.5 372v221q0 248 113.5 372.5t303.5 124.5q250 0 385 -217l-209 -143q-71 122 -176 122q-77 0 -107.5 -57t-30.5 -197v-241q0 -121 30.5 -182.5t107.5 -61.5q95 0 156 131z" />
<glyph unicode="d" d="M915 0h-278v131q-91 -151 -220 -151q-150 0 -231 112.5t-81 381.5v220q0 270 81 382.5t231 112.5q129 0 220 -152v543h278v-1580zM637 351v466q-35 132 -128 132q-61 0 -93.5 -65t-32.5 -229v-142q0 -164 32.5 -229.5t93.5 -65.5q92 0 128 133z" />
<glyph unicode="e" d="M934 551h-532v-130q0 -101 31.5 -152t107.5 -51q111 0 177 110l209 -143q-135 -205 -397 -205q-180 0 -293 114t-113 382v221q0 268 113 382.5t293 114.5q179 0 291.5 -114t112.5 -383v-146zM658 729v43q0 100 -31 152t-97 52t-97.5 -52t-31.5 -152v-43h257z" />
<glyph unicode="f" d="M785 1316q-34 57 -93 57q-44 0 -70.5 -33t-26.5 -110v-123h352v-228h-352v-879h-279v879h-177v228h177v127q0 180 98 273.5t253 93.5q207 0 327 -142z" />
<glyph unicode="g" d="M969 972h-61l-47 10q30 -57 30 -136q0 -136 -98.5 -226t-279.5 -90q-38 0 -78 1q-56 -56 -56 -107q0 -37 33 -54.5t95 -17.5h77q199 0 297 -98.5t98 -250.5q0 -170 -130 -274t-353 -104q-214 0 -314.5 101.5t-100.5 233.5q0 160 169 256q-122 67 -122 181q0 106 141 190 q-144 85 -144 267q0 154 102.5 244t286.5 90q44 0 103 -9q78 -7 352 -7v-200zM624 865q0 74 -30.5 108t-83.5 34t-85 -34t-32 -111q0 -85 32 -118t84 -33q55 0 85 33t30 121zM701 -7q0 67 -36.5 104t-104.5 37h-47q-72 0 -113.5 -40.5t-41.5 -110.5q0 -61 36.5 -101 t119.5 -40q187 0 187 151z" />
<glyph unicode="h" d="M935 0h-278v738q0 132 -32.5 171.5t-93.5 39.5q-103 0 -128 -142v-807h-278v1580h278v-543q91 152 240 152q130 0 211 -97t81 -344v-748z" />
<glyph unicode="i" d="M683 1549q0 -76 -50.5 -126.5t-135.5 -50.5t-135 50.5t-50 126.5t50 127t135 51t135.5 -51t50.5 -127zM879 0h-699v228h211v716h-181v228h459v-944h210v-228z" />
<glyph unicode="j" d="M789 1549q0 -76 -50.5 -126.5t-135.5 -50.5t-135 50.5t-50 126.5t50 127t135 51t135.5 -51t50.5 -127zM496 26v918h-265v228h542v-1140q0 -210 -93 -308.5t-278 -98.5q-227 0 -350 185l210 120q39 -67 128 -67q49 0 77.5 35.5t28.5 127.5z" />
<glyph unicode="k" d="M1000 0h-276q-8 129 -192 422l-27 39l-82 -100v-361h-276v1580h276v-871l103 129q159 196 167 334h276l-2 -38q-9 -157 -232 -429l-54 -66l54 -81q255 -365 262 -517z" />
<glyph unicode="l" d="M890 0h-700v228h212v1124h-172v228h450v-1352h210v-228z" />
<glyph unicode="m" d="M959 0h-194v795q-3 161 -59 161q-52 0 -79 -107v-849h-194v795q-2 161 -58 161q-57 0 -80 -107v-849h-194v1172h194v-115q58 137 173 137q99 0 140 -130q66 130 161 130q190 0 190 -321v-873z" />
<glyph unicode="n" d="M935 0h-278v750q0 120 -32.5 159.5t-93.5 39.5q-103 0 -128 -142v-807h-278v1172h278v-135q91 152 240 152q130 0 211 -97t81 -342v-750z" />
<glyph unicode="o" d="M934 475q0 -268 -112.5 -381.5t-291.5 -113.5t-292 113.5t-113 381.5v222q0 269 113 383t292 114t291.5 -114t112.5 -383v-222zM656 472v222q0 159 -30 210.5t-96 51.5t-96.5 -51.5t-30.5 -210.5v-222q0 -151 30.5 -202.5t96.5 -51.5t96 51.5t30 202.5z" />
<glyph unicode="p" d="M145 1172h278v-131q91 151 240 151q130 0 211 -112.5t81 -381.5v-220q0 -270 -81 -382.5t-211 -112.5q-149 0 -240 152v-500h-278v1537zM423 355q35 -132 128 -132q61 0 93.5 65t32.5 229v142q0 164 -32.5 229.5t-93.5 65.5q-92 0 -128 -133v-466z" />
<glyph unicode="q" d="M915 -365h-278v500q-91 -152 -240 -152q-130 0 -211 112.5t-81 382.5v220q0 269 81 381.5t211 112.5q149 0 240 -151v131h278v-1537zM637 821q-36 133 -128 133q-61 0 -93.5 -65.5t-32.5 -229.5v-142q0 -164 32.5 -229t93.5 -65q93 0 128 132v466z" />
<glyph unicode="r" d="M1020 974l-264 -120q-39 95 -108 95q-148 0 -148 -246v-703h-278v1172h278v-135q94 157 250 157q165 0 270 -220z" />
<glyph unicode="s" d="M958 326q0 -150 -103 -248t-313 -98q-264 0 -420 239l191 131q80 -143 221 -143q146 0 146 121q0 66 -82 106l-177 86q-230 115 -230 321q0 164 103.5 258.5t281.5 94.5q230 0 376 -217l-193 -132q-64 121 -173 121q-53 0 -85.5 -28.5t-32.5 -78.5q0 -76 90 -120l149 -73 q251 -123 251 -340z" />
<glyph unicode="t" d="M985 154q-133 -174 -329 -174q-197 0 -290 98t-93 299v567h-156v228h156v408h278v-408h355v-228h-355v-587q0 -75 26 -107t79 -32q63 0 120 79z" />
<glyph unicode="u" d="M935 0h-278v135q-91 -152 -240 -152q-130 0 -211 97t-81 342v750h278v-750q0 -120 32.5 -159.5t93.5 -39.5q103 0 128 142v807h278v-1172z" />
<glyph unicode="v" d="M669 0h-278l-228 732q-63 203 -72 356l-5 84h276l5 -84q10 -166 41 -292l122 -477l122 477q31 126 41 292l5 84h276l-5 -84q-9 -153 -72 -356z" />
<glyph unicode="w" d="M725 199v973h270v-155q0 -221 -66 -540l-99 -477h-193l-107 595l-107 -595h-193l-99 477q-66 319 -66 540v155h270v-973l97 538h196z" />
<glyph unicode="x" d="M92 0l2 40q8 123 120 298l176 273l-158 246q-96 148 -104 276l-2 39h275q11 -161 64 -244l65 -101l65 101q53 83 64 244h275l-2 -39q-8 -128 -104 -276l-159 -246l177 -273q112 -175 120 -298l2 -40h-276q-9 158 -69 251l-93 144l-93 -144q-60 -93 -69 -251h-276z" />
<glyph unicode="y" d="M230 -365l2 38q8 128 69 285l101 262l-215 538q-78 196 -86 324l-5 90h276l5 -84q11 -185 51 -289l102 -264l94 264q50 128 59 289l5 84h276l-6 -90q-7 -128 -83 -324l-310 -805q-47 -122 -57 -280l-2 -38h-276z" />
<glyph unicode="z" d="M936 0h-772v188q0 175 143 347l201 238q88 106 88 161h-422v238h732v-160q0 -149 -121 -305l-212 -272q-98 -127 -98 -197h461v-238z" />
<glyph unicode="{" d="M902 -211h-125q-182 0 -283 100.5t-101 272.5v167q0 138 -61 190t-147 52h-28v228h27q86 0 147.5 52t61.5 189v166q0 172 101 273t283 101h125v-228h-84q-69 0 -118.5 -39.5t-49.5 -128.5v-144q0 -264 -213 -355q213 -91 213 -353v-147q0 -89 49.5 -128.5t118.5 -39.5h84 v-228z" />
<glyph unicode="|" d="M648 -375h-237v2325h237v-2325z" />
<glyph unicode="}" d="M902 571h-28q-86 0 -147 -52t-61 -190v-167q0 -172 -101 -272.5t-283 -100.5h-125v228h84q69 0 118.5 39.5t49.5 128.5v147q0 262 213 353q-213 91 -213 355v144q0 89 -49.5 128.5t-118.5 39.5h-84v228h125q182 0 283 -101t101 -273v-166q0 -137 61.5 -189t147.5 -52h27 v-228z" />
<glyph unicode="~" d="M1009 1048q-14 -449 -310 -449q-116 0 -201 92l-85 91q-33 37 -70 37q-65 0 -63 -222h-230q14 449 310 449q115 0 201 -92l84 -91q34 -37 71 -37q66 0 63 222h230z" />
<glyph unicode="&#xa0;" />
<glyph unicode="&#xa1;" d="M706 1072q0 -76 -50 -125t-126 -49t-125 49t-49 125q0 77 49 126t125 49t126 -49t50 -126zM669 -353h-278v991h278v-991z" />
<glyph unicode="&#xa2;" d="M962 195q-115 -173 -275 -202v-205h-227v206q-115 23 -207.5 136.5t-92.5 345.5v221q0 221 86 338.5t214 144.5v205h227v-202q164 -35 275 -206l-209 -143q-71 122 -176 122q-77 0 -107.5 -57t-30.5 -187v-251q0 -121 30.5 -182.5t107.5 -61.5q95 0 156 131z" />
<glyph unicode="&#xa3;" d="M979 0h-900v238q205 15 180 328l-12 142h-168v238h142l-12 181q-15 225 98.5 350t290.5 125q251 0 387 -216l-209 -143q-72 121 -167 121q-55 0 -92 -40t-27 -189l12 -189h230v-238h-204l9 -136q15 -244 -133 -334h575v-238z" />
<glyph unicode="&#xa4;" d="M126 698q0 101 58 181l-171 173l163 166l174 -175q78 58 179 58t179 -58l174 175l163 -166l-171 -173q58 -80 58 -181q0 -102 -58 -181l171 -173l-163 -166l-174 175q-78 -59 -179 -59t-179 59l-174 -176l-163 167l171 173q-58 79 -58 181zM376 698q0 -73 45.5 -118.5 t107.5 -45.5t107.5 45.5t45.5 118.5q0 72 -45.5 117.5t-107.5 45.5t-107.5 -45.5t-45.5 -117.5z" />
<glyph unicode="&#xa5;" d="M530 933l74 146q76 149 90 428l2 73h276l-2 -73q-14 -287 -147 -547l-77 -150h189v-215h-266v-129h266v-215h-266v-251h-278v251h-266v215h266v129h-266v215h188l-76 150q-133 260 -147 547l-2 73h276l2 -73q14 -279 90 -428z" />
<glyph unicode="&#xa6;" d="M648 1020h-237v930h237v-930zM648 -375h-237v929h237v-929z" />
<glyph unicode="&#xa7;" d="M922 44q0 -181 -112 -300t-334 -119q-247 0 -404 250l209 143q94 -147 204 -147q76 0 118 39.5t42 112.5q0 78 -73 151l-279 278q-146 144 -146 289q0 188 106 265q-53 87 -53 176q0 191 109.5 305.5t294.5 114.5q220 0 357 -206l-209 -143q-63 102 -137 102 q-65 0 -101.5 -36t-36.5 -114q0 -74 75 -147l257 -256q167 -156 167 -319q0 -170 -109 -255q55 -91 55 -184zM679 406q20 42 20 92q0 72 -73 145l-183 190q-19 -42 -19 -99q0 -74 75 -147z" />
<glyph unicode="&#xa8;" d="M341 1330q-56 0 -93 37t-37 89q0 51 37 87.5t93 36.5t93 -36.5t37 -87.5q0 -52 -37 -89t-93 -37zM718 1330q-56 0 -93 37t-37 89q0 51 37 87.5t93 36.5t93 -36.5t37 -87.5q0 -52 -37 -89t-93 -37z" />
<glyph unicode="&#xa9;" d="M684 662q0 -152 -86 -238.5t-217 -86.5q-132 0 -218.5 86.5t-86.5 238.5v249q0 152 86.5 238.5t218.5 86.5q131 0 217 -86.5t86 -238.5v-35h-207v46q0 58 -19.5 98t-76.5 40q-58 0 -78 -40t-20 -98v-271q0 -58 20 -98t78 -40q57 0 76.5 40t19.5 98v41h207v-30zM811 514 v554q0 189 -105.5 274.5t-234.5 85.5q-221 0 -395 -142v179q167 137 398 137q243 0 393.5 -150.5t150.5 -403.5v-514q0 -253 -150.5 -403.5t-393.5 -150.5q-231 0 -398 137v179q174 -142 395 -142q129 0 234.5 85.5t105.5 274.5z" />
<glyph unicode="&#xaa;" d="M858 674h-227v79q-62 -95 -185 -95q-101 0 -172.5 81.5t-71.5 211.5t93 209t294 79h42v64q0 107 -102 107q-97 0 -143 -76l-163 110q111 158 306 158q146 0 237.5 -73.5t91.5 -256.5v-598zM631 926v171h-42q-90 0 -125 -39t-35 -107q0 -101 89 -101q77 0 113 76zM870 195 h-680v208h680v-208z" />
<glyph unicode="&#xab;" d="M1009 124h-239l-312 478l312 478h239l-303 -478zM602 124h-239l-312 478l312 478h239l-303 -478z" />
<glyph unicode="&#xac;" d="M980 118h-276v383h-665v234h941v-617z" />
<glyph unicode="&#xad;" d="M835 495h-611v258h611v-258z" />
<glyph unicode="&#xae;" d="M684 920q0 -168 -148 -244l148 -318h-220l-123 289h-58v-289h-207v857h275q181 0 257 -81.5t76 -213.5zM477 930q0 59 -29.5 84t-86.5 25h-78v-227h78q57 0 86.5 25t29.5 93zM811 514v554q0 189 -105.5 274.5t-234.5 85.5q-221 0 -395 -142v179q167 137 398 137 q243 0 393.5 -150.5t150.5 -403.5v-514q0 -253 -150.5 -403.5t-393.5 -150.5q-231 0 -398 137v179q174 -142 395 -142q129 0 234.5 85.5t105.5 274.5z" />
<glyph unicode="&#xaf;" d="M815 1404h-571v176h571v-176z" />
<glyph unicode="&#xb0;" d="M892 1240q0 -148 -97.5 -255.5t-265.5 -107.5t-265 107.5t-97 255.5t97 255t265 107t265.5 -107t97.5 -255zM676 1240q0 65 -38 110.5t-109 45.5q-70 0 -108 -45.5t-38 -110.5q0 -66 38 -111.5t108 -45.5t108.5 46t38.5 111z" />
<glyph unicode="&#xb1;" d="M1010 228h-960v238h960v-238zM1010 878h-351v-311h-258v311h-351v238h351v311h258v-311h351v-238z" />
<glyph unicode="&#xb2;" d="M851 673h-571v99q0 238 208 392l72 56q70 52 70 119q0 42 -24.5 63.5t-64.5 21.5q-65 0 -122 -87l-165 104q122 161 287 161q139 0 224.5 -73.5t85.5 -186.5q0 -138 -164 -261l-85 -64q-97 -73 -99 -156h348v-188z" />
<glyph unicode="&#xb3;" d="M850 950q0 -126 -80.5 -207.5t-233.5 -81.5q-188 0 -294 147l171 117q57 -86 122 -86q46 0 70 25.5t24 92.5q0 54 -27 83.5t-83 29.5h-57v168h57q49 0 70 21t21 83q0 44 -21 63t-55 19q-69 0 -109 -86l-181 113q105 151 292 151q143 0 219 -68.5t76 -177.5 q0 -140 -124 -198q143 -51 143 -208z" />
<glyph unicode="&#xb4;" d="M479 1580h280l-236 -245h-224z" />
<glyph unicode="&#xb5;" d="M915 0h-258v115q-51 -135 -151 -135q-59 0 -103 45v-390h-258v1537h258v-750q0 -110 32.5 -154.5t93.5 -44.5q103 0 128 142v807h258v-1172z" />
<glyph unicode="&#xb6;" d="M972 0h-183v1580h183v-1580zM675 0h-183v667h-39q-159 0 -262 114.5t-103 295.5v93q0 181 103 295.5t262 114.5h222v-1580z" />
<glyph unicode="&#xb7;" d="M763 851q0 -110 -67 -172t-167 -62t-166.5 62t-66.5 172q0 111 66 172t167 61q100 0 167 -61.5t67 -171.5z" />
<glyph unicode="&#xb8;" d="M339 -241q146 -10 146 46q0 53 -81 46l49 99q246 -8 246 -144q0 -82 -67 -131.5t-293 -49.5v134z" />
<glyph unicode="&#xb9;" d="M733 664h-222v677l-169 -119l-94 154l283 204h202v-916z" />
<glyph unicode="&#xba;" d="M857 985q0 -153 -93.5 -240t-233.5 -87t-234 87t-94 240v290q0 153 94 240t234 87t233.5 -87t93.5 -240v-290zM630 994v272q0 80 -26 112t-74 32t-74.5 -32.5t-26.5 -111.5v-272q0 -80 26.5 -112t74.5 -32t74 31.5t26 112.5zM870 195h-680v208h680v-208z" />
<glyph unicode="&#xbb;" d="M1009 602l-312 -478h-239l303 478l-303 478h239zM602 602l-312 -478h-239l303 478l-303 478h239z" />
<glyph unicode="&#xbc;" d="M683 1000h-222v636l-169 -119l-87 155l276 203h202v-875zM944 729h-830v129h830v-129zM818 -105h-78v-209h-206v209h-292v200l283 466h215v-489h78v-177zM534 72v254l-146 -254h146z" />
<glyph unicode="&#xbd;" d="M944 729h-830v129h830v-129zM683 1000h-222v636l-169 -119l-87 155l276 203h202v-875zM831 -301h-571v99q0 202 208 356l72 56q70 52 70 109q0 42 -24.5 63.5t-64.5 21.5q-65 0 -122 -87l-165 104q122 161 287 161q139 0 224.5 -73.5t85.5 -186.5q0 -128 -164 -251 l-85 -64q-97 -73 -99 -120h348v-188z" />
<glyph unicode="&#xbe;" d="M820 1252q0 -106 -79.5 -187.5t-234.5 -81.5q-168 0 -274 147l168 106q40 -75 105 -75q46 0 70 25.5t24 72.5q0 106 -110 106h-57v168h57q48 0 69.5 21t21.5 63q0 44 -21 63t-55 19q-59 0 -94 -75l-176 102q105 151 272 151q143 0 219 -68.5t76 -167.5q0 -130 -124 -188 q143 -51 143 -201zM944 729h-830v129h830v-129zM808 -105h-78v-209h-206v209h-292v200l283 466h215v-489h78v-177zM524 72v254l-146 -254h146z" />
<glyph unicode="&#xbf;" d="M688 1071q0 -75 -49 -124t-125 -49q-77 0 -126.5 49t-49.5 124q0 78 49.5 127t126.5 49q76 0 125 -49t49 -127zM941 -114q-146 -261 -417 -261q-179 0 -292 114.5t-113 274.5q0 118 66 217l161 237q32 47 32 113v57h277v-58q0 -117 -70 -222l-157 -230q-32 -48 -32 -124 q0 -68 36.5 -105t92.5 -37q127 0 192 152z" />
<glyph unicode="&#xc0;" d="M665 1705h-224l-236 245h280zM359 88v-88h-276v88q0 228 79 573l188 829h359l189 -829q79 -345 79 -573v-88h-276v88q0 122 -15 260h-313q-14 -138 -14 -260zM530 1258l-122 -673h244z" />
<glyph unicode="&#xc1;" d="M596 1950h280l-236 -245h-224zM359 88v-88h-276v88q0 228 79 573l188 829h359l189 -829q79 -345 79 -573v-88h-276v88q0 122 -15 260h-313q-14 -138 -14 -260zM530 1258l-122 -673h244z" />
<glyph unicode="&#xc2;" d="M892 1705h-225l-137 152l-138 -152h-225l143 245h439zM359 88v-88h-276v88q0 228 79 573l188 829h359l189 -829q79 -345 79 -573v-88h-276v88q0 122 -15 260h-313q-14 -138 -14 -260zM530 1258l-122 -673h244z" />
<glyph unicode="&#xc3;" d="M906 1858q-115 -214 -243 -214q-50 0 -134.5 58.5t-122.5 58.5q-64 0 -126 -117l-127 92q115 214 243 214q50 0 134.5 -58.5t122.5 -58.5q64 0 126 117zM359 88v-88h-276v88q0 228 79 573l188 829h359l189 -829q79 -345 79 -573v-88h-276v88q0 122 -15 260h-313 q-14 -138 -14 -260zM530 1258l-122 -673h244z" />
<glyph unicode="&#xc4;" d="M341 1700q-56 0 -93 37t-37 89q0 51 37 87.5t93 36.5t93 -36.5t37 -87.5q0 -52 -37 -89t-93 -37zM718 1700q-56 0 -93 37t-37 89q0 51 37 87.5t93 36.5t93 -36.5t37 -87.5q0 -52 -37 -89t-93 -37zM359 88v-88h-276v88q0 228 79 573l188 829h359l189 -829q79 -345 79 -573 v-88h-276v88q0 122 -15 260h-313q-14 -138 -14 -260zM530 1258l-122 -673h244z" />
<glyph unicode="&#xc5;" d="M794 1706q0 -102 -71.5 -173.5t-193.5 -71.5t-193 71.5t-71 173.5t71 173t193 71t193.5 -71t71.5 -173zM630 1706q0 46 -27 73t-74 27q-46 0 -73 -27t-27 -73t27 -73.5t73 -27.5t73.5 28t27.5 73zM359 88v-88h-276v88q0 228 79 573l180 789h376l180 -789q79 -345 79 -573 v-88h-276v88q0 122 -15 260h-313q-14 -138 -14 -260zM530 1258l-122 -673h244z" />
<glyph unicode="&#xc6;" d="M990 0h-507v467h-158v-467h-256v569l258 1011h663v-236h-251v-399h210v-237h-210v-471h251v-237zM483 704v607l-119 -607h119z" />
<glyph unicode="&#xc7;" d="M938 219q-147 -239 -397 -239q-187 0 -307 120t-120 420v542q0 300 120 420t307 120q250 0 397 -239l-209 -143q-74 135 -188 135q-69 0 -109 -50t-40 -207v-615q0 -156 40 -206.5t109 -50.5q114 0 188 136zM339 -241q146 -10 146 46q0 53 -81 46l49 99q246 -8 246 -144 q0 -82 -67 -131.5t-293 -49.5v134z" />
<glyph unicode="&#xc8;" d="M630 1705h-224l-236 245h280zM944 0h-788v1490h788v-238h-510v-351h366v-238h-366v-425h510v-238z" />
<glyph unicode="&#xc9;" d="M561 1950h280l-236 -245h-224zM944 0h-788v1490h788v-238h-510v-351h366v-238h-366v-425h510v-238z" />
<glyph unicode="&#xca;" d="M892 1705h-225l-137 152l-138 -152h-225l143 245h439zM944 0h-788v1490h788v-238h-510v-351h366v-238h-366v-425h510v-238z" />
<glyph unicode="&#xcb;" d="M341 1700q-56 0 -93 37t-37 89q0 51 37 87.5t93 36.5t93 -36.5t37 -87.5q0 -52 -37 -89t-93 -37zM718 1700q-56 0 -93 37t-37 89q0 51 37 87.5t93 36.5t93 -36.5t37 -87.5q0 -52 -37 -89t-93 -37zM944 0h-788v1490h788v-238h-510v-351h366v-238h-366v-425h510v-238z" />
<glyph unicode="&#xcc;" d="M665 1705h-224l-236 245h280zM876 0h-692v228h207v1034h-164v228h606v-228h-164v-1034h207v-228z" />
<glyph unicode="&#xcd;" d="M596 1950h280l-236 -245h-224zM876 0h-692v228h207v1034h-164v228h606v-228h-164v-1034h207v-228z" />
<glyph unicode="&#xce;" d="M892 1705h-225l-137 152l-138 -152h-225l143 245h439zM876 0h-692v228h207v1034h-164v228h606v-228h-164v-1034h207v-228z" />
<glyph unicode="&#xcf;" d="M341 1700q-56 0 -93 37t-37 89q0 51 37 87.5t93 36.5t93 -36.5t37 -87.5q0 -52 -37 -89t-93 -37zM718 1700q-56 0 -93 37t-37 89q0 51 37 87.5t93 36.5t93 -36.5t37 -87.5q0 -52 -37 -89t-93 -37zM876 0h-692v228h207v1034h-164v228h606v-228h-164v-1034h207v-228z" />
<glyph unicode="&#xd0;" d="M54 945h107v635h311q212 0 344.5 -114.5t132.5 -412.5v-525q0 -299 -132.5 -413.5t-344.5 -114.5h-311v710h-107v235zM671 503v575q0 152 -50.5 203t-139.5 51h-43v-387h108v-235h-108v-462h43q89 0 139.5 51.5t50.5 203.5z" />
<glyph unicode="&#xd1;" d="M906 1858q-115 -214 -243 -214q-50 0 -134.5 58.5t-122.5 58.5q-64 0 -126 -117l-127 92q115 214 243 214q50 0 134.5 -58.5t122.5 -58.5q64 0 126 117zM914 0h-264l-312 980q33 -330 33 -703v-277h-226v1490h266l310 -980q-33 330 -33 703v277h226v-1490z" />
<glyph unicode="&#xd2;" d="M665 1705h-224l-236 245h280zM938 507q0 -299 -113 -413t-295 -114t-295 114t-113 413v475q0 299 113 413.5t295 114.5t295 -114.5t113 -413.5v-475zM660 473v543q0 132 -26 189t-105 57t-104 -56.5t-25 -189.5v-543q0 -131 26 -188t105 -57t104 56.5t25 188.5z" />
<glyph unicode="&#xd3;" d="M596 1950h280l-236 -245h-224zM938 507q0 -299 -113 -413t-295 -114t-295 114t-113 413v475q0 299 113 413.5t295 114.5t295 -114.5t113 -413.5v-475zM660 473v543q0 132 -26 189t-105 57t-104 -56.5t-25 -189.5v-543q0 -131 26 -188t105 -57t104 56.5t25 188.5z" />
<glyph unicode="&#xd4;" d="M892 1705h-225l-137 152l-138 -152h-225l143 245h439zM938 507q0 -299 -113 -413t-295 -114t-295 114t-113 413v475q0 299 113 413.5t295 114.5t295 -114.5t113 -413.5v-475zM660 473v543q0 132 -26 189t-105 57t-104 -56.5t-25 -189.5v-543q0 -131 26 -188t105 -57 t104 56.5t25 188.5z" />
<glyph unicode="&#xd5;" d="M906 1858q-115 -214 -243 -214q-50 0 -134.5 58.5t-122.5 58.5q-64 0 -126 -117l-127 92q115 214 243 214q50 0 134.5 -58.5t122.5 -58.5q64 0 126 117zM938 507q0 -299 -113 -413t-295 -114t-295 114t-113 413v475q0 299 113 413.5t295 114.5t295 -114.5t113 -413.5 v-475zM660 473v543q0 132 -26 189t-105 57t-104 -56.5t-25 -189.5v-543q0 -131 26 -188t105 -57t104 56.5t25 188.5z" />
<glyph unicode="&#xd6;" d="M341 1700q-56 0 -93 37t-37 89q0 51 37 87.5t93 36.5t93 -36.5t37 -87.5q0 -52 -37 -89t-93 -37zM718 1700q-56 0 -93 37t-37 89q0 51 37 87.5t93 36.5t93 -36.5t37 -87.5q0 -52 -37 -89t-93 -37zM938 507q0 -299 -113 -413t-295 -114t-295 114t-113 413v475 q0 299 113 413.5t295 114.5t295 -114.5t113 -413.5v-475zM660 473v543q0 132 -26 189t-105 57t-104 -56.5t-25 -189.5v-543q0 -131 26 -188t105 -57t104 56.5t25 188.5z" />
<glyph unicode="&#xd7;" d="M831 142l-300 302l-300 -302l-165 166l301 299l-301 300l165 166l300 -302l300 302l163 -166l-297 -300l297 -299z" />
<glyph unicode="&#xd8;" d="M209 -157l48 230q-135 105 -135 434v567q0 299 113 413.5t295 114.5q61 0 114 -13l35 165l171 -38l-45 -209q133 -114 133 -433v-567q0 -299 -113 -413t-295 -114q-59 0 -111 12l-38 -187zM529 1354q-79 0 -114 -56.5t-35 -189.5v-730l212 963q-25 13 -63 13zM680 473 v723l-211 -956q25 -12 62 -12q79 0 114 56.5t35 188.5z" />
<glyph unicode="&#xd9;" d="M666 1705h-224l-236 245h280zM935 464q0 -256 -113 -370t-292 -114t-292 114t-113 370v1026h278v-1059q0 -109 29.5 -161t96.5 -52q66 0 97 52t31 161v1059h278v-1026z" />
<glyph unicode="&#xda;" d="M597 1950h280l-236 -245h-224zM935 464q0 -256 -113 -370t-292 -114t-292 114t-113 370v1026h278v-1059q0 -109 29.5 -161t96.5 -52q66 0 97 52t31 161v1059h278v-1026z" />
<glyph unicode="&#xdb;" d="M893 1705h-225l-137 152l-138 -152h-225l143 245h439zM935 464q0 -256 -113 -370t-292 -114t-292 114t-113 370v1026h278v-1059q0 -109 29.5 -161t96.5 -52q66 0 97 52t31 161v1059h278v-1026z" />
<glyph unicode="&#xdc;" d="M342 1700q-56 0 -93 37t-37 89q0 51 37 87.5t93 36.5t93 -36.5t37 -87.5q0 -52 -37 -89t-93 -37zM719 1700q-56 0 -93 37t-37 89q0 51 37 87.5t93 36.5t93 -36.5t37 -87.5q0 -52 -37 -89t-93 -37zM935 464q0 -256 -113 -370t-292 -114t-292 114t-113 370v1026h278v-1059 q0 -109 29.5 -161t96.5 -52q66 0 97 52t31 161v1059h278v-1026z" />
<glyph unicode="&#xdd;" d="M596 1950h280l-236 -245h-224zM530 843l74 146q76 149 90 428l2 73h276l-2 -73q-14 -287 -147 -547l-154 -301v-569h-278v569l-154 301q-133 260 -147 547l-2 73h276l2 -73q14 -279 90 -428z" />
<glyph unicode="&#xde;" d="M998 752q0 -172 -113 -286.5t-293 -114.5h-126v-351h-278v1580h278v-356h126q201 0 303.5 -114.5t102.5 -285.5v-72zM720 761v54q0 69 -31 121t-117 52h-106v-400h104q77 0 113.5 47t36.5 126z" />
<glyph unicode="&#xdf;" d="M975 363q0 -174 -103 -271t-312 -97h-49v237h38q150 0 150 131q0 81 -107 227.5t-107 265.5q0 104 61.5 198t61.5 182q0 54 -24 91t-75 37q-60 0 -83.5 -56.5t-23.5 -154.5v-1153h-277v1140q0 231 103 345.5t282 114.5q159 0 267 -104.5t108 -259.5q0 -110 -61.5 -208.5 t-61.5 -171.5q0 -77 106.5 -214t106.5 -279z" />
<glyph unicode="&#xe0;" d="M914 0h-278v135q-80 -155 -231 -155q-123 0 -211.5 98.5t-88.5 247.5q0 176 110.5 279.5t324.5 103.5h96v126q0 121 -128 121q-125 0 -186 -132l-199 163q146 207 386 207q189 0 297 -96.5t108 -284.5v-813zM636 360v172h-96q-81 0 -120 -44t-39 -122q0 -139 118 -139 q124 0 137 133zM671 1335h-224l-236 245h280z" />
<glyph unicode="&#xe1;" d="M914 0h-278v135q-80 -155 -231 -155q-123 0 -211.5 98.5t-88.5 247.5q0 176 110.5 279.5t324.5 103.5h96v126q0 121 -128 121q-125 0 -186 -132l-199 163q146 207 386 207q189 0 297 -96.5t108 -284.5v-813zM636 360v172h-96q-81 0 -120 -44t-39 -122q0 -139 118 -139 q124 0 137 133zM591 1580h280l-236 -245h-224z" />
<glyph unicode="&#xe2;" d="M912 0h-278v135q-80 -155 -231 -155q-123 0 -211.5 98.5t-88.5 247.5q0 176 110.5 279.5t324.5 103.5h96v126q0 121 -128 121q-125 0 -186 -132l-199 163q146 207 386 207q189 0 297 -96.5t108 -284.5v-813zM634 360v172h-96q-81 0 -120 -44t-39 -122q0 -139 118 -139 q124 0 137 133zM874 1335h-225l-137 152l-138 -152h-225l143 245h439z" />
<glyph unicode="&#xe3;" d="M914 0h-278v135q-80 -155 -231 -155q-123 0 -211.5 98.5t-88.5 247.5q0 176 110.5 279.5t324.5 103.5h96v126q0 121 -128 121q-125 0 -186 -132l-199 163q146 207 386 207q189 0 297 -96.5t108 -284.5v-813zM636 360v172h-96q-81 0 -120 -44t-39 -122q0 -139 118 -139 q124 0 137 133zM923 1508q-115 -214 -243 -214q-50 0 -134.5 58.5t-122.5 58.5q-64 0 -126 -117l-127 92q115 214 243 214q50 0 134.5 -58.5t122.5 -58.5q64 0 126 117z" />
<glyph unicode="&#xe4;" d="M914 0h-278v135q-80 -155 -231 -155q-123 0 -211.5 98.5t-88.5 247.5q0 176 110.5 279.5t324.5 103.5h96v126q0 121 -128 121q-125 0 -186 -132l-199 163q146 207 386 207q189 0 297 -96.5t108 -284.5v-813zM636 360v172h-96q-81 0 -120 -44t-39 -122q0 -139 118 -139 q124 0 137 133zM358 1330q-56 0 -93 37t-37 89q0 51 37 87.5t93 36.5t93 -36.5t37 -87.5q0 -52 -37 -89t-93 -37zM735 1330q-56 0 -93 37t-37 89q0 51 37 87.5t93 36.5t93 -36.5t37 -87.5q0 -52 -37 -89t-93 -37z" />
<glyph unicode="&#xe5;" d="M914 0h-278v135q-80 -155 -231 -155q-123 0 -211.5 98.5t-88.5 247.5q0 176 110.5 279.5t324.5 103.5h96v126q0 121 -128 121q-125 0 -186 -132l-199 163q146 207 386 207q189 0 297 -96.5t108 -284.5v-813zM636 360v172h-96q-81 0 -120 -44t-39 -122q0 -139 118 -139 q124 0 137 133zM811 1498q0 -102 -71.5 -173.5t-193.5 -71.5t-193 71.5t-71 173.5t71 173t193 71t193.5 -71t71.5 -173zM647 1498q0 46 -27 73t-74 27q-46 0 -73 -27t-27 -73t27 -73.5t73 -27.5t73.5 28t27.5 73z" />
<glyph unicode="&#xe6;" d="M1020 538h-366v-213q0 -125 75 -125q64 0 93 101l186 -127q-93 -194 -259 -194q-154 0 -215 136q-72 -136 -233 -136q-119 0 -190.5 85.5t-71.5 276.5q0 183 86.5 280t246.5 97h34v129q0 125 -70 125q-59 0 -82 -83l-202 109q83 195 259 195q159 0 223 -131 q67 131 215 131q129 0 200 -86t71 -311v-259zM793 719v135q0 119 -69 119q-71 0 -71 -119v-135h140zM406 319v219h-34q-106 0 -106 -191q0 -147 70 -147t70 119z" />
<glyph unicode="&#xe7;" d="M943 195q-135 -215 -385 -215q-190 0 -303.5 124t-113.5 372v221q0 248 113.5 372.5t303.5 124.5q250 0 385 -217l-209 -143q-71 122 -176 122q-77 0 -107.5 -57t-30.5 -197v-241q0 -121 30.5 -182.5t107.5 -61.5q95 0 156 131zM339 -241q146 -10 146 46q0 53 -81 46 l49 99q246 -8 246 -144q0 -82 -67 -131.5t-293 -49.5v134z" />
<glyph unicode="&#xe8;" d="M934 551h-532v-130q0 -101 31.5 -152t107.5 -51q111 0 177 110l209 -143q-135 -205 -397 -205q-180 0 -293 114t-113 382v221q0 268 113 382.5t293 114.5q179 0 291.5 -114t112.5 -383v-146zM658 729v43q0 100 -31 152t-97 52t-97.5 -52t-31.5 -152v-43h257zM654 1335 h-224l-236 245h280z" />
<glyph unicode="&#xe9;" d="M934 551h-532v-130q0 -101 31.5 -152t107.5 -51q111 0 177 110l209 -143q-135 -205 -397 -205q-180 0 -293 114t-113 382v221q0 268 113 382.5t293 114.5q179 0 291.5 -114t112.5 -383v-146zM658 729v43q0 100 -31 152t-97 52t-97.5 -52t-31.5 -152v-43h257zM574 1580 h280l-236 -245h-224z" />
<glyph unicode="&#xea;" d="M934 551h-532v-130q0 -101 31.5 -152t107.5 -51q111 0 177 110l209 -143q-135 -205 -397 -205q-180 0 -293 114t-113 382v221q0 268 113 382.5t293 114.5q179 0 291.5 -114t112.5 -383v-146zM658 729v43q0 100 -31 152t-97 52t-97.5 -52t-31.5 -152v-43h257zM892 1335 h-225l-137 152l-138 -152h-225l143 245h439z" />
<glyph unicode="&#xeb;" d="M934 551h-532v-130q0 -101 31.5 -152t107.5 -51q111 0 177 110l209 -143q-135 -205 -397 -205q-180 0 -293 114t-113 382v221q0 268 113 382.5t293 114.5q179 0 291.5 -114t112.5 -383v-146zM658 729v43q0 100 -31 152t-97 52t-97.5 -52t-31.5 -152v-43h257zM341 1330 q-56 0 -93 37t-37 89q0 51 37 87.5t93 36.5t93 -36.5t37 -87.5q0 -52 -37 -89t-93 -37zM718 1330q-56 0 -93 37t-37 89q0 51 37 87.5t93 36.5t93 -36.5t37 -87.5q0 -52 -37 -89t-93 -37z" />
<glyph unicode="&#xec;" d="M879 0h-699v228h211v716h-181v228h459v-944h210v-228zM633 1335h-224l-236 245h280z" />
<glyph unicode="&#xed;" d="M876 0h-699v228h211v716h-181v228h459v-944h210v-228zM655 1580h280l-236 -245h-224z" />
<glyph unicode="&#xee;" d="M891 0h-699v228h211v716h-181v228h459v-944h210v-228zM862 1335h-225l-137 152l-138 -152h-225l143 245h439z" />
<glyph unicode="&#xef;" d="M883 0h-699v228h211v716h-181v228h459v-944h210v-228zM314 1330q-56 0 -93 37t-37 89q0 51 37 87.5t93 36.5t93 -36.5t37 -87.5q0 -52 -37 -89t-93 -37zM691 1330q-56 0 -93 37t-37 89q0 51 37 87.5t93 36.5t93 -36.5t37 -87.5q0 -52 -37 -89t-93 -37z" />
<glyph unicode="&#xf0;" d="M974 1421l-148 -51q68 -124 68 -329v-632q0 -202 -112 -315.5t-291 -113.5q-159 0 -282 113.5t-123 380.5v136q0 272 85 385t206 113q159 0 242 -125v138q0 99 -32 165l-201 -70l-54 165l152 53q-36 44 -101 84l129 192q137 -79 220 -191l189 66zM619 449v285 q-36 133 -139 133q-60 0 -89 -60t-29 -172v-162q0 -133 31.5 -194.5t97.5 -61.5q76 0 102 61.5t26 170.5z" />
<glyph unicode="&#xf1;" d="M935 0h-278v750q0 120 -32.5 159.5t-93.5 39.5q-103 0 -128 -142v-807h-278v1172h278v-135q91 152 240 152q130 0 211 -97t81 -342v-750zM906 1508q-115 -214 -243 -214q-50 0 -134.5 58.5t-122.5 58.5q-64 0 -126 -117l-127 92q115 214 243 214q50 0 134.5 -58.5 t122.5 -58.5q64 0 126 117z" />
<glyph unicode="&#xf2;" d="M934 475q0 -268 -112.5 -381.5t-291.5 -113.5t-292 113.5t-113 381.5v222q0 269 113 383t292 114t291.5 -114t112.5 -383v-222zM656 472v222q0 159 -30 210.5t-96 51.5t-96.5 -51.5t-30.5 -210.5v-222q0 -151 30.5 -202.5t96.5 -51.5t96 51.5t30 202.5zM654 1335h-224 l-236 245h280z" />
<glyph unicode="&#xf3;" d="M934 475q0 -268 -112.5 -381.5t-291.5 -113.5t-292 113.5t-113 381.5v222q0 269 113 383t292 114t291.5 -114t112.5 -383v-222zM656 472v222q0 159 -30 210.5t-96 51.5t-96.5 -51.5t-30.5 -210.5v-222q0 -151 30.5 -202.5t96.5 -51.5t96 51.5t30 202.5zM574 1580h280 l-236 -245h-224z" />
<glyph unicode="&#xf4;" d="M935 475q0 -268 -112.5 -381.5t-291.5 -113.5t-292 113.5t-113 381.5v222q0 269 113 383t292 114t291.5 -114t112.5 -383v-222zM657 472v222q0 159 -30 210.5t-96 51.5t-96.5 -51.5t-30.5 -210.5v-222q0 -151 30.5 -202.5t96.5 -51.5t96 51.5t30 202.5zM893 1335h-225 l-137 152l-138 -152h-225l143 245h439z" />
<glyph unicode="&#xf5;" d="M934 475q0 -268 -112.5 -381.5t-291.5 -113.5t-292 113.5t-113 381.5v222q0 269 113 383t292 114t291.5 -114t112.5 -383v-222zM656 472v222q0 159 -30 210.5t-96 51.5t-96.5 -51.5t-30.5 -210.5v-222q0 -151 30.5 -202.5t96.5 -51.5t96 51.5t30 202.5zM906 1508 q-115 -214 -243 -214q-50 0 -134.5 58.5t-122.5 58.5q-64 0 -126 -117l-127 92q115 214 243 214q50 0 134.5 -58.5t122.5 -58.5q64 0 126 117z" />
<glyph unicode="&#xf6;" d="M934 475q0 -268 -112.5 -381.5t-291.5 -113.5t-292 113.5t-113 381.5v222q0 269 113 383t292 114t291.5 -114t112.5 -383v-222zM656 472v222q0 159 -30 210.5t-96 51.5t-96.5 -51.5t-30.5 -210.5v-222q0 -151 30.5 -202.5t96.5 -51.5t96 51.5t30 202.5zM341 1330 q-56 0 -93 37t-37 89q0 51 37 87.5t93 36.5t93 -36.5t37 -87.5q0 -52 -37 -89t-93 -37zM718 1330q-56 0 -93 37t-37 89q0 51 37 87.5t93 36.5t93 -36.5t37 -87.5q0 -52 -37 -89t-93 -37z" />
<glyph unicode="&#xf7;" d="M733 1028q0 -91 -59.5 -147.5t-144.5 -56.5t-144 56.5t-59 147.5q0 90 58.5 146.5t144.5 56.5q85 0 144.5 -57t59.5 -146zM1010 508h-961v198h961v-198zM733 183q0 -91 -59.5 -147t-144.5 -56t-144 56t-59 147q0 90 58.5 146.5t144.5 56.5q85 0 144.5 -57t59.5 -146z" />
<glyph unicode="&#xf8;" d="M189 -136l61 218q-125 113 -125 393v222q0 269 113 383t292 114q65 0 122 -16l52 183l168 -49l-62 -221q124 -115 124 -394v-222q0 -268 -112.5 -381.5t-291.5 -113.5q-65 0 -122 15l-50 -180zM530 956q-66 0 -96.5 -51.5t-30.5 -210.5v-368l185 616q-24 14 -58 14z M656 472v372l-184 -613q25 -13 58 -13q66 0 96 51.5t30 202.5z" />
<glyph unicode="&#xf9;" d="M935 0h-278v135q-91 -152 -240 -152q-130 0 -211 97t-81 342v750h278v-750q0 -120 32.5 -159.5t93.5 -39.5q103 0 128 142v807h278v-1172zM654 1335h-224l-236 245h280z" />
<glyph unicode="&#xfa;" d="M935 0h-278v135q-91 -152 -240 -152q-130 0 -211 97t-81 342v750h278v-750q0 -120 32.5 -159.5t93.5 -39.5q103 0 128 142v807h278v-1172zM574 1580h280l-236 -245h-224z" />
<glyph unicode="&#xfb;" d="M935 0h-278v135q-91 -152 -240 -152q-130 0 -211 97t-81 342v750h278v-750q0 -120 32.5 -159.5t93.5 -39.5q103 0 128 142v807h278v-1172zM892 1335h-225l-137 152l-138 -152h-225l143 245h439z" />
<glyph unicode="&#xfc;" d="M935 0h-278v135q-91 -152 -240 -152q-130 0 -211 97t-81 342v750h278v-750q0 -120 32.5 -159.5t93.5 -39.5q103 0 128 142v807h278v-1172zM342 1330q-56 0 -93 37t-37 89q0 51 37 87.5t93 36.5t93 -36.5t37 -87.5q0 -52 -37 -89t-93 -37zM719 1330q-56 0 -93 37t-37 89 q0 51 37 87.5t93 36.5t93 -36.5t37 -87.5q0 -52 -37 -89t-93 -37z" />
<glyph unicode="&#xfd;" d="M637 1580h280l-236 -245h-224zM230 -365l2 38q8 128 69 285l101 262l-215 538q-78 196 -86 324l-5 90h276l5 -84q11 -185 51 -289l102 -264l94 264q50 128 59 289l5 84h276l-6 -90q-7 -128 -83 -324l-310 -805q-47 -122 -57 -280l-2 -38h-276z" />
<glyph unicode="&#xfe;" d="M955 478q0 -270 -81 -382.5t-211 -112.5q-149 0 -240 153v-501h-278v1945h278v-539q91 151 240 151q130 0 211 -112.5t81 -381.5v-220zM677 517v142q0 164 -32.5 229.5t-93.5 65.5q-92 0 -128 -133v-466q35 -132 128 -132q61 0 93.5 65t32.5 229z" />
<glyph unicode="&#xff;" d="M342 1330q-56 0 -93 37t-37 89q0 51 37 87.5t93 36.5t93 -36.5t37 -87.5q0 -52 -37 -89t-93 -37zM719 1330q-56 0 -93 37t-37 89q0 51 37 87.5t93 36.5t93 -36.5t37 -87.5q0 -52 -37 -89t-93 -37zM217 -365l2 38q8 128 69 285l101 262l-215 538q-78 196 -86 324l-5 90 h276l5 -84q11 -185 51 -289l102 -264l94 264q50 128 59 289l5 84h276l-6 -90q-7 -128 -83 -324l-310 -805q-47 -122 -57 -280l-2 -38h-276z" />
<glyph unicode="&#x100;" d="M815 1624h-571v176h571v-176zM359 88v-88h-276v88q0 228 79 573l188 829h359l189 -829q79 -345 79 -573v-88h-276v88q0 122 -15 260h-313q-14 -138 -14 -260zM530 1258l-122 -673h244z" />
<glyph unicode="&#x101;" d="M954 0h-278v135q-80 -155 -231 -155q-123 0 -211.5 98.5t-88.5 247.5q0 176 110.5 279.5t324.5 103.5h96v126q0 121 -128 121q-125 0 -186 -132l-199 163q146 207 386 207q189 0 297 -96.5t108 -284.5v-813zM676 360v172h-96q-81 0 -120 -44t-39 -122q0 -139 118 -139 q124 0 137 133zM815 1315h-571v176h571v-176z" />
<glyph unicode="&#x102;" d="M828 1742q-121 -117 -298 -117q-178 0 -298 117v208q138 -136 298 -136q159 0 298 136v-208zM359 88v-88h-276v88q0 228 79 573l188 829h359l189 -829q79 -345 79 -573v-88h-276v88q0 122 -15 260h-313q-14 -138 -14 -260zM530 1258l-122 -673h244z" />
<glyph unicode="&#x103;" d="M954 0h-278v135q-80 -155 -231 -155q-123 0 -211.5 98.5t-88.5 247.5q0 176 110.5 279.5t324.5 103.5h96v126q0 121 -128 121q-125 0 -186 -132l-199 163q146 207 386 207q189 0 297 -96.5t108 -284.5v-813zM676 360v172h-96q-81 0 -120 -44t-39 -122q0 -139 118 -139 q124 0 137 133zM828 1392q-121 -117 -298 -117q-178 0 -298 117v208q138 -136 298 -136q159 0 298 136v-208z" />
<glyph unicode="&#x104;" d="M359 88v-88h-276v88q0 228 79 573l209 919h318l209 -919q79 -345 79 -573v-88h-276v88q0 122 -17 260h-308q-17 -138 -17 -260zM530 1166l-114 -581h228zM999 -369q-226 -6 -301 50.5t-75 146.5q0 106 128 172h197q-121 -55 -121 -129q0 -52 51.5 -70t120.5 -11v-159z " />
<glyph unicode="&#x105;" d="M954 0h-278v135q-80 -155 -231 -155q-123 0 -211.5 98.5t-88.5 247.5q0 176 110.5 279.5t324.5 103.5h96v126q0 121 -128 121q-125 0 -186 -132l-199 163q146 207 386 207q189 0 297 -96.5t108 -284.5v-813zM676 360v172h-96q-81 0 -120 -44t-39 -122q0 -139 118 -139 q124 0 137 133zM964 -369q-226 -6 -301 50.5t-75 146.5q0 106 128 172h197q-121 -55 -121 -129q0 -52 51.5 -70t120.5 -11v-159z" />
<glyph unicode="&#x106;" d="M699 1950h280l-236 -245h-224zM1001 219q-147 -239 -397 -239q-202 0 -314.5 114t-112.5 434v442q0 298 115 419t312 121q250 0 397 -239l-209 -143q-74 135 -188 135q-77 0 -113 -56.5t-36 -200.5v-523q0 -143 36 -200t113 -57q114 0 188 136z" />
<glyph unicode="&#x107;" d="M933 195q-135 -215 -385 -215q-190 0 -303.5 124t-113.5 372v221q0 248 113.5 372.5t303.5 124.5q250 0 385 -217l-209 -143q-71 122 -176 122q-77 0 -107.5 -57t-30.5 -197v-241q0 -121 30.5 -182.5t107.5 -61.5q95 0 156 131zM644 1580h280l-236 -245h-224z" />
<glyph unicode="&#x108;" d="M947 1705h-225l-137 152l-138 -152h-225l143 245h439zM1001 219q-147 -239 -397 -239q-202 0 -314.5 114t-112.5 434v442q0 298 115 419t312 121q250 0 397 -239l-209 -143q-74 135 -188 135q-77 0 -113 -56.5t-36 -200.5v-523q0 -143 36 -200t113 -57q114 0 188 136z " />
<glyph unicode="&#x109;" d="M933 195q-135 -215 -385 -215q-190 0 -303.5 124t-113.5 372v221q0 248 113.5 372.5t303.5 124.5q250 0 385 -217l-209 -143q-71 122 -176 122q-77 0 -107.5 -57t-30.5 -197v-241q0 -121 30.5 -182.5t107.5 -61.5q95 0 156 131zM917 1335h-225l-137 152l-138 -152h-225 l143 245h439z" />
<glyph unicode="&#x10a;" d="M765 1805q0 -61 -40 -103t-126 -42t-125.5 42t-39.5 103q0 62 39.5 103.5t125.5 41.5t126 -41.5t40 -103.5zM1001 219q-147 -239 -397 -239q-202 0 -314.5 114t-112.5 434v442q0 298 115 419t312 121q250 0 397 -239l-209 -143q-74 135 -188 135q-77 0 -113 -56.5 t-36 -200.5v-523q0 -143 36 -200t113 -57q114 0 188 136z" />
<glyph unicode="&#x10b;" d="M933 195q-135 -215 -385 -215q-190 0 -303.5 124t-113.5 372v221q0 248 113.5 372.5t303.5 124.5q250 0 385 -217l-209 -143q-71 122 -176 122q-77 0 -107.5 -57t-30.5 -197v-241q0 -121 30.5 -182.5t107.5 -61.5q95 0 156 131zM735 1435q0 -61 -40 -103t-126 -42 t-125.5 42t-39.5 103q0 62 39.5 103.5t125.5 41.5t126 -41.5t40 -103.5z" />
<glyph unicode="&#x10c;" d="M786 1705h-359l-183 245h225l138 -152l137 152h225zM1001 219q-147 -239 -397 -239q-202 0 -314.5 114t-112.5 434v442q0 298 115 419t312 121q250 0 397 -239l-209 -143q-74 135 -188 135q-77 0 -113 -56.5t-36 -200.5v-523q0 -143 36 -200t113 -57q114 0 188 136z" />
<glyph unicode="&#x10d;" d="M933 195q-135 -215 -385 -215q-190 0 -303.5 124t-113.5 372v221q0 248 113.5 372.5t303.5 124.5q250 0 385 -217l-209 -143q-71 122 -176 122q-77 0 -107.5 -57t-30.5 -197v-241q0 -121 30.5 -182.5t107.5 -61.5q95 0 156 131zM759 1335h-359l-183 245h225l138 -152 l137 152h225z" />
<glyph unicode="&#x10e;" d="M664 1705h-359l-183 245h225l138 -152l137 152h225zM929 528q0 -299 -112.5 -413.5t-324.5 -114.5h-361v1490h361q212 0 324.5 -114.5t112.5 -412.5v-435zM651 503v485q0 152 -45.5 203t-134.5 51h-63v-994h63q89 0 134.5 51.5t45.5 203.5z" />
<glyph unicode="&#x10f;" d="M745 0h-236v111q-73 -131 -202 -131q-110 0 -191 112.5t-81 381.5v220q0 270 81 382.5t191 112.5q129 0 202 -132v523h236v-1580zM509 349v470q-55 132 -130 132q-53 0 -80.5 -65t-27.5 -181v-242q0 -116 27.5 -181.5t80.5 -65.5q74 0 130 133zM1075 1580l-69 -365h-175 l44 365h200z" />
<glyph unicode="&#x110;" d="M54 945h107v635h311q212 0 344.5 -114.5t132.5 -412.5v-525q0 -299 -132.5 -413.5t-344.5 -114.5h-311v710h-107v235zM671 503v575q0 152 -50.5 203t-139.5 51h-43v-387h108v-235h-108v-462h43q89 0 139.5 51.5t50.5 203.5z" />
<glyph unicode="&#x111;" d="M991 1256h-96v-1256h-278v131q-91 -151 -220 -151q-150 0 -231 112.5t-81 381.5v130q0 270 81 382.5t231 112.5q129 0 220 -152v309h-180v168h180v156h278v-156h96v-168zM617 351v376q-35 132 -128 132q-61 0 -93.5 -65t-32.5 -229v-52q0 -164 32.5 -229.5t93.5 -65.5 q92 0 128 133z" />
<glyph unicode="&#x112;" d="M834 1774h-571v176h571v-176zM944 0h-788v1490h788v-238h-510v-351h366v-238h-366v-425h510v-238z" />
<glyph unicode="&#x113;" d="M934 551h-532v-130q0 -101 31.5 -152t107.5 -51q111 0 177 110l209 -143q-135 -205 -397 -205q-180 0 -293 114t-113 382v221q0 268 113 382.5t293 114.5q179 0 291.5 -114t112.5 -383v-146zM658 729v43q0 100 -31 152t-97 52t-97.5 -52t-31.5 -152v-43h257zM816 1404 h-571v176h571v-176z" />
<glyph unicode="&#x114;" d="M828 1742q-121 -117 -298 -117q-178 0 -298 117v208q138 -136 298 -136q159 0 298 136v-208zM944 0h-788v1490h788v-238h-510v-351h366v-238h-366v-425h510v-238z" />
<glyph unicode="&#x115;" d="M934 551h-532v-130q0 -101 31.5 -152t107.5 -51q111 0 177 110l209 -143q-135 -205 -397 -205q-180 0 -293 114t-113 382v221q0 268 113 382.5t293 114.5q179 0 291.5 -114t112.5 -383v-146zM658 729v43q0 100 -31 152t-97 52t-97.5 -52t-31.5 -152v-43h257zM828 1392 q-121 -117 -298 -117q-178 0 -298 117v208q138 -136 298 -136q159 0 298 136v-208z" />
<glyph unicode="&#x116;" d="M695 1805q0 -61 -40 -103t-126 -42t-125.5 42t-39.5 103q0 62 39.5 103.5t125.5 41.5t126 -41.5t40 -103.5zM944 0h-788v1490h788v-238h-510v-351h366v-238h-366v-425h510v-238z" />
<glyph unicode="&#x117;" d="M934 551h-532v-130q0 -101 31.5 -152t107.5 -51q111 0 177 110l209 -143q-135 -205 -397 -205q-180 0 -293 114t-113 382v221q0 268 113 382.5t293 114.5q179 0 291.5 -114t112.5 -383v-146zM658 729v43q0 100 -31 152t-97 52t-97.5 -52t-31.5 -152v-43h257zM686 1435 q0 -61 -40 -103t-126 -42t-125.5 42t-39.5 103q0 62 39.5 103.5t125.5 41.5t126 -41.5t40 -103.5z" />
<glyph unicode="&#x118;" d="M955 0h-798v1580h788v-238h-510v-396h366v-238h-366v-470h520v-238zM966 -369q-226 -6 -301 50.5t-75 146.5q0 106 128 172h197q-121 -55 -121 -129q0 -52 51.5 -70t120.5 -11v-159z" />
<glyph unicode="&#x119;" d="M934 551h-532v-130q0 -101 31.5 -152t107.5 -51q111 0 177 110l209 -143q-135 -205 -397 -205q-180 0 -293 114t-113 382v221q0 268 113 382.5t293 114.5q179 0 291.5 -114t112.5 -383v-146zM658 729v43q0 100 -31 152t-97 52t-97.5 -52t-31.5 -152v-43h257zM727 -369 q-226 -6 -301 50.5t-75 146.5q0 106 128 172h197q-121 -55 -121 -129q0 -52 51.5 -70t120.5 -11v-159z" />
<glyph unicode="&#x11a;" d="M710 1705h-359l-183 245h225l138 -152l137 152h225zM944 0h-788v1490h788v-238h-510v-351h366v-238h-366v-425h510v-238z" />
<glyph unicode="&#x11b;" d="M934 551h-532v-130q0 -101 31.5 -152t107.5 -51q111 0 177 110l209 -143q-135 -205 -397 -205q-180 0 -293 114t-113 382v221q0 268 113 382.5t293 114.5q179 0 291.5 -114t112.5 -383v-146zM658 729v43q0 100 -31 152t-97 52t-97.5 -52t-31.5 -152v-43h257zM710 1335 h-359l-183 245h225l138 -152l137 152h225z" />
<glyph unicode="&#x11c;" d="M880 1705h-225l-137 152l-138 -152h-225l143 245h439zM935 507q0 -299 -113 -413t-292 -114t-292 114t-113 413v475q0 299 113 413.5t292 114.5q248 0 385 -216l-209 -143q-64 112 -168 112q-67 0 -101.5 -57t-34.5 -195v-540q0 -131 26.5 -188t102.5 -57t101 56.5 t25 188.5v142h-95v237h373v-343z" />
<glyph unicode="&#x11d;" d="M941 972h-61l-47 10q30 -57 30 -136q0 -136 -98.5 -226t-279.5 -90q-38 0 -78 1q-56 -56 -56 -107q0 -37 33 -54.5t95 -17.5h77q199 0 297 -98.5t98 -250.5q0 -170 -130 -274t-353 -104q-214 0 -314.5 101.5t-100.5 233.5q0 160 169 256q-122 67 -122 181q0 106 141 190 q-144 85 -144 267q0 154 102.5 244t286.5 90q44 0 103 -9q78 -7 352 -7v-200zM596 865q0 74 -30.5 108t-83.5 34t-85 -34t-32 -111q0 -85 32 -118t84 -33q55 0 85 33t30 121zM673 -7q0 67 -36.5 104t-104.5 37h-47q-72 0 -113.5 -40.5t-41.5 -110.5q0 -61 36.5 -101 t119.5 -40q187 0 187 151zM892 1335h-225l-137 152l-138 -152h-225l143 245h439z" />
<glyph unicode="&#x11e;" d="M828 1742q-121 -117 -298 -117q-178 0 -298 117v208q138 -136 298 -136q159 0 298 136v-208zM935 507q0 -299 -113 -413t-292 -114t-292 114t-113 413v475q0 299 113 413.5t292 114.5q248 0 385 -216l-209 -143q-64 112 -168 112q-67 0 -101.5 -57t-34.5 -195v-540 q0 -131 26.5 -188t102.5 -57t101 56.5t25 188.5v142h-95v237h373v-343z" />
<glyph unicode="&#x11f;" d="M941 972h-61l-47 10q30 -57 30 -136q0 -136 -98.5 -226t-279.5 -90q-38 0 -78 1q-56 -56 -56 -107q0 -37 33 -54.5t95 -17.5h77q199 0 297 -98.5t98 -250.5q0 -170 -130 -274t-353 -104q-214 0 -314.5 101.5t-100.5 233.5q0 160 169 256q-122 67 -122 181q0 106 141 190 q-144 85 -144 267q0 154 102.5 244t286.5 90q44 0 103 -9q78 -7 352 -7v-200zM596 865q0 74 -30.5 108t-83.5 34t-85 -34t-32 -111q0 -85 32 -118t84 -33q55 0 85 33t30 121zM673 -7q0 67 -36.5 104t-104.5 37h-47q-72 0 -113.5 -40.5t-41.5 -110.5q0 -61 36.5 -101 t119.5 -40q187 0 187 151zM828 1392q-121 -117 -298 -117q-178 0 -298 117v208q138 -136 298 -136q159 0 298 136v-208z" />
<glyph unicode="&#x120;" d="M695 1805q0 -61 -40 -103t-126 -42t-125.5 42t-39.5 103q0 62 39.5 103.5t125.5 41.5t126 -41.5t40 -103.5zM935 507q0 -299 -113 -413t-292 -114t-292 114t-113 413v475q0 299 113 413.5t292 114.5q248 0 385 -216l-209 -143q-64 112 -168 112q-67 0 -101.5 -57 t-34.5 -195v-540q0 -131 26.5 -188t102.5 -57t101 56.5t25 188.5v142h-95v237h373v-343z" />
<glyph unicode="&#x121;" d="M941 972h-61l-47 10q30 -57 30 -136q0 -136 -98.5 -226t-279.5 -90q-38 0 -78 1q-56 -56 -56 -107q0 -37 33 -54.5t95 -17.5h77q199 0 297 -98.5t98 -250.5q0 -170 -130 -274t-353 -104q-214 0 -314.5 101.5t-100.5 233.5q0 160 169 256q-122 67 -122 181q0 106 141 190 q-144 85 -144 267q0 154 102.5 244t286.5 90q44 0 103 -9q78 -7 352 -7v-200zM596 865q0 74 -30.5 108t-83.5 34t-85 -34t-32 -111q0 -85 32 -118t84 -33q55 0 85 33t30 121zM673 -7q0 67 -36.5 104t-104.5 37h-47q-72 0 -113.5 -40.5t-41.5 -110.5q0 -61 36.5 -101 t119.5 -40q187 0 187 151zM683 1435q0 -61 -40 -103t-126 -42t-125.5 42t-39.5 103q0 62 39.5 103.5t125.5 41.5t126 -41.5t40 -103.5z" />
<glyph unicode="&#x122;" d="M935 507q0 -299 -113 -413t-292 -114t-292 114t-113 413v567q0 299 113 413.5t292 114.5q248 0 385 -216l-209 -143q-64 112 -168 112q-67 0 -101.5 -57t-34.5 -195v-632q0 -131 26.5 -188t102.5 -57t101 56.5t25 188.5v187h-95v237h373v-388zM629 -159q0 -82 -77 -206 h-114q49 69 67 140q-33 1 -57 27t-24 61q0 34 24 60.5t75 26.5q46 0 76 -31.5t30 -77.5z" />
<glyph unicode="&#x123;" d="M941 972h-61l-47 10q30 -57 30 -136q0 -136 -98.5 -226t-279.5 -90q-38 0 -78 1q-56 -56 -56 -107q0 -37 33 -54.5t95 -17.5h77q199 0 297 -98.5t98 -250.5q0 -170 -130 -274t-353 -104q-214 0 -314.5 101.5t-100.5 233.5q0 160 169 256q-122 67 -122 181q0 106 141 190 q-144 85 -144 267q0 154 102.5 244t286.5 90q44 0 103 -9q78 -7 352 -7v-200zM596 865q0 74 -30.5 108t-83.5 34t-85 -34t-32 -111q0 -85 32 -118t84 -33q55 0 85 33t30 121zM673 -7q0 67 -36.5 104t-104.5 37h-47q-72 0 -113.5 -40.5t-41.5 -110.5q0 -61 36.5 -101 t119.5 -40q187 0 187 151zM320 1315l275 265h274l-219 -265h-330z" />
<glyph unicode="&#x124;" d="M892 1705h-225l-137 152l-138 -152h-225l143 245h439zM934 0h-278v685h-253v-685h-278v1490h278v-567h253v567h278v-1490z" />
<glyph unicode="&#x125;" d="M940 0h-278v738q0 132 -32.5 171.5t-93.5 39.5q-103 0 -128 -142v-807h-278v1580h278v-543q91 152 240 152q130 0 211 -97t81 -344v-748zM873 1705h-225l-137 152l-138 -152h-225l143 245h439z" />
<glyph unicode="&#x126;" d="M934 0h-278v690h-253v-690h-278v1185h-80v154h80v241h278v-241h253v241h278v-241h80v-154h-80v-1185zM656 928v257h-253v-257h253z" />
<glyph unicode="&#x127;" d="M605 1275h-192v-308q91 152 240 152q130 0 211 -97t81 -344v-678h-278v668q0 132 -32.5 171.5t-93.5 39.5q-103 0 -128 -142v-737h-278v1275h-101v154h101v151h278v-151h192v-154z" />
<glyph unicode="&#x128;" d="M906 1858q-115 -214 -243 -214q-50 0 -134.5 58.5t-122.5 58.5q-64 0 -126 -117l-127 92q115 214 243 214q50 0 134.5 -58.5t122.5 -58.5q64 0 126 117zM876 0h-692v228h207v1034h-164v228h606v-228h-164v-1034h207v-228z" />
<glyph unicode="&#x129;" d="M879 0h-699v228h211v716h-181v228h459v-944h210v-228zM857 1508q-115 -214 -243 -214q-50 0 -134.5 58.5t-122.5 58.5q-64 0 -126 -117l-127 92q115 214 243 214q50 0 134.5 -58.5t122.5 -58.5q64 0 126 117z" />
<glyph unicode="&#x12a;" d="M816 1774h-571v176h571v-176zM876 0h-692v228h207v1034h-164v228h606v-228h-164v-1034h207v-228z" />
<glyph unicode="&#x12b;" d="M879 0h-699v228h211v716h-181v228h459v-944h210v-228zM747 1404h-571v176h571v-176z" />
<glyph unicode="&#x12c;" d="M829 1742q-121 -117 -298 -117q-178 0 -298 117v208q138 -136 298 -136q159 0 298 136v-208zM876 0h-692v228h207v1034h-164v228h606v-228h-164v-1034h207v-228z" />
<glyph unicode="&#x12d;" d="M879 0h-699v228h211v716h-181v228h459v-944h210v-228zM790 1392q-121 -117 -298 -117q-178 0 -298 117v208q138 -136 298 -136q159 0 298 136v-208z" />
<glyph unicode="&#x12e;" d="M876 0h-692v228h207v1124h-164v228h606v-228h-164v-1124h207v-228zM671 -369q-226 -6 -301 50.5t-75 146.5q0 106 128 172h197q-121 -55 -121 -129q0 -52 51.5 -70t120.5 -11v-159z" />
<glyph unicode="&#x12f;" d="M674 1549q0 -76 -50.5 -126.5t-135.5 -50.5t-135 50.5t-50 126.5t50 127t135 51t135.5 -51t50.5 -127zM870 0h-699v228h211v716h-181v228h459v-944h210v-228zM671 -369q-226 -6 -301 50.5t-75 146.5q0 106 128 172h197q-121 -55 -121 -129q0 -52 51.5 -70t120.5 -11v-159 z" />
<glyph unicode="&#x130;" d="M695 1805q0 -61 -40 -103t-126 -42t-125.5 42t-39.5 103q0 62 39.5 103.5t125.5 41.5t126 -41.5t40 -103.5zM876 0h-692v228h207v1034h-164v228h606v-228h-164v-1034h207v-228z" />
<glyph unicode="&#x131;" d="M879 0h-699v228h211v716h-181v228h459v-944h210v-228z" />
<glyph unicode="&#x132;" d="M935 464q0 -256 -113 -370t-292 -114t-292 114t-113 370v130h278v-163q0 -109 29.5 -161t96.5 -52q66 0 97 52t31 161v1149h278v-1116zM403 764h-278v816h278v-816z" />
<glyph unicode="&#x133;" d="M442 1549q0 -67 -44 -111t-119 -44t-119 44t-44 111t44 111.5t119 44.5t119 -44.5t44 -111.5zM429 0h-277v1172h277v-1172zM632 26v1146h277v-1140q0 -210 -93 -308.5t-278 -98.5q-227 0 -350 185l210 120q39 -67 128 -67q48 0 77 35.5t29 127.5zM922 1549 q0 -67 -44 -111t-119 -44t-119 44t-44 111t44 111.5t119 44.5t119 -44.5t44 -111.5z" />
<glyph unicode="&#x134;" d="M962 1705h-225l-137 152l-138 -152h-225l143 245h439zM883 485q0 -277 -113 -391t-292 -114t-292 114t-113 391v221h278v-226q0 -141 30 -202.5t96 -61.5t97 62t31 202v1010h278v-1005z" />
<glyph unicode="&#x135;" d="M892 1335h-225l-137 152l-138 -152h-225l143 245h439zM496 26v918h-265v228h542v-1140q0 -210 -93 -308.5t-278 -98.5q-227 0 -350 185l210 120q39 -67 128 -67q49 0 77.5 35.5t28.5 127.5z" />
<glyph unicode="&#x136;" d="M458 1580v-659l141 207q104 153 129 380l8 72h276l-19 -160q-22 -200 -159 -403l-73 -107l97 -165q143 -243 174 -508l28 -237h-286l-21 176q-34 291 -136 463l-49 81l-110 -162v-558h-278v1580h278zM739 -159q0 -82 -77 -206h-114q49 69 67 140q-33 1 -57 27t-24 61 q0 34 24 60.5t75 26.5q46 0 76 -31.5t30 -77.5z" />
<glyph unicode="&#x137;" d="M1027 0h-276q-8 129 -192 422l-27 39l-82 -100v-361h-276v1580h276v-871l103 129q159 196 167 334h276l-2 -38q-9 -157 -232 -429l-54 -66l54 -81q255 -365 262 -517zM700 -159q0 -82 -77 -206h-114q49 69 67 140q-33 1 -57 27t-24 61q0 34 24 60.5t75 26.5 q46 0 76 -31.5t30 -77.5z" />
<glyph unicode="&#x138;" d="M1000 0h-276q-8 129 -192 422l-27 39l-82 -100v-361h-276v1172h276v-463l103 129q159 196 167 334h276l-2 -38q-9 -157 -232 -429l-54 -66l54 -81q255 -365 262 -517z" />
<glyph unicode="&#x139;" d="M421 1950h280l-236 -245h-224zM987 0h-788v1490h278v-1252h510v-238z" />
<glyph unicode="&#x13a;" d="M619 1950h280l-236 -245h-224zM890 0h-700v228h212v1034h-172v228h450v-1262h210v-228z" />
<glyph unicode="&#x13b;" d="M955 0h-788v1580h278v-1342h510v-238zM639 -159q0 -82 -77 -206h-114q49 69 67 140q-33 1 -57 27t-24 61q0 34 24 60.5t75 26.5q46 0 76 -31.5t30 -77.5z" />
<glyph unicode="&#x13c;" d="M900 0h-700v228h212v1124h-172v228h450v-1352h210v-228zM610 -159q0 -82 -77 -206h-114q49 69 67 140q-33 1 -57 27t-24 61q0 34 24 60.5t75 26.5q46 0 76 -31.5t30 -77.5z" />
<glyph unicode="&#x13d;" d="M955 0h-788v1580h278v-1342h510v-238zM906 1580l-69 -365h-185l44 365h210z" />
<glyph unicode="&#x13e;" d="M985 1580l-69 -365h-185l44 365h210zM791 0h-700v228h212v1124h-172v228h450v-1352h210v-228z" />
<glyph unicode="&#x13f;" d="M945 0h-788v1580h278v-1342h510v-238zM928 658q0 -61 -40 -103t-126 -42t-125.5 42t-39.5 103q0 62 39.5 103.5t125.5 41.5t126 -41.5t40 -103.5z" />
<glyph unicode="&#x140;" d="M791 0h-700v228h212v1124h-172v228h450v-1352h210v-228zM1008 658q0 -61 -40 -103t-126 -42t-125.5 42t-39.5 103q0 62 39.5 103.5t125.5 41.5t126 -41.5t40 -103.5z" />
<glyph unicode="&#x141;" d="M1027 0h-788v483l10 204l-101 -117l-132 137l223 183v690h278v-297l-10 -204l133 141l132 -137l-255 -211v-634h510v-238z" />
<glyph unicode="&#x142;" d="M927 1083l-247 -205v-640h210v-238h-700v238h212v259l10 180l-129 -127l-151 157l270 223v412h-172v238h450v-269l-10 -180l106 109z" />
<glyph unicode="&#x143;" d="M629 1950h280l-236 -245h-224zM914 0h-264l-312 980q33 -330 33 -703v-277h-226v1490h266l310 -980q-33 330 -33 703v277h226v-1490z" />
<glyph unicode="&#x144;" d="M940 0h-278v750q0 120 -32.5 159.5t-93.5 39.5q-103 0 -128 -142v-807h-278v1172h278v-135q91 152 240 152q130 0 211 -97t81 -342v-750zM679 1580h280l-236 -245h-224z" />
<glyph unicode="&#x145;" d="M918 0h-266l-310 1000q33 -350 33 -723v-277h-226v1580h266l310 -1000q-33 350 -33 723v277h226v-1580zM629 -159q0 -82 -77 -206h-114q49 69 67 140q-33 1 -57 27t-24 61q0 34 24 60.5t75 26.5q46 0 76 -31.5t30 -77.5z" />
<glyph unicode="&#x146;" d="M940 0h-278v750q0 120 -32.5 159.5t-93.5 39.5q-103 0 -128 -142v-807h-278v1172h278v-135q91 152 240 152q130 0 211 -97t81 -342v-750zM629 -159q0 -82 -77 -206h-114q49 69 67 140q-33 1 -57 27t-24 61q0 34 24 60.5t75 26.5q46 0 76 -31.5t30 -77.5z" />
<glyph unicode="&#x147;" d="M709 1705h-359l-183 245h225l138 -152l137 152h225zM914 0h-264l-312 980q33 -330 33 -703v-277h-226v1490h266l310 -980q-33 330 -33 703v277h226v-1490z" />
<glyph unicode="&#x148;" d="M940 0h-278v750q0 120 -32.5 159.5t-93.5 39.5q-103 0 -128 -142v-807h-278v1172h278v-135q91 152 240 152q130 0 211 -97t81 -342v-750zM701 1335h-359l-183 245h225l138 -152l137 152h225z" />
<glyph unicode="&#x149;" d="M945 0h-278v750q0 120 -27.5 159.5t-78.5 39.5q-83 0 -108 -142v-807h-278v1172h278v-135q81 152 220 152q120 0 196 -97t76 -342v-750zM317 1580l-68 -257h-182l43 257h207z" />
<glyph unicode="&#x14a;" d="M934 32q0 -207 -90 -301t-259 -94h-113v236h52q67 0 99.5 37t32.5 122v446l-278 608l25 -732v-354h-278v1580h233l322 -703l-24 478v225h278v-1548z" />
<glyph unicode="&#x14b;" d="M657 750q0 120 -32.5 159.5t-93.5 39.5q-103 0 -128 -142v-807h-278v1172h278v-135q91 152 241 152q129 0 210 -97t81 -342v-698q0 -237 -93.5 -326t-262.5 -89h-94v218h31q76 0 108 37t32 125z" />
<glyph unicode="&#x14c;" d="M816 1774h-571v176h571v-176zM938 507q0 -299 -113 -413t-295 -114t-295 114t-113 413v475q0 299 113 413.5t295 114.5t295 -114.5t113 -413.5v-475zM660 473v543q0 132 -26 189t-105 57t-104 -56.5t-25 -189.5v-543q0 -131 26 -188t105 -57t104 56.5t25 188.5z" />
<glyph unicode="&#x14d;" d="M935 475q0 -268 -112.5 -381.5t-291.5 -113.5t-292 113.5t-113 381.5v222q0 269 113 383t292 114t291.5 -114t112.5 -383v-222zM657 472v222q0 159 -30 210.5t-96 51.5t-96.5 -51.5t-30.5 -210.5v-222q0 -151 30.5 -202.5t96.5 -51.5t96 51.5t30 202.5zM816 1404h-571 v176h571v-176z" />
<glyph unicode="&#x14e;" d="M828 1742q-121 -117 -298 -117q-178 0 -298 117v208q138 -136 298 -136q159 0 298 136v-208zM938 507q0 -299 -113 -413t-295 -114t-295 114t-113 413v475q0 299 113 413.5t295 114.5t295 -114.5t113 -413.5v-475zM660 473v543q0 132 -26 189t-105 57t-104 -56.5 t-25 -189.5v-543q0 -131 26 -188t105 -57t104 56.5t25 188.5z" />
<glyph unicode="&#x14f;" d="M934 475q0 -268 -112.5 -381.5t-291.5 -113.5t-292 113.5t-113 381.5v222q0 269 113 383t292 114t291.5 -114t112.5 -383v-222zM656 472v222q0 159 -30 210.5t-96 51.5t-96.5 -51.5t-30.5 -210.5v-222q0 -151 30.5 -202.5t96.5 -51.5t96 51.5t30 202.5zM828 1392 q-121 -117 -298 -117q-178 0 -298 117v208q138 -136 298 -136q159 0 298 136v-208z" />
<glyph unicode="&#x150;" d="M1086 1950l-276 -305h-184l219 305h241zM713 1950l-275 -305h-185l220 305h240zM938 507q0 -299 -113 -413t-295 -114t-295 114t-113 413v475q0 299 113 413.5t295 114.5t295 -114.5t113 -413.5v-475zM660 473v543q0 132 -26 189t-105 57t-104 -56.5t-25 -189.5v-543 q0 -131 26 -188t105 -57t104 56.5t25 188.5z" />
<glyph unicode="&#x151;" d="M934 475q0 -268 -112.5 -381.5t-291.5 -113.5t-292 113.5t-113 381.5v222q0 269 113 383t292 114t291.5 -114t112.5 -383v-222zM656 472v222q0 159 -30 210.5t-96 51.5t-96.5 -51.5t-30.5 -210.5v-222q0 -151 30.5 -202.5t96.5 -51.5t96 51.5t30 202.5zM1076 1580 l-276 -305h-184l219 305h241zM703 1580l-275 -305h-185l220 305h240z" />
<glyph unicode="&#x152;" d="M1005 0h-494q-229 0 -342 114.5t-113 325.5v700q0 211 113 325.5t342 114.5h494v-236h-251v-399h209v-237h-209v-471h251v-237zM498 237v1107h-38q-76 0 -111.5 -51.5t-35.5 -189.5v-625q0 -137 36.5 -189t112.5 -52h36z" />
<glyph unicode="&#x153;" d="M1020 506h-367v-181q0 -125 81 -125q64 0 88 101l186 -127q-83 -194 -259 -194q-144 0 -215 136q-72 -136 -223 -136q-119 0 -195.5 85.5t-76.5 309.5v422q0 225 76.5 311t195.5 86q151 0 223 -131q70 131 215 131q119 0 195 -86t76 -311v-291zM793 687v167 q0 119 -69 119q-71 0 -71 -119v-167h140zM406 339v490q0 144 -69 144q-71 0 -71 -139v-495q0 -139 71 -139q69 0 69 139z" />
<glyph unicode="&#x154;" d="M589 1950h280l-236 -245h-224zM991 0h-275l-4 57q-29 397 -166 584h-111v-641h-278v1490h405q190 0 292.5 -109t102.5 -316q0 -272 -177 -373q180 -245 207 -622zM678 1065q0 85 -30.5 137t-117.5 52h-95v-377h95q87 0 117.5 52t30.5 136z" />
<glyph unicode="&#x155;" d="M1040 974l-264 -120q-39 95 -108 95q-148 0 -148 -246v-703h-278v1172h278v-135q94 157 250 157q165 0 270 -220zM670 1580h280l-236 -245h-224z" />
<glyph unicode="&#x156;" d="M979 0h-282l-9 137q-23 353 -166 549h-99v-686h-278v1580h405q190 0 292.5 -109t102.5 -343q0 -280 -181 -386q184 -250 205 -569zM666 1128q0 112 -30.5 164t-117.5 52h-95v-422h95q87 0 117.5 52t30.5 154zM659 -159q0 -82 -77 -206h-114q49 69 67 140q-33 1 -57 27 t-24 61q0 34 24 60.5t75 26.5q46 0 76 -31.5t30 -77.5z" />
<glyph unicode="&#x157;" d="M1040 974l-264 -120q-39 95 -108 95q-148 0 -148 -246v-703h-278v1172h278v-135q94 157 250 157q165 0 270 -220zM436 -159q0 -82 -77 -206h-114q49 69 67 140q-33 1 -57 27t-24 61q0 34 24 60.5t75 26.5q46 0 76 -31.5t30 -77.5z" />
<glyph unicode="&#x158;" d="M680 1705h-359l-183 245h225l138 -152l137 152h225zM991 0h-275l-4 57q-29 397 -166 584h-111v-641h-278v1490h405q190 0 292.5 -109t102.5 -316q0 -272 -177 -373q180 -245 207 -622zM678 1065q0 85 -30.5 137t-117.5 52h-95v-377h95q87 0 117.5 52t30.5 136z" />
<glyph unicode="&#x159;" d="M1040 974l-264 -120q-39 95 -108 95q-148 0 -148 -246v-703h-278v1172h278v-135q94 157 250 157q165 0 270 -220zM750 1335h-359l-183 245h225l138 -152l137 152h225z" />
<glyph unicode="&#x15a;" d="M649 1950h280l-236 -245h-224zM980 399q0 -181 -112 -300t-334 -119q-267 0 -424 250l209 143q94 -147 224 -147q76 0 118 39.5t42 112.5q0 82 -90 156l-291 236q-162 132 -162 320q0 191 109.5 305.5t294.5 114.5q240 0 387 -206l-209 -143q-83 102 -167 102 q-65 0 -101.5 -36t-36.5 -104q0 -71 90 -144l273 -222q180 -146 180 -358z" />
<glyph unicode="&#x15b;" d="M968 326q0 -150 -103 -248t-313 -98q-264 0 -420 239l191 131q80 -143 221 -143q146 0 146 121q0 66 -82 106l-177 86q-230 115 -230 321q0 164 103.5 258.5t281.5 94.5q230 0 376 -217l-193 -132q-64 121 -173 121q-53 0 -85.5 -28.5t-32.5 -78.5q0 -76 90 -120l149 -73 q251 -123 251 -340zM669 1580h280l-236 -245h-224z" />
<glyph unicode="&#x15c;" d="M922 1705h-225l-137 152l-138 -152h-225l143 245h439zM980 399q0 -181 -112 -300t-334 -119q-267 0 -424 250l209 143q94 -147 224 -147q76 0 118 39.5t42 112.5q0 82 -90 156l-291 236q-162 132 -162 320q0 191 109.5 305.5t294.5 114.5q240 0 387 -206l-209 -143 q-83 102 -167 102q-65 0 -101.5 -36t-36.5 -104q0 -71 90 -144l273 -222q180 -146 180 -358z" />
<glyph unicode="&#x15d;" d="M968 326q0 -150 -103 -248t-313 -98q-264 0 -420 239l191 131q80 -143 221 -143q146 0 146 121q0 66 -82 106l-177 86q-230 115 -230 321q0 164 103.5 258.5t281.5 94.5q230 0 376 -217l-193 -132q-64 121 -173 121q-53 0 -85.5 -28.5t-32.5 -78.5q0 -76 90 -120l149 -73 q251 -123 251 -340zM935 1335h-225l-137 152l-138 -152h-225l143 245h439z" />
<glyph unicode="&#x15e;" d="M979 399q0 -181 -112 -300t-334 -119q-267 0 -424 250l209 143q94 -147 224 -147q76 0 118 39.5t42 112.5q0 78 -73 151l-324 324q-146 144 -146 329q0 191 109.5 305.5t294.5 114.5q240 0 387 -206l-209 -143q-83 102 -167 102q-65 0 -101.5 -36t-36.5 -114 q0 -74 75 -147l301 -300q167 -156 167 -359zM339 -241q146 -10 146 46q0 53 -81 46l49 99q246 -8 246 -144q0 -82 -67 -131.5t-293 -49.5v134z" />
<glyph unicode="&#x15f;" d="M968 326q0 -150 -103 -248t-313 -98q-264 0 -420 239l191 131q80 -143 221 -143q146 0 146 121q0 66 -82 106l-177 86q-230 115 -230 321q0 164 103.5 258.5t281.5 94.5q230 0 376 -217l-193 -132q-64 121 -173 121q-53 0 -85.5 -28.5t-32.5 -78.5q0 -76 90 -120l149 -73 q251 -123 251 -340zM349 -241q146 -10 146 46q0 53 -81 46l49 99q246 -8 246 -144q0 -82 -67 -131.5t-293 -49.5v134z" />
<glyph unicode="&#x160;" d="M743 1705h-359l-183 245h225l138 -152l137 152h225zM980 399q0 -181 -112 -300t-334 -119q-267 0 -424 250l209 143q94 -147 224 -147q76 0 118 39.5t42 112.5q0 82 -90 156l-291 236q-162 132 -162 320q0 191 109.5 305.5t294.5 114.5q240 0 387 -206l-209 -143 q-83 102 -167 102q-65 0 -101.5 -36t-36.5 -104q0 -71 90 -144l273 -222q180 -146 180 -358z" />
<glyph unicode="&#x161;" d="M948 326q0 -150 -103 -248t-313 -98q-264 0 -420 239l191 131q80 -143 221 -143q146 0 146 121q0 66 -82 106l-177 86q-230 115 -230 321q0 164 103.5 258.5t281.5 94.5q230 0 376 -217l-193 -132q-64 121 -173 121q-53 0 -85.5 -28.5t-32.5 -78.5q0 -76 90 -120l149 -73 q251 -123 251 -340zM737 1335h-359l-183 245h225l138 -152l137 152h225z" />
<glyph unicode="&#x162;" d="M964 1342h-295v-1342h-278v1342h-295v238h868v-238zM629 -159q0 -82 -77 -206h-114q49 69 67 140q-33 1 -57 27t-24 61q0 34 24 60.5t75 26.5q46 0 76 -31.5t30 -77.5z" />
<glyph unicode="&#x163;" d="M981 154q-133 -174 -329 -174q-197 0 -290 98t-93 299v567h-156v228h156v408h278v-408h355v-228h-355v-587q0 -75 26 -107t79 -32q63 0 120 79zM739 -159q0 -82 -77 -206h-114q49 69 67 140q-33 1 -57 27t-24 61q0 34 24 60.5t75 26.5q46 0 76 -31.5t30 -77.5z" />
<glyph unicode="&#x164;" d="M709 1705h-359l-183 245h225l138 -152l137 152h225zM964 1252h-295v-1252h-278v1252h-295v238h868v-238z" />
<glyph unicode="&#x165;" d="M925 154q-133 -174 -329 -174q-197 0 -290 98t-93 299v566h-136v229h136v408h278v-408h265v-229h-265v-586q0 -75 26 -107t79 -32q63 0 120 79zM995 1580l-69 -365h-185l44 365h210z" />
<glyph unicode="&#x166;" d="M964 1342h-295v-406h266v-177h-266v-759h-278v759h-266v177h266v406h-295v238h868v-238z" />
<glyph unicode="&#x167;" d="M985 154q-133 -174 -329 -174q-197 0 -290 98t-93 299v218h-156v177h156v171h-156v229h156v408h278v-408h355v-229h-355v-171h355v-177h-355v-238q0 -75 26 -107t79 -32q63 0 120 79z" />
<glyph unicode="&#x168;" d="M906 1858q-115 -214 -243 -214q-50 0 -134.5 58.5t-122.5 58.5q-64 0 -126 -117l-127 92q115 214 243 214q50 0 134.5 -58.5t122.5 -58.5q64 0 126 117zM935 464q0 -256 -113 -370t-292 -114t-292 114t-113 370v1026h278v-1059q0 -109 29.5 -161t96.5 -52q66 0 97 52 t31 161v1059h278v-1026z" />
<glyph unicode="&#x169;" d="M935 0h-278v135q-91 -152 -240 -152q-130 0 -211 97t-81 342v750h278v-750q0 -120 32.5 -159.5t93.5 -39.5q103 0 128 142v807h278v-1172zM906 1508q-115 -214 -243 -214q-50 0 -134.5 58.5t-122.5 58.5q-64 0 -126 -117l-127 92q115 214 243 214q50 0 134.5 -58.5 t122.5 -58.5q64 0 126 117z" />
<glyph unicode="&#x16a;" d="M816 1774h-571v176h571v-176zM935 464q0 -256 -113 -370t-292 -114t-292 114t-113 370v1026h278v-1059q0 -109 29.5 -161t96.5 -52q66 0 97 52t31 161v1059h278v-1026z" />
<glyph unicode="&#x16b;" d="M935 0h-278v135q-91 -152 -240 -152q-130 0 -211 97t-81 342v750h278v-750q0 -120 32.5 -159.5t93.5 -39.5q103 0 128 142v807h278v-1172zM816 1404h-571v176h571v-176z" />
<glyph unicode="&#x16c;" d="M828 1742q-121 -117 -298 -117q-178 0 -298 117v208q138 -136 298 -136q159 0 298 136v-208zM935 464q0 -256 -113 -370t-292 -114t-292 114t-113 370v1026h278v-1059q0 -109 29.5 -161t96.5 -52q66 0 97 52t31 161v1059h278v-1026z" />
<glyph unicode="&#x16d;" d="M935 0h-278v135q-91 -152 -240 -152q-130 0 -211 97t-81 342v750h278v-750q0 -120 32.5 -159.5t93.5 -39.5q103 0 128 142v807h278v-1172zM828 1392q-121 -117 -298 -117q-178 0 -298 117v208q138 -136 298 -136q159 0 298 136v-208z" />
<glyph unicode="&#x16e;" d="M794 1848q0 -102 -71.5 -173.5t-193.5 -71.5t-193 71.5t-71 173.5t71 173t193 71t193.5 -71t71.5 -173zM630 1848q0 46 -27 73t-74 27q-46 0 -73 -27t-27 -73t27 -73.5t73 -27.5t73.5 28t27.5 73zM935 464q0 -256 -113 -370t-292 -114t-292 114t-113 370v1026h278v-1059 q0 -109 29.5 -161t96.5 -52q66 0 97 52t31 161v1059h278v-1026z" />
<glyph unicode="&#x16f;" d="M935 0h-278v135q-91 -152 -240 -152q-130 0 -211 97t-81 342v750h278v-750q0 -120 32.5 -159.5t93.5 -39.5q103 0 128 142v807h278v-1172zM794 1498q0 -102 -71.5 -173.5t-193.5 -71.5t-193 71.5t-71 173.5t71 173t193 71t193.5 -71t71.5 -173zM630 1498q0 46 -27 73 t-74 27q-46 0 -73 -27t-27 -73t27 -73.5t73 -27.5t73.5 28t27.5 73z" />
<glyph unicode="&#x170;" d="M1066 1950l-276 -305h-184l219 305h241zM693 1950l-275 -305h-185l220 305h240zM935 464q0 -256 -113 -370t-292 -114t-292 114t-113 370v1026h278v-1059q0 -109 29.5 -161t96.5 -52q66 0 97 52t31 161v1059h278v-1026z" />
<glyph unicode="&#x171;" d="M935 0h-278v135q-91 -152 -240 -152q-130 0 -211 97t-81 342v750h278v-750q0 -120 32.5 -159.5t93.5 -39.5q103 0 128 142v807h278v-1172zM1066 1580l-276 -305h-184l219 305h241zM693 1580l-275 -305h-185l220 305h240z" />
<glyph unicode="&#x172;" d="M935 464q0 -254 -111.5 -369t-293.5 -115t-293.5 115t-111.5 369v1116h278v-1139q0 -124 31 -168.5t95 -44.5q63 0 95.5 44.5t32.5 168.5v1139h278v-1116zM691 -369q-226 -6 -301 50.5t-75 146.5q0 106 128 172h197q-121 -55 -121 -129q0 -52 51.5 -70t120.5 -11v-159z " />
<glyph unicode="&#x173;" d="M935 0h-278v135q-91 -152 -240 -152q-130 0 -211 97t-81 342v750h278v-750q0 -120 32.5 -159.5t93.5 -39.5q103 0 128 142v807h278v-1172zM963 -369q-226 -6 -301 50.5t-75 146.5q0 106 128 172h197q-121 -55 -121 -129q0 -52 51.5 -70t120.5 -11v-159z" />
<glyph unicode="&#x174;" d="M892 1705h-225l-137 152l-138 -152h-225l143 245h439zM586 914l131 -636v1212h258v-291q0 -379 -50 -731l-66 -468h-217l-112 532l-112 -532h-217l-66 468q-50 352 -50 731v291h258v-1212l131 636h112z" />
<glyph unicode="&#x175;" d="M725 199v973h270v-155q0 -221 -66 -540l-99 -477h-193l-107 595l-107 -595h-193l-99 477q-66 319 -66 540v155h270v-973l97 538h196zM892 1335h-225l-137 152l-138 -152h-225l143 245h439z" />
<glyph unicode="&#x176;" d="M892 1705h-225l-137 152l-138 -152h-225l143 245h439zM530 843l74 146q76 149 90 428l2 73h276l-2 -73q-14 -287 -147 -547l-154 -301v-569h-278v569l-154 301q-133 260 -147 547l-2 73h276l2 -73q14 -279 90 -428z" />
<glyph unicode="&#x177;" d="M230 -365l2 38q8 128 69 285l101 262l-215 538q-78 196 -86 324l-5 90h276l5 -84q11 -185 51 -289l102 -264l94 264q50 128 59 289l5 84h276l-6 -90q-7 -128 -83 -324l-310 -805q-47 -122 -57 -280l-2 -38h-276zM892 1335h-225l-137 152l-138 -152h-225l143 245h439z" />
<glyph unicode="&#x178;" d="M342 1700q-56 0 -93 37t-37 89q0 51 37 87.5t93 36.5t93 -36.5t37 -87.5q0 -52 -37 -89t-93 -37zM719 1700q-56 0 -93 37t-37 89q0 51 37 87.5t93 36.5t93 -36.5t37 -87.5q0 -52 -37 -89t-93 -37zM530 843l74 146q76 149 90 428l2 73h276l-2 -73q-14 -287 -147 -547 l-154 -301v-569h-278v569l-154 301q-133 260 -147 547l-2 73h276l2 -73q14 -279 90 -428z" />
<glyph unicode="&#x179;" d="M629 1950h280l-236 -245h-224zM916 1490v-150q0 -268 -122 -449l-277 -407q-68 -101 -68 -246h477v-238h-752v150q0 264 122 447l277 409q68 98 68 246h-457v238h732z" />
<glyph unicode="&#x17a;" d="M897 0h-772v188q0 175 143 347l201 238q88 106 88 161h-422v238h732v-160q0 -149 -121 -305l-212 -272q-98 -127 -98 -197h461v-238zM589 1580h280l-236 -245h-224z" />
<glyph unicode="&#x17b;" d="M715 1805q0 -61 -40 -103t-126 -42t-125.5 42t-39.5 103q0 62 39.5 103.5t125.5 41.5t126 -41.5t40 -103.5zM916 1490v-150q0 -268 -122 -449l-277 -407q-68 -101 -68 -246h477v-238h-752v150q0 264 122 447l277 409q68 98 68 246h-457v238h732z" />
<glyph unicode="&#x17c;" d="M897 0h-772v188q0 175 143 347l201 238q88 106 88 161h-422v238h732v-160q0 -149 -121 -305l-212 -272q-98 -127 -98 -197h461v-238zM692 1435q0 -61 -40 -103t-126 -42t-125.5 42t-39.5 103q0 62 39.5 103.5t125.5 41.5t126 -41.5t40 -103.5z" />
<glyph unicode="&#x17d;" d="M709 1705h-359l-183 245h225l138 -152l137 152h225zM916 1490v-150q0 -268 -122 -449l-277 -407q-68 -101 -68 -246h477v-238h-752v150q0 264 122 447l277 409q68 98 68 246h-457v238h732z" />
<glyph unicode="&#x17e;" d="M916 0h-772v188q0 175 143 347l201 238q88 106 88 161h-422v238h732v-160q0 -149 -121 -305l-212 -272q-98 -127 -98 -197h461v-238zM709 1335h-359l-183 245h225l138 -152l137 152h225z" />
<glyph unicode="&#x17f;" d="M785 1316q-34 57 -93 57q-44 0 -70.5 -33t-26.5 -110v-1230h-279v879h-177v228h177v127q0 180 98 273.5t253 93.5q207 0 327 -142z" />
<glyph unicode="&#x237;" d="M496 26v918h-265v228h542v-1140q0 -210 -93 -308.5t-278 -98.5q-227 0 -350 185l210 120q39 -67 128 -67q49 0 77.5 35.5t28.5 127.5z" />
<glyph unicode="&#x2c6;" d="M892 1335h-225l-137 152l-138 -152h-225l143 245h439z" />
<glyph unicode="&#x2c7;" d="M709 1335h-359l-183 245h225l138 -152l137 152h225z" />
<glyph unicode="&#x2d8;" d="M828 1392q-121 -117 -298 -117q-178 0 -298 117v208q138 -136 298 -136q159 0 298 136v-208z" />
<glyph unicode="&#x2d9;" d="M695 1435q0 -61 -40 -103t-126 -42t-125.5 42t-39.5 103q0 62 39.5 103.5t125.5 41.5t126 -41.5t40 -103.5z" />
<glyph unicode="&#x2da;" d="M794 1498q0 -102 -71.5 -173.5t-193.5 -71.5t-193 71.5t-71 173.5t71 173t193 71t193.5 -71t71.5 -173zM630 1498q0 46 -27 73t-74 27q-46 0 -73 -27t-27 -73t27 -73.5t73 -27.5t73.5 28t27.5 73z" />
<glyph unicode="&#x2db;" d="M720 -369q-226 -6 -301 50.5t-75 146.5q0 106 128 172h197q-121 -55 -121 -129q0 -52 51.5 -70t120.5 -11v-159z" />
<glyph unicode="&#x2dc;" d="M906 1508q-115 -214 -243 -214q-50 0 -134.5 58.5t-122.5 58.5q-64 0 -126 -117l-127 92q115 214 243 214q50 0 134.5 -58.5t122.5 -58.5q64 0 126 117z" />
<glyph unicode="&#x2dd;" d="M946 1580l-276 -305h-184l219 305h241zM573 1580l-275 -305h-185l220 305h240z" />
<glyph unicode="&#x315;" d="M1085 1580l-69 -365h-185l44 365h210z" />
<glyph unicode="&#x37e;" d="M763 998q0 -111 -67 -172.5t-167 -61.5t-166.5 61.5t-66.5 172.5q0 110 66 171.5t167 61.5q100 0 167 -62t67 -171zM763 175q0 -211 -192 -540h-243q124 181 177 365q-83 3 -146 59.5t-63 155.5q0 110 63.5 171.5t159.5 61.5q115 0 179.5 -72t64.5 -201z" />
<glyph unicode="&#x384;" d="M689 1580l-135 -295h-184l69 295h250z" />
<glyph unicode="&#x385;" d="M719 1580l-177 -277h-170l98 277h249zM334 1422q0 -46 -33 -80.5t-84 -34.5q-50 0 -82.5 34.5t-32.5 80.5q0 47 32.5 81t82.5 34q51 0 84 -34t33 -81zM952 1422q0 -46 -32.5 -80.5t-83.5 -34.5q-50 0 -82.5 34.5t-32.5 80.5q0 47 32.5 81t82.5 34q51 0 83.5 -34t32.5 -81 z" />
<glyph unicode="&#x386;" d="M419 88v-88h-276v88q0 228 79 573l199 919h318l199 -919q79 -345 79 -573v-88h-276v88q0 122 -17 260h-288q-17 -138 -17 -260zM580 1166l-104 -581h208zM279 1580l-85 -345h-134l20 345h199z" />
<glyph unicode="&#x388;" d="M1004 0h-681v1580h671v-238h-393v-396h249v-238h-249v-470h403v-238zM249 1580l-85 -345h-134l20 345h199z" />
<glyph unicode="&#x389;" d="M934 0h-266v730h-117v-730h-266v1580h266v-614h117v614h266v-1580zM249 1580l-85 -345h-134l20 345h199z" />
<glyph unicode="&#x38a;" d="M967 0h-695v238h209v1104h-166v238h609v-238h-166v-1104h209v-238zM249 1580l-85 -345h-134l20 345h199z" />
<glyph unicode="&#x38c;" d="M973 427q0 -229 -105.5 -338t-262.5 -109t-262.5 109t-105.5 338v727q0 229 105.5 338.5t262.5 109.5t262.5 -109.5t105.5 -338.5v-727zM696 391v798q0 176 -91 176t-91 -176v-798q0 -175 91 -175t91 175zM249 1580l-85 -345h-134l20 345h199z" />
<glyph unicode="&#x38e;" d="M249 1580l-85 -345h-134l20 345h199zM779 0h-278v673l-105 310q-108 317 -108 524v73h276v-73q0 -138 24 -265l52 -277l52 277q24 127 24 265v73h276v-73q0 -207 -108 -524l-105 -310v-673z" />
<glyph unicode="&#x38f;" d="M605 1365q-91 0 -91 -176v-615q0 -171 40 -209v-365h-329v238h149q-137 121 -137 386v530q0 229 105.5 338.5t262.5 109.5t262.5 -109.5t105.5 -338.5v-530q0 -265 -137 -386h149v-238h-329v365q40 38 40 209v615q0 176 -91 176zM249 1580l-85 -345h-134l20 345h199z" />
<glyph unicode="&#x390;" d="M304 367v577h-203v228h481v-825q0 -79 29.5 -104t65.5 -25q63 0 120 79l209 -143q-143 -175 -329 -175q-183 0 -278 95t-95 293zM719 1580l-177 -277h-170l98 277h249zM334 1422q0 -46 -33 -80.5t-84 -34.5q-50 0 -82.5 34.5t-32.5 80.5q0 47 32.5 81t82.5 34 q51 0 84 -34t33 -81zM952 1422q0 -46 -32.5 -80.5t-83.5 -34.5q-50 0 -82.5 34.5t-32.5 80.5q0 47 32.5 81t82.5 34q51 0 83.5 -34t32.5 -81z" />
<glyph unicode="&#x391;" d="M359 88v-88h-276v88q0 228 79 573l209 919h318l209 -919q79 -345 79 -573v-88h-276v88q0 122 -17 260h-308q-17 -138 -17 -260zM530 1166l-114 -581h228z" />
<glyph unicode="&#x392;" d="M957 480q0 -262 -113 -371t-294 -109h-406v1580h364q202 0 304 -109t102 -292q0 -131 -58 -214t-137 -106q128 -45 183 -128.5t55 -250.5zM636 1179q0 91 -36 128t-114 37h-64v-378h74q67 0 103.5 47t36.5 166zM679 480q0 156 -41 203t-118 47h-98v-493h107 q67 0 108.5 41.5t41.5 201.5z" />
<glyph unicode="&#x393;" d="M953 1342h-459v-1342h-278v1580h737v-238z" />
<glyph unicode="&#x394;" d="M83 88q0 228 79 573l209 919h318l209 -919q79 -345 79 -573v-88h-894v88zM530 1166l-118 -602q-37 -199 -48 -326h332q-12 127 -48 326z" />
<glyph unicode="&#x395;" d="M955 0h-798v1580h788v-238h-510v-396h366v-238h-366v-470h520v-238z" />
<glyph unicode="&#x396;" d="M916 1580v-150q0 -244 -112 -443l-287 -503q-68 -123 -68 -246h477v-238h-752v150q0 244 112 443l287 503q68 123 68 246h-457v238h732z" />
<glyph unicode="&#x397;" d="M934 0h-278v730h-253v-730h-278v1580h278v-612h253v612h278v-1580z" />
<glyph unicode="&#x398;" d="M590 725h-120v258h120v-258zM122 507v567q0 299 110.5 413.5t297.5 114.5t297.5 -114.5t110.5 -413.5v-567q0 -299 -110.5 -413t-297.5 -114t-297.5 114t-110.5 413zM400 473q0 -156 32.5 -200.5t98.5 -44.5q64 0 96.5 44.5t32.5 200.5v635q0 157 -32.5 201.5t-98.5 44.5 q-64 0 -96.5 -44.5t-32.5 -201.5v-635z" />
<glyph unicode="&#x399;" d="M876 0h-692v228h207v1124h-164v228h606v-228h-164v-1124h207v-228z" />
<glyph unicode="&#x39a;" d="M418 1580v-659l141 207q104 153 129 380l8 72h276l-19 -160q-22 -200 -159 -403l-73 -107l97 -165q143 -243 174 -508l28 -237h-286l-21 176q-34 291 -136 463l-49 81l-110 -162v-558h-278v1580h278z" />
<glyph unicode="&#x39b;" d="M530 1166l-118 -602q-53 -268 -53 -476v-88h-276v88q0 228 79 573l209 919h318l209 -919q79 -345 79 -573v-88h-276v88q0 208 -53 476z" />
<glyph unicode="&#x39c;" d="M530 1053l159 527h255v-1580h-255v247q0 414 80 1099l-184 -606h-110l-184 606q80 -685 80 -1099v-247h-255v1580h255z" />
<glyph unicode="&#x39d;" d="M918 0h-266l-310 1000q33 -350 33 -723v-277h-226v1580h266l310 -1000q-33 350 -33 723v277h226v-1580z" />
<glyph unicode="&#x39e;" d="M862 946v-238h-664v238h664zM954 0h-848v238h848v-238zM106 1580h848v-238h-848v238z" />
<glyph unicode="&#x39f;" d="M938 507q0 -297 -110.5 -412t-297.5 -115t-297.5 115t-110.5 412v568q0 298 110.5 412.5t297.5 114.5t297.5 -114.5t110.5 -412.5v-568zM660 473v635q0 157 -32.5 201.5t-98.5 44.5q-64 0 -96.5 -44.5t-32.5 -201.5v-635q0 -156 32.5 -200.5t98.5 -44.5q64 0 96.5 44.5 t32.5 200.5z" />
<glyph unicode="&#x3a0;" d="M126 1580h808v-1580h-278v1342h-252v-1342h-278v1580z" />
<glyph unicode="&#x3a1;" d="M1006 1108q0 -172 -113 -286.5t-293 -114.5h-126v-707h-278v1580h404q201 0 303.5 -114.5t102.5 -285.5v-72zM728 1117v54q0 69 -31.5 121t-118.5 52h-104v-400h104q77 0 113.5 47t36.5 126z" />
<glyph unicode="&#x3a3;" d="M464 806l-180 222q-113 142 -113 331v221h758v-238h-482q0 -84 63 -164l265 -327v-91l-291 -378q-57 -75 -57 -144h522v-238h-798v237q0 161 113 310z" />
<glyph unicode="&#x3a4;" d="M964 1342h-295v-1342h-278v1342h-295v238h868v-238z" />
<glyph unicode="&#x3a5;" d="M530 933l74 146q76 149 90 428l2 73h276l-2 -73q-14 -287 -147 -547l-154 -301v-659h-278v659l-154 301q-133 260 -147 547l-2 73h276l2 -73q14 -279 90 -428z" />
<glyph unicode="&#x3a6;" d="M658 1454q300 -65 300 -522v-284q0 -457 -300 -522v-126h-256v126q-300 65 -300 522v284q0 457 300 522v126h256v-126zM447 1245q-118 -18 -118 -268v-374q0 -250 118 -268v910zM613 1245v-910q118 18 118 268v374q0 250 -118 268z" />
<glyph unicode="&#x3a7;" d="M440 344q-75 -149 -83 -289l-3 -55h-276l4 70q9 133 105 325l204 405l-169 339q-111 216 -120 371l-4 70h276l3 -55q10 -164 83 -310l70 -139l70 139q73 146 83 310l3 55h276l-4 -70q-9 -155 -120 -371l-170 -338l205 -406q96 -192 105 -325l4 -70h-276l-3 55 q-8 140 -83 289l-90 180z" />
<glyph unicode="&#x3a8;" d="M447 1580h166v-1005q118 18 118 268v737h227v-692q0 -457 -294 -522v-366h-268v366q-294 65 -294 522v692h227v-737q0 -250 118 -268v1005z" />
<glyph unicode="&#x3a9;" d="M530 1354q-65 0 -97.5 -44.5t-32.5 -201.5v-404q0 -254 82 -352v-352h-372v235h189q-177 141 -177 489v350q0 299 110.5 413.5t297.5 114.5t297.5 -114.5t110.5 -413.5v-350q0 -348 -177 -489h189v-235h-372v352q82 98 82 352v404q0 157 -32.5 201.5t-97.5 44.5z" />
<glyph unicode="&#x3aa;" d="M341 1700q-56 0 -93 37t-37 89q0 51 37 87.5t93 36.5t93 -36.5t37 -87.5q0 -52 -37 -89t-93 -37zM718 1700q-56 0 -93 37t-37 89q0 51 37 87.5t93 36.5t93 -36.5t37 -87.5q0 -52 -37 -89t-93 -37zM876 0h-692v228h207v1034h-164v228h606v-228h-164v-1034h207v-228z" />
<glyph unicode="&#x3ab;" d="M341 1700q-56 0 -93 37t-37 89q0 51 37 87.5t93 36.5t93 -36.5t37 -87.5q0 -52 -37 -89t-93 -37zM718 1700q-56 0 -93 37t-37 89q0 51 37 87.5t93 36.5t93 -36.5t37 -87.5q0 -52 -37 -89t-93 -37zM530 843l74 146q76 149 90 428l2 73h276l-2 -73q-14 -287 -147 -547 l-154 -301v-569h-278v569l-154 301q-133 260 -147 547l-2 73h276l2 -73q14 -279 90 -428z" />
<glyph unicode="&#x3ac;" d="M105 698q0 269 91 382.5t221 113.5q186 0 274 -257l32 235h274q-82 -352 -82 -582q0 -236 82 -589h-274l-32 236q-88 -257 -274 -257q-130 0 -221 114t-91 384v220zM381 517q0 -167 22.5 -233t75.5 -66q88 0 160 372q-72 367 -160 367q-53 0 -75.5 -66t-22.5 -232v-142z M839 1580l-135 -295h-184l69 295h250z" />
<glyph unicode="&#x3ad;" d="M974 240q-156 -260 -444 -260q-218 0 -329.5 99t-111.5 249q0 193 212 271q-180 94 -180 263q0 133 110.5 232.5t316.5 99.5q250 0 396 -210l-209 -143q-79 115 -187 115q-65 0 -107.5 -31.5t-42.5 -79.5q0 -62 49.5 -86.5t129.5 -24.5h87v-238h-77q-109 0 -165 -40 t-56 -108q0 -52 41.5 -91t122.5 -39q146 0 235 165zM789 1580l-135 -295h-184l69 295h250z" />
<glyph unicode="&#x3ae;" d="M935 -365h-278v1115q0 120 -32.5 159.5t-93.5 39.5q-103 0 -128 -142v-807h-278v1172h278v-135q91 152 240 152q130 0 211 -97t81 -342v-1115zM779 1580l-135 -295h-184l69 295h250z" />
<glyph unicode="&#x3af;" d="M304 367v577h-203v228h481v-825q0 -79 29.5 -104t65.5 -25q63 0 120 79l209 -143q-143 -175 -329 -175q-183 0 -278 95t-95 293zM680 1580l-135 -295h-184l69 295h250z" />
<glyph unicode="&#x3b0;" d="M530 -20q-195 0 -300 115t-105 380v697h276v-761q0 -103 35 -143t94 -40t94 50t35 193q0 306 -68 701h276q68 -435 68 -697q0 -259 -123 -377t-282 -118zM719 1580l-177 -277h-170l98 277h249zM334 1422q0 -46 -33 -80.5t-84 -34.5q-50 0 -82.5 34.5t-32.5 80.5 q0 47 32.5 81t82.5 34q51 0 84 -34t33 -81zM952 1422q0 -46 -32.5 -80.5t-83.5 -34.5q-50 0 -82.5 34.5t-32.5 80.5q0 47 32.5 81t82.5 34q51 0 83.5 -34t32.5 -81z" />
<glyph unicode="&#x3b1;" d="M105 698q0 269 91 382.5t221 113.5q186 0 274 -257l32 235h274q-82 -352 -82 -582q0 -236 82 -589h-274l-32 236q-88 -257 -274 -257q-130 0 -221 114t-91 384v220zM381 517q0 -167 22.5 -233t75.5 -66q88 0 160 372q-72 367 -160 367q-53 0 -75.5 -66t-22.5 -232v-142z " />
<glyph unicode="&#x3b2;" d="M995 420q0 -211 -113 -325.5t-272 -114.5q-104 0 -157 27v-372h-278v1557q0 181 103 295.5t272 114.5q179 0 282 -104.5t103 -295.5v-42q0 -133 -48.5 -204.5t-105.5 -103.5q93 -30 153.5 -118.5t60.5 -250.5v-63zM453 241q34 -23 106 -23q75 0 116.5 47t41.5 193v58 q0 118 -36 165t-101 47h-25v237h14q45 0 66.5 37t21.5 124v78q0 77 -26.5 119t-81.5 42q-45 0 -70.5 -42t-25.5 -119v-963z" />
<glyph unicode="&#x3b3;" d="M391 -365v365l-228 732q-63 204 -72 356l-5 84h276l5 -84q10 -166 41 -292l122 -477l49 78q104 164 112 496l7 279h276l-7 -279q-10 -381 -220 -708l-78 -114v-436h-278z" />
<glyph unicode="&#x3b4;" d="M916 1343h-471q0 -62 62 -118l200 -180q237 -215 237 -538q0 -300 -112.5 -413.5t-291.5 -113.5t-292 113.5t-113 381.5q0 340 240 556l-73 66q-133 120 -133 293v190h747v-237zM666 472q0 293 -115 402q-138 -122 -138 -402q0 -151 30.5 -202.5t96.5 -51.5t96 51.5 t30 202.5z" />
<glyph unicode="&#x3b5;" d="M1002 240q-156 -260 -444 -260q-218 0 -329.5 99t-111.5 249q0 193 212 271q-180 94 -180 263q0 133 110.5 232.5t316.5 99.5q250 0 396 -210l-209 -143q-79 115 -187 115q-65 0 -107.5 -31.5t-42.5 -79.5q0 -62 49.5 -86.5t129.5 -24.5h87v-238h-77q-109 0 -165 -40 t-56 -108q0 -52 41.5 -91t122.5 -39q146 0 235 165z" />
<glyph unicode="&#x3b6;" d="M442 3q-307 60 -307 440q0 311 275 598l186 195q56 58 57 107h-471v237h747v-167q0 -172 -146 -327l-190 -197q-181 -191 -181 -426q0 -219 211 -260q346 -67 346 -456q1 -49 -7 -112h-276q7 57 7 101q0 219 -251 267z" />
<glyph unicode="&#x3b7;" d="M935 -365h-278v1115q0 120 -32.5 159.5t-93.5 39.5q-103 0 -128 -142v-807h-278v1172h278v-135q91 152 240 152q130 0 211 -97t81 -342v-1115z" />
<glyph unicode="&#x3b8;" d="M938 507q0 -299 -110.5 -413t-297.5 -114t-297.5 114t-110.5 413v702q0 299 110.5 413.5t297.5 114.5t297.5 -114.5t110.5 -413.5v-702zM660 1243q0 157 -32.5 201.5t-98.5 44.5q-64 0 -96.5 -44.5t-32.5 -201.5v-267h260v267zM660 473v265h-260v-265q0 -156 32.5 -200.5 t98.5 -44.5q64 0 96.5 44.5t32.5 200.5z" />
<glyph unicode="&#x3b9;" d="M333 367v577h-203v228h481v-825q0 -79 29.5 -104t65.5 -25q63 0 120 79l209 -143q-143 -175 -329 -175q-183 0 -278 95t-95 293z" />
<glyph unicode="&#x3ba;" d="M1000 0h-276q-8 129 -192 422l-27 39l-82 -100v-361h-276v1172h276v-463l103 129q159 196 167 334h276l-2 -38q-9 -157 -232 -429l-54 -66l54 -81q255 -365 265 -517v-41z" />
<glyph unicode="&#x3bb;" d="M370 1241q-29 101 -135 101h-45v238h116q231 0 296 -227l298 -1043q21 -72 114 -72v-238h-125q-164 0 -209 158l-146 495l-85 -267q-44 -138 -52 -282l-6 -104h-276l6 104q7 104 86 340l211 629z" />
<glyph unicode="&#x3bc;" d="M915 0h-258v115q-51 -135 -151 -135q-59 0 -103 45v-390h-258v1537h258v-750q0 -110 32.5 -154.5t93.5 -44.5q103 0 128 142v807h258v-1172z" />
<glyph unicode="&#x3bd;" d="M621 0h-230l-228 732q-63 203 -72 356l-5 84h276l5 -84q10 -166 41 -292l122 -477l49 78q104 164 112 496l7 279h276l-7 -279q-10 -381 -220 -708z" />
<glyph unicode="&#x3be;" d="M442 3q-314 61 -314 380q0 246 222 364q-170 86 -170 273q0 223 327 323h-325v237h747v-237q-472 -130 -472 -323q0 -154 199 -154h235v-237h-235q-251 0 -251 -219q0 -166 218 -207q346 -67 346 -456q1 -49 -7 -112h-276q7 57 7 101q0 219 -251 267z" />
<glyph unicode="&#x3bf;" d="M934 475q0 -268 -112.5 -381.5t-291.5 -113.5t-292 113.5t-113 381.5v222q0 269 113 383t292 114t291.5 -114t112.5 -383v-222zM656 472v222q0 159 -30 210.5t-96 51.5t-96.5 -51.5t-30.5 -210.5v-222q0 -151 30.5 -202.5t96.5 -51.5t96 51.5t30 202.5z" />
<glyph unicode="&#x3c0;" d="M860 300q0 -63 44 -63h91v-237h-152q-241 0 -241 280v655h-155v-935h-258v935h-125v237h931v-237h-135v-635z" />
<glyph unicode="&#x3c1;" d="M955 478q0 -270 -101 -382.5t-231 -112.5q-149 0 -200 152v-500h-278v1083q0 259 113 367.5t292 108.5q184 -2 294.5 -109.5t110.5 -366.5v-240zM677 517v142q0 164 -32.5 229.5t-93.5 65.5q-63 0 -95.5 -65.5t-32.5 -229.5v-304q35 -132 128 -132q61 0 93.5 65t32.5 229 z" />
<glyph unicode="&#x3c2;" d="M689 -365q11 41 11 99q0 221 -258 269q-314 60 -314 460q0 402 118.5 566.5t330.5 164.5q260 0 405 -217l-211 -143q-71 122 -186 122q-97 0 -138.5 -115.5t-41.5 -377.5q0 -216 189 -254q382 -73 382 -445q0 -69 -11 -129h-276z" />
<glyph unicode="&#x3c3;" d="M831 934q103 -106 103 -286v-173q0 -268 -112.5 -381.5t-291.5 -113.5t-292 113.5t-113 381.5v173q0 268 117.5 396t371.5 128h341v-238h-124zM656 472v192q0 189 -83 269q-79 0 -124.5 -56t-45.5 -213v-192q0 -151 30.5 -202.5t96.5 -51.5t96 51.5t30 202.5z" />
<glyph unicode="&#x3c4;" d="M1015 154q-143 -174 -329 -174q-183 -1 -278 94t-95 293v577h-196v228h839v-228h-365v-597q0 -79 29.5 -104t65.5 -25q63 0 120 79z" />
<glyph unicode="&#x3c5;" d="M530 -20q-195 0 -300 115t-105 380v697h276v-761q0 -103 35 -143t94 -40t94 50t35 193q0 306 -68 701h276q68 -435 68 -697q0 -259 -123 -377t-282 -118z" />
<glyph unicode="&#x3c6;" d="M613 199q118 18 118 275v175q0 308 -74 308q-44 0 -44 -145v-613zM650 1194q308 -2 308 -538v-144q0 -457 -300 -526v-351h-256v351q-300 69 -300 526v184q0 366 187 490l111 -187q-71 -52 -71 -258v-274q0 -250 118 -268v701q0 294 203 294z" />
<glyph unicode="&#x3c7;" d="M94 935v237h73q251 0 308 -181l104 -307l48 78q71 114 85 340l1 70h274l-4 -58q-12 -256 -139 -459l-156 -249l167 -458q30 -75 116 -75h45v-238h-139q-190 0 -255 208l-103 302l-63 -103q-68 -108 -79 -337l-4 -70h-271l4 70q13 250 131 441l175 278l-154 420 q-34 91 -119 91h-45z" />
<glyph unicode="&#x3c8;" d="M447 1580h166v-1391q118 18 118 268v715h229v-670q-2 -457 -296 -522v-344h-268v344q-296 65 -296 522v670h229v-715q0 -250 118 -268v1391z" />
<glyph unicode="&#x3c9;" d="M447 853h166v-474q0 -161 63 -161q76 0 79 212q0 326 -60 742h224q60 -425 60 -752q0 -440 -255 -440q-140 0 -194 120q-54 -120 -194 -120q-255 0 -255 440q0 327 60 752h224q-60 -416 -60 -742q3 -212 79 -212q63 0 63 161v474z" />
<glyph unicode="&#x3ca;" d="M304 367v577h-203v228h481v-825q0 -79 29.5 -104t65.5 -25q63 0 120 79l209 -143q-143 -175 -329 -175q-183 0 -278 95t-95 293zM262 1330q-56 0 -93 37t-37 89q0 51 37 87.5t93 36.5t93 -36.5t37 -87.5q0 -52 -37 -89t-93 -37zM639 1330q-56 0 -93 37t-37 89 q0 51 37 87.5t93 36.5t93 -36.5t37 -87.5q0 -52 -37 -89t-93 -37z" />
<glyph unicode="&#x3cb;" d="M530 -20q-195 0 -300 115t-105 380v697h276v-761q0 -103 35 -143t94 -40t94 50t35 193q0 306 -68 701h276q68 -435 68 -697q0 -259 -123 -377t-282 -118zM341 1330q-56 0 -93 37t-37 89q0 51 37 87.5t93 36.5t93 -36.5t37 -87.5q0 -52 -37 -89t-93 -37zM718 1330 q-56 0 -93 37t-37 89q0 51 37 87.5t93 36.5t93 -36.5t37 -87.5q0 -52 -37 -89t-93 -37z" />
<glyph unicode="&#x3cc;" d="M934 475q0 -268 -112.5 -381.5t-291.5 -113.5t-292 113.5t-113 381.5v222q0 269 113 383t292 114t291.5 -114t112.5 -383v-222zM656 472v222q0 159 -30 210.5t-96 51.5t-96.5 -51.5t-30.5 -210.5v-222q0 -151 30.5 -202.5t96.5 -51.5t96 51.5t30 202.5zM769 1580 l-135 -295h-184l69 295h250z" />
<glyph unicode="&#x3cd;" d="M530 -20q-195 0 -300 115t-105 380v697h276v-761q0 -103 35 -143t94 -40t94 50t35 193q0 306 -68 701h276q68 -435 68 -697q0 -259 -123 -377t-282 -118zM759 1580l-135 -295h-184l69 295h250z" />
<glyph unicode="&#x3ce;" d="M447 853h166v-474q0 -161 63 -161q76 0 79 212q0 326 -60 742h224q60 -425 60 -752q0 -440 -255 -440q-140 0 -194 120q-54 -120 -194 -120q-255 0 -255 440q0 327 60 752h224q-60 -416 -60 -742q3 -212 79 -212q63 0 63 161v474zM759 1580l-135 -295h-184l69 295h250z " />
<glyph unicode="&#x3d0;" d="M975 481q0 -271 -115 -386t-305 -115q-200 0 -300 100t-100 310v802q0 181 103 295.5t275 114.5q176 0 279 -105t103 -298q0 -251 -154 -347q214 -62 214 -371zM433 378q0 -90 35 -125t87 -35q72 0 107 55t35 214q0 147 -36 194t-104 47h-22v237h14q45 0 66.5 36 t21.5 179q0 101 -26.5 143t-81.5 42q-45 0 -70.5 -42t-25.5 -119v-826z" />
<glyph unicode="&#x3d1;" d="M566 734q-179 0 -287.5 110.5t-108.5 315.5q0 212 93.5 326t256.5 114q166 0 255.5 -114t89.5 -347v-175h118v-230h-118v-243q0 -281 -105 -396t-280 -115q-191 0 -299.5 115t-108.5 412v52h285v-86q0 -156 29 -200.5t87 -44.5t87 44.5t29 200.5v261h-23zM589 1109 q0 156 -15.5 200.5t-53.5 44.5q-41 0 -56.5 -44.5t-15.5 -149.5q0 -196 117 -196h24v145z" />
<glyph unicode="&#x3d5;" d="M447 965q-118 -18 -118 -268v-220q0 -250 118 -268v756zM613 209q118 18 118 268v220q0 250 -118 268v-756zM958 652v-130q0 -457 -300 -522v-365h-256v365q-300 65 -300 522v130q0 457 300 522v406h256v-406q300 -65 300 -522z" />
<glyph unicode="&#x3d6;" d="M50 1173h506q423 0 423 -498v-255q0 -440 -255 -440q-140 0 -194 120q-54 -120 -194 -120q-255 0 -255 440q0 272 70 515h-101v238zM447 755h166v-376q0 -161 63 -161q79 0 79 212v245q0 260 -189 260h-231q-30 -265 -30 -445q0 -272 79 -272q63 0 63 161v376z" />
<glyph unicode="&#x3f0;" d="M253 -20l-192 108q202 300 202 502q0 348 -206 358v242q472 0 472 -468l278 468l192 -108q-202 -300 -202 -492q0 -358 206 -368v-242q-472 0 -472 468z" />
<glyph unicode="&#x3f1;" d="M955 528q0 -270 -101 -381.5t-231 -111.5q-149 -2 -200 150v-143q0 -144 135 -162l363 -44l-11 -201h-283l-155 18q-327 38 -327 409v656q0 259 113 367.5t292 108.5q184 -2 294.5 -109.5t110.5 -366.5v-190zM677 567v92q0 164 -32.5 229.5t-93.5 65.5q-63 0 -95.5 -65.5 t-32.5 -229.5v-254q35 -132 128 -132q61 0 93.5 65t32.5 229z" />
<glyph unicode="&#x3f5;" d="M849 721v-238h-410v-13q0 -130 30.5 -191.5t107.5 -61.5q115 0 198 131l209 -143q-147 -225 -397 -225q-200 0 -313.5 114t-113.5 382v221q0 255 108 376t309 121q260 0 407 -217l-209 -143q-74 123 -188 123q-87 -1 -117.5 -58t-30.5 -173v-5h410z" />
<glyph unicode="&#x400;" d="M680 1705h-224l-236 245h280zM944 0h-788v1490h788v-238h-510v-351h366v-238h-366v-425h510v-238z" />
<glyph unicode="&#x401;" d="M341 1700q-56 0 -93 37t-37 89q0 51 37 87.5t93 36.5t93 -36.5t37 -87.5q0 -52 -37 -89t-93 -37zM718 1700q-56 0 -93 37t-37 89q0 51 37 87.5t93 36.5t93 -36.5t37 -87.5q0 -52 -37 -89t-93 -37zM944 0h-788v1490h788v-238h-510v-351h366v-238h-366v-425h510v-238z" />
<glyph unicode="&#x402;" d="M945 52q0 -417 -324 -417h-106v228h45q107 0 107 155v740q0 112 -27.5 151.5t-78.5 39.5q-103 0 -118 -142v-807h-278v1342h-160v238h616v-238h-178v-305q81 152 230 152q130 0 201 -97t71 -324v-716z" />
<glyph unicode="&#x403;" d="M639 1950h280l-236 -245h-224zM953 1252h-458v-1252h-279v1490h737v-238z" />
<glyph unicode="&#x404;" d="M971 219q-147 -239 -397 -239q-202 0 -314.5 114t-112.5 434v534q0 298 115 419t312 121q250 0 397 -239l-209 -143q-74 135 -188 135q-77 0 -113 -56.5t-36 -200.5v-140h315v-239h-315v-236q0 -143 36 -200t113 -57q114 0 188 136z" />
<glyph unicode="&#x405;" d="M979 399q0 -181 -112 -300t-334 -119q-267 0 -424 250l209 143q94 -147 224 -147q76 0 118 39.5t42 112.5q0 78 -73 151l-324 324q-146 144 -146 329q0 191 109.5 305.5t294.5 114.5q240 0 387 -206l-209 -143q-83 102 -167 102q-65 0 -101.5 -36t-36.5 -114 q0 -74 75 -147l301 -300q167 -156 167 -359z" />
<glyph unicode="&#x406;" d="M876 0h-692v228h207v1124h-164v228h606v-228h-164v-1124h207v-228z" />
<glyph unicode="&#x407;" d="M341 1700q-56 0 -93 37t-37 89q0 51 37 87.5t93 36.5t93 -36.5t37 -87.5q0 -52 -37 -89t-93 -37zM718 1700q-56 0 -93 37t-37 89q0 51 37 87.5t93 36.5t93 -36.5t37 -87.5q0 -52 -37 -89t-93 -37zM876 0h-692v228h207v1034h-164v228h606v-228h-164v-1034h207v-228z" />
<glyph unicode="&#x408;" d="M874 485q0 -277 -113 -391t-292 -114t-292 114t-113 391v221h278v-226q0 -141 30 -202.5t96 -61.5t97 62t31 202v1100h278v-1095z" />
<glyph unicode="&#x409;" d="M-2 0v238h25q92 0 101 220l33 1122h493v-562h48q150 0 233 -104.5t83 -347.5v-146q0 -202 -83 -311t-233 -109h-244v1342h-70l-27 -909q-9 -433 -263 -433h-96zM777 400v176q0 120 -21.5 162t-68.5 42h-37v-542h37q47 0 68.5 36.5t21.5 125.5z" />
<glyph unicode="&#x40a;" d="M111 1580h226v-562h117v562h196v-562h48q150 0 233 -104.5t83 -347.5v-146q0 -202 -83 -311t-233 -109h-244v780h-117v-780h-226v1580zM777 400v176q0 120 -21 162t-68 42h-38v-542h37q47 0 68.5 36.5t21.5 125.5z" />
<glyph unicode="&#x40b;" d="M945 0h-278v758q0 112 -27.5 151.5t-78.5 39.5q-103 0 -118 -142v-807h-278v1342h-160v238h616v-238h-178v-305q81 152 230 152q130 0 201 -97t71 -324v-768z" />
<glyph unicode="&#x40c;" d="M665 1950h280l-236 -245h-224zM418 1490v-614l57 84q171 251 215 494l6 36h276l-8 -53q-52 -287 -244 -571q220 -375 290 -796l10 -70h-286l-8 55q-64 381 -201 615l-107 -157v-513h-278v1490h278z" />
<glyph unicode="&#x40d;" d="M620 1705h-224l-236 245h280zM370 530l278 960h286v-1490h-278v277q0 333 33 683l-278 -960h-286v1490h278v-277q0 -333 -33 -683z" />
<glyph unicode="&#x40e;" d="M530 1690q-357 0 -367 260h214q3 -99 153 -99t153 99h214q-10 -260 -367 -260zM258 255l134 319l-217 502q-87 208 -94 324l-5 90h276l5 -84q4 -71 81 -278l94 -247l91 243q75 199 80 282l5 84h276l-6 -90q-5 -121 -93 -328l-357 -831q-34 -79 -42 -190l-3 -51h-276l3 51 q6 108 48 204z" />
<glyph unicode="&#x40f;" d="M126 1580h277v-1344h254v1344h277v-1580h-266v-278h-276v278h-266v1580z" />
<glyph unicode="&#x410;" d="M359 88v-88h-276v88q0 228 79 573l209 919h318l209 -919q79 -345 79 -573v-88h-276v88q0 122 -17 260h-308q-17 -138 -17 -260zM530 1166l-114 -581h228z" />
<glyph unicode="&#x411;" d="M891 1344h-470v-368h88q200 0 323 -109.5t123 -330.5v-86q0 -232 -112.5 -341t-293.5 -109h-406v1580h748v-236zM678 450v46q0 140 -41 192t-118 52h-98v-503h107q67 0 108.5 41.5t41.5 171.5z" />
<glyph unicode="&#x412;" d="M957 480q0 -262 -113 -371t-294 -109h-406v1580h364q202 0 304 -109t102 -292q0 -131 -58 -214t-137 -106q128 -45 183 -128.5t55 -250.5zM636 1179q0 91 -36 128t-114 37h-64v-378h74q67 0 103.5 47t36.5 166zM679 480q0 156 -41 203t-118 47h-98v-493h107 q67 0 108.5 41.5t41.5 201.5z" />
<glyph unicode="&#x413;" d="M953 1342h-458v-1342h-279v1580h737v-238z" />
<glyph unicode="&#x414;" d="M976 -278h-268v278h-395v-278h-268v516h73q82 216 115 702l38 640h616v-1342h89v-516zM616 238v1103h-92l-25 -421q-28 -476 -120 -682h237z" />
<glyph unicode="&#x415;" d="M955 0h-798v1580h788v-238h-510v-396h366v-238h-366v-470h520v-238z" />
<glyph unicode="&#x416;" d="M610 570l23 -251v-319h-196v319l23 251l-64 -105q-57 -93 -68 -324l-7 -141h-256l6 123q8 209 153 432l171 263l-170 261q-144 222 -153 431l-4 70h246l4 -87q11 -230 71 -328l71 -115l-23 255v275h196v-275l-23 -255l71 114q60 99 71 329l4 87h246l-3 -69 q-10 -210 -154 -432l-170 -260l171 -264q145 -223 153 -432l6 -123h-256l-7 141q-11 231 -68 324z" />
<glyph unicode="&#x417;" d="M952 466q0 -238 -123 -362t-335 -124q-272 0 -428 260l209 143q89 -165 218 -165q78 0 129.5 52t51.5 196q0 152 -56 202.5t-165 50.5h-77v238h77q97 0 143 56t46 160q0 89 -41.5 140t-117.5 51q-118 0 -187 -166l-209 143q146 261 417 261q191 0 303.5 -114.5 t112.5 -314.5q0 -237 -190 -336q222 -88 222 -371z" />
<glyph unicode="&#x418;" d="M360 560l306 1020h268v-1580h-268v277q0 373 33 743l-306 -1020h-268v1580h268v-277q0 -373 -33 -743z" />
<glyph unicode="&#x419;" d="M531 1690q-357 0 -367 260h214q3 -99 153 -99t153 99h214q-10 -260 -367 -260zM370 530l278 960h286v-1490h-278v277q0 333 33 683l-278 -960h-286v1490h278v-277q0 -333 -33 -683z" />
<glyph unicode="&#x41a;" d="M458 1580v-659l141 207q104 153 129 380l8 72h276l-19 -160q-22 -200 -159 -403l-73 -107l97 -165q143 -243 174 -508l28 -237h-286l-21 176q-34 291 -136 463l-49 81l-110 -162v-558h-278v1580h278z" />
<glyph unicode="&#x41b;" d="M38 0v238h35q115 0 128 305l42 1037h691v-1580h-278v1342h-152l-31 -779q-21 -563 -329 -563h-106z" />
<glyph unicode="&#x41c;" d="M530 1053l159 527h255v-1580h-255v247q0 414 80 1099l-184 -606h-110l-184 606q80 -685 80 -1099v-247h-255v1580h255z" />
<glyph unicode="&#x41d;" d="M934 0h-278v730h-253v-730h-278v1580h278v-612h253v612h278v-1580z" />
<glyph unicode="&#x41e;" d="M938 507q0 -297 -110.5 -412t-297.5 -115t-297.5 115t-110.5 412v568q0 298 110.5 412.5t297.5 114.5t297.5 -114.5t110.5 -412.5v-568zM660 473v635q0 157 -32.5 201.5t-98.5 44.5q-64 0 -96.5 -44.5t-32.5 -201.5v-635q0 -156 32.5 -200.5t98.5 -44.5q64 0 96.5 44.5 t32.5 200.5z" />
<glyph unicode="&#x41f;" d="M125 1580h809v-1580h-278v1342h-253v-1342h-278v1580z" />
<glyph unicode="&#x420;" d="M1006 1108q0 -172 -113 -286.5t-293 -114.5h-126v-707h-278v1580h404q201 0 303.5 -114.5t102.5 -285.5v-72zM728 1117v54q0 69 -31.5 121t-118.5 52h-104v-400h104q77 0 113.5 47t36.5 126z" />
<glyph unicode="&#x421;" d="M1012 219q-147 -239 -397 -239q-187 0 -307 120t-120 420v542q0 300 120 420t307 120q250 0 397 -239l-209 -143q-74 135 -188 135q-69 0 -109 -50t-40 -207v-615q0 -156 40 -206.5t109 -50.5q114 0 188 136z" />
<glyph unicode="&#x422;" d="M964 1342h-295v-1342h-278v1342h-295v238h868v-238z" />
<glyph unicode="&#x423;" d="M258 255l138 367l-221 544q-87 215 -94 324l-5 90h276l5 -84q4 -71 81 -278l94 -255l91 251q75 207 80 282l5 84h276l-6 -90q-5 -97 -93 -324l-360 -934q-33 -85 -39 -181l-3 -51h-276l3 51q6 96 48 204z" />
<glyph unicode="&#x424;" d="M658 1454q300 -65 300 -522v-284q0 -457 -300 -522v-126h-256v126q-300 65 -300 522v284q0 457 300 522v126h256v-126zM447 1245q-118 -18 -118 -268v-374q0 -250 118 -268v910zM613 1245v-910q118 18 118 268v374q0 250 -118 268z" />
<glyph unicode="&#x425;" d="M440 344q-75 -149 -83 -289l-3 -55h-276l4 70q9 133 105 325l204 405l-169 339q-111 216 -120 371l-4 70h276l3 -55q10 -164 83 -310l70 -139l70 139q73 146 83 310l3 55h276l-4 -70q-9 -155 -120 -371l-170 -338l205 -406q96 -192 105 -325l4 -70h-276l-3 55 q-8 140 -83 289l-90 180z" />
<glyph unicode="&#x426;" d="M126 1580h277v-1343h217v1343h277v-1342h89v-516h-276v278h-584v1580z" />
<glyph unicode="&#x427;" d="M418 1580v-472q0 -152 45.5 -203.5t134.5 -51.5h64v727h276v-1580h-276v605h-105q-192 0 -304.5 104.5t-112.5 403.5v467h278z" />
<glyph unicode="&#x428;" d="M96 1580h222v-1342h119v1342h187v-1342h119v1342h222v-1580h-869v1580z" />
<glyph unicode="&#x429;" d="M96 1580h222v-1342h119v1342h187v-1342h119v1342h222v-1342h78v-516h-246v278h-701v1580z" />
<glyph unicode="&#x42a;" d="M541 976h48q200 0 323 -109.5t123 -330.5v-86q0 -232 -112.5 -341t-293.5 -109h-366v1344h-191v236h469v-604zM758 450v46q0 140 -41 192t-118 52h-58v-503h67q67 0 108.5 41.5t41.5 171.5z" />
<glyph unicode="&#x42b;" d="M347 1580v-604h22q130 0 203 -109.5t73 -310.5v-156q0 -202 -73 -301t-203 -99h-268v1580h246zM449 410v156q0 90 -22 132t-58 42h-22v-503h21q37 0 59 41.5t22 131.5zM959 1580v-1580h-246v1580h246z" />
<glyph unicode="&#x42c;" d="M421 1580v-604h88q200 0 323 -109.5t123 -330.5v-86q0 -232 -112.5 -341t-293.5 -109h-406v1580h278zM678 450v46q0 140 -41 192t-118 52h-98v-503h107q67 0 108.5 41.5t41.5 171.5z" />
<glyph unicode="&#x42d;" d="M298 362q74 -136 188 -136q77 0 113 57t36 200v236h-315v239h315v140q0 144 -36 200.5t-113 56.5q-114 0 -188 -135l-209 143q147 239 397 239q211 0 319 -121t108 -419v-534q0 -320 -112.5 -434t-314.5 -114q-250 0 -397 239z" />
<glyph unicode="&#x42e;" d="M323 1580v-611h82v235q0 179 72.5 288.5t209.5 109.5q135 0 207.5 -109.5t72.5 -288.5v-826q0 -179 -72.5 -288t-207.5 -110q-137 0 -209.5 109.5t-72.5 288.5v353h-82v-731h-226v1580h226zM740 364v855q0 148 -69 148t-69 -148v-855q0 -149 70 -149q68 3 68 149z" />
<glyph unicode="&#x42f;" d="M503 670q-126 -171 -155 -613l-4 -57h-275l4 70q27 422 194 648l13 19q-182 101 -182 391q0 234 102.5 343t292.5 109h410v-1580h-278v686h-111zM625 1344h-95q-87 0 -117.5 -52t-30.5 -164q0 -102 30.5 -154t117.5 -52h95v422z" />
<glyph unicode="&#x430;" d="M954 0h-278v135q-80 -155 -231 -155q-123 0 -211.5 98.5t-88.5 247.5q0 176 110.5 279.5t324.5 103.5h96v126q0 121 -128 121q-125 0 -186 -132l-199 163q146 207 386 207q189 0 297 -96.5t108 -284.5v-813zM676 360v172h-96q-81 0 -120 -44t-39 -122q0 -139 118 -139 q124 0 137 133z" />
<glyph unicode="&#x431;" d="M125 1051q0 300 120 425.5t368 125.5h252v-237h-121q-199 0 -271.5 -64t-72.5 -229v-89q83 125 242 125q121 0 206 -113t85 -385v-136q0 -267 -122.5 -380.5t-281.5 -113.5q-180 0 -292 113.5t-112 315.5v642zM400 449q0 -109 26 -170.5t102 -61.5q66 0 97.5 61.5 t31.5 194.5v162q0 112 -29 172t-89 60q-103 0 -139 -133v-285z" />
<glyph unicode="&#x432;" d="M955 351q0 -163 -113 -257t-293 -94h-406v1172h363q202 0 304 -81.5t102 -218.5q0 -196 -194 -253q237 -51 237 -268zM635 851q0 58 -36.5 86.5t-103.5 28.5h-74v-240h84q57 0 93.5 28t36.5 97zM682 363q0 66 -40.5 96.5t-107.5 30.5h-113v-253h113q67 0 107.5 27.5 t40.5 98.5z" />
<glyph unicode="&#x433;" d="M953 934h-458v-934h-279v1172h737v-238z" />
<glyph unicode="&#x434;" d="M976 -278h-268v278h-395v-278h-268v516h73q110 219 132 585l21 349h616v-934h89v-516zM616 238v695h-92l-7 -110q-22 -379 -138 -585h237z" />
<glyph unicode="&#x435;" d="M934 551h-532v-130q0 -101 31.5 -152t107.5 -51q111 0 177 110l209 -143q-135 -205 -397 -205q-180 0 -293 114t-113 382v221q0 268 113 382.5t293 114.5q179 0 291.5 -114t112.5 -383v-146zM658 729v43q0 100 -31 152t-97 52t-97.5 -52t-31.5 -152v-43h257z" />
<glyph unicode="&#x436;" d="M610 425l23 -187v-238h-196v238l23 187l-64 -78q-57 -70 -68 -242l-7 -105h-256l6 92q8 156 153 322l171 196l-184 211q-130 149 -140 307l-2 44h246l3 -58q11 -172 71 -245l71 -86l-23 190v199h196v-199l-23 -190l71 85q60 74 71 246l3 58h247l-3 -45 q-10 -157 -153 -322l-169 -195l169 -196q145 -166 153 -322l6 -92h-256l-7 105q-11 172 -68 242z" />
<glyph unicode="&#x437;" d="M78 240l209 143q89 -165 235 -165q81 0 122.5 39t41.5 91q0 68 -56 108t-165 40h-77v238h87q80 0 129.5 24.5t49.5 86.5q0 48 -42.5 79.5t-107.5 31.5q-108 0 -187 -115l-209 143q146 210 396 210q206 0 316.5 -94.5t110.5 -227.5q0 -199 -200 -273q232 -68 232 -271 q0 -150 -121.5 -249t-319.5 -99q-288 0 -444 260z" />
<glyph unicode="&#x438;" d="M359 422l308 751h267v-1173h-267v206q0 278 33 549l-308 -755h-267v1173h267v-203q0 -278 -33 -548z" />
<glyph unicode="&#x439;" d="M359 422l308 751h267v-1173h-267v206q0 278 33 549l-308 -755h-267v1173h267v-203q0 -278 -33 -548zM530 1320q-357 0 -367 260h214q3 -99 153 -99t153 99h214q-10 -260 -367 -260z" />
<glyph unicode="&#x43a;" d="M1000 0h-276q-8 129 -192 422l-27 39l-82 -100v-361h-276v1172h276v-463l103 129q159 196 167 334h276l-2 -38q-9 -157 -232 -429l-54 -66l54 -81q255 -365 265 -517v-41z" />
<glyph unicode="&#x43b;" d="M38 0v238h35q115 0 128 305l29 629h704v-1172h-278v934h-169l-14 -371q-21 -563 -329 -563h-106z" />
<glyph unicode="&#x43c;" d="M944 0h-250v157l75 781l-184 -606h-110l-184 606l75 -781v-157h-250v1172h255l159 -527l159 527h255v-1172z" />
<glyph unicode="&#x43d;" d="M935 0h-278v503h-254v-503h-278v1172h278v-431h254v431h278v-1172z" />
<glyph unicode="&#x43e;" d="M934 475q0 -268 -112.5 -381.5t-291.5 -113.5t-292 113.5t-113 381.5v222q0 269 113 383t292 114t291.5 -114t112.5 -383v-222zM656 472v222q0 159 -30 210.5t-96 51.5t-96.5 -51.5t-30.5 -210.5v-222q0 -151 30.5 -202.5t96.5 -51.5t96 51.5t30 202.5z" />
<glyph unicode="&#x43f;" d="M125 1172h810v-1172h-278v934h-254v-934h-278v1172z" />
<glyph unicode="&#x440;" d="M149 1172h278v-131q91 151 240 151q130 0 211 -112.5t81 -381.5v-220q0 -270 -81 -382.5t-211 -112.5q-149 0 -240 152v-500h-278v1537zM427 355q35 -132 128 -132q61 0 93.5 65t32.5 229v142q0 164 -32.5 229.5t-93.5 65.5q-92 0 -128 -133v-466z" />
<glyph unicode="&#x441;" d="M933 195q-135 -215 -385 -215q-190 0 -303.5 124t-113.5 372v221q0 248 113.5 372.5t303.5 124.5q250 0 385 -217l-209 -143q-71 122 -176 122q-77 0 -107.5 -57t-30.5 -197v-241q0 -121 30.5 -182.5t107.5 -61.5q95 0 156 131z" />
<glyph unicode="&#x442;" d="M964 934h-295v-934h-278v934h-295v238h868v-238z" />
<glyph unicode="&#x443;" d="M230 -365l2 38q8 128 69 285l101 262l-215 538q-78 196 -86 324l-5 90h276l5 -84q11 -185 51 -289l102 -264l94 264q50 128 59 289l5 84h276l-6 -90q-7 -128 -83 -324l-310 -805q-47 -122 -57 -280l-2 -38h-276z" />
<glyph unicode="&#x444;" d="M447 965q-118 -18 -118 -268v-220q0 -250 118 -268v756zM613 209q118 18 118 268v220q0 250 -118 268v-756zM958 652v-130q0 -457 -300 -522v-365h-256v365q-300 65 -300 522v130q0 457 300 522v406h256v-406q300 -65 300 -522z" />
<glyph unicode="&#x445;" d="M102 0l2 40q8 123 120 298l176 273l-158 246q-96 148 -104 276l-2 39h275q11 -161 64 -244l65 -101l65 101q53 83 64 244h275l-2 -39q-8 -128 -104 -276l-159 -246l177 -273q112 -175 120 -298l2 -40h-276q-9 158 -69 251l-93 144l-93 -144q-60 -93 -69 -251h-276z" />
<glyph unicode="&#x446;" d="M126 1172h277v-935h217v935h277v-934h89v-516h-276v278h-584v1172z" />
<glyph unicode="&#x447;" d="M418 1172v-272q0 -152 45.5 -203.5t134.5 -51.5h64v527h276v-1172h-276v397h-105q-192 0 -304.5 104.5t-112.5 403.5v267h278z" />
<glyph unicode="&#x448;" d="M96 1172h222v-934h119v934h187v-934h119v934h222v-1172h-869v1172z" />
<glyph unicode="&#x449;" d="M96 1172h222v-934h119v934h187v-934h119v934h222v-934h78v-516h-246v278h-701v1172z" />
<glyph unicode="&#x44a;" d="M541 756h88q181 0 293.5 -99.5t112.5 -278.5q0 -180 -112.5 -279t-293.5 -99h-366v936h-191v236h469v-416zM758 378q0 75 -39.5 108.5t-102.5 33.5h-75v-283h75q63 0 102.5 31.5t39.5 109.5z" />
<glyph unicode="&#x44b;" d="M101 0v1172h246v-416h22q131 0 203.5 -100t72.5 -256q0 -202 -72.5 -301t-203.5 -99h-268zM448 378q0 75 -21.5 108.5t-58.5 33.5h-21v-283h21q37 0 58.5 31.5t21.5 109.5zM959 1172v-1172h-246v1172h246z" />
<glyph unicode="&#x44c;" d="M143 0v1172h278v-416h127q181 0 292.5 -99t113.5 -279q0 -180 -112.5 -279t-293.5 -99h-405zM677 378q0 75 -39.5 108.5t-102.5 33.5h-114v-283h114q63 0 102.5 31.5t39.5 109.5z" />
<glyph unicode="&#x44d;" d="M635 711v29q0 104 -36 160.5t-113 56.5q-114 0 -188 -123l-209 143q147 217 404 217q204 0 312 -121t108 -376v-221q0 -268 -112.5 -382t-314.5 -114q-250 0 -397 225l209 143q74 -132 188 -132q77 0 113 57t36 186v23h-315v229h315z" />
<glyph unicode="&#x44e;" d="M323 1172v-468h82v92q0 179 72.5 288.5t209.5 109.5q135 0 207.5 -109.5t72.5 -288.5v-418q0 -179 -72.5 -288t-207.5 -110q-137 0 -209.5 109.5t-72.5 288.5v88h-82v-466h-226v1172h226zM740 364v447q0 148 -69 148t-69 -148v-447q0 -149 70 -149q68 3 68 149z" />
<glyph unicode="&#x44f;" d="M68 0l3 41q11 152 154 386l70 106q-93 41 -145.5 115.5t-52.5 182.5q0 153 103 247t293 94h410v-1172h-278v460h-87l-98 -166q-88 -165 -96 -294h-276zM382 821q-2 -62 34.5 -93.5t93.5 -31.5h115v240h-105q-67 0 -102.5 -28.5t-35.5 -86.5z" />
<glyph unicode="&#x450;" d="M934 551h-532v-130q0 -101 31.5 -152t107.5 -51q111 0 177 110l209 -143q-135 -205 -397 -205q-180 0 -293 114t-113 382v221q0 268 113 382.5t293 114.5q179 0 291.5 -114t112.5 -383v-146zM658 729v43q0 100 -31 152t-97 52t-97.5 -52t-31.5 -152v-43h257zM651 1335 h-224l-236 245h280z" />
<glyph unicode="&#x451;" d="M934 551h-532v-130q0 -101 31.5 -152t107.5 -51q111 0 177 110l209 -143q-135 -205 -397 -205q-180 0 -293 114t-113 382v221q0 268 113 382.5t293 114.5q179 0 291.5 -114t112.5 -383v-146zM658 729v43q0 100 -31 152t-97 52t-97.5 -52t-31.5 -152v-43h257zM341 1330 q-56 0 -93 37t-37 89q0 51 37 87.5t93 36.5t93 -36.5t37 -87.5q0 -52 -37 -89t-93 -37zM718 1330q-56 0 -93 37t-37 89q0 51 37 87.5t93 36.5t93 -36.5t37 -87.5q0 -52 -37 -89t-93 -37z" />
<glyph unicode="&#x452;" d="M641 1180h-198v-330q81 152 230 152q130 0 201 -97t71 -324v-529q0 -417 -324 -417h-106v228h45q107 0 107 155v553q0 112 -27.5 151.5t-78.5 39.5q-103 0 -118 -142v-620h-278v1180h-108v218h108v182h278v-182h198v-218z" />
<glyph unicode="&#x453;" d="M953 934h-458v-934h-279v1172h737v-238zM639 1580h280l-236 -245h-224z" />
<glyph unicode="&#x454;" d="M739 721v-238h-300v-13q0 -130 30.5 -191.5t107.5 -61.5q115 0 198 131l209 -143q-147 -225 -397 -225q-200 0 -313.5 114t-113.5 382v221q0 255 108 376t309 121q260 0 407 -217l-209 -143q-74 123 -188 123q-87 -1 -117.5 -58t-30.5 -173v-5h300z" />
<glyph unicode="&#x455;" d="M968 326q0 -150 -103 -248t-313 -98q-264 0 -420 239l191 131q80 -143 221 -143q146 0 146 121q0 66 -82 106l-177 86q-230 115 -230 321q0 164 103.5 258.5t281.5 94.5q230 0 376 -217l-193 -132q-64 121 -173 121q-53 0 -85.5 -28.5t-32.5 -78.5q0 -76 90 -120l149 -73 q251 -123 251 -340z" />
<glyph unicode="&#x456;" d="M674 1549q0 -76 -50.5 -126.5t-135.5 -50.5t-135 50.5t-50 126.5t50 127t135 51t135.5 -51t50.5 -127zM870 0h-699v228h211v716h-181v228h459v-944h210v-228z" />
<glyph unicode="&#x457;" d="M292 1330q-56 0 -93 37t-37 89q0 51 37 87.5t93 36.5t93 -36.5t37 -87.5q0 -52 -37 -89t-93 -37zM669 1330q-56 0 -93 37t-37 89q0 51 37 87.5t93 36.5t93 -36.5t37 -87.5q0 -52 -37 -89t-93 -37zM879 0h-699v228h211v716h-181v228h459v-944h210v-228z" />
<glyph unicode="&#x458;" d="M772 1549q0 -76 -50.5 -126.5t-135.5 -50.5t-135 50.5t-50 126.5t50 127t135 51t135.5 -51t50.5 -127zM479 26v918h-265v228h542v-1140q0 -210 -93 -308.5t-278 -98.5q-227 0 -350 185l210 120q39 -67 128 -67q49 0 77.5 35.5t28.5 127.5z" />
<glyph unicode="&#x459;" d="M145 1172h505v-396h48q150 0 233 -104.5t83 -283.5q0 -170 -83 -279t-233 -109h-244v944h-82l-15 -511q-9 -433 -263 -433h-102l6 228h25q92 0 101 230zM777 388q0 98 -21.5 129t-67.5 31h-38v-320h37q47 0 68.5 31t21.5 129z" />
<glyph unicode="&#x45a;" d="M337 548v-548h-226v1172h226v-396h117l1 396h195v-396h48q150 0 233 -104.5t83 -283.5q0 -170 -83 -279t-233 -109h-243l-1 548h-117zM777 388q0 98 -21.5 129t-68.5 31h-37v-320h37q47 0 68.5 31t21.5 129z" />
<glyph unicode="&#x45b;" d="M945 0h-278v571q0 112 -27.5 151.5t-78.5 39.5q-103 0 -118 -142v-620h-278v1172h-108v218h108v190h278v-190h198v-218h-198v-322q81 152 230 152q130 0 201 -97t71 -324v-581z" />
<glyph unicode="&#x45c;" d="M1000 0h-276q-8 129 -192 422l-27 39l-82 -100v-361h-276v1172h276v-463l103 129q159 196 167 334h276l-2 -38q-9 -157 -232 -429l-54 -66l54 -81q255 -365 265 -517v-41zM669 1580h280l-236 -245h-224z" />
<glyph unicode="&#x45d;" d="M359 422l308 751h267v-1173h-267v206q0 278 33 549l-308 -755h-267v1173h267v-203q0 -278 -33 -548zM634 1335h-224l-236 245h280z" />
<glyph unicode="&#x45e;" d="M230 -365l2 38q8 128 69 285l101 262l-215 538q-78 196 -86 324l-5 90h276l5 -84q11 -185 51 -289l102 -264l94 264q50 128 59 289l5 84h276l-6 -90q-7 -128 -83 -324l-310 -805q-47 -122 -57 -280l-2 -38h-276zM530 1320q-357 0 -367 260h214q3 -99 153 -99t153 99h214 q-10 -260 -367 -260z" />
<glyph unicode="&#x45f;" d="M126 1172h277v-936h254v936h277v-1172h-266v-278h-276v278h-266v1172z" />
<glyph unicode="&#x490;" d="M967 1344h-473v-1344h-278v1580h473v168h278v-404z" />
<glyph unicode="&#x491;" d="M967 936h-473v-936h-278v1172h473v576h278v-812z" />
<glyph unicode="&#x2000;" horiz-adv-x="1046" />
<glyph unicode="&#x2001;" horiz-adv-x="2092" />
<glyph unicode="&#x2002;" horiz-adv-x="1046" />
<glyph unicode="&#x2003;" horiz-adv-x="2092" />
<glyph unicode="&#x2004;" horiz-adv-x="697" />
<glyph unicode="&#x2005;" horiz-adv-x="523" />
<glyph unicode="&#x2006;" horiz-adv-x="348" />
<glyph unicode="&#x2007;" horiz-adv-x="348" />
<glyph unicode="&#x2008;" horiz-adv-x="261" />
<glyph unicode="&#x2009;" horiz-adv-x="418" />
<glyph unicode="&#x200a;" horiz-adv-x="116" />
<glyph unicode="&#x2010;" d="M980 672h-900v238h900v-238z" />
<glyph unicode="&#x2011;" d="M980 672h-900v238h900v-238z" />
<glyph unicode="&#x2012;" d="M980 672h-900v238h900v-238z" />
<glyph unicode="&#x2013;" d="M968 662h-877v258h877v-258z" />
<glyph unicode="&#x2014;" d="M1042 662h-1025v258h1025v-258z" />
<glyph unicode="&#x2018;" d="M308 1153q0 161 180 427h218q-117 -169 -163 -307q83 -2 135 -48t52 -114q0 -75 -55 -122.5t-147 -47.5q-101 0 -160.5 55.5t-59.5 156.5z" />
<glyph unicode="&#x2019;" d="M752 1388q0 -161 -180 -427h-218q117 169 163 307q-83 2 -135 48t-52 114q0 75 55 122.5t147 47.5q101 0 160.5 -55.5t59.5 -156.5z" />
<glyph unicode="&#x201a;" d="M752 62q0 -161 -180 -427h-218q117 169 163 307q-83 2 -135 48t-52 114q0 75 55 122.5t147 47.5q101 0 160.5 -55.5t59.5 -156.5z" />
<glyph unicode="&#x201c;" d="M570 1153q0 161 180 427h218q-117 -169 -163 -307q83 -2 135 -48t52 -114q0 -75 -55 -122.5t-147 -47.5q-101 0 -160.5 55.5t-59.5 156.5zM65 1153q0 161 180 427h218q-117 -169 -163 -307q83 -2 135 -48t52 -114q0 -75 -55 -122.5t-147 -47.5q-101 0 -160.5 55.5 t-59.5 156.5z" />
<glyph unicode="&#x201d;" d="M490 1388q0 -161 -180 -427h-218q117 169 163 307q-83 2 -135 48t-52 114q0 75 55 122.5t147 47.5q101 0 160.5 -55.5t59.5 -156.5zM995 1388q0 -161 -180 -427h-218q117 169 163 307q-83 2 -135 48t-52 114q0 75 55 122.5t147 47.5q101 0 160.5 -55.5t59.5 -156.5z" />
<glyph unicode="&#x201e;" d="M490 62q0 -161 -180 -427h-218q117 169 163 307q-83 2 -135 48t-52 114q0 75 55 122.5t147 47.5q101 0 160.5 -55.5t59.5 -156.5zM995 62q0 -161 -180 -427h-218q117 169 163 307q-83 2 -135 48t-52 114q0 75 55 122.5t147 47.5q101 0 160.5 -55.5t59.5 -156.5z" />
<glyph unicode="&#x2020;" d="M1010 959h-352v-959h-256v959h-353v235h353v386h256v-386h352v-235z" />
<glyph unicode="&#x2021;" d="M1011 366h-353v-366h-256v366h-352v234h352v380h-353v235h353v365h256v-365h352v-235h-352v-380h353v-234z" />
<glyph unicode="&#x2022;" d="M928 851q0 -194 -107.5 -296.5t-291.5 -102.5t-291 102.5t-107 296.5t107 296t291 102t291.5 -102t107.5 -296z" />
<glyph unicode="&#x2026;" d="M1000 138q0 -75 -37.5 -116.5t-101.5 -41.5q-65 0 -102 41.5t-37 116.5q0 64 37 111t102 47q64 0 101.5 -47t37.5 -111zM669 138q0 -75 -37.5 -116.5t-101.5 -41.5q-65 0 -102 41.5t-37 116.5q0 64 37 111t102 47q64 0 101.5 -47t37.5 -111zM338 138q0 -75 -37.5 -116.5 t-101.5 -41.5q-65 0 -102 41.5t-37 116.5q0 64 37 111t102 47q64 0 101.5 -47t37.5 -111z" />
<glyph unicode="&#x202f;" horiz-adv-x="418" />
<glyph unicode="&#x2030;" d="M362 1115h-228v465h228v-465zM885 1580l-624 -1580h-239l631 1580h232zM1037 0h-198v465h198v-465zM727 0h-198v465h198v-465z" />
<glyph unicode="&#x2039;" d="M885 124h-299l-412 478l412 478h299l-403 -478z" />
<glyph unicode="&#x203a;" d="M578 602l-403 478h299l412 -478l-412 -478h-299z" />
<glyph unicode="&#x2044;" d="M1060 1518l-915 -1541l-145 93l908 1531z" />
<glyph unicode="&#x205f;" horiz-adv-x="523" />
<glyph unicode="&#x20ac;" d="M987 194q-146 -214 -387 -214q-179 0 -292 114t-113 325v97h-123v215h123v129h-123v215h123v87q0 211 113 325.5t292 114.5q241 0 387 -216l-209 -143q-75 122 -177 122q-66 0 -97.5 -47t-31.5 -144v-99h371v-215h-371v-129h371v-215h-371v-109q0 -97 31.5 -144t97.5 -47 q102 0 177 121z" />
<glyph unicode="&#x2122;" d="M1013 710h-169v197l40 420l-97 -302h-69l-98 302l40 -420v-197h-169v870h169l92 -294l92 294h169v-870zM437 1431h-101v-721h-189v721h-100v149h390v-149z" />
<glyph unicode="&#x2212;" d="M980 672h-900v238h900v-238z" />
<glyph unicode="&#x25fc;" horiz-adv-x="1170" d="M0 1170h1170v-1170h-1170v1170z" />
<glyph unicode="&#xf420;" d="M359 88v-88h-276v88q0 228 79 573l180 789h376l180 -789q79 -345 79 -573v-88h-276v88q0 122 -15 260h-313q-14 -138 -14 -260zM530 1258l-122 -673h244z" />
<glyph unicode="&#xf440;" d="M796 0q-6 105 -62 200l-9 -24q-80 -196 -300 -196q-165 0 -258.5 121.5t-93.5 308.5q0 256 244 475q-134 228 -134 374q0 153 95.5 248t229.5 95q146 0 236.5 -90t90.5 -223q0 -197 -241 -407l117 -194l66 162h240l-162 -402l52 -85q92 -151 103 -336l2 -27h-216z M445 225q58 0 94 89l51 122l-149 245q-108 -95 -108 -261q0 -94 29.5 -144.5t82.5 -50.5zM588 1259q0 49 -19 77.5t-59 28.5q-36 0 -58.5 -30t-22.5 -86q0 -93 50 -179q109 100 109 189z" />
<glyph unicode="&#xf441;" d="M836 422l198 -357v-65h-228l-91 164q-83 -184 -280 -184q-155 0 -257 126.5t-102 334.5q0 293 211 498l-38 68q-67 122 -67 232q0 154 103.5 258.5t273.5 104.5q221 0 347 -206l-209 -143q-53 112 -137 112q-60 0 -90.5 -39.5t-30.5 -106.5q0 -79 58 -184l188 -338 l63 205h214v-65zM442 225q81 0 119 124l18 61l-167 302q-79 -96 -79 -272q0 -105 31.5 -160t77.5 -55z" />
<glyph unicode="&#xf480;" d="M370 530l278 960h286v-1490h-278v277q0 333 33 683l-278 -960h-286v1490h278v-277q0 -333 -33 -683z" />
<glyph unicode="&#xf481;" d="M258 255l134 319l-217 502q-87 208 -94 324l-5 90h276l5 -84q4 -71 81 -278l94 -247l91 243q75 199 80 282l5 84h276l-6 -90q-5 -121 -93 -328l-357 -831q-34 -79 -42 -190l-3 -51h-276l3 51q6 108 48 204z" />
<glyph unicode="&#xf482;" d="M953 1252h-458v-1252h-279v1490h737v-238z" />
<glyph unicode="&#xf500;" d="M759 1335h-224l-236 245h280z" />
<glyph unicode="&#xf501;" d="M479 1580h280l-236 -245h-224z" />
<glyph unicode="&#xf502;" d="M629 -159q0 -82 -77 -206h-114q49 69 67 140q-33 1 -57 27t-24 61q0 34 24 60.5t75 26.5q46 0 76 -31.5t30 -77.5z" />
<glyph unicode="&#xf504;" d="M530 1320q-357 0 -367 260h214q3 -99 153 -99t153 99h214q-10 -260 -367 -260z" />
<glyph unicode="&#xf6c3;" d="M265 1315l275 265h274l-219 -265h-330z" />
<glyph unicode="&#xff21;" d="M359 88v-88h-276v88q0 228 79 573l188 829h359l189 -829q79 -345 79 -573v-88h-276v88q0 122 -15 260h-313q-14 -138 -14 -260zM530 1258l-122 -673h244z" />
<glyph unicode="&#xff23;" d="M1001 219q-147 -239 -397 -239q-202 0 -314.5 114t-112.5 434v442q0 298 115 419t312 121q250 0 397 -239l-209 -143q-74 135 -188 135q-77 0 -113 -56.5t-36 -200.5v-523q0 -143 36 -200t113 -57q114 0 188 136z" />
<glyph unicode="&#xff24;" d="M929 528q0 -299 -112.5 -413.5t-324.5 -114.5h-361v1490h361q212 0 324.5 -114.5t112.5 -412.5v-435zM651 503v485q0 152 -45.5 203t-134.5 51h-63v-994h63q89 0 134.5 51.5t45.5 203.5z" />
<glyph unicode="&#xff25;" d="M944 0h-788v1490h788v-238h-510v-351h366v-238h-366v-425h510v-238z" />
<glyph unicode="&#xff27;" d="M935 507q0 -299 -113 -413t-292 -114t-292 114t-113 413v475q0 299 113 413.5t292 114.5q248 0 385 -216l-209 -143q-64 112 -168 112q-67 0 -101.5 -57t-34.5 -195v-540q0 -131 26.5 -188t102.5 -57t101 56.5t25 188.5v142h-95v237h373v-343z" />
<glyph unicode="&#xff28;" d="M934 0h-278v685h-253v-685h-278v1490h278v-567h253v567h278v-1490z" />
<glyph unicode="&#xff29;" d="M876 0h-692v228h207v1034h-164v228h606v-228h-164v-1034h207v-228z" />
<glyph unicode="&#xff2a;" d="M883 485q0 -277 -113 -391t-292 -114t-292 114t-113 391v221h278v-226q0 -141 30 -202.5t96 -61.5t97 62t31 202v1010h278v-1005z" />
<glyph unicode="&#xff2b;" d="M418 1490v-614l57 84q171 251 215 494l6 36h276l-8 -53q-52 -287 -244 -571q220 -375 290 -796l10 -70h-286l-8 55q-64 381 -201 615l-107 -157v-513h-278v1490h278z" />
<glyph unicode="&#xff2c;" d="M987 0h-788v1490h278v-1252h510v-238z" />
<glyph unicode="&#xff2e;" d="M914 0h-264l-312 980q33 -330 33 -703v-277h-226v1490h266l310 -980q-33 330 -33 703v277h226v-1490z" />
<glyph unicode="&#xff2f;" d="M938 507q0 -299 -113 -413t-295 -114t-295 114t-113 413v475q0 299 113 413.5t295 114.5t295 -114.5t113 -413.5v-475zM660 473v543q0 132 -26 189t-105 57t-104 -56.5t-25 -189.5v-543q0 -131 26 -188t105 -57t104 56.5t25 188.5z" />
<glyph unicode="&#xff32;" d="M991 0h-275l-4 57q-29 397 -166 584h-111v-641h-278v1490h405q190 0 292.5 -109t102.5 -316q0 -272 -177 -373q180 -245 207 -622zM678 1065q0 85 -30.5 137t-117.5 52h-95v-377h95q87 0 117.5 52t30.5 136z" />
<glyph unicode="&#xff33;" d="M980 399q0 -181 -112 -300t-334 -119q-267 0 -424 250l209 143q94 -147 224 -147q76 0 118 39.5t42 112.5q0 82 -90 156l-291 236q-162 132 -162 320q0 191 109.5 305.5t294.5 114.5q240 0 387 -206l-209 -143q-83 102 -167 102q-65 0 -101.5 -36t-36.5 -104 q0 -71 90 -144l273 -222q180 -146 180 -358z" />
<glyph unicode="&#xff34;" d="M964 1252h-295v-1252h-278v1252h-295v238h868v-238z" />
<glyph unicode="&#xff35;" d="M935 464q0 -256 -113 -370t-292 -114t-292 114t-113 370v1026h278v-1059q0 -109 29.5 -161t96.5 -52q66 0 97 52t31 161v1059h278v-1026z" />
<glyph unicode="&#xff37;" d="M586 914l131 -636v1212h258v-291q0 -379 -50 -731l-66 -468h-217l-112 532l-112 -532h-217l-66 468q-50 352 -50 731v291h258v-1212l131 636h112z" />
<glyph unicode="&#xff39;" d="M530 843l74 146q76 149 90 428l2 73h276l-2 -73q-14 -287 -147 -547l-154 -301v-569h-278v569l-154 301q-133 260 -147 547l-2 73h276l2 -73q14 -279 90 -428z" />
<glyph unicode="&#xff3a;" d="M916 1490v-150q0 -268 -122 -449l-277 -407q-68 -101 -68 -246h477v-238h-752v150q0 264 122 447l277 409q68 98 68 246h-457v238h732z" />
<glyph unicode="&#xff4c;" d="M890 0h-700v228h212v1034h-172v228h450v-1262h210v-228z" />
<glyph unicode="&#x1d504;" d="M709 790h-361v-790l-136 -130h-40v1333l136 87h40v-350h361v387l-549 115v40l103 120l623 -131v-1169l70 -280l-166 -42l-81 289v521z" />
<glyph unicode="&#x1d505;" d="M387 946l351 277v104l-612 116v40l104 119l686 -129v-267l-341 -268l361 -78v-627l-319 -253l-486 92v40l80 61v1030l136 87h40v-344zM387 204l252 -49l119 92v477l-371 80v-600z" />
<glyph unicode="&#x1d506;" d="M970 1507v-40l-113 -113l-377 74l-79 -63v-1120l569 -106v-40l-104 -119l-641 119v1285l277 218z" />
<glyph unicode="&#x1d507;" d="M131 72v40l85 64v1027l136 87h40v-1094l206 -42l166 133v1036l-633 120v40l104 119l705 -133v-1201l-364 -288z" />
<glyph unicode="&#x1d508;" d="M865 950v-160h-484v-545l559 -106v-40l-104 -119l-631 114v1290l278 218l457 -93v-40l-113 -113l-361 72l-85 -63v-535l149 120h335z" />
<glyph unicode="&#x1d509;" d="M395 790h-259v40l113 110h146v360l136 130h-415v40l115 110h709v-40l-115 -110h-254v-490h369v-150h-369v-1035l-136 -130h-40v1165z" />
<glyph unicode="&#x1d50a;" d="M357 214l298 -60l85 62v564h-254v40l149 120h365v-40l-84 -68v-634l-278 -218l-457 93v1311l277 218l458 -93v-40l-113 -113l-363 72l-83 -62v-1152z" />
<glyph unicode="&#x1d50b;" d="M163 0v1384l277 218l448 -91v-40l-113 -113l-352 70l-84 -62v-499l265 209l294 -117v-959l-135 -129h-40v956l-156 61l-228 -180v-708h-176z" />
<glyph unicode="&#x1d50c;" d="M920 940v-150h-119v-592l-277 -218l-467 95v40l113 113l375 -74l81 62v574h-334v40l113 110h221v395l-569 108v40l104 119l641 -121l-1 -541h119z" />
<glyph unicode="&#x1d50d;" d="M920 940v-150h-119v-947l-277 -218l-467 95v40l113 113l375 -74l81 62v929h-334v40l113 110h221v395l-569 108v40l104 119l640 -121v-541h119z" />
<glyph unicode="&#x1d50e;" d="M347 1080l93 114l456 -164v-143l-360 -285l360 -78v-524h-175v388l-374 80v-468h-176v1384l277 218l448 -91v-40l-113 -113l-352 70l-84 -62v-755l374 295l-374 134v40z" />
<glyph unicode="&#x1d50f;" d="M961 1521v-40l-113 -113l-302 60l-84 -62v-1086l-136 -130h654v-40l-115 -110h-744v40l114 110h50v1234l278 218z" />
<glyph unicode="&#x1d510;" d="M291 1433l206 169l150 -148l180 148l150 -148v-1454h-153l-1 1378h-176v-1378h-154v1378h-176v-1378h-154v1315l-70 225l144 62z" />
<glyph unicode="&#x1d511;" d="M712 1353l-155 62l-208 -165v-1250h-176v1280l-70 280l166 42l59 -210l266 210l294 -117v-1485h-176v1353z" />
<glyph unicode="&#x1d512;" d="M163 112v1241l315 249l419 -135v-1230l-325 -257zM456 1426l-117 -92v-1098l256 -80l126 99v1088z" />
<glyph unicode="&#x1d513;" d="M202 0h-114v40l114 110v1053l136 87h40v-1130h352v1167l-613 116v40l104 119l685 -127v-1235l-214 -240h-314v-155l-136 -220h-40v375z" />
<glyph unicode="&#x1d514;" d="M721 60h176v-425h-176v425zM163 112v1246l315 244l419 -135v-1235l-325 -252zM416 1438l-77 -60v-1142l295 -92l87 68v1131z" />
<glyph unicode="&#x1d515;" d="M87 1443v40l104 119l685 -129v-318l-340 -268l360 -78v-809h-176v673l-372 80v-753h-176v1203l136 87h40v-395l352 279v153z" />
<glyph unicode="&#x1d516;" d="M758 741l-186 103l-116 -140l-331 184v426l364 288l445 -89v-40l-113 -113l-354 68l-166 -134v-283l199 -110l118 138l316 -175v-596l-364 -288l-445 89v40l113 113l354 -68l166 132v455z" />
<glyph unicode="&#x1d517;" d="M398 1300l136 130h-474v40l115 110h820v-40l-115 -110h-306v-1213l420 -78v-40l-104 -119l-492 91v1229z" />
<glyph unicode="&#x1d518;" d="M349 229l155 -62l208 165v1248h176v-1278l70 -280l-166 -42l-59 210l-266 -210l-294 117v1483h176v-1351z" />
<glyph unicode="&#x1d519;" d="M356 1392l266 210l294 -117v-1205l-379 -300l-336 133v1166l-70 281l166 42zM377 246l198 -79l165 131v1055l-201 80l-162 -128v-1059z" />
<glyph unicode="&#x1d51a;" d="M805 165v1198l-176 74v-1198zM299 239l176 -74v1198l-176 74v-1198zM75 1540l154 62l70 -125l82 125l248 -125l74 125l256 -125v-1197l-236 -300l-248 125l-74 -125l-256 125v1277z" />
<glyph unicode="&#x1d51b;" d="M441 940v374l-396 131v40l77 117l408 -135l87 135l397 -131v-40l-79 -119l-318 106v-478h320v-40l-115 -110h-205v-522l397 -131v-40l-77 -117l-408 135l-87 -135l-397 131v40l78 119l318 -106v626h-318v40l115 110h203z" />
<glyph unicode="&#x1d51c;" d="M898 1580v-1737l-277 -218l-458 93v40l113 113l362 -72l84 62v469l-239 -190l-320 128v1312h175v-1180l182 -73l202 161v1092h176z" />
<glyph unicode="&#x1d51d;" d="M71 -232l113 113l408 -82l83 62v894l-396 87v40l338 548h-546v40l115 110h666v-40l-344 -560l344 -76v-1061l-277 -218l-504 103v40z" />
<glyph unicode="&#x1d51e;" d="M163 945l315 249l419 -135v-757l70 -280l-166 -42l-41 147l-188 -147l-409 132v833zM339 236l256 -80l126 99v680l-265 83l-117 -92v-690z" />
<glyph unicode="&#x1d51f;" d="M907 229l-315 -249l-419 135v1465h176v-502l149 116l409 -132v-833zM731 938l-256 80l-126 -99v-680l265 -83l117 92v690z" />
<glyph unicode="&#x1d520;" d="M930 1101v-40l-113 -113l-340 72l-116 -94v-681l569 -106v-40l-104 -119l-641 119v846l314 249z" />
<glyph unicode="&#x1d521;" d="M927 229l-315 -249l-419 135v824l292 229l-349 304l119 130l672 -590v-783zM751 938l-170 147l-212 -166v-680l265 -83l117 92v690z" />
<glyph unicode="&#x1d522;" d="M907 139v-40l-104 -119l-630 119v840l325 255l409 -132v-296l-558 -486v-35zM731 778v160l-256 80l-126 -99v-471z" />
<glyph unicode="&#x1d523;" d="M266 1107h86v239l324 256l293 -61v-40l-113 -113l-202 39l-126 -100v-220h395v-150h-395v-1202l-136 -130h-40v1332h-199v40z" />
<glyph unicode="&#x1d524;" d="M173 -200l113 113l328 -113l116 92v197l-138 -109l-419 135v827l325 252l409 -132v-1192l-315 -245l-419 135v40zM730 938l-255 80l-126 -99v-680l265 -83l116 91v691z" />
<glyph unicode="&#x1d525;" d="M349 0h-176v1580h176v-595l264 209l294 -117v-1077l-135 -129h-41v1074l-155 61l-227 -180v-826z" />
<glyph unicode="&#x1d526;" d="M638 230l276 -93v-40l-77 -117l-309 102l-66 -102l-276 93v40l77 117l198 -68v798l-231 77v40l77 117l331 -109v-855zM693 1528l-75 -222l-221 74l74 222z" />
<glyph unicode="&#x1d527;" d="M30 -243l113 113l362 -71l79 62v1099l-231 77v40l77 117l331 -109v-1242l-277 -218l-454 92v40zM816 1528l-75 -222l-221 74l74 222z" />
<glyph unicode="&#x1d528;" d="M377 212l394 -73v-40l-104 -119l-467 86l1 1514h176v-500l93 114l456 -164v-143l-368 -291h395v-151h-576v-233zM751 906l-374 134v-429z" />
<glyph unicode="&#x1d529;" d="M638 230l276 -93v-40l-77 -117l-309 102l-66 -102l-276 93v40l77 117l198 -68v1206l-231 77v40l77 117l331 -109v-1263z" />
<glyph unicode="&#x1d52a;" d="M291 1025l206 169l150 -148l180 148l150 -148v-1046h-153l-1 970h-176v-970h-154v970h-176v-970h-154v907l-70 225l144 62z" />
<glyph unicode="&#x1d52b;" d="M349 0h-176v868l-70 282l166 42l63 -221l281 223l294 -117v-1077h-176v945l-155 61l-227 -180v-826z" />
<glyph unicode="&#x1d52c;" d="M897 229l-315 -249l-419 135v824l325 255l409 -132v-833zM721 938l-256 80l-126 -99v-680l265 -83l117 92v690z" />
<glyph unicode="&#x1d52d;" d="M927 229l-315 -249l-243 78v-422h-176v1232l-70 282l166 44l63 -223l282 223l293 -117v-848zM751 945l-155 61l-227 -180v-587l265 -83l117 92v697z" />
<glyph unicode="&#x1d52e;" d="M173 945l315 249l419 -135v-1424h-176v461l-149 -116l-409 132v833zM349 236l256 -80l126 99v680l-265 83l-117 -92v-690z" />
<glyph unicode="&#x1d52f;" d="M222 868l-70 282l166 42l63 -221l281 223l305 -121v-40l-113 -113l-229 86l-227 -180v-617l375 -70v-40l-104 -119l-447 83v805z" />
<glyph unicode="&#x1d530;" d="M748 496l-166 92l-116 -140l-292 162v327l325 257l425 -86v-40l-113 -113l-334 65l-127 -103v-184l160 -88l118 138l296 -164v-367l-344 -272l-445 89v40l113 113l354 -68l146 116v226z" />
<glyph unicode="&#x1d531;" d="M130 1062l113 110h86v278l136 130h40v-408h395v-150h-395v-810l395 -73v-40l-104 -119l-467 86v956h-199v40z" />
<glyph unicode="&#x1d532;" d="M711 1172h176v-868l70 -282l-166 -42l-63 221l-281 -223l-294 117v1077h176v-945l155 -61l227 180v826z" />
<glyph unicode="&#x1d533;" d="M356 984l266 210l294 -117v-797l-379 -300l-336 133v758l-70 281l166 42zM377 246l198 -79l165 131v647l-201 80l-162 -128v-651z" />
<glyph unicode="&#x1d534;" d="M805 165v790l-176 74v-790zM299 239l176 -74v790l-176 74v-790zM75 1132l154 62l70 -125l82 125l248 -125l74 125l256 -125v-789l-236 -300l-248 125l-74 -125l-256 125v869z" />
<glyph unicode="&#x1d535;" d="M441 690v216l-396 131v40l77 117l408 -135l87 135l397 -131v-40l-79 -119l-318 106v-320h320v-40l-115 -110h-205v-272l397 -131v-40l-77 -117l-408 135l-87 -135l-397 131v40l78 119l318 -106v376h-318v40l115 110h203z" />
<glyph unicode="&#x1d536;" d="M898 1172l-1 -1302l-315 -245l-419 135v40l113 113l328 -113l116 92l2 197l-140 -109l-419 135v1057h175l1 -933l265 -83l116 91l2 925h176z" />
<glyph unicode="&#x1d537;" d="M71 -232l113 113l412 -82l79 63v485l-396 87v40l338 548h-546v40l115 110h666v-40l-344 -560l344 -76v-653l-277 -218l-504 103v40z" />
<glyph unicode="&#x1d56c;" d="M648 517h-203v-439l-220 -208h-60v1268l230 148h50v-552h203v533l-568 113v40l162 182l687 -136v-1160l62 -240l-268 -86l-75 247v290z" />
<glyph unicode="&#x1d56d;" d="M107 1379v40l165 183l664 -133v-372l-229 -181l249 -89v-557l-384 -290l-465 93v40l85 83v940l230 148h50v-375l183 145v216zM472 234h203v444l-203 75v-519z" />
<glyph unicode="&#x1d56e;" d="M1000 1500v-40l-181 -181l-333 72v-1035l514 -103v-40l-169 -193l-626 127v1262l297 233z" />
<glyph unicode="&#x1d56f;" d="M111 73v40l85 86v937l230 148h50v-1040h203v1021l-568 114v40l161 183l688 -138v-1195l-384 -289z" />
<glyph unicode="&#x1d570;" d="M990 955v-40l-188 -197h-326v-404l514 -103v-40l-169 -191l-626 125v1265l297 232l498 -102v-40l-182 -181l-332 72v-539l127 143h387z" />
<glyph unicode="&#x1d571;" d="M285 738h-179v40l179 187v204l213 162h-392v40l185 209h672v-40l-185 -209h-212v-376h397v-40l-169 -177h-228v-905l-211 -198h-70v1103z" />
<glyph unicode="&#x1d572;" d="M446 254h223v484h-159v40l155 177h369v-40l-84 -94v-545l-394 -296l-391 81v1306l297 235l488 -100v-40l-182 -181l-322 68v-1095z" />
<glyph unicode="&#x1d573;" d="M178 -20l-40 129v1260l297 233l488 -100v-40l-182 -181l-322 71v-421l154 149l350 -140v-775l27 -100l-268 -85l-40 129v686h-223v-630l26 -100z" />
<glyph unicode="&#x1d574;" d="M403 955h138v324l-494 100v40l162 183l613 -124v-523h160v-40l-160 -167v-552l-278 -218l-497 101v40l181 181l313 -66v504h-306v40z" />
<glyph unicode="&#x1d575;" d="M403 955h138v324l-494 100v40l162 183l613 -124v-523h160v-40l-160 -167v-905l-278 -218l-497 101v40l181 181l313 -66v857h-306v40z" />
<glyph unicode="&#x1d576;" d="M546 1194l381 -142v-175l-254 -184l269 -86v-442l27 -100l-268 -85l-40 129v350l-229 68v-362l27 -100l-268 -85l-40 129v1270l285 223l476 -97v-40l-182 -181l-298 65v-294zM694 882l-262 103v-292z" />
<glyph unicode="&#x1d577;" d="M990 1505v-40l-182 -181l-292 62v-928l-150 -169h624v-40l-185 -209h-714v40l144 165v1179l278 218z" />
<glyph unicode="&#x1d578;" d="M313 1432l170 170l167 -170l155 170l172 -170v-1272l33 -122l-204 -58l-40 129v1226h-111v-1175l33 -122l-204 -58l-40 129v1226h-111v-1175l33 -122l-204 -58l-40 129v1186l-66 254l201 53z" />
<glyph unicode="&#x1d579;" d="M627 1317h-193v-1152l27 -100l-268 -85l-40 129v1171l-62 238l268 84l51 -162l163 162l335 -134v-1303l27 -100l-268 -85l-40 129v1208z" />
<glyph unicode="&#x1d57a;" d="M143 136v1240l300 226l474 -157v-1237l-300 -228zM423 1364v-1072l213 -75v1073z" />
<glyph unicode="&#x1d57b;" d="M180 0h-124v40l124 139v955l241 155h40v-1040h183v1021l-548 110v40l161 182l668 -133v-1240l-205 -229h-259v-145l-241 -230h-40v375z" />
<glyph unicode="&#x1d57c;" d="M646 -20h271v-345h-271v345zM143 136v1240l300 226l474 -157v-1237l-300 -228zM423 1364v-1072l213 -75v1073z" />
<glyph unicode="&#x1d57d;" d="M67 1379v40l161 183l668 -134v-494l-229 -180l249 -89v-540l27 -100l-268 -85l-40 129v447l-203 75v-466l27 -100l-268 -85l-40 129v1031l231 148h50v-501l183 145v337z" />
<glyph unicode="&#x1d57e;" d="M662 755l-98 46l-136 -156l-314 152v523l374 282l455 -93v-40l-181 -180l-367 77v-402l95 -44l136 156l317 -153v-661l-374 -282l-455 93v40l181 180l367 -77v539z" />
<glyph unicode="&#x1d57f;" d="M365 1162l153 169h-483v40l185 209h790v-40l-185 -209h-179v-1053l364 -74v-40l-160 -184l-485 99v1083z" />
<glyph unicode="&#x1d580;" d="M433 284h193v1133l-27 100l268 85l40 -129v-1168l62 -240l-268 -85l-51 162l-163 -162l-335 132v1305l-27 100l268 85l40 -129v-1189z" />
<glyph unicode="&#x1d581;" d="M439 1449l182 153l310 -149v-1191l-374 -282l-371 147v1148l-62 240l268 85zM467 267h183v1067h-183v-1067z" />
<glyph unicode="&#x1d582;" d="M768 259v1076h-111v-1076h111zM335 259h111v1076h-111v-1076zM58 1549l195 53l56 -170l175 170l163 -170l159 170l173 -170v-1178l-276 -274l-198 124l-124 -124l-257 159v1156z" />
<glyph unicode="&#x1d583;" d="M389 955v245l-354 172v40l159 190l363 -176l154 176l313 -151v-40l-176 -200l-178 85v-351h297v-40l-155 -177h-142v-346l354 -172v-40l-159 -190l-363 176l-154 -176l-313 151v40l176 200l178 -85v452h-296v40l155 177h141z" />
<glyph unicode="&#x1d584;" d="M877 1602l40 -129v-1619l-291 -229l-482 98v40l181 180l311 -64v402l-148 -141l-344 138v1139l-27 100l269 85l39 -129v-1028h211v972l-27 100z" />
<glyph unicode="&#x1d585;" d="M61 -228l181 180l379 -71v886l-332 65v40l287 459h-515v40l185 209h656v-40l-289 -492l289 -61v-1144l-277 -218l-564 107v40z" />
<glyph unicode="&#x1d586;" d="M143 968l300 226l473 -157v-735l62 -240l-268 -82l-62 202l-207 -202l-298 137v851zM424 265h211v607l-211 73v-680z" />
<glyph unicode="&#x1d587;" d="M931 243l-350 -263l-424 140v1297l-27 100l268 85l39 -128v-421l149 141l345 -138v-813zM650 919h-213v-614l213 -74v688z" />
<glyph unicode="&#x1d588;" d="M982 1087v-40l-170 -164l-364 84v-662l534 -111v-40l-160 -174l-655 136v845l297 233z" />
<glyph unicode="&#x1d589;" d="M947 243l-350 -263l-424 138v843l247 185l-280 253l177 203l630 -558v-801zM666 964h-213v-660l213 -71v731z" />
<glyph unicode="&#x1d58a;" d="M932 196v-40l-156 -176l-628 127v861l300 226l484 -160v-268l-504 -475zM651 734v151l-223 78v-441z" />
<glyph unicode="&#x1d58b;" d="M1016 1025v-40l-150 -153l-271 79v-1068l-221 -208h-60v1191l-261 76v40l150 153l111 -32v283l324 256l379 -83v-40l-182 -181l-240 57v-208z" />
<glyph unicode="&#x1d58c;" d="M151 -236l167 164l327 -69v346l-196 -185l-298 137v811l300 226l475 -157v-1184l-292 -228l-483 99v40zM645 872l-213 75v-642h213v567z" />
<glyph unicode="&#x1d58d;" d="M194 -20l-40 129v1308l-27 100l268 85l40 -129v-424l148 145l344 -138v-894l27 -100l-268 -82l-40 129v810h-211v-757l27 -100z" />
<glyph unicode="&#x1d58e;" d="M707 352l313 -152v-40l-158 -180l-333 177l-147 -177l-312 149v40l158 179l199 -96v676l-297 80v40l174 146l403 -98v-744zM771 1580l-99 -291l-290 97l98 291z" />
<glyph unicode="&#x1d58f;" d="M541 911l-365 96v40l172 147l474 -115v-1236l-278 -218l-525 106v40l166 165l356 -75v1050zM885 1580l-99 -291l-290 97l98 291z" />
<glyph unicode="&#x1d590;" d="M471 260l372 -72v-40l-145 -168l-508 102v1498h281v-525l114 139l381 -142v-175l-355 -265h382v-197h-522v-155zM733 882l-262 103v-292z" />
<glyph unicode="&#x1d591;" d="M707 352l313 -152v-40l-158 -180l-333 177l-147 -177l-312 149v40l158 179l199 -97v1088l-297 77v40l174 146l403 -98v-1152z" />
<glyph unicode="&#x1d592;" d="M313 1024l170 170l167 -170l155 170l172 -170v-864l33 -122l-204 -58l-40 129v818h-111v-767l33 -122l-204 -58l-40 129v818h-111v-767l33 -122l-204 -58l-40 129v778l-66 254l201 53z" />
<glyph unicode="&#x1d593;" d="M627 919h-193v-757l27 -100l-268 -82l-40 129v762l-62 238l268 85l52 -162l172 162l325 -129v-903l27 -100l-268 -82l-40 129v810z" />
<glyph unicode="&#x1d594;" d="M143 136v832l300 226l474 -157v-829l-300 -228zM423 956v-664l213 -75v665z" />
<glyph unicode="&#x1d595;" d="M908 238l-260 -258l-214 81v-254l27 -100l-268 -82l-40 129v1117l-62 238l268 85l52 -162l172 162l325 -129v-827zM627 919h-193v-619l193 -65v684z" />
<glyph unicode="&#x1d596;" d="M128 968l300 226l475 -157v-1227l27 -100l-268 -85l-40 129v369l-149 -143l-345 139v849zM409 265h213v606l-213 74v-680z" />
<glyph unicode="&#x1d597;" d="M222 864l-62 244l268 86l49 -157l160 155l359 -143v-40l-168 -166l-269 116l-56 -54v-648l342 -68v-40l-144 -169l-479 98v786z" />
<glyph unicode="&#x1d598;" d="M647 475l-126 62l-84 -96l-308 148v379l305 226l494 -105v-40l-181 -180l-337 88v-248l112 -53l85 98l321 -159v-387l-300 -228l-499 110v40l183 182l335 -95v258z" />
<glyph unicode="&#x1d599;" d="M995 1114v-40l-150 -153l-212 62v-723l362 -72v-40l-143 -168l-500 101v826l-278 81v40l150 153l128 -38v229l221 208h60v-361z" />
<glyph unicode="&#x1d59a;" d="M433 264h193v745l-27 100l268 85l40 -129v-760l62 -240l-268 -85l-49 155l-165 -155l-335 132v897l-27 100l268 85l40 -129v-801z" />
<glyph unicode="&#x1d59b;" d="M442 1038l164 156l325 -129v-803l-374 -282l-371 147v740l-62 242l268 85zM467 257h183v672h-183v-672z" />
<glyph unicode="&#x1d59c;" d="M768 259v668h-111v-668h111zM335 259h111v668h-111v-668zM58 1141l195 53l56 -170l175 170l163 -170l159 170l173 -170v-770l-276 -274l-198 124l-124 -124l-257 159v748z" />
<glyph unicode="&#x1d59d;" d="M394 714v119l-320 156v39l143 166l325 -156l135 156l308 -145v-40l-157 -178l-163 78v-215h224v-40l-141 -157h-83v-156l320 -155v-40l-143 -166l-325 156l-135 -156l-308 145v40l157 178l163 -78v252h-224v40l140 157h84z" />
<glyph unicode="&#x1d59e;" d="M877 1194l40 -129v-1211l-291 -229l-482 98v40l167 166l325 -72v347l-194 -183l-298 137v851l-27 100l269 85l39 -129v-760h211v704l-27 100z" />
<glyph unicode="&#x1d59f;" d="M51 -227l164 163l406 -75v498l-332 65v40l289 459h-527v40l187 209h664v-40l-289 -492l289 -61v-736l-277 -218l-574 108v40z" />
</font>
</defs>
</svg>
